<svg xmlns="http://www.w3.org/2000/svg" xmlns:xlink="http://www.w3.org/1999/xlink" width="360" zoomAndPan="magnify" viewBox="0 0 270 149.999998" height="200" preserveAspectRatio="xMidYMid meet" version="1.0"><defs><clipPath id="bcb459ca01"><path d="M 138 1.503906 L 217 1.503906 L 217 79 L 138 79 Z M 138 1.503906 " clip-rule="nonzero"/></clipPath><clipPath id="fb4f7f51ea"><path d="M 30.109375 28 L 228.859375 28 L 228.859375 148.503906 L 30.109375 148.503906 Z M 30.109375 28 " clip-rule="nonzero"/></clipPath><clipPath id="507c526982"><path d="M 30.109375 64 L 228.859375 64 L 228.859375 148.503906 L 30.109375 148.503906 Z M 30.109375 64 " clip-rule="nonzero"/></clipPath></defs><g clip-path="url(#bcb459ca01)"><path fill="#000000" d="M 216.152344 40.019531 C 216.152344 41.277344 216.089844 42.539062 215.96875 43.792969 C 215.84375 45.046875 215.660156 46.292969 215.410156 47.53125 C 215.164062 48.769531 214.859375 49.992188 214.492188 51.199219 C 214.125 52.40625 213.699219 53.589844 213.214844 54.757812 C 212.730469 55.921875 212.191406 57.0625 211.597656 58.171875 C 211 59.285156 210.351562 60.367188 209.648438 61.414062 C 208.949219 62.464844 208.195312 63.476562 207.394531 64.453125 C 206.59375 65.425781 205.746094 66.359375 204.851562 67.25 C 203.957031 68.144531 203.023438 68.988281 202.042969 69.789062 C 201.066406 70.589844 200.054688 71.339844 199.003906 72.042969 C 197.953125 72.742188 196.871094 73.390625 195.753906 73.984375 C 194.640625 74.578125 193.5 75.117188 192.332031 75.601562 C 191.164062 76.082031 189.976562 76.507812 188.765625 76.875 C 187.554688 77.242188 186.332031 77.546875 185.09375 77.792969 C 183.851562 78.039062 182.605469 78.222656 181.347656 78.347656 C 180.089844 78.472656 178.828125 78.53125 177.5625 78.53125 C 176.300781 78.53125 175.039062 78.472656 173.78125 78.347656 C 172.523438 78.222656 171.273438 78.039062 170.035156 77.792969 C 168.796875 77.546875 167.570312 77.242188 166.363281 76.875 C 165.152344 76.507812 163.964844 76.082031 162.796875 75.601562 C 161.628906 75.117188 160.488281 74.578125 159.371094 73.984375 C 158.257812 73.390625 157.175781 72.742188 156.125 72.042969 C 155.074219 71.339844 154.058594 70.589844 153.082031 69.789062 C 152.105469 68.988281 151.171875 68.144531 150.277344 67.25 C 149.382812 66.359375 148.535156 65.425781 147.734375 64.453125 C 146.929688 63.476562 146.179688 62.464844 145.476562 61.414062 C 144.773438 60.367188 144.125 59.285156 143.53125 58.171875 C 142.933594 57.0625 142.394531 55.921875 141.910156 54.757812 C 141.425781 53.589844 141.003906 52.40625 140.636719 51.199219 C 140.269531 49.992188 139.960938 48.769531 139.714844 47.53125 C 139.46875 46.292969 139.285156 45.046875 139.160156 43.792969 C 139.035156 42.539062 138.972656 41.277344 138.972656 40.019531 C 138.972656 38.757812 139.035156 37.496094 139.160156 36.242188 C 139.285156 34.988281 139.46875 33.742188 139.714844 32.503906 C 139.960938 31.265625 140.269531 30.042969 140.636719 28.835938 C 141.003906 27.628906 141.425781 26.445312 141.910156 25.277344 C 142.394531 24.113281 142.933594 22.972656 143.53125 21.863281 C 144.125 20.75 144.773438 19.667969 145.476562 18.621094 C 146.179688 17.570312 146.929688 16.558594 147.734375 15.582031 C 148.535156 14.609375 149.382812 13.675781 150.277344 12.785156 C 151.171875 11.890625 152.105469 11.046875 153.082031 10.246094 C 154.058594 9.445312 155.074219 8.695312 156.125 7.992188 C 157.175781 7.292969 158.257812 6.644531 159.371094 6.050781 C 160.488281 5.457031 161.628906 4.917969 162.796875 4.433594 C 163.964844 3.953125 165.152344 3.527344 166.363281 3.160156 C 167.570312 2.792969 168.796875 2.488281 170.035156 2.242188 C 171.273438 1.996094 172.523438 1.8125 173.78125 1.6875 C 175.039062 1.5625 176.300781 1.503906 177.5625 1.503906 C 178.828125 1.503906 180.089844 1.5625 181.347656 1.6875 C 182.605469 1.8125 183.851562 1.996094 185.09375 2.242188 C 186.332031 2.488281 187.554688 2.792969 188.765625 3.160156 C 189.976562 3.527344 191.164062 3.953125 192.332031 4.433594 C 193.5 4.917969 194.640625 5.457031 195.753906 6.050781 C 196.871094 6.644531 197.953125 7.292969 199.003906 7.992188 C 200.054688 8.695312 201.066406 9.445312 202.042969 10.246094 C 203.023438 11.046875 203.957031 11.890625 204.851562 12.785156 C 205.746094 13.675781 206.59375 14.609375 207.394531 15.582031 C 208.195312 16.558594 208.949219 17.570312 209.648438 18.621094 C 210.351562 19.667969 211 20.75 211.597656 21.863281 C 212.191406 22.972656 212.730469 24.113281 213.214844 25.277344 C 213.699219 26.445312 214.125 27.628906 214.492188 28.835938 C 214.859375 30.042969 215.164062 31.265625 215.410156 32.503906 C 215.660156 33.742188 215.84375 34.988281 215.96875 36.242188 C 216.089844 37.496094 216.152344 38.757812 216.152344 40.019531 Z M 216.152344 40.019531 " fill-opacity="1" fill-rule="nonzero"/></g><path fill="#ffffff" d="M 194.273438 24.578125 C 194.484375 24.578125 194.695312 24.632812 194.855469 24.789062 C 195.011719 24.949219 195.066406 25.105469 195.066406 25.316406 C 195.066406 25.527344 195.011719 25.6875 194.855469 25.84375 C 194.695312 26.003906 194.539062 26.054688 194.273438 26.054688 C 194.0625 26.054688 193.851562 26.003906 193.695312 25.84375 C 193.535156 25.6875 193.484375 25.527344 193.484375 25.316406 C 193.484375 25.105469 193.535156 24.949219 193.695312 24.789062 C 193.851562 24.632812 194.011719 24.578125 194.273438 24.578125 Z M 168.285156 19.734375 C 168.8125 19.734375 169.285156 19.839844 169.65625 20.101562 C 170.078125 20.363281 170.394531 20.679688 170.605469 21.15625 C 170.816406 21.628906 170.921875 22.105469 170.921875 22.734375 L 170.921875 23 C 170.921875 23.578125 170.816406 24.105469 170.605469 24.578125 C 170.394531 25.054688 170.078125 25.371094 169.65625 25.632812 C 169.234375 25.898438 168.757812 26.003906 168.285156 26.003906 C 167.757812 26.003906 167.285156 25.898438 166.914062 25.632812 C 166.492188 25.371094 166.175781 25.054688 165.964844 24.632812 C 165.753906 24.210938 165.597656 23.683594 165.597656 23.105469 L 165.597656 22.734375 C 165.597656 22.15625 165.703125 21.628906 165.914062 21.15625 C 166.125 20.679688 166.441406 20.363281 166.863281 20.101562 C 167.285156 19.839844 167.757812 19.734375 168.285156 19.734375 Z M 174.242188 19.734375 C 174.769531 19.734375 175.242188 19.839844 175.613281 20.101562 C 176.035156 20.363281 176.351562 20.679688 176.5625 21.15625 C 176.773438 21.628906 176.878906 22.105469 176.878906 22.734375 L 176.878906 23 C 176.878906 23.578125 176.773438 24.105469 176.5625 24.578125 C 176.351562 25.054688 176.035156 25.371094 175.613281 25.632812 C 175.191406 25.898438 174.714844 26.003906 174.242188 26.003906 C 173.714844 26.003906 173.242188 25.898438 172.871094 25.632812 C 172.449219 25.371094 172.132812 25.054688 171.921875 24.632812 C 171.710938 24.210938 171.554688 23.683594 171.554688 23.105469 L 171.554688 22.734375 C 171.554688 22.15625 171.660156 21.628906 171.871094 21.15625 C 172.082031 20.679688 172.398438 20.363281 172.820312 20.101562 C 173.242188 19.839844 173.714844 19.734375 174.242188 19.734375 Z M 179.144531 19.839844 L 179.144531 22.523438 L 179.671875 21.734375 L 180.988281 19.839844 L 182.835938 19.839844 L 180.777344 22.523438 L 182.835938 25.949219 L 181.09375 25.949219 L 179.726562 23.683594 L 179.144531 24.371094 L 179.144531 26.003906 L 177.667969 26.003906 L 177.667969 19.839844 Z M 162.433594 19.839844 C 163.222656 19.839844 163.804688 19.996094 164.226562 20.257812 C 164.648438 20.523438 164.859375 20.945312 164.859375 21.523438 C 164.859375 21.839844 164.804688 22.105469 164.648438 22.3125 C 164.488281 22.523438 164.277344 22.683594 164.015625 22.789062 C 164.332031 22.894531 164.59375 23.050781 164.753906 23.261719 C 164.910156 23.472656 165.015625 23.789062 165.015625 24.105469 C 165.015625 24.683594 164.804688 25.160156 164.4375 25.476562 C 164.066406 25.792969 163.488281 25.949219 162.75 25.949219 L 160.21875 25.949219 L 160.21875 19.839844 Z M 187.316406 19.839844 L 187.316406 20.996094 L 184.574219 20.996094 L 184.574219 22.261719 L 186.894531 22.261719 L 186.894531 23.367188 L 184.574219 23.367188 L 184.574219 24.84375 L 187.316406 24.84375 L 187.316406 25.949219 L 183.097656 25.949219 L 183.097656 19.839844 Z M 189.898438 19.839844 C 190.425781 19.839844 190.902344 19.945312 191.375 20.207031 C 191.796875 20.46875 192.167969 20.785156 192.378906 21.261719 C 192.640625 21.683594 192.746094 22.210938 192.746094 22.734375 L 192.746094 23 C 192.746094 23.578125 192.640625 24.054688 192.378906 24.476562 C 192.167969 24.894531 191.796875 25.265625 191.375 25.527344 C 190.953125 25.792969 190.480469 25.898438 189.953125 25.898438 L 187.949219 25.898438 L 187.949219 19.839844 Z M 168.230469 20.945312 C 167.496094 20.945312 167.125 21.472656 167.074219 22.578125 L 167.074219 23.050781 C 167.074219 23.632812 167.179688 24.105469 167.390625 24.421875 C 167.601562 24.738281 167.863281 24.894531 168.285156 24.894531 C 168.652344 24.894531 168.96875 24.738281 169.128906 24.421875 C 169.339844 24.105469 169.445312 23.632812 169.445312 23.050781 L 169.445312 22.789062 C 169.445312 22.210938 169.339844 21.734375 169.128906 21.417969 C 168.917969 21.101562 168.652344 20.945312 168.230469 20.945312 Z M 174.136719 20.945312 C 173.398438 20.945312 173.03125 21.472656 172.976562 22.578125 L 172.976562 23.050781 C 172.976562 23.632812 173.082031 24.105469 173.292969 24.421875 C 173.503906 24.738281 173.769531 24.894531 174.191406 24.894531 C 174.558594 24.894531 174.875 24.738281 175.03125 24.421875 C 175.242188 24.105469 175.347656 23.632812 175.347656 23.050781 L 175.347656 22.789062 C 175.347656 22.210938 175.242188 21.734375 175.03125 21.417969 C 174.820312 21.101562 174.558594 20.945312 174.136719 20.945312 Z M 162.75 23.367188 L 161.695312 23.367188 L 161.695312 24.84375 L 162.644531 24.84375 C 162.90625 24.84375 163.117188 24.789062 163.277344 24.683594 C 163.433594 24.578125 163.488281 24.371094 163.488281 24.160156 C 163.488281 23.632812 163.222656 23.421875 162.75 23.367188 Z M 189.898438 20.996094 L 189.425781 20.996094 L 189.425781 24.84375 L 189.953125 24.84375 C 190.375 24.84375 190.691406 24.683594 190.902344 24.371094 C 191.113281 24.054688 191.21875 23.632812 191.21875 23.050781 L 191.21875 22.789062 C 191.21875 22.210938 191.113281 21.734375 190.902344 21.472656 C 190.691406 21.15625 190.320312 20.996094 189.898438 20.996094 Z M 195.066406 19.839844 L 194.855469 24 L 193.695312 24 L 193.535156 19.839844 Z M 162.433594 20.945312 L 161.695312 20.945312 L 161.695312 22.367188 L 162.484375 22.367188 C 162.800781 22.367188 163.011719 22.3125 163.171875 22.210938 C 163.328125 22.105469 163.382812 21.945312 163.382812 21.683594 C 163.382812 21.417969 163.328125 21.261719 163.171875 21.101562 C 163.011719 20.996094 162.800781 20.945312 162.433594 20.945312 Z M 162.433594 20.945312 " fill-opacity="1" fill-rule="nonzero"/><g clip-path="url(#fb4f7f51ea)"><path fill="#f0f0f0" d="M 228.859375 106.984375 C 228.859375 104.929688 227.539062 102.875 224.800781 101.292969 L 102.28125 30.585938 C 96.851562 27.476562 88.046875 27.476562 82.617188 30.585938 L 34.171875 58.511719 C 31.480469 60.09375 30.109375 62.148438 30.109375 64.203125 L 30.109375 69.890625 L 30.164062 69.890625 C 30.320312 71.789062 31.640625 73.683594 34.222656 75.160156 L 156.6875 145.867188 C 162.117188 148.976562 170.921875 148.976562 176.351562 145.867188 L 224.800781 117.945312 C 227.222656 116.519531 228.59375 114.730469 228.804688 112.886719 L 228.859375 112.886719 Z M 228.859375 106.984375 " fill-opacity="1" fill-rule="nonzero"/></g><g clip-path="url(#507c526982)"><path fill="#9e9fb2" d="M 228.859375 106.984375 C 228.859375 109.039062 227.488281 111.042969 224.800781 112.621094 L 176.351562 140.546875 C 170.921875 143.65625 162.117188 143.65625 156.6875 140.546875 L 34.171875 69.890625 C 31.429688 68.3125 30.109375 66.257812 30.109375 64.203125 L 30.109375 69.890625 L 30.164062 69.890625 C 30.320312 71.789062 31.640625 73.683594 34.222656 75.160156 L 156.6875 145.867188 C 162.117188 148.976562 170.921875 148.976562 176.351562 145.867188 L 224.800781 117.945312 C 227.222656 116.519531 228.59375 114.730469 228.804688 112.886719 L 228.859375 112.886719 Z M 228.859375 106.984375 " fill-opacity="1" fill-rule="nonzero"/></g><path fill="#a2384d" d="M 41.339844 71.894531 L 144.878906 131.695312 C 150.042969 134.699219 158.425781 134.699219 163.539062 131.695312 L 209.5625 105.140625 C 214.730469 102.136719 214.730469 97.34375 209.5625 94.339844 L 106.023438 34.589844 C 100.859375 31.585938 92.476562 31.585938 87.363281 34.589844 L 41.339844 61.144531 C 36.171875 64.097656 36.171875 68.945312 41.339844 71.894531 Z M 41.339844 71.894531 " fill-opacity="1" fill-rule="evenodd"/><path fill="#9e9fb2" d="M 189.265625 119.3125 C 192.007812 117.734375 196.488281 117.734375 199.285156 119.3125 C 200.8125 120.210938 201.496094 121.367188 201.339844 122.527344 C 201.179688 121.578125 200.546875 120.683594 199.285156 119.945312 C 196.542969 118.363281 192.0625 118.363281 189.265625 119.945312 C 188.054688 120.683594 187.367188 121.578125 187.210938 122.527344 C 187.054688 121.367188 187.738281 120.210938 189.265625 119.3125 Z M 62.375 43.917969 C 63.429688 43.335938 65.117188 43.335938 66.171875 43.917969 L 66.222656 43.917969 C 66.855469 44.285156 67.117188 44.8125 66.960938 45.285156 C 66.855469 45.023438 66.589844 44.707031 66.222656 44.496094 L 66.171875 44.496094 C 65.117188 43.917969 63.429688 43.917969 62.375 44.496094 L 52.410156 50.238281 C 51.988281 50.449219 51.777344 50.714844 51.671875 51.03125 C 51.515625 50.554688 51.777344 50.027344 52.410156 49.660156 Z M 68.277344 40.121094 C 69.332031 39.492188 71.074219 39.492188 72.128906 40.121094 C 72.8125 40.542969 73.074219 41.070312 72.863281 41.597656 C 72.761719 41.335938 72.496094 41.070312 72.128906 40.859375 C 71.074219 40.226562 69.332031 40.226562 68.277344 40.859375 C 67.910156 41.070312 67.699219 41.335938 67.539062 41.597656 C 67.328125 41.070312 67.59375 40.542969 68.277344 40.121094 Z M 68.277344 40.121094 " fill-opacity="1" fill-rule="nonzero"/><path fill="#ffffff" d="M 201.390625 101.136719 L 157.425781 126.742188 C 154.261719 128.585938 148.9375 128.480469 145.5625 126.480469 L 66.90625 79.902344 C 63.535156 77.902344 63.375 74.792969 66.539062 72.949219 L 110.507812 47.339844 C 113.667969 45.496094 118.992188 45.601562 122.367188 47.605469 L 201.074219 94.179688 C 204.398438 96.183594 204.554688 99.292969 201.390625 101.136719 Z M 201.390625 101.136719 " fill-opacity="1" fill-rule="nonzero"/><path fill="#a2384d" d="M 188.421875 97.976562 L 151.890625 119.261719 C 147.671875 121.367188 143.558594 119.683594 139.921875 117.363281 C 135.8125 114.886719 135.8125 111.515625 138.550781 109.933594 L 175.085938 88.648438 C 178.25 86.859375 182.886719 87.59375 186.367188 90.335938 C 191.164062 93.234375 191.164062 96.394531 188.421875 97.976562 Z M 188.421875 97.976562 " fill-opacity="1" fill-rule="nonzero"/><path fill="#f0f0f0" d="M 87.46875 84.066406 L 130.273438 58.933594 C 130.75 58.667969 131.382812 58.667969 131.855469 58.933594 L 145.5625 66.941406 C 146.300781 67.363281 146.566406 68.363281 146.144531 69.101562 C 145.984375 69.3125 145.828125 69.523438 145.5625 69.679688 L 102.757812 94.761719 C 102.28125 95.023438 101.648438 95.023438 101.175781 94.761719 L 87.46875 86.753906 C 86.730469 86.332031 86.464844 85.328125 86.886719 84.59375 C 86.992188 84.382812 87.203125 84.171875 87.46875 84.066406 Z M 87.46875 84.066406 " fill-opacity="1" fill-rule="evenodd"/><path fill="#dfdfdf" d="M 79.296875 73.683594 L 114.671875 52.980469 L 117.359375 54.453125 L 81.984375 75.160156 Z M 79.296875 73.683594 " fill-opacity="1" fill-rule="evenodd"/><path fill="#dfdfdf" d="M 87.996094 73.316406 L 114.039062 58.300781 L 116.726562 59.777344 L 90.683594 74.792969 Z M 87.996094 73.316406 " fill-opacity="1" fill-rule="evenodd"/><path fill="#f0f0f0" d="M 107.078125 95.339844 L 149.886719 70.261719 C 150.359375 69.945312 150.992188 69.996094 151.46875 70.261719 L 165.175781 78.269531 C 165.914062 78.691406 166.175781 79.691406 165.753906 80.429688 C 165.597656 80.640625 165.4375 80.851562 165.175781 81.007812 L 122.367188 106.089844 C 121.894531 106.40625 121.261719 106.40625 120.785156 106.089844 L 107.078125 98.078125 C 106.339844 97.660156 106.078125 96.65625 106.5 95.917969 C 106.65625 95.65625 106.816406 95.445312 107.078125 95.339844 Z M 107.078125 95.339844 " fill-opacity="1" fill-rule="evenodd"/><path fill="#a2384d" d="M 153.578125 76.425781 C 153.894531 76.636719 154.15625 76.792969 154.261719 77.058594 L 156.316406 80.167969 C 156.421875 80.324219 156.371094 80.535156 156.160156 80.640625 C 155.949219 80.746094 155.632812 80.796875 155.316406 80.746094 L 149.992188 79.535156 C 149.621094 79.429688 149.304688 79.269531 148.988281 79.113281 C 147.621094 78.320312 147.566406 77.058594 148.832031 76.320312 C 150.097656 75.582031 152.207031 75.636719 153.578125 76.425781 Z M 150.097656 77.058594 C 149.464844 77.425781 149.515625 78.058594 150.148438 78.425781 C 150.835938 78.847656 151.890625 78.847656 152.523438 78.480469 C 153.15625 78.109375 153.101562 77.480469 152.46875 77.109375 C 151.785156 76.6875 150.730469 76.6875 150.097656 77.058594 Z M 131.539062 67.097656 C 131.59375 66.308594 132.753906 65.675781 134.175781 65.78125 C 135.546875 65.886719 136.652344 66.625 136.601562 67.414062 C 136.546875 68.207031 135.390625 68.839844 133.964844 68.734375 C 132.59375 68.679688 131.488281 67.941406 131.539062 67.097656 Z M 131.539062 67.097656 " fill-opacity="1" fill-rule="nonzero"/><path fill="#ffffff" d="M 155.683594 108.144531 C 157.054688 108.933594 157.371094 109.828125 157.003906 110.460938 L 157.054688 110.460938 C 157.636719 110.304688 158.214844 110.09375 158.742188 109.882812 L 159.429688 110.777344 C 158.375 111.09375 157.476562 111.304688 156.371094 111.566406 L 155.894531 111.726562 C 154.527344 112.410156 152.417969 112.515625 150.464844 111.355469 C 148.675781 110.304688 148.410156 108.882812 150.042969 107.933594 C 151.730469 106.929688 154.050781 107.195312 155.683594 108.144531 Z M 151.097656 108.617188 C 150.253906 109.144531 150.625 109.933594 151.730469 110.621094 C 152.839844 111.304688 154.210938 111.515625 155.054688 110.988281 C 155.949219 110.460938 155.578125 109.671875 154.421875 108.988281 C 153.3125 108.355469 151.941406 108.089844 151.097656 108.617188 Z M 158.164062 103.296875 L 161.484375 105.246094 C 163.328125 106.351562 163.328125 107.351562 161.851562 108.195312 C 160.429688 109.039062 158.796875 108.988281 156.898438 107.878906 L 153.578125 105.929688 L 154.894531 105.246094 L 158.320312 107.246094 C 159.324219 107.828125 160.21875 107.933594 160.851562 107.5625 C 161.539062 107.195312 161.378906 106.667969 160.324219 106.035156 L 156.898438 104.035156 Z M 167.285156 101.453125 C 169.234375 102.609375 169.285156 103.929688 167.652344 104.875 C 166.019531 105.824219 163.699219 105.613281 162.011719 104.613281 C 160.21875 103.558594 159.957031 102.136719 161.589844 101.1875 C 163.328125 100.238281 165.648438 100.503906 167.285156 101.453125 Z M 162.644531 101.925781 C 161.800781 102.402344 162.167969 103.191406 163.328125 103.875 C 164.488281 104.5625 165.808594 104.769531 166.652344 104.246094 C 167.496094 103.769531 167.125 102.980469 165.964844 102.296875 C 164.910156 101.664062 163.488281 101.398438 162.644531 101.925781 Z M 168.863281 97.183594 L 169.972656 97.871094 L 168.441406 98.765625 L 173.242188 101.609375 L 171.976562 102.347656 L 167.179688 99.449219 L 165.703125 100.34375 L 164.59375 99.660156 Z M 172.925781 94.761719 L 174.03125 95.394531 L 171.871094 96.65625 L 173.082031 97.394531 L 175.136719 96.183594 L 176.246094 96.867188 L 174.191406 98.078125 L 175.613281 98.921875 L 177.878906 97.605469 L 178.988281 98.238281 L 175.453125 100.292969 L 169.496094 96.761719 Z M 172.925781 94.761719 " fill-opacity="1" fill-rule="nonzero"/><path fill="#a2384d" d="M 192.0625 38.753906 L 180.515625 35.222656 C 180.410156 35.171875 180.304688 35.171875 180.199219 35.222656 L 168.652344 38.699219 C 168.390625 38.753906 168.230469 39.015625 168.230469 39.28125 L 168.230469 52.082031 C 168.230469 57.246094 176.035156 61.777344 180.199219 63.09375 C 180.253906 63.09375 180.304688 63.09375 180.359375 63.09375 C 180.410156 63.09375 180.464844 63.09375 180.515625 63.09375 C 184.679688 61.777344 192.484375 57.195312 192.484375 52.082031 L 192.484375 39.28125 C 192.484375 39.015625 192.324219 38.804688 192.0625 38.753906 Z M 192.0625 38.753906 " fill-opacity="1" fill-rule="evenodd"/><path fill="#ffffff" d="M 176.773438 29.953125 C 176.878906 29.953125 176.929688 29.902344 177.035156 29.953125 L 177.140625 29.953125 L 189.425781 33.640625 C 189.636719 33.695312 189.847656 33.90625 189.847656 34.167969 L 189.847656 47.816406 C 189.847656 50.503906 187.84375 53.03125 185.261719 55.085938 L 184.839844 55.402344 C 184.574219 55.613281 184.257812 55.824219 183.996094 56.035156 L 183.574219 56.351562 L 183.152344 56.613281 C 182.992188 56.71875 182.835938 56.773438 182.730469 56.878906 L 182.308594 57.140625 L 181.886719 57.40625 L 181.675781 57.511719 L 181.253906 57.773438 C 181.09375 57.828125 180.9375 57.929688 180.832031 57.984375 L 179.144531 58.828125 L 178.722656 58.984375 L 178.355469 59.144531 L 177.984375 59.300781 L 177.617188 59.40625 C 177.511719 59.460938 177.351562 59.511719 177.246094 59.511719 C 177.195312 59.511719 177.140625 59.566406 177.089844 59.566406 C 177.035156 59.566406 176.984375 59.566406 176.929688 59.511719 L 176.5625 59.40625 L 176.191406 59.300781 C 176.140625 59.300781 176.085938 59.25 175.980469 59.25 L 175.613281 59.089844 L 175.191406 58.933594 L 174.980469 58.828125 L 174.558594 58.667969 L 173.082031 57.929688 L 172.660156 57.722656 C 172.238281 57.457031 171.765625 57.246094 171.34375 56.984375 L 170.921875 56.71875 C 170.605469 56.507812 170.339844 56.351562 170.078125 56.140625 L 169.65625 55.824219 C 169.601562 55.769531 169.496094 55.71875 169.445312 55.667969 L 169.023438 55.351562 C 166.441406 53.347656 164.332031 50.820312 164.226562 48.132812 L 164.226562 34.273438 C 164.226562 34.011719 164.382812 33.800781 164.59375 33.695312 L 164.648438 33.640625 Z M 176.929688 31.429688 L 165.4375 34.855469 L 165.4375 47.761719 C 165.4375 51.398438 171.132812 55.980469 176.667969 57.878906 L 176.929688 57.984375 C 182.464844 56.191406 188.210938 51.609375 188.421875 47.921875 L 188.421875 34.855469 Z M 176.929688 31.429688 " fill-opacity="1" fill-rule="nonzero"/><path fill="#ffffff" d="M 182.253906 39.703125 C 182.519531 39.386719 182.941406 39.332031 183.257812 39.597656 C 183.519531 39.808594 183.625 40.226562 183.414062 40.542969 L 183.363281 40.597656 L 177.617188 48.078125 C 177.511719 48.238281 177.351562 48.34375 177.140625 48.34375 L 176.667969 48.34375 C 176.507812 48.34375 176.351562 48.289062 176.246094 48.183594 L 176.191406 48.132812 L 172.1875 44.179688 C 171.921875 43.917969 171.871094 43.441406 172.1875 43.125 C 172.449219 42.863281 172.820312 42.808594 173.136719 43.019531 L 173.1875 43.074219 L 176.878906 46.710938 Z M 182.253906 39.703125 " fill-opacity="1" fill-rule="nonzero"/><path fill="#ffffff" d="M 68.964844 61.515625 C 69.070312 61.566406 69.175781 61.621094 69.28125 61.671875 C 69.597656 61.832031 69.753906 62.042969 69.597656 62.148438 C 69.542969 62.199219 69.386719 62.199219 69.226562 62.148438 C 69.175781 62.09375 69.070312 62.042969 68.964844 61.988281 C 68.804688 61.9375 68.699219 61.832031 68.542969 61.832031 L 68.4375 61.882812 C 68.59375 61.9375 68.699219 61.988281 68.859375 62.042969 C 69.175781 62.199219 69.332031 62.410156 69.175781 62.515625 C 69.015625 62.566406 68.699219 62.515625 68.382812 62.359375 C 68.226562 62.253906 68.121094 62.199219 68.066406 62.09375 L 67.488281 62.410156 C 67.539062 62.515625 67.644531 62.566406 67.804688 62.671875 C 68.171875 62.882812 68.648438 62.988281 68.804688 62.882812 L 69.28125 62.621094 C 69.332031 62.566406 69.332031 62.515625 69.332031 62.460938 L 69.648438 62.253906 C 69.808594 62.148438 69.648438 61.882812 69.28125 61.671875 C 69.175781 61.621094 69.070312 61.566406 68.964844 61.515625 Z M 68.964844 61.515625 " fill-opacity="1" fill-rule="nonzero"/><path fill="#ffffff" d="M 64.695312 64.519531 L 64.589844 64.570312 C 64.695312 64.621094 64.746094 64.675781 64.851562 64.675781 C 65.378906 64.9375 65.589844 65.308594 65.378906 65.414062 C 65.273438 65.464844 65.011719 65.464844 64.746094 65.414062 C 64.640625 65.308594 64.484375 65.203125 64.324219 65.148438 C 64.167969 65.097656 64.0625 64.992188 63.902344 64.9375 L 63.796875 64.992188 C 63.957031 65.042969 64.0625 65.097656 64.21875 65.203125 C 64.746094 65.464844 64.957031 65.835938 64.746094 65.941406 C 64.535156 66.046875 63.957031 65.941406 63.429688 65.675781 C 63.269531 65.625 63.164062 65.519531 63.058594 65.414062 L 62.214844 65.886719 C 62.320312 65.992188 62.320312 66.097656 62.480469 66.203125 C 63.113281 66.574219 63.851562 66.730469 64.167969 66.519531 L 64.957031 66.046875 C 65.0625 65.992188 65.0625 65.886719 65.0625 65.835938 L 65.589844 65.519531 C 65.90625 65.359375 65.589844 64.9375 64.957031 64.570312 C 64.851562 64.570312 64.800781 64.519531 64.695312 64.519531 Z M 64.695312 64.519531 " fill-opacity="1" fill-rule="nonzero"/><path fill="#ffffff" d="M 61.265625 65.253906 L 62.003906 65.675781 L 62.164062 65.042969 L 62.109375 64.9375 L 67.59375 61.882812 L 67.644531 62.042969 L 61.953125 65.675781 L 62.53125 65.992188 L 69.332031 61.460938 L 68.804688 60.988281 Z M 61.265625 65.253906 " fill-opacity="1" fill-rule="nonzero"/><path fill="#ffffff" d="M 54.570312 71.417969 C 55.308594 71.789062 56.101562 71.945312 56.46875 71.734375 C 56.785156 71.523438 56.523438 71.105469 55.890625 70.683594 C 55.574219 71 55.097656 71.210938 54.570312 71.417969 Z M 54.570312 71.417969 " fill-opacity="1" fill-rule="nonzero"/><path fill="#ffffff" d="M 54.042969 71.578125 C 54.835938 72 55.679688 72.15625 56.046875 71.945312 L 56.46875 71.683594 L 56.152344 71.472656 C 56.046875 71.3125 55.835938 71.105469 55.574219 70.894531 C 55.152344 71.210938 54.625 71.417969 54.042969 71.578125 Z M 54.042969 71.578125 " fill-opacity="1" fill-rule="nonzero"/><path fill="#ffffff" d="M 57.839844 68.101562 L 57.417969 68.363281 C 57.050781 68.574219 57.417969 69.101562 58.210938 69.574219 C 59 69.996094 59.949219 70.207031 60.316406 69.996094 L 60.738281 69.734375 C 61.109375 69.523438 60.738281 68.996094 59.949219 68.523438 C 59.160156 68.046875 58.210938 67.890625 57.839844 68.101562 Z M 60.421875 69.46875 C 60.160156 69.628906 59.476562 69.46875 58.84375 69.101562 C 58.210938 68.734375 57.945312 68.363281 58.210938 68.207031 C 58.472656 68.046875 59.160156 68.207031 59.792969 68.574219 C 60.421875 68.945312 60.6875 69.3125 60.421875 69.46875 Z M 60.421875 69.46875 " fill-opacity="1" fill-rule="nonzero"/><path fill="#ffffff" d="M 67.433594 63.199219 L 65.855469 64.308594 C 65.695312 64.414062 65.378906 64.414062 65.117188 64.308594 C 64.90625 64.203125 64.851562 63.992188 65.011719 63.886719 L 66.589844 62.777344 C 66.75 62.671875 67.066406 62.671875 67.328125 62.777344 C 67.539062 62.882812 67.59375 63.09375 67.433594 63.199219 Z M 67.433594 63.199219 " fill-opacity="1" fill-rule="nonzero"/><path fill="#ffffff" d="M 53.78125 68.839844 L 52.148438 69.785156 L 52.148438 69.945312 L 53.886719 68.945312 Z M 53.78125 68.839844 " fill-opacity="1" fill-rule="nonzero"/><path fill="#ffffff" d="M 51.671875 70.050781 L 51.832031 70.101562 L 53.886719 68.890625 L 53.730469 68.839844 Z M 52.253906 70.472656 L 54.308594 69.257812 L 54.148438 69.207031 L 52.09375 70.417969 Z M 52.675781 70.789062 L 54.730469 69.574219 L 54.570312 69.523438 L 52.515625 70.734375 Z M 53.097656 71.050781 L 55.152344 69.839844 L 54.992188 69.785156 L 52.9375 71 Z M 53.097656 71.050781 " fill-opacity="1" fill-rule="nonzero"/><path fill="#ffffff" d="M 54.625 69.46875 L 52.570312 70.683594 L 52.726562 70.734375 L 54.78125 69.523438 Z M 54.625 69.46875 " fill-opacity="1" fill-rule="nonzero"/><path fill="#ffffff" d="M 61.742188 65.203125 L 61.160156 65.570312 L 55.152344 62.148438 L 55.414062 61.9375 L 54.308594 62.304688 L 53.78125 62.621094 C 53.359375 62.726562 53.253906 62.832031 53.253906 62.832031 C 53.203125 62.882812 53.097656 62.9375 53.042969 62.988281 C 52.675781 63.410156 52.515625 63.886719 52.78125 64.308594 C 51.882812 64.832031 50.988281 65.464844 50.617188 65.941406 C 50.566406 65.675781 50.566406 65.359375 50.617188 65.097656 C 49.984375 65.886719 50.40625 66.730469 50.617188 67.046875 C 50.40625 67.203125 50.355469 67.308594 50.355469 67.308594 L 50.988281 67.996094 L 51.199219 67.890625 L 51.726562 68.417969 L 51.199219 68.101562 L 51.039062 68.207031 L 51.039062 68.363281 L 51.882812 68.839844 C 51.621094 69.152344 51.355469 69.574219 51.199219 69.945312 C 52.148438 68.996094 53.730469 68.363281 53.730469 68.363281 C 53.730469 68.363281 55.46875 69.734375 55.730469 69.890625 C 53.992188 71.105469 53.203125 71.367188 53.203125 71.367188 C 52.726562 71.15625 52.359375 70.894531 52.042969 70.683594 C 52.042969 70.734375 52.042969 70.734375 52.042969 70.789062 C 52.042969 70.789062 52.042969 70.839844 52.042969 70.839844 C 52.042969 70.839844 52.042969 70.894531 52.042969 70.894531 C 52.042969 70.894531 52.042969 70.945312 52.09375 70.945312 C 52.09375 70.945312 52.09375 71 52.148438 71 C 52.148438 71 52.148438 71 52.148438 71.050781 C 52.148438 71.050781 52.199219 71.105469 52.199219 71.105469 C 52.199219 71.105469 52.199219 71.105469 52.253906 71.15625 C 52.253906 71.15625 52.304688 71.210938 52.304688 71.210938 C 52.304688 71.210938 52.304688 71.210938 52.359375 71.261719 C 52.410156 71.3125 52.410156 71.3125 52.464844 71.367188 L 52.726562 71.367188 L 52.726562 71.523438 L 53.9375 72.210938 C 53.9375 72.210938 57.417969 70.578125 58.578125 69.574219 L 58.683594 69.628906 L 59.210938 69.3125 C 59.054688 69.257812 58.949219 69.207031 58.789062 69.101562 C 58.15625 68.734375 57.894531 68.363281 58.15625 68.207031 C 58.421875 68.046875 59.105469 68.207031 59.738281 68.574219 C 59.898438 68.628906 60.003906 68.734375 60.109375 68.839844 L 60.421875 68.679688 L 63.957031 66.152344 L 62.164062 65.148438 L 61.847656 65.359375 Z M 54.308594 62.832031 C 54.886719 62.621094 55.625 62.988281 55.625 62.988281 C 53.570312 62.515625 53.992188 63.992188 53.992188 63.992188 C 53.78125 63.621094 53.730469 63.042969 54.308594 62.832031 Z M 56.363281 66.257812 C 56.363281 66.203125 56.363281 66.203125 56.363281 66.257812 C 56.46875 66.152344 56.628906 66.152344 56.734375 66.203125 L 56.628906 65.835938 L 56.152344 66.152344 L 54.992188 65.203125 L 56.046875 64.726562 L 57.261719 65.414062 L 56.785156 65.730469 L 56.945312 66.308594 C 56.996094 66.363281 56.996094 66.414062 56.945312 66.46875 C 56.945312 66.46875 56.890625 66.519531 56.890625 66.519531 C 56.890625 66.519531 56.839844 66.519531 56.839844 66.519531 Z M 54.253906 65.308594 L 55.46875 66.308594 C 55.46875 66.308594 55.625 66.519531 55.097656 66.785156 C 55.097656 66.785156 54.308594 67.203125 53.519531 67.730469 L 52.359375 66.625 Z M 52.148438 68.628906 L 51.039062 67.574219 L 52.148438 66.785156 L 53.308594 67.835938 C 52.886719 68.101562 52.464844 68.417969 52.148438 68.628906 Z M 56.734375 68.996094 C 56.679688 69.050781 56.3125 69.363281 55.890625 69.679688 C 55.890625 69.679688 55.519531 69.46875 55.519531 69.257812 C 55.625 68.996094 55.835938 68.574219 56.101562 68.523438 C 56.363281 68.574219 56.785156 68.945312 56.734375 68.996094 Z M 55.414062 69.3125 C 55.414062 69.3125 54.78125 68.46875 56.734375 66.941406 C 56.734375 66.941406 57.472656 66.46875 58.261719 66.152344 C 58.261719 66.152344 55.363281 68.3125 55.414062 69.3125 Z M 59.316406 67.996094 L 59.054688 67.941406 L 61.636719 66.097656 L 62.214844 65.992188 Z M 59.316406 67.996094 " fill-opacity="1" fill-rule="nonzero"/><path fill="#ffffff" d="M 56.046875 61.777344 L 61.6875 64.9375 L 61.109375 65.253906 L 55.574219 62.09375 Z M 55.996094 61.460938 L 55.152344 62.148438 L 61.160156 65.570312 L 62.164062 64.992188 Z M 55.996094 61.460938 " fill-opacity="1" fill-rule="nonzero"/><path fill="#ffffff" d="M 54.308594 69.207031 L 54.148438 69.152344 L 52.148438 70.3125 L 52.148438 70.367188 L 52.199219 70.417969 Z M 54.308594 69.207031 " fill-opacity="1" fill-rule="nonzero"/><path fill="#ffffff" d="M 55.046875 69.785156 L 52.992188 71 L 53.148438 71.050781 L 55.203125 69.839844 Z M 55.046875 69.785156 " fill-opacity="1" fill-rule="nonzero"/><path fill="#ffffff" d="M 55.785156 64.886719 L 55.363281 65.148438 L 56.574219 65.835938 L 56.996094 65.570312 Z M 55.785156 64.886719 " fill-opacity="1" fill-rule="nonzero"/><path fill="#ffffff" d="M 56.363281 65.835938 L 56.574219 65.78125 L 55.363281 65.097656 L 55.308594 65.203125 Z M 56.363281 65.835938 " fill-opacity="1" fill-rule="nonzero"/><path fill="#ffffff" d="M 67.488281 59.988281 L 65.011719 60.722656 L 67.222656 59.777344 L 67.011719 59.617188 L 57.578125 61.882812 L 66.011719 58.828125 L 65.75 58.617188 L 55.941406 61.460938 L 61.6875 64.78125 L 68.382812 60.933594 L 69.175781 61.566406 L 69.386719 61.410156 Z M 67.488281 59.988281 " fill-opacity="1" fill-rule="nonzero"/><path fill="#ffffff" d="M 66.75 56.296875 L 69.121094 57.617188 C 69.332031 57.773438 69.597656 57.828125 69.808594 57.828125 C 70.019531 57.828125 70.230469 57.773438 70.441406 57.667969 C 70.652344 57.5625 70.703125 57.457031 70.703125 57.300781 C 70.703125 57.195312 70.546875 57.035156 70.335938 56.878906 L 67.960938 55.5625 L 68.753906 55.085938 L 71.074219 56.402344 C 71.441406 56.613281 71.652344 56.824219 71.757812 57.035156 C 71.863281 57.246094 71.863281 57.457031 71.8125 57.667969 C 71.707031 57.878906 71.546875 58.035156 71.285156 58.195312 C 71.019531 58.351562 70.703125 58.457031 70.386719 58.511719 C 70.070312 58.5625 69.703125 58.5625 69.332031 58.511719 C 68.964844 58.457031 68.59375 58.300781 68.277344 58.089844 L 65.960938 56.773438 Z M 66.75 56.296875 " fill-opacity="1" fill-rule="nonzero"/><path fill="#ffffff" d="M 76.132812 55.296875 L 75.34375 55.769531 L 71.546875 55.191406 L 73.972656 56.5625 L 73.179688 57.035156 L 69.226562 54.824219 L 70.019531 54.347656 L 73.8125 54.929688 L 71.390625 53.558594 L 72.179688 53.085938 Z M 76.132812 55.296875 " fill-opacity="1" fill-rule="nonzero"/><path fill="#ffffff" d="M 73.496094 52.292969 L 77.453125 54.507812 L 76.660156 54.980469 L 72.707031 52.769531 Z M 73.496094 52.292969 " fill-opacity="1" fill-rule="nonzero"/><path fill="#ffffff" d="M 76.398438 50.609375 L 77.1875 51.03125 L 76.292969 51.554688 L 79.453125 53.347656 L 78.613281 53.820312 L 75.449219 52.03125 L 74.550781 52.558594 L 73.761719 52.136719 Z M 76.398438 50.609375 " fill-opacity="1" fill-rule="nonzero"/><path fill="#ffffff" d="M 78.242188 50.398438 L 79.035156 50.871094 L 80.140625 50.238281 L 80.878906 50.660156 L 79.769531 51.292969 L 80.613281 51.765625 L 81.828125 51.03125 L 82.617188 51.449219 L 80.5625 52.664062 L 76.609375 50.449219 L 78.664062 49.238281 L 79.453125 49.660156 Z M 78.242188 50.398438 " fill-opacity="1" fill-rule="nonzero"/><path fill="#ffffff" d="M 80.402344 48.238281 C 80.773438 48.027344 81.140625 47.921875 81.5625 47.816406 C 81.984375 47.761719 82.40625 47.761719 82.882812 47.867188 C 83.304688 47.972656 83.726562 48.078125 84.148438 48.34375 C 84.515625 48.554688 84.78125 48.816406 84.9375 49.027344 C 85.097656 49.289062 85.097656 49.554688 85.042969 49.765625 C 84.9375 50.027344 84.726562 50.238281 84.359375 50.449219 L 83.09375 51.1875 L 79.140625 48.976562 Z M 83.460938 50.027344 C 83.777344 49.871094 83.882812 49.660156 83.882812 49.449219 C 83.832031 49.238281 83.671875 49.027344 83.304688 48.816406 C 82.933594 48.605469 82.566406 48.5 82.195312 48.5 C 81.828125 48.5 81.511719 48.554688 81.195312 48.765625 L 80.824219 48.976562 L 83.09375 50.238281 Z M 83.460938 50.027344 " fill-opacity="1" fill-rule="nonzero"/><path fill="#ffffff" d="M 88.574219 48.027344 C 88.3125 48.183594 88.046875 48.289062 87.785156 48.34375 C 87.519531 48.394531 87.203125 48.394531 86.886719 48.394531 C 86.570312 48.34375 86.308594 48.289062 86.042969 48.132812 L 86.886719 47.605469 C 87.046875 47.65625 87.203125 47.710938 87.363281 47.710938 C 87.519531 47.710938 87.625 47.65625 87.785156 47.605469 C 87.890625 47.550781 87.941406 47.445312 87.996094 47.394531 C 87.996094 47.339844 87.941406 47.234375 87.835938 47.183594 C 87.730469 47.128906 87.625 47.078125 87.519531 47.078125 C 87.414062 47.078125 87.308594 47.078125 87.152344 47.128906 C 87.046875 47.128906 86.886719 47.183594 86.675781 47.234375 C 86.359375 47.339844 86.148438 47.394531 85.9375 47.394531 C 85.726562 47.445312 85.519531 47.445312 85.253906 47.394531 C 84.992188 47.339844 84.78125 47.289062 84.515625 47.128906 C 84.148438 46.917969 83.988281 46.710938 83.988281 46.445312 C 83.988281 46.183594 84.199219 45.972656 84.570312 45.761719 C 84.9375 45.550781 85.359375 45.445312 85.78125 45.390625 C 86.203125 45.390625 86.625 45.445312 86.992188 45.65625 L 86.097656 46.183594 C 85.9375 46.128906 85.832031 46.078125 85.675781 46.078125 C 85.519531 46.078125 85.414062 46.128906 85.308594 46.183594 C 85.203125 46.234375 85.148438 46.289062 85.148438 46.394531 C 85.148438 46.445312 85.203125 46.550781 85.308594 46.605469 C 85.414062 46.65625 85.570312 46.710938 85.726562 46.65625 C 85.886719 46.65625 86.148438 46.605469 86.414062 46.5 C 86.730469 46.445312 86.992188 46.339844 87.203125 46.339844 C 87.414062 46.289062 87.625 46.289062 87.890625 46.339844 C 88.152344 46.394531 88.363281 46.445312 88.628906 46.605469 C 88.839844 46.710938 88.996094 46.867188 89.101562 47.023438 C 89.207031 47.183594 89.207031 47.339844 89.101562 47.5 C 88.996094 47.710938 88.839844 47.867188 88.574219 48.027344 Z M 88.574219 48.027344 " fill-opacity="1" fill-rule="nonzero"/><path fill="#ffffff" d="M 88.628906 43.390625 L 89.417969 43.8125 L 88.523438 44.339844 L 91.6875 46.128906 L 90.894531 46.605469 L 87.730469 44.8125 L 86.835938 45.339844 L 86.042969 44.917969 Z M 88.628906 43.390625 " fill-opacity="1" fill-rule="nonzero"/><path fill="#ffffff" d="M 94.214844 43.8125 L 92.949219 44.546875 L 93.425781 45.074219 L 92.582031 45.550781 L 89.839844 42.597656 L 90.789062 42.074219 L 95.902344 43.601562 L 95.058594 44.128906 Z M 93.265625 43.546875 L 91.421875 42.96875 L 92.476562 44.023438 Z M 93.265625 43.546875 " fill-opacity="1" fill-rule="nonzero"/><path fill="#ffffff" d="M 94.691406 39.808594 L 95.480469 40.226562 L 94.585938 40.753906 L 97.75 42.546875 L 96.957031 43.019531 L 93.792969 41.230469 L 92.898438 41.757812 L 92.105469 41.335938 Z M 94.691406 39.808594 " fill-opacity="1" fill-rule="nonzero"/><path fill="#ffffff" d="M 96.589844 39.597656 L 97.378906 40.070312 L 98.484375 39.4375 L 99.222656 39.859375 L 98.117188 40.492188 L 98.960938 40.964844 L 100.171875 40.226562 L 100.964844 40.648438 L 98.90625 41.863281 L 94.953125 39.648438 L 97.011719 38.4375 L 97.800781 38.859375 Z M 96.589844 39.597656 " fill-opacity="1" fill-rule="nonzero"/><path fill="#ffffff" d="M 102.652344 39.703125 C 102.386719 39.859375 102.125 39.964844 101.859375 40.019531 C 101.597656 40.070312 101.28125 40.070312 100.964844 40.070312 C 100.648438 40.019531 100.382812 39.964844 100.121094 39.808594 L 100.964844 39.28125 C 101.121094 39.332031 101.28125 39.386719 101.4375 39.386719 C 101.597656 39.386719 101.703125 39.332031 101.859375 39.28125 C 101.964844 39.226562 102.019531 39.121094 102.070312 39.070312 C 102.070312 39.015625 102.019531 38.910156 101.914062 38.859375 C 101.808594 38.804688 101.703125 38.753906 101.597656 38.753906 C 101.492188 38.753906 101.386719 38.753906 101.226562 38.804688 C 101.121094 38.804688 100.964844 38.859375 100.753906 38.910156 C 100.4375 39.015625 100.226562 39.070312 100.015625 39.070312 C 99.804688 39.121094 99.59375 39.121094 99.328125 39.070312 C 99.066406 39.015625 98.855469 38.964844 98.589844 38.804688 C 98.222656 38.59375 98.066406 38.382812 98.066406 38.121094 C 98.066406 37.859375 98.273438 37.648438 98.644531 37.4375 C 99.011719 37.226562 99.433594 37.121094 99.855469 37.066406 C 100.277344 37.066406 100.699219 37.121094 101.070312 37.332031 L 100.171875 37.859375 C 100.015625 37.804688 99.910156 37.753906 99.75 37.753906 C 99.59375 37.753906 99.488281 37.804688 99.382812 37.859375 C 99.277344 37.910156 99.222656 37.960938 99.222656 38.066406 C 99.222656 38.121094 99.277344 38.226562 99.382812 38.277344 C 99.488281 38.332031 99.644531 38.382812 99.804688 38.332031 C 99.960938 38.332031 100.226562 38.277344 100.488281 38.171875 C 100.804688 38.121094 101.070312 38.015625 101.28125 38.015625 C 101.492188 37.960938 101.703125 37.960938 101.964844 38.015625 C 102.230469 38.066406 102.441406 38.121094 102.703125 38.277344 C 102.914062 38.382812 103.074219 38.542969 103.179688 38.699219 C 103.285156 38.859375 103.285156 39.015625 103.179688 39.175781 C 103.074219 39.386719 102.914062 39.542969 102.652344 39.703125 Z M 102.652344 39.703125 " fill-opacity="1" fill-rule="nonzero"/><path fill="#ffffff" d="M 73.761719 60.300781 C 73.867188 60.25 73.972656 60.25 74.078125 60.25 C 74.183594 60.25 74.339844 60.300781 74.394531 60.355469 C 74.5 60.40625 74.550781 60.460938 74.550781 60.511719 C 74.605469 60.566406 74.605469 60.617188 74.550781 60.671875 C 74.5 60.722656 74.445312 60.777344 74.394531 60.828125 L 73.867188 61.144531 L 72.234375 60.195312 L 72.761719 59.882812 C 72.863281 59.828125 72.96875 59.777344 73.074219 59.777344 C 73.179688 59.777344 73.285156 59.777344 73.390625 59.777344 C 73.496094 59.777344 73.601562 59.828125 73.65625 59.882812 C 73.761719 59.933594 73.8125 59.988281 73.8125 60.039062 C 73.8125 60.195312 73.8125 60.25 73.761719 60.300781 Z M 73.179688 60.566406 L 73.445312 60.40625 C 73.496094 60.355469 73.550781 60.300781 73.550781 60.25 C 73.550781 60.195312 73.496094 60.144531 73.445312 60.09375 C 73.390625 60.039062 73.285156 60.039062 73.234375 60.039062 C 73.128906 60.039062 73.074219 60.039062 73.023438 60.09375 L 72.761719 60.25 Z M 74.183594 60.777344 C 74.234375 60.722656 74.289062 60.671875 74.289062 60.617188 C 74.289062 60.566406 74.234375 60.511719 74.183594 60.460938 C 74.078125 60.40625 74.023438 60.40625 73.917969 60.40625 C 73.8125 60.40625 73.761719 60.40625 73.65625 60.460938 L 73.339844 60.617188 L 73.867188 60.933594 Z M 74.183594 60.777344 " fill-opacity="1" fill-rule="nonzero"/><path fill="#ffffff" d="M 73.917969 59.566406 L 74.394531 59.828125 L 74.867188 59.566406 L 75.078125 59.671875 L 74.605469 59.933594 L 75.132812 60.195312 L 75.660156 59.882812 L 75.871094 59.988281 L 75.132812 60.40625 L 73.496094 59.460938 L 74.234375 59.039062 L 74.445312 59.144531 Z M 73.917969 59.566406 " fill-opacity="1" fill-rule="nonzero"/><path fill="#ffffff" d="M 76.609375 59.671875 C 76.503906 59.722656 76.398438 59.777344 76.292969 59.777344 C 76.1875 59.777344 76.082031 59.777344 75.976562 59.777344 C 75.871094 59.777344 75.765625 59.722656 75.660156 59.671875 L 75.921875 59.511719 C 75.976562 59.566406 76.082031 59.566406 76.1875 59.566406 C 76.292969 59.566406 76.34375 59.566406 76.449219 59.511719 C 76.503906 59.460938 76.554688 59.40625 76.554688 59.355469 C 76.554688 59.300781 76.503906 59.25 76.449219 59.195312 C 76.398438 59.144531 76.34375 59.144531 76.292969 59.144531 C 76.238281 59.144531 76.1875 59.144531 76.132812 59.144531 C 76.082031 59.144531 75.976562 59.195312 75.921875 59.195312 C 75.816406 59.25 75.710938 59.25 75.605469 59.300781 C 75.5 59.300781 75.449219 59.300781 75.34375 59.300781 C 75.238281 59.300781 75.132812 59.25 75.027344 59.195312 C 74.921875 59.144531 74.867188 59.089844 74.816406 59.039062 C 74.761719 58.984375 74.761719 58.933594 74.816406 58.828125 C 74.867188 58.773438 74.921875 58.722656 75.027344 58.667969 C 75.183594 58.617188 75.289062 58.5625 75.449219 58.5625 C 75.605469 58.5625 75.765625 58.617188 75.921875 58.667969 L 75.660156 58.828125 C 75.605469 58.773438 75.5 58.773438 75.449219 58.773438 C 75.34375 58.773438 75.289062 58.773438 75.238281 58.828125 C 75.183594 58.878906 75.132812 58.933594 75.132812 58.933594 C 75.132812 58.984375 75.183594 59.039062 75.238281 59.089844 C 75.289062 59.144531 75.34375 59.144531 75.394531 59.144531 C 75.449219 59.144531 75.5 59.144531 75.554688 59.144531 C 75.605469 59.144531 75.710938 59.089844 75.765625 59.089844 C 75.871094 59.039062 75.976562 59.039062 76.082031 59.039062 C 76.1875 59.039062 76.238281 59.039062 76.34375 59.039062 C 76.449219 59.039062 76.554688 59.089844 76.660156 59.144531 C 76.765625 59.195312 76.820312 59.25 76.820312 59.300781 C 76.871094 59.355469 76.871094 59.40625 76.820312 59.511719 C 76.765625 59.511719 76.714844 59.617188 76.609375 59.671875 Z M 76.609375 59.671875 " fill-opacity="1" fill-rule="nonzero"/><path fill="#ffffff" d="M 76.554688 57.773438 L 76.765625 57.878906 L 76.398438 58.089844 L 77.820312 58.878906 L 77.609375 59.039062 L 76.1875 58.246094 L 75.816406 58.457031 L 75.605469 58.351562 Z M 76.554688 57.773438 " fill-opacity="1" fill-rule="nonzero"/><path fill="#ffffff" d="M 77.980469 57.878906 C 77.820312 57.773438 77.714844 57.667969 77.609375 57.5625 C 77.558594 57.457031 77.503906 57.351562 77.558594 57.246094 C 77.609375 57.140625 77.664062 57.035156 77.820312 56.984375 C 77.980469 56.878906 78.136719 56.824219 78.347656 56.824219 C 78.558594 56.824219 78.769531 56.824219 78.980469 56.878906 L 78.71875 57.035156 C 78.613281 56.984375 78.507812 56.984375 78.347656 57.035156 C 78.242188 57.035156 78.136719 57.089844 78.085938 57.140625 C 77.980469 57.195312 77.925781 57.246094 77.925781 57.351562 C 77.925781 57.40625 77.925781 57.511719 77.980469 57.5625 C 78.03125 57.617188 78.136719 57.722656 78.242188 57.773438 C 78.347656 57.828125 78.507812 57.878906 78.613281 57.929688 C 78.769531 57.984375 78.875 57.984375 78.980469 57.929688 C 79.085938 57.929688 79.191406 57.878906 79.296875 57.828125 C 79.402344 57.773438 79.453125 57.722656 79.453125 57.667969 C 79.453125 57.617188 79.453125 57.5625 79.402344 57.457031 L 79.664062 57.300781 C 79.769531 57.40625 79.824219 57.5625 79.769531 57.667969 C 79.71875 57.773438 79.664062 57.878906 79.507812 57.984375 C 79.402344 58.035156 79.242188 58.089844 79.035156 58.140625 C 78.875 58.140625 78.664062 58.140625 78.453125 58.140625 C 78.347656 58.035156 78.136719 57.929688 77.980469 57.878906 Z M 77.980469 57.878906 " fill-opacity="1" fill-rule="nonzero"/><path fill="#ffffff" d="M 80.878906 56.71875 L 80.296875 57.035156 L 80.5625 57.300781 L 80.351562 57.457031 L 79.191406 56.246094 L 79.453125 56.085938 L 81.617188 56.71875 L 81.40625 56.878906 Z M 80.613281 56.613281 L 79.613281 56.296875 L 80.140625 56.878906 Z M 80.613281 56.613281 " fill-opacity="1" fill-rule="nonzero"/><path fill="#ffffff" d="M 82.460938 56.191406 L 81.457031 55.980469 L 81.300781 56.085938 L 81.984375 56.457031 L 81.773438 56.613281 L 80.140625 55.667969 L 80.613281 55.402344 C 80.71875 55.351562 80.824219 55.296875 80.929688 55.296875 C 81.035156 55.296875 81.140625 55.296875 81.246094 55.296875 C 81.351562 55.296875 81.457031 55.351562 81.5625 55.402344 C 81.667969 55.457031 81.722656 55.5625 81.773438 55.613281 C 81.828125 55.71875 81.773438 55.769531 81.722656 55.875 L 82.722656 56.085938 Z M 81.089844 55.980469 L 81.351562 55.824219 C 81.457031 55.769531 81.457031 55.71875 81.457031 55.667969 C 81.457031 55.613281 81.40625 55.5625 81.300781 55.507812 C 81.195312 55.457031 81.140625 55.457031 81.035156 55.457031 C 80.929688 55.457031 80.878906 55.457031 80.773438 55.507812 L 80.507812 55.667969 Z M 81.089844 55.980469 " fill-opacity="1" fill-rule="nonzero"/><path fill="#ffffff" d="M 83.9375 55.351562 C 83.832031 55.402344 83.726562 55.457031 83.621094 55.457031 C 83.515625 55.457031 83.410156 55.457031 83.304688 55.457031 C 83.199219 55.457031 83.09375 55.402344 82.988281 55.351562 L 83.25 55.191406 C 83.304688 55.246094 83.410156 55.246094 83.515625 55.246094 C 83.621094 55.246094 83.671875 55.246094 83.777344 55.191406 C 83.832031 55.140625 83.882812 55.085938 83.882812 55.035156 C 83.882812 54.980469 83.832031 54.929688 83.777344 54.875 C 83.726562 54.824219 83.671875 54.824219 83.621094 54.824219 C 83.566406 54.824219 83.515625 54.824219 83.460938 54.824219 C 83.410156 54.824219 83.304688 54.875 83.25 54.875 C 83.144531 54.929688 83.039062 54.929688 82.933594 54.980469 C 82.828125 54.980469 82.777344 54.980469 82.671875 54.980469 C 82.566406 54.980469 82.460938 54.929688 82.355469 54.875 C 82.25 54.824219 82.195312 54.769531 82.144531 54.71875 C 82.089844 54.664062 82.089844 54.613281 82.144531 54.507812 C 82.195312 54.453125 82.25 54.402344 82.355469 54.347656 C 82.511719 54.296875 82.617188 54.242188 82.777344 54.242188 C 82.933594 54.242188 83.09375 54.296875 83.25 54.347656 L 82.988281 54.507812 C 82.933594 54.453125 82.828125 54.453125 82.777344 54.453125 C 82.671875 54.453125 82.617188 54.453125 82.566406 54.507812 C 82.511719 54.558594 82.460938 54.613281 82.460938 54.613281 C 82.460938 54.664062 82.511719 54.71875 82.566406 54.769531 C 82.617188 54.824219 82.671875 54.824219 82.722656 54.824219 C 82.777344 54.824219 82.828125 54.824219 82.882812 54.824219 C 82.933594 54.824219 83.039062 54.769531 83.09375 54.769531 C 83.199219 54.71875 83.304688 54.71875 83.410156 54.71875 C 83.515625 54.71875 83.566406 54.71875 83.671875 54.71875 C 83.777344 54.71875 83.882812 54.769531 83.988281 54.824219 C 84.09375 54.875 84.148438 54.929688 84.148438 54.980469 C 84.199219 55.035156 84.199219 55.085938 84.148438 55.191406 C 84.09375 55.191406 84.042969 55.246094 83.9375 55.351562 Z M 83.9375 55.351562 " fill-opacity="1" fill-rule="nonzero"/><path fill="#ffffff" d="M 84.09375 53.296875 L 85.726562 54.242188 L 85.519531 54.402344 L 84.78125 53.980469 L 84.148438 54.347656 L 84.886719 54.769531 L 84.675781 54.929688 L 83.039062 53.980469 L 83.25 53.820312 L 83.9375 54.242188 L 84.570312 53.875 L 83.882812 53.453125 Z M 84.09375 53.296875 " fill-opacity="1" fill-rule="nonzero"/><path fill="#ffffff" d="M 84.570312 53.03125 L 86.203125 53.980469 L 85.992188 54.136719 L 84.359375 53.191406 Z M 84.570312 53.03125 " fill-opacity="1" fill-rule="nonzero"/><path fill="#ffffff" d="M 86.308594 52.558594 C 86.414062 52.609375 86.464844 52.664062 86.519531 52.714844 C 86.570312 52.769531 86.570312 52.820312 86.519531 52.925781 C 86.519531 52.980469 86.414062 53.085938 86.308594 53.136719 L 86.042969 53.296875 L 86.730469 53.664062 L 86.519531 53.820312 L 84.886719 52.875 L 85.359375 52.609375 C 85.464844 52.558594 85.570312 52.503906 85.675781 52.503906 C 85.78125 52.503906 85.886719 52.503906 85.992188 52.503906 C 86.148438 52.453125 86.203125 52.503906 86.308594 52.558594 Z M 86.097656 52.980469 C 86.203125 52.925781 86.203125 52.875 86.203125 52.820312 C 86.203125 52.769531 86.148438 52.714844 86.042969 52.664062 C 85.886719 52.558594 85.675781 52.558594 85.515625 52.664062 L 85.253906 52.820312 L 85.78125 53.136719 Z M 86.097656 52.980469 " fill-opacity="1" fill-rule="nonzero"/><path fill="#ffffff" d="M 87.46875 51.871094 C 87.574219 51.925781 87.625 51.976562 87.679688 52.03125 C 87.730469 52.082031 87.730469 52.136719 87.679688 52.242188 C 87.679688 52.292969 87.574219 52.398438 87.46875 52.453125 L 87.203125 52.609375 L 87.890625 52.980469 L 87.679688 53.136719 L 86.042969 52.1875 L 86.519531 51.925781 C 86.625 51.871094 86.730469 51.820312 86.835938 51.820312 C 86.941406 51.820312 87.046875 51.820312 87.152344 51.820312 C 87.257812 51.820312 87.363281 51.820312 87.46875 51.871094 Z M 87.257812 52.347656 C 87.363281 52.292969 87.363281 52.242188 87.363281 52.1875 C 87.363281 52.136719 87.308594 52.082031 87.203125 52.03125 C 87.046875 51.925781 86.835938 51.925781 86.675781 52.03125 L 86.414062 52.1875 L 86.941406 52.503906 Z M 87.257812 52.347656 " fill-opacity="1" fill-rule="nonzero"/><path fill="#ffffff" d="M 87.414062 51.34375 L 89.050781 52.292969 L 88.839844 52.453125 L 87.203125 51.503906 Z M 87.414062 51.34375 " fill-opacity="1" fill-rule="nonzero"/><path fill="#ffffff" d="M 90.472656 51.449219 L 90.261719 51.609375 L 88.363281 51.292969 L 89.578125 51.976562 L 89.367188 52.136719 L 87.730469 51.1875 L 87.941406 51.03125 L 89.839844 51.34375 L 88.628906 50.660156 L 88.839844 50.503906 Z M 90.472656 51.449219 " fill-opacity="1" fill-rule="nonzero"/><path fill="#ffffff" d="M 90.527344 50.027344 C 90.421875 50.027344 90.316406 49.976562 90.210938 50.027344 C 90.105469 50.027344 90 50.082031 89.945312 50.132812 C 89.839844 50.1875 89.789062 50.238281 89.789062 50.34375 C 89.789062 50.398438 89.789062 50.503906 89.839844 50.554688 C 89.894531 50.609375 90 50.714844 90.105469 50.765625 C 90.210938 50.820312 90.367188 50.871094 90.472656 50.925781 C 90.578125 50.976562 90.738281 50.976562 90.84375 50.925781 C 90.949219 50.925781 91.054688 50.871094 91.160156 50.820312 C 91.265625 50.765625 91.316406 50.660156 91.316406 50.554688 C 91.316406 50.449219 91.265625 50.398438 91.105469 50.292969 L 90.578125 50.609375 L 90.367188 50.503906 L 91.105469 50.082031 L 91.316406 50.1875 C 91.421875 50.292969 91.527344 50.34375 91.582031 50.449219 C 91.632812 50.554688 91.632812 50.660156 91.582031 50.714844 C 91.527344 50.820312 91.476562 50.871094 91.371094 50.976562 C 91.265625 51.03125 91.105469 51.082031 90.894531 51.136719 C 90.738281 51.136719 90.527344 51.136719 90.316406 51.136719 C 90.105469 51.082031 89.945312 51.03125 89.789062 50.925781 C 89.628906 50.820312 89.523438 50.714844 89.417969 50.609375 C 89.367188 50.503906 89.3125 50.398438 89.367188 50.292969 C 89.417969 50.1875 89.472656 50.082031 89.628906 50.027344 C 89.789062 49.921875 89.945312 49.871094 90.15625 49.871094 C 90.367188 49.871094 90.578125 49.871094 90.789062 49.921875 Z M 90.527344 50.027344 " fill-opacity="1" fill-rule="nonzero"/></svg>