<svg xmlns="http://www.w3.org/2000/svg" xmlns:xlink="http://www.w3.org/1999/xlink" width="360" zoomAndPan="magnify" viewBox="0 0 270 149.999998" height="200" preserveAspectRatio="xMidYMid meet" version="1.0"><defs><clipPath id="583be93f5a"><path d="M 45 28 L 80 28 L 80 43 L 45 43 Z M 45 28 " clip-rule="nonzero"/></clipPath><clipPath id="c6869e3409"><path d="M 57.589844 28.226562 C 59.625 27.847656 64.449219 28.375 68.296875 29.429688 C 72.144531 30.488281 77.949219 32.296875 78.628906 32.597656 C 79.308594 32.898438 80.210938 34.105469 78.476562 34.707031 C 76.742188 35.3125 53.816406 41.945312 52.988281 42.171875 C 52.15625 42.398438 51.855469 41.566406 51.253906 40.511719 C 50.648438 39.457031 46.652344 33.878906 46.125 32.972656 C 45.523438 32.144531 45.371094 31.769531 45.824219 31.464844 C 46.125 31.242188 51.855469 29.207031 57.589844 28.226562 Z M 57.589844 28.226562 " clip-rule="nonzero"/></clipPath><linearGradient x1="-115.226997" gradientTransform="matrix(33.918792, 0, 0, -14.103974, 3970.889836, 6624.24119)" y1="467.697452" x2="-115.226997" gradientUnits="userSpaceOnUse" y2="466.665962" id="7779233957"><stop stop-opacity="1" stop-color="rgb(76.899719%, 76.899719%, 83.499146%)" offset="0"/><stop stop-opacity="1" stop-color="rgb(77.069092%, 77.069092%, 83.621216%)" offset="0.03125"/><stop stop-opacity="1" stop-color="rgb(77.426147%, 77.426147%, 83.876038%)" offset="0.046875"/><stop stop-opacity="1" stop-color="rgb(77.798462%, 77.798462%, 84.141541%)" offset="0.0625"/><stop stop-opacity="1" stop-color="rgb(78.170776%, 78.170776%, 84.407043%)" offset="0.078125"/><stop stop-opacity="1" stop-color="rgb(78.543091%, 78.543091%, 84.674072%)" offset="0.09375"/><stop stop-opacity="1" stop-color="rgb(78.915405%, 78.915405%, 84.939575%)" offset="0.109375"/><stop stop-opacity="1" stop-color="rgb(79.28772%, 79.28772%, 85.205078%)" offset="0.125"/><stop stop-opacity="1" stop-color="rgb(79.660034%, 79.660034%, 85.470581%)" offset="0.140625"/><stop stop-opacity="1" stop-color="rgb(80.032349%, 80.032349%, 85.73761%)" offset="0.15625"/><stop stop-opacity="1" stop-color="rgb(80.404663%, 80.404663%, 86.003113%)" offset="0.171875"/><stop stop-opacity="1" stop-color="rgb(80.776978%, 80.776978%, 86.268616%)" offset="0.1875"/><stop stop-opacity="1" stop-color="rgb(81.149292%, 81.149292%, 86.535645%)" offset="0.203125"/><stop stop-opacity="1" stop-color="rgb(81.521606%, 81.521606%, 86.801147%)" offset="0.21875"/><stop stop-opacity="1" stop-color="rgb(81.893921%, 81.893921%, 87.06665%)" offset="0.234375"/><stop stop-opacity="1" stop-color="rgb(82.266235%, 82.266235%, 87.332153%)" offset="0.25"/><stop stop-opacity="1" stop-color="rgb(82.63855%, 82.63855%, 87.599182%)" offset="0.265625"/><stop stop-opacity="1" stop-color="rgb(83.010864%, 83.010864%, 87.864685%)" offset="0.28125"/><stop stop-opacity="1" stop-color="rgb(83.383179%, 83.383179%, 88.130188%)" offset="0.296875"/><stop stop-opacity="1" stop-color="rgb(83.755493%, 83.755493%, 88.397217%)" offset="0.3125"/><stop stop-opacity="1" stop-color="rgb(84.127808%, 84.127808%, 88.66272%)" offset="0.328125"/><stop stop-opacity="1" stop-color="rgb(84.500122%, 84.500122%, 88.928223%)" offset="0.34375"/><stop stop-opacity="1" stop-color="rgb(84.872437%, 84.872437%, 89.193726%)" offset="0.359375"/><stop stop-opacity="1" stop-color="rgb(85.244751%, 85.244751%, 89.460754%)" offset="0.375"/><stop stop-opacity="1" stop-color="rgb(85.617065%, 85.617065%, 89.726257%)" offset="0.390625"/><stop stop-opacity="1" stop-color="rgb(85.98938%, 85.98938%, 89.99176%)" offset="0.40625"/><stop stop-opacity="1" stop-color="rgb(86.361694%, 86.361694%, 90.258789%)" offset="0.421875"/><stop stop-opacity="1" stop-color="rgb(86.734009%, 86.734009%, 90.524292%)" offset="0.4375"/><stop stop-opacity="1" stop-color="rgb(87.106323%, 87.106323%, 90.789795%)" offset="0.453125"/><stop stop-opacity="1" stop-color="rgb(87.478638%, 87.478638%, 91.055298%)" offset="0.46875"/><stop stop-opacity="1" stop-color="rgb(87.850952%, 87.850952%, 91.322327%)" offset="0.484375"/><stop stop-opacity="1" stop-color="rgb(88.223267%, 88.223267%, 91.58783%)" offset="0.5"/><stop stop-opacity="1" stop-color="rgb(88.595581%, 88.595581%, 91.853333%)" offset="0.515625"/><stop stop-opacity="1" stop-color="rgb(88.967896%, 88.967896%, 92.118835%)" offset="0.53125"/><stop stop-opacity="1" stop-color="rgb(89.34021%, 89.34021%, 92.385864%)" offset="0.546875"/><stop stop-opacity="1" stop-color="rgb(89.712524%, 89.712524%, 92.651367%)" offset="0.5625"/><stop stop-opacity="1" stop-color="rgb(90.084839%, 90.084839%, 92.91687%)" offset="0.578125"/><stop stop-opacity="1" stop-color="rgb(90.457153%, 90.457153%, 93.183899%)" offset="0.59375"/><stop stop-opacity="1" stop-color="rgb(90.829468%, 90.829468%, 93.449402%)" offset="0.609375"/><stop stop-opacity="1" stop-color="rgb(91.201782%, 91.201782%, 93.714905%)" offset="0.625"/><stop stop-opacity="1" stop-color="rgb(91.574097%, 91.574097%, 93.980408%)" offset="0.640625"/><stop stop-opacity="1" stop-color="rgb(91.946411%, 91.946411%, 94.247437%)" offset="0.65625"/><stop stop-opacity="1" stop-color="rgb(92.318726%, 92.318726%, 94.512939%)" offset="0.671875"/><stop stop-opacity="1" stop-color="rgb(92.69104%, 92.69104%, 94.778442%)" offset="0.6875"/><stop stop-opacity="1" stop-color="rgb(93.063354%, 93.063354%, 95.045471%)" offset="0.703125"/><stop stop-opacity="1" stop-color="rgb(93.435669%, 93.435669%, 95.310974%)" offset="0.71875"/><stop stop-opacity="1" stop-color="rgb(93.807983%, 93.807983%, 95.576477%)" offset="0.734375"/><stop stop-opacity="1" stop-color="rgb(94.180298%, 94.180298%, 95.84198%)" offset="0.75"/><stop stop-opacity="1" stop-color="rgb(94.552612%, 94.552612%, 96.109009%)" offset="0.765625"/><stop stop-opacity="1" stop-color="rgb(94.924927%, 94.924927%, 96.374512%)" offset="0.78125"/><stop stop-opacity="1" stop-color="rgb(95.297241%, 95.297241%, 96.640015%)" offset="0.796875"/><stop stop-opacity="1" stop-color="rgb(95.669556%, 95.669556%, 96.907043%)" offset="0.8125"/><stop stop-opacity="1" stop-color="rgb(96.04187%, 96.04187%, 97.172546%)" offset="0.828125"/><stop stop-opacity="1" stop-color="rgb(96.414185%, 96.414185%, 97.438049%)" offset="0.84375"/><stop stop-opacity="1" stop-color="rgb(96.786499%, 96.786499%, 97.703552%)" offset="0.859375"/><stop stop-opacity="1" stop-color="rgb(97.158813%, 97.158813%, 97.970581%)" offset="0.875"/><stop stop-opacity="1" stop-color="rgb(97.531128%, 97.531128%, 98.236084%)" offset="0.890625"/><stop stop-opacity="1" stop-color="rgb(97.903442%, 97.903442%, 98.501587%)" offset="0.90625"/><stop stop-opacity="1" stop-color="rgb(98.275757%, 98.275757%, 98.768616%)" offset="0.921875"/><stop stop-opacity="1" stop-color="rgb(98.648071%, 98.648071%, 99.034119%)" offset="0.9375"/><stop stop-opacity="1" stop-color="rgb(99.020386%, 99.020386%, 99.299622%)" offset="0.953125"/><stop stop-opacity="1" stop-color="rgb(99.3927%, 99.3927%, 99.565125%)" offset="0.96875"/><stop stop-opacity="1" stop-color="rgb(99.765015%, 99.765015%, 99.832153%)" offset="0.984375"/><stop stop-opacity="1" stop-color="rgb(99.975586%, 99.975586%, 99.981689%)" offset="1"/></linearGradient><clipPath id="2ed15097cf"><path d="M 23 33 L 48 33 L 48 51 L 23 51 Z M 23 33 " clip-rule="nonzero"/></clipPath><clipPath id="2a96993885"><path d="M 40.921875 33.125 C 40.394531 33.351562 28.628906 37.875 27.496094 38.476562 C 26.066406 39.304688 25.007812 40.585938 24.632812 42.171875 C 24.105469 43.980469 23.574219 48.277344 23.800781 49.332031 C 24.027344 50.386719 24.480469 50.914062 25.460938 50.613281 C 26.367188 50.3125 46.277344 44.28125 46.953125 44.054688 C 47.558594 43.902344 48.238281 43.453125 47.632812 42.546875 C 47.105469 41.644531 42.730469 34.480469 42.429688 33.878906 C 41.976562 33.277344 41.75 32.824219 40.921875 33.125 Z M 40.921875 33.125 " clip-rule="nonzero"/></clipPath><linearGradient x1="-114.162003" gradientTransform="matrix(24.119833, 0, 0, -17.667959, 2789.363456, 8357.338761)" y1="471.164521" x2="-114.162003" gradientUnits="userSpaceOnUse" y2="470.140583" id="5e75b7206c"><stop stop-opacity="1" stop-color="rgb(76.899719%, 76.899719%, 83.499146%)" offset="0"/><stop stop-opacity="1" stop-color="rgb(76.939392%, 76.939392%, 83.528137%)" offset="0.015625"/><stop stop-opacity="1" stop-color="rgb(77.163696%, 77.163696%, 83.688354%)" offset="0.03125"/><stop stop-opacity="1" stop-color="rgb(77.534485%, 77.534485%, 83.952332%)" offset="0.046875"/><stop stop-opacity="1" stop-color="rgb(77.903748%, 77.903748%, 84.216309%)" offset="0.0625"/><stop stop-opacity="1" stop-color="rgb(78.27301%, 78.27301%, 84.480286%)" offset="0.078125"/><stop stop-opacity="1" stop-color="rgb(78.642273%, 78.642273%, 84.744263%)" offset="0.09375"/><stop stop-opacity="1" stop-color="rgb(79.013062%, 79.013062%, 85.00824%)" offset="0.109375"/><stop stop-opacity="1" stop-color="rgb(79.382324%, 79.382324%, 85.272217%)" offset="0.125"/><stop stop-opacity="1" stop-color="rgb(79.751587%, 79.751587%, 85.536194%)" offset="0.140625"/><stop stop-opacity="1" stop-color="rgb(80.12085%, 80.12085%, 85.800171%)" offset="0.15625"/><stop stop-opacity="1" stop-color="rgb(80.490112%, 80.490112%, 86.064148%)" offset="0.171875"/><stop stop-opacity="1" stop-color="rgb(80.860901%, 80.860901%, 86.328125%)" offset="0.1875"/><stop stop-opacity="1" stop-color="rgb(81.230164%, 81.230164%, 86.592102%)" offset="0.203125"/><stop stop-opacity="1" stop-color="rgb(81.599426%, 81.599426%, 86.856079%)" offset="0.21875"/><stop stop-opacity="1" stop-color="rgb(81.968689%, 81.968689%, 87.120056%)" offset="0.234375"/><stop stop-opacity="1" stop-color="rgb(82.337952%, 82.337952%, 87.384033%)" offset="0.25"/><stop stop-opacity="1" stop-color="rgb(82.70874%, 82.70874%, 87.64801%)" offset="0.265625"/><stop stop-opacity="1" stop-color="rgb(83.078003%, 83.078003%, 87.911987%)" offset="0.28125"/><stop stop-opacity="1" stop-color="rgb(83.447266%, 83.447266%, 88.175964%)" offset="0.296875"/><stop stop-opacity="1" stop-color="rgb(83.816528%, 83.816528%, 88.439941%)" offset="0.3125"/><stop stop-opacity="1" stop-color="rgb(84.185791%, 84.185791%, 88.703918%)" offset="0.328125"/><stop stop-opacity="1" stop-color="rgb(84.55658%, 84.55658%, 88.967896%)" offset="0.34375"/><stop stop-opacity="1" stop-color="rgb(84.925842%, 84.925842%, 89.231873%)" offset="0.359375"/><stop stop-opacity="1" stop-color="rgb(85.295105%, 85.295105%, 89.49585%)" offset="0.375"/><stop stop-opacity="1" stop-color="rgb(85.664368%, 85.664368%, 89.759827%)" offset="0.390625"/><stop stop-opacity="1" stop-color="rgb(86.03363%, 86.03363%, 90.023804%)" offset="0.40625"/><stop stop-opacity="1" stop-color="rgb(86.404419%, 86.404419%, 90.287781%)" offset="0.421875"/><stop stop-opacity="1" stop-color="rgb(86.773682%, 86.773682%, 90.551758%)" offset="0.4375"/><stop stop-opacity="1" stop-color="rgb(87.142944%, 87.142944%, 90.815735%)" offset="0.453125"/><stop stop-opacity="1" stop-color="rgb(87.512207%, 87.512207%, 91.079712%)" offset="0.46875"/><stop stop-opacity="1" stop-color="rgb(87.88147%, 87.88147%, 91.343689%)" offset="0.484375"/><stop stop-opacity="1" stop-color="rgb(88.252258%, 88.252258%, 91.607666%)" offset="0.5"/><stop stop-opacity="1" stop-color="rgb(88.621521%, 88.621521%, 91.871643%)" offset="0.515625"/><stop stop-opacity="1" stop-color="rgb(88.990784%, 88.990784%, 92.13562%)" offset="0.53125"/><stop stop-opacity="1" stop-color="rgb(89.360046%, 89.360046%, 92.399597%)" offset="0.546875"/><stop stop-opacity="1" stop-color="rgb(89.730835%, 89.730835%, 92.663574%)" offset="0.5625"/><stop stop-opacity="1" stop-color="rgb(90.100098%, 90.100098%, 92.927551%)" offset="0.578125"/><stop stop-opacity="1" stop-color="rgb(90.46936%, 90.46936%, 93.191528%)" offset="0.59375"/><stop stop-opacity="1" stop-color="rgb(90.838623%, 90.838623%, 93.455505%)" offset="0.609375"/><stop stop-opacity="1" stop-color="rgb(91.207886%, 91.207886%, 93.719482%)" offset="0.625"/><stop stop-opacity="1" stop-color="rgb(91.578674%, 91.578674%, 93.983459%)" offset="0.640625"/><stop stop-opacity="1" stop-color="rgb(91.947937%, 91.947937%, 94.247437%)" offset="0.65625"/><stop stop-opacity="1" stop-color="rgb(92.3172%, 92.3172%, 94.511414%)" offset="0.671875"/><stop stop-opacity="1" stop-color="rgb(92.686462%, 92.686462%, 94.775391%)" offset="0.6875"/><stop stop-opacity="1" stop-color="rgb(93.055725%, 93.055725%, 95.039368%)" offset="0.703125"/><stop stop-opacity="1" stop-color="rgb(93.426514%, 93.426514%, 95.303345%)" offset="0.71875"/><stop stop-opacity="1" stop-color="rgb(93.795776%, 93.795776%, 95.567322%)" offset="0.734375"/><stop stop-opacity="1" stop-color="rgb(94.165039%, 94.165039%, 95.831299%)" offset="0.75"/><stop stop-opacity="1" stop-color="rgb(94.534302%, 94.534302%, 96.095276%)" offset="0.765625"/><stop stop-opacity="1" stop-color="rgb(94.903564%, 94.903564%, 96.359253%)" offset="0.78125"/><stop stop-opacity="1" stop-color="rgb(95.274353%, 95.274353%, 96.62323%)" offset="0.796875"/><stop stop-opacity="1" stop-color="rgb(95.643616%, 95.643616%, 96.887207%)" offset="0.8125"/><stop stop-opacity="1" stop-color="rgb(96.012878%, 96.012878%, 97.151184%)" offset="0.828125"/><stop stop-opacity="1" stop-color="rgb(96.382141%, 96.382141%, 97.415161%)" offset="0.84375"/><stop stop-opacity="1" stop-color="rgb(96.751404%, 96.751404%, 97.679138%)" offset="0.859375"/><stop stop-opacity="1" stop-color="rgb(97.122192%, 97.122192%, 97.943115%)" offset="0.875"/><stop stop-opacity="1" stop-color="rgb(97.491455%, 97.491455%, 98.207092%)" offset="0.890625"/><stop stop-opacity="1" stop-color="rgb(97.860718%, 97.860718%, 98.471069%)" offset="0.90625"/><stop stop-opacity="1" stop-color="rgb(98.22998%, 98.22998%, 98.735046%)" offset="0.921875"/><stop stop-opacity="1" stop-color="rgb(98.599243%, 98.599243%, 98.999023%)" offset="0.9375"/><stop stop-opacity="1" stop-color="rgb(98.970032%, 98.970032%, 99.263%)" offset="0.953125"/><stop stop-opacity="1" stop-color="rgb(99.339294%, 99.339294%, 99.526978%)" offset="0.96875"/><stop stop-opacity="1" stop-color="rgb(99.708557%, 99.708557%, 99.790955%)" offset="0.984375"/><stop stop-opacity="1" stop-color="rgb(99.946594%, 99.946594%, 99.961853%)" offset="1"/></linearGradient><clipPath id="954ea068dd"><path d="M 7 42 L 19 42 L 19 56 L 7 56 Z M 7 42 " clip-rule="nonzero"/></clipPath><clipPath id="c3ec0ffd06"><path d="M 15.507812 51.214844 C 15.207031 52.269531 13.921875 52.875 12.488281 53.550781 C 11.511719 54.003906 9.171875 55.058594 7.816406 55.664062 C 8.039062 52.875 8.796875 47.296875 10.078125 44.507812 L 16.789062 42.171875 C 17.46875 41.945312 18.824219 41.644531 18.449219 43.453125 C 18.070312 45.261719 15.808594 50.160156 15.507812 51.214844 Z M 15.507812 51.214844 " clip-rule="nonzero"/></clipPath><linearGradient x1="-109.532997" gradientTransform="matrix(10.698424, 0, 0, -13.664365, 1184.993273, 6424.986793)" y1="467.152643" x2="-109.532997" gradientUnits="userSpaceOnUse" y2="466.126583" id="85cddef640"><stop stop-opacity="1" stop-color="rgb(88.598633%, 88.598633%, 93.699646%)" offset="0"/><stop stop-opacity="1" stop-color="rgb(88.635254%, 88.635254%, 93.719482%)" offset="0.03125"/><stop stop-opacity="1" stop-color="rgb(88.85498%, 88.85498%, 93.840027%)" offset="0.0625"/><stop stop-opacity="1" stop-color="rgb(89.221191%, 89.221191%, 94.042969%)" offset="0.09375"/><stop stop-opacity="1" stop-color="rgb(89.585876%, 89.585876%, 94.244385%)" offset="0.125"/><stop stop-opacity="1" stop-color="rgb(89.952087%, 89.952087%, 94.445801%)" offset="0.15625"/><stop stop-opacity="1" stop-color="rgb(90.316772%, 90.316772%, 94.648743%)" offset="0.1875"/><stop stop-opacity="1" stop-color="rgb(90.682983%, 90.682983%, 94.850159%)" offset="0.21875"/><stop stop-opacity="1" stop-color="rgb(91.047668%, 91.047668%, 95.053101%)" offset="0.25"/><stop stop-opacity="1" stop-color="rgb(91.413879%, 91.413879%, 95.254517%)" offset="0.28125"/><stop stop-opacity="1" stop-color="rgb(91.778564%, 91.778564%, 95.455933%)" offset="0.3125"/><stop stop-opacity="1" stop-color="rgb(92.144775%, 92.144775%, 95.658875%)" offset="0.34375"/><stop stop-opacity="1" stop-color="rgb(92.510986%, 92.510986%, 95.860291%)" offset="0.375"/><stop stop-opacity="1" stop-color="rgb(92.875671%, 92.875671%, 96.063232%)" offset="0.40625"/><stop stop-opacity="1" stop-color="rgb(93.241882%, 93.241882%, 96.264648%)" offset="0.4375"/><stop stop-opacity="1" stop-color="rgb(93.606567%, 93.606567%, 96.466064%)" offset="0.46875"/><stop stop-opacity="1" stop-color="rgb(93.972778%, 93.972778%, 96.669006%)" offset="0.5"/><stop stop-opacity="1" stop-color="rgb(94.337463%, 94.337463%, 96.870422%)" offset="0.53125"/><stop stop-opacity="1" stop-color="rgb(94.703674%, 94.703674%, 97.071838%)" offset="0.5625"/><stop stop-opacity="1" stop-color="rgb(95.068359%, 95.068359%, 97.27478%)" offset="0.59375"/><stop stop-opacity="1" stop-color="rgb(95.43457%, 95.43457%, 97.476196%)" offset="0.625"/><stop stop-opacity="1" stop-color="rgb(95.800781%, 95.800781%, 97.679138%)" offset="0.65625"/><stop stop-opacity="1" stop-color="rgb(96.165466%, 96.165466%, 97.880554%)" offset="0.6875"/><stop stop-opacity="1" stop-color="rgb(96.531677%, 96.531677%, 98.08197%)" offset="0.71875"/><stop stop-opacity="1" stop-color="rgb(96.896362%, 96.896362%, 98.284912%)" offset="0.75"/><stop stop-opacity="1" stop-color="rgb(97.262573%, 97.262573%, 98.486328%)" offset="0.78125"/><stop stop-opacity="1" stop-color="rgb(97.627258%, 97.627258%, 98.68927%)" offset="0.8125"/><stop stop-opacity="1" stop-color="rgb(97.993469%, 97.993469%, 98.890686%)" offset="0.84375"/><stop stop-opacity="1" stop-color="rgb(98.358154%, 98.358154%, 99.092102%)" offset="0.875"/><stop stop-opacity="1" stop-color="rgb(98.724365%, 98.724365%, 99.295044%)" offset="0.90625"/><stop stop-opacity="1" stop-color="rgb(99.090576%, 99.090576%, 99.49646%)" offset="0.9375"/><stop stop-opacity="1" stop-color="rgb(99.455261%, 99.455261%, 99.697876%)" offset="0.96875"/><stop stop-opacity="1" stop-color="rgb(99.81842%, 99.81842%, 99.899292%)" offset="1"/></linearGradient><clipPath id="406ff66f81"><path d="M 111 51 L 152 51 L 152 149.585938 L 111 149.585938 Z M 111 51 " clip-rule="nonzero"/></clipPath><clipPath id="3a57a8dafb"><path d="M 111 51 L 141 51 L 141 149.585938 L 111 149.585938 Z M 111 51 " clip-rule="nonzero"/></clipPath><clipPath id="05c237ce4a"><path d="M 110 139 L 152 139 L 152 149.585938 L 110 149.585938 Z M 110 139 " clip-rule="nonzero"/></clipPath></defs><rect x="-27" width="324" fill="#ffffff" y="-15" height="179.999997" fill-opacity="1"/><rect x="-27" width="324" fill="#ffffff" y="-15" height="179.999997" fill-opacity="1"/><path fill="#000000" d="M 58.078125 78.578125 L 56.945312 75.863281 L 0.535156 97.722656 L 1.667969 100.4375 Z M 58.078125 78.578125 " fill-opacity="1" fill-rule="nonzero"/><path fill="#363636" d="M 3.96875 61.695312 L 9.625 59.507812 L 10.753906 62.523438 L 5.101562 64.707031 Z M 3.96875 61.695312 " fill-opacity="1" fill-rule="nonzero"/><path fill="#000000" d="M 1.179688 57.09375 L 3.816406 56.039062 C 4.496094 55.738281 5.324219 56.117188 5.628906 56.871094 L 9.550781 67.121094 C 9.851562 67.800781 9.472656 68.628906 8.71875 68.929688 L 6.078125 69.984375 C 5.402344 70.285156 4.570312 69.910156 4.269531 69.15625 L 0.347656 58.90625 C 0.121094 58.152344 0.5 57.320312 1.179688 57.09375 Z M 1.179688 57.09375 " fill-opacity="1" fill-rule="nonzero"/><path fill="#a2384d" d="M 118.144531 41.71875 C 118.144531 41.71875 116.261719 46.164062 112.792969 47.371094 L 34.359375 74.960938 C 31.191406 76.089844 17.542969 78.804688 16.261719 78.578125 C 14.980469 78.203125 13.773438 77.449219 12.867188 76.46875 C 11.886719 74.734375 10.980469 73 10.152344 71.191406 C 9.851562 70.285156 10.832031 68.25 10.226562 66.894531 L 6.984375 59.128906 C 6.683594 58.375 7.816406 57.773438 7.738281 57.398438 C 7.664062 56.945312 8.492188 47.070312 10.453125 43.902344 C 12.414062 40.738281 39.5625 31.242188 48.6875 28.753906 C 57.8125 26.265625 63.773438 26.492188 70.859375 28.074219 C 78.023438 29.65625 82.476562 30.636719 83.378906 30.636719 C 84.359375 30.636719 93.03125 28.527344 98.234375 27.847656 C 103.363281 27.171875 106.304688 27.019531 107.285156 27.320312 C 108.265625 27.621094 110.453125 28.226562 112.867188 31.390625 C 112.867188 31.390625 114.148438 31.464844 114.601562 31.917969 C 115.054688 32.21875 118.070312 37.875 118.144531 41.71875 Z M 118.144531 41.71875 " fill-opacity="1" fill-rule="nonzero"/><path fill="#8c263e" d="M 114.527344 31.691406 C 114.527344 31.691406 114.601562 31.691406 114.601562 31.769531 C 115.054688 32.21875 118.070312 37.949219 118.144531 41.71875 C 118.144531 41.71875 116.261719 46.164062 112.792969 47.371094 L 34.359375 74.960938 C 31.191406 76.089844 17.542969 78.804688 16.261719 78.578125 C 14.980469 78.203125 13.773438 77.449219 12.867188 76.46875 C 11.886719 74.734375 10.980469 73 10.152344 71.191406 C 9.851562 70.285156 10.832031 68.25 10.226562 66.894531 L 8.039062 61.695312 Z M 114.527344 31.691406 " fill-opacity="1" fill-rule="nonzero"/><path stroke-linecap="butt" transform="matrix(0.754143, 0, 0, 0.753788, 0.273111, 26.717773)" fill-opacity="1" fill="#000000" fill-rule="nonzero" stroke-linejoin="miter" d="M 36.398329 47.298881 C 34.000119 45.101645 29.89778 40.10086 28.799679 36.898284 C 27.701579 33.799352 29.89778 19.501769 32.30117 16.599759 C 34.398957 14.101957 36.600338 13.298722 43.002473 10.702459 C 44.100574 10.298251 45.302269 9.800763 46.700794 9.199633 C 56.298816 5.297465 69.802347 1.799506 72.697811 1.198376 C 76.701735 0.498784 80.700479 0.498784 84.699223 1.099915 C 90.298501 2.001611 95.799364 3.19869 101.201813 5.002082 C 106.599082 6.800292 108.199615 7.701988 110.198987 10.899381 C 112.301954 14.101957 117.098375 27.000356 119.097747 34.198378 L 118.698909 34.302021 C 116.601122 27.098817 111.897936 14.298879 109.800149 11.101486 C 107.800777 7.89891 106.200243 7.100857 100.999804 5.401108 C 95.602535 3.70136 90.101672 2.400637 84.502394 1.602584 C 80.602064 1.001454 76.59814 1.001454 72.697811 1.701045 C 70.698439 2.100072 63.799051 3.898282 56.599239 6.199161 C 57.500511 7.598345 63.602222 16.69822 69.097905 26.202303 C 75.101201 36.400796 79.498784 48.801708 79.498784 48.900169 L 79.099945 48.99863 C 79.099945 48.900169 74.598768 36.499258 68.699067 26.300764 C 63.099789 16.69822 56.899663 7.499884 56.200401 6.297622 C 52.999334 7.297779 49.699852 8.500041 46.700794 9.702302 C 45.302269 10.298251 44.100574 10.702459 43.002473 11.199947 C 36.600338 13.697748 34.502552 14.599445 32.399585 16.998785 C 30.001375 19.802334 27.898408 33.897813 28.898094 37.001927 C 30.001375 40.10086 34.000119 44.998002 36.398329 47.298881 Z M 36.398329 47.298881 " stroke="#000000" stroke-width="0.4" stroke-opacity="1" stroke-miterlimit="4"/><path fill="#0035a3" d="M 97.179688 29.65625 C 96.351562 29.882812 95.519531 30.035156 94.691406 30.183594 C 93.484375 30.410156 92.355469 30.710938 91.222656 31.089844 C 90.46875 31.316406 90.015625 31.464844 89.789062 31.390625 C 89.5625 31.316406 89.261719 31.316406 89.035156 31.316406 C 87.753906 31.164062 85.566406 31.015625 84.511719 30.261719 L 84.964844 30.183594 C 86.019531 30.710938 87.980469 30.9375 89.109375 31.015625 C 89.414062 31.015625 89.640625 31.089844 89.941406 31.089844 C 90.394531 31.089844 90.769531 30.9375 91.222656 30.789062 C 92.355469 30.410156 93.5625 30.109375 94.765625 29.882812 C 95.519531 29.734375 96.351562 29.507812 97.257812 29.355469 C 99.894531 28.675781 102.535156 28.226562 105.25 28 C 107.210938 27.925781 108.644531 27.925781 109.625 28 C 109.773438 28.074219 109.925781 28.226562 110.152344 28.300781 C 108.566406 28.226562 106.910156 28.226562 105.324219 28.300781 C 102.460938 28.527344 99.820312 28.980469 97.179688 29.65625 Z M 97.179688 29.65625 " fill-opacity="1" fill-rule="nonzero"/><path fill="#000000" d="M 23.425781 61.917969 C 31.042969 59.28125 39.488281 62.144531 43.335938 68.476562 L 90.242188 51.96875 C 88.582031 44.882812 92.730469 37.496094 100.347656 34.859375 C 106.15625 32.75 112.714844 33.953125 117.390625 38.023438 C 117.769531 39.230469 117.996094 40.511719 118.070312 41.792969 C 118.070312 41.792969 116.183594 46.242188 112.714844 47.445312 L 93.257812 54.304688 L 91.296875 54.984375 L 44.691406 71.417969 L 42.882812 72.019531 L 34.285156 75.035156 C 31.117188 76.167969 17.46875 78.878906 16.183594 78.652344 C 14.902344 78.277344 13.773438 77.597656 12.867188 76.695312 C 12.640625 70.363281 16.636719 64.332031 23.425781 61.917969 Z M 23.425781 61.917969 " fill-opacity="1" fill-rule="nonzero"/><path fill="#4d4d4d" d="M 116.9375 43.753906 C 116.035156 45.109375 114.601562 46.769531 112.714844 47.371094 L 95.21875 53.550781 C 95.070312 53.328125 94.992188 53.023438 94.84375 52.800781 C 92.429688 47.070312 95.597656 40.585938 101.855469 38.402344 C 107.738281 36.367188 114.222656 38.703125 116.9375 43.753906 Z M 116.9375 43.753906 " fill-opacity="1" fill-rule="nonzero"/><path fill="#2b2b2b" d="M 17.46875 78.578125 C 16.035156 73.226562 19.125 67.574219 24.859375 65.539062 C 31.117188 63.351562 38.132812 66.214844 40.46875 71.945312 C 40.542969 72.246094 40.695312 72.472656 40.769531 72.773438 L 34.285156 75.035156 C 31.644531 75.941406 21.164062 78.125 17.46875 78.578125 Z M 17.46875 78.578125 " fill-opacity="1" fill-rule="nonzero"/><path fill="#404040" d="M 115.011719 44.996094 C 115.222656 45.546875 115.371094 46.113281 115.460938 46.695312 C 115.550781 47.28125 115.578125 47.871094 115.542969 48.46875 C 115.503906 49.0625 115.410156 49.65625 115.25 50.238281 C 115.089844 50.824219 114.875 51.394531 114.597656 51.945312 C 114.320312 52.496094 113.992188 53.019531 113.609375 53.519531 C 113.226562 54.015625 112.796875 54.476562 112.324219 54.898438 C 111.847656 55.320312 111.335938 55.699219 110.789062 56.03125 C 110.238281 56.363281 109.664062 56.644531 109.0625 56.875 C 108.460938 57.105469 107.847656 57.28125 107.214844 57.398438 C 106.585938 57.515625 105.949219 57.578125 105.316406 57.578125 C 104.679688 57.582031 104.050781 57.523438 103.4375 57.410156 C 102.820312 57.296875 102.222656 57.125 101.648438 56.898438 C 101.074219 56.675781 100.535156 56.394531 100.023438 56.066406 C 99.515625 55.738281 99.046875 55.363281 98.625 54.941406 C 98.199219 54.523438 97.824219 54.0625 97.5 53.570312 C 97.175781 53.074219 96.910156 52.554688 96.699219 52.003906 C 96.488281 51.453125 96.339844 50.886719 96.25 50.300781 C 96.160156 49.71875 96.132812 49.125 96.167969 48.53125 C 96.203125 47.933594 96.300781 47.34375 96.460938 46.757812 C 96.617188 46.171875 96.835938 45.605469 97.113281 45.054688 C 97.386719 44.5 97.71875 43.976562 98.101562 43.480469 C 98.484375 42.984375 98.910156 42.523438 99.386719 42.101562 C 99.859375 41.675781 100.371094 41.300781 100.921875 40.964844 C 101.46875 40.632812 102.042969 40.351562 102.644531 40.121094 C 103.246094 39.890625 103.863281 39.71875 104.492188 39.597656 C 105.125 39.480469 105.757812 39.421875 106.394531 39.417969 C 107.03125 39.417969 107.65625 39.472656 108.273438 39.585938 C 108.890625 39.703125 109.484375 39.871094 110.058594 40.097656 C 110.632812 40.324219 111.175781 40.601562 111.683594 40.933594 C 112.195312 41.261719 112.660156 41.636719 113.085938 42.054688 C 113.511719 42.476562 113.882812 42.933594 114.207031 43.429688 C 114.53125 43.921875 114.800781 44.445312 115.011719 44.996094 Z M 115.011719 44.996094 " fill-opacity="1" fill-rule="nonzero"/><path fill="#eeeeee" d="M 99.972656 50.988281 C 101.253906 54.15625 105.175781 55.738281 108.566406 54.53125 C 112.035156 53.328125 113.773438 49.785156 112.414062 46.617188 C 111.132812 43.453125 107.210938 41.867188 103.816406 43.074219 C 100.347656 44.28125 98.613281 47.824219 99.972656 50.988281 Z M 99.972656 50.988281 " fill-opacity="1" fill-rule="nonzero"/><path fill="#000000" d="M 39.035156 76.390625 C 39.035156 77.035156 38.972656 77.671875 38.847656 78.304688 C 38.722656 78.933594 38.535156 79.546875 38.289062 80.140625 C 38.042969 80.738281 37.742188 81.300781 37.382812 81.835938 C 37.027344 82.371094 36.621094 82.867188 36.164062 83.320312 C 35.710938 83.777344 35.214844 84.183594 34.679688 84.539062 C 34.144531 84.898438 33.578125 85.199219 32.984375 85.445312 C 32.390625 85.691406 31.777344 85.878906 31.144531 86.003906 C 30.511719 86.128906 29.875 86.191406 29.230469 86.191406 C 28.589844 86.191406 27.949219 86.128906 27.320312 86.003906 C 26.6875 85.878906 26.074219 85.691406 25.480469 85.445312 C 24.886719 85.199219 24.320312 84.898438 23.785156 84.539062 C 23.25 84.183594 22.753906 83.777344 22.300781 83.320312 C 21.84375 82.867188 21.4375 82.371094 21.082031 81.835938 C 20.722656 81.300781 20.421875 80.738281 20.175781 80.140625 C 19.929688 79.546875 19.742188 78.933594 19.617188 78.304688 C 19.492188 77.671875 19.429688 77.035156 19.429688 76.390625 C 19.429688 75.75 19.492188 75.113281 19.617188 74.480469 C 19.742188 73.847656 19.929688 73.238281 20.175781 72.640625 C 20.421875 72.046875 20.722656 71.484375 21.082031 70.949219 C 21.4375 70.414062 21.84375 69.917969 22.300781 69.464844 C 22.753906 69.007812 23.25 68.601562 23.785156 68.246094 C 24.320312 67.886719 24.886719 67.585938 25.480469 67.339844 C 26.074219 67.09375 26.6875 66.90625 27.320312 66.78125 C 27.949219 66.65625 28.589844 66.59375 29.230469 66.59375 C 29.875 66.59375 30.511719 66.65625 31.144531 66.78125 C 31.777344 66.90625 32.390625 67.09375 32.984375 67.339844 C 33.578125 67.585938 34.144531 67.886719 34.679688 68.246094 C 35.214844 68.601562 35.710938 69.007812 36.164062 69.464844 C 36.621094 69.917969 37.027344 70.414062 37.382812 70.949219 C 37.742188 71.484375 38.042969 72.046875 38.289062 72.640625 C 38.535156 73.238281 38.722656 73.847656 38.847656 74.480469 C 38.972656 75.113281 39.035156 75.75 39.035156 76.390625 Z M 39.035156 76.390625 " fill-opacity="1" fill-rule="nonzero"/><path fill="#a0a0a0" d="M 22.972656 78.503906 C 24.253906 81.820312 28.175781 83.476562 31.570312 82.195312 C 34.964844 80.914062 36.773438 77.222656 35.417969 73.90625 C 34.132812 70.589844 30.210938 68.929688 26.820312 70.210938 C 23.425781 71.492188 21.691406 75.1875 22.972656 78.503906 Z M 22.972656 78.503906 " fill-opacity="1" fill-rule="nonzero"/><path fill="#ffffff" d="M 99.820312 28.753906 C 100.121094 28.675781 104.871094 27.320312 108.644531 28 C 110.078125 28.828125 111.359375 29.960938 112.339844 31.242188 C 110.605469 31.316406 108.792969 31.242188 107.058594 30.9375 C 104.117188 30.488281 99.441406 28.902344 99.820312 28.753906 Z M 99.820312 28.753906 " fill-opacity="1" fill-rule="nonzero"/><path fill="#fec937" d="M 6.984375 59.128906 C 6.683594 58.375 7.816406 57.773438 7.738281 57.398438 L 7.738281 57.320312 L 12.039062 55.8125 C 12.640625 55.585938 12.941406 55.664062 13.019531 56.339844 C 13.09375 56.945312 10.605469 62.523438 9.925781 66.367188 Z M 6.984375 59.128906 " fill-opacity="1" fill-rule="nonzero"/><g clip-path="url(#583be93f5a)"><g clip-path="url(#c6869e3409)"><path fill="url(#7779233957)" d="M 45.371094 42.398438 L 45.371094 27.847656 L 80.210938 27.847656 L 80.210938 42.398438 Z M 45.371094 42.398438 " fill-rule="nonzero"/></g></g><g clip-path="url(#2ed15097cf)"><g clip-path="url(#2a96993885)"><path fill="url(#5e75b7206c)" d="M 23.574219 50.914062 L 23.574219 32.824219 L 48.238281 32.824219 L 48.238281 50.914062 Z M 23.574219 50.914062 " fill-rule="nonzero"/></g></g><g clip-path="url(#954ea068dd)"><g clip-path="url(#c3ec0ffd06)"><path fill="url(#85cddef640)" d="M 7.816406 55.664062 L 7.816406 41.644531 L 18.824219 41.644531 L 18.824219 55.664062 Z M 7.816406 55.664062 " fill-rule="nonzero"/></g></g><path fill="#c7c8ca" d="M 49.855469 102.625 C 49.855469 103.980469 99.027344 105.113281 159.734375 105.113281 C 220.445312 105.113281 269.613281 103.980469 269.613281 102.625 C 269.613281 101.265625 220.445312 100.136719 159.734375 100.136719 C 99.027344 100.136719 49.855469 101.265625 49.855469 102.625 Z M 49.855469 102.625 " fill-opacity="0.303" fill-rule="nonzero"/><path fill="#2b2b2b" d="M 218.632812 39.757812 C 218.710938 40.136719 218.484375 40.511719 218.183594 40.664062 L 218.105469 40.664062 L 212.828125 41.867188 L 212.828125 70.0625 L 241.9375 70.0625 C 248.800781 70.0625 253.625 72.472656 253.777344 79.257812 L 253.777344 79.710938 C 253.625 86.265625 248.949219 88.828125 242.238281 88.90625 L 100.234375 88.90625 L 100.234375 80.765625 L 81.230469 80.765625 L 81.230469 87.398438 L 66.902344 87.398438 L 66.902344 80.765625 L 59.058594 80.765625 L 59.058594 76.695312 L 100.082031 76.695312 L 100.082031 73.601562 L 102.421875 73.601562 C 116.371094 73.601562 187.414062 73.679688 203.476562 73.679688 L 206.644531 73.679688 L 211.167969 70.0625 L 211.167969 41.265625 C 211.167969 40.964844 211.394531 40.664062 211.695312 40.511719 L 211.773438 40.511719 L 217.652344 39.15625 C 218.105469 39.078125 218.484375 39.304688 218.632812 39.757812 Z M 218.632812 39.757812 " fill-opacity="1" fill-rule="nonzero"/><path fill="#686868" d="M 207.097656 1.164062 L 207.097656 77.222656 L 60.867188 77.222656 L 58.226562 84.835938 L 50.386719 84.835938 L 50.386719 77.222656 L 50.308594 77.222656 L 50.308594 1.164062 Z M 207.097656 1.164062 " fill-opacity="1" fill-rule="nonzero"/><path fill="#000000" d="M 226.628906 77.523438 L 226.855469 77.523438 C 233.71875 77.671875 239.296875 83.25 239.296875 90.113281 L 239.296875 90.335938 C 239.070312 97.195312 233.492188 102.699219 226.628906 102.699219 L 226.402344 102.699219 C 219.539062 102.550781 213.957031 96.972656 213.957031 90.113281 C 213.957031 83.101562 219.613281 77.523438 226.628906 77.523438 Z M 99.253906 77.523438 L 99.480469 77.523438 C 104.082031 77.597656 108.078125 80.160156 110.265625 83.855469 L 195.859375 83.855469 L 195.859375 87.398438 L 169.765625 87.398438 L 169.765625 90.488281 L 154.382812 90.488281 L 154.382812 87.398438 L 111.621094 87.398438 C 111.773438 88.226562 111.921875 89.054688 111.921875 89.886719 L 111.921875 90.335938 C 111.695312 97.195312 106.117188 102.699219 99.253906 102.699219 L 99.027344 102.699219 C 92.089844 102.550781 86.585938 96.972656 86.585938 90.113281 C 86.585938 83.101562 92.238281 77.523438 99.253906 77.523438 Z M 267.957031 87.324219 C 268.859375 87.324219 269.613281 88 269.691406 88.90625 L 269.691406 89.207031 C 269.613281 90.1875 268.859375 90.941406 267.957031 90.941406 L 244.726562 90.941406 C 243.824219 90.941406 243.070312 90.261719 242.992188 89.359375 L 242.992188 89.054688 C 242.992188 88.074219 243.746094 87.324219 244.726562 87.324219 Z M 80.398438 85.964844 C 81.605469 85.964844 82.585938 86.945312 82.585938 88.152344 L 82.585938 88.300781 C 82.664062 89.507812 81.605469 90.488281 80.398438 90.488281 L 66.902344 90.488281 C 65.695312 90.488281 64.714844 89.507812 64.714844 88.300781 L 64.714844 88.152344 C 64.714844 86.945312 65.695312 85.964844 66.902344 85.964844 Z M 58.304688 83.78125 C 58.679688 83.78125 59.058594 84.082031 59.058594 84.535156 L 59.058594 89.734375 C 59.058594 90.109375 58.757812 90.488281 58.304688 90.488281 L 50.535156 90.488281 C 50.160156 90.488281 49.78125 90.1875 49.78125 89.734375 L 49.78125 84.535156 C 49.78125 84.15625 50.082031 83.78125 50.535156 83.78125 Z M 58.304688 83.78125 " fill-opacity="1" fill-rule="nonzero"/><path fill="#e6e6e6" d="M 78.0625 80.238281 L 79.570312 80.238281 L 79.570312 85.890625 L 78.0625 85.890625 Z M 78.0625 80.238281 " fill-opacity="1" fill-rule="nonzero"/><path fill="#e6e6e6" d="M 68.332031 80.238281 L 69.84375 80.238281 L 69.84375 85.890625 L 68.332031 85.890625 Z M 68.332031 80.238281 " fill-opacity="1" fill-rule="nonzero"/><path fill="#545454" d="M 189.222656 82.347656 L 208.152344 82.347656 L 208.152344 90.488281 L 189.222656 90.488281 Z M 189.222656 82.347656 " fill-opacity="1" fill-rule="nonzero"/><path fill="#545454" d="M 154.382812 81.292969 L 169.765625 81.292969 L 169.765625 85.890625 L 154.382812 85.890625 Z M 154.382812 81.292969 " fill-opacity="1" fill-rule="nonzero"/><path fill="#a2384d" d="M 218.484375 29.207031 L 254.457031 29.207031 L 261.015625 40.136719 L 267.203125 58.980469 L 267.277344 87.398438 L 244.578125 87.398438 C 244.578125 75.636719 233.792969 75.109375 233.792969 75.109375 L 214.863281 75.109375 L 214.863281 33.425781 C 214.789062 31.316406 216.296875 29.207031 218.484375 29.207031 Z M 218.484375 29.207031 " fill-opacity="1" fill-rule="nonzero"/><path fill="#ffffff" d="M 222.480469 61.84375 L 228.136719 61.84375 L 228.136719 71.039062 L 222.480469 71.039062 Z M 222.480469 61.84375 " fill-opacity="0.593" fill-rule="nonzero"/><path fill="#ffffff" d="M 260.261719 85.890625 L 253.476562 85.890625 C 252.496094 85.890625 251.742188 85.136719 251.742188 84.15625 L 251.742188 84.003906 C 251.742188 83.027344 252.496094 82.273438 253.476562 82.273438 L 260.261719 82.273438 C 261.242188 82.273438 261.996094 83.027344 261.996094 84.003906 L 261.996094 84.15625 C 261.921875 85.136719 261.167969 85.890625 260.261719 85.890625 Z M 260.261719 85.890625 " fill-opacity="1" fill-rule="nonzero"/><path fill="#af455e" d="M 267.125 84.308594 L 267.050781 84.308594 C 266.523438 84.308594 266.070312 83.855469 266.070312 83.328125 L 266.070312 68.929688 C 266.070312 68.402344 266.523438 67.949219 267.050781 67.949219 L 267.125 67.949219 C 267.652344 67.949219 268.105469 68.402344 268.105469 68.929688 L 268.105469 83.328125 C 268.105469 83.929688 267.652344 84.308594 267.125 84.308594 Z M 267.125 84.308594 " fill-opacity="1" fill-rule="nonzero"/><path fill="#af455e" d="M 254.457031 29.207031 C 254.457031 29.207031 250.460938 9.683594 214.488281 9.757812 C 214.488281 9.757812 213.507812 24.003906 215.015625 26.640625 C 215.015625 26.640625 216.222656 29.207031 217.652344 29.207031 Z M 254.457031 29.207031 " fill-opacity="1" fill-rule="nonzero"/><path fill="#ffffff" d="M 256.945312 63.878906 L 252.117188 63.878906 C 251.589844 63.878906 251.214844 63.503906 251.214844 62.976562 L 251.214844 62.75 C 251.214844 62.222656 251.589844 61.84375 252.117188 61.84375 L 256.945312 61.84375 C 257.472656 61.84375 257.851562 62.222656 257.851562 62.75 L 257.851562 62.976562 C 257.851562 63.503906 257.472656 63.878906 256.945312 63.878906 Z M 256.945312 63.878906 " fill-opacity="0.593" fill-rule="nonzero"/><path fill="#1d1d1d" d="M 222.027344 32.75 L 222.027344 50.085938 C 222.027344 50.085938 225.269531 55.585938 257.546875 59.660156 C 257.546875 59.660156 255.890625 39.832031 245.332031 32.75 Z M 222.027344 32.75 " fill-opacity="1" fill-rule="nonzero"/><path fill="#1d1d1d" d="M 254.378906 29.507812 C 254.378906 29.507812 267.203125 39.53125 267.203125 60.636719 C 267.203125 60.636719 265.164062 60.789062 265.015625 59.808594 C 263.054688 43.074219 255.964844 34.707031 254.378906 29.507812 Z M 254.378906 29.507812 " fill-opacity="1" fill-rule="nonzero"/><path fill="#71b0e0" d="M 218.410156 90.109375 C 218.410156 94.632812 222.105469 98.328125 226.628906 98.328125 C 231.152344 98.328125 234.847656 94.710938 234.847656 90.109375 C 234.847656 85.589844 231.152344 81.894531 226.628906 81.894531 C 222.105469 81.894531 218.410156 85.589844 218.410156 90.109375 Z M 218.410156 90.109375 " fill-opacity="1" fill-rule="nonzero"/><path fill="#71b0e0" d="M 224.214844 90.109375 C 224.214844 91.46875 225.269531 92.523438 226.628906 92.523438 C 227.984375 92.523438 229.042969 91.46875 229.042969 90.109375 C 229.042969 88.753906 227.984375 87.699219 226.628906 87.699219 C 225.269531 87.699219 224.214844 88.753906 224.214844 90.109375 Z M 224.214844 90.109375 " fill-opacity="1" fill-rule="nonzero"/><path fill="#2b2b2b" d="M 218.410156 90.109375 C 218.410156 94.632812 222.105469 98.328125 226.628906 98.328125 C 231.152344 98.328125 234.847656 94.710938 234.847656 90.109375 C 234.847656 85.589844 231.152344 81.894531 226.628906 81.894531 C 222.105469 81.894531 218.410156 85.589844 218.410156 90.109375 Z M 218.410156 90.109375 " fill-opacity="1" fill-rule="nonzero"/><path fill="#000000" d="M 224.214844 90.109375 C 224.214844 91.46875 225.269531 92.523438 226.628906 92.523438 C 227.984375 92.523438 229.042969 91.46875 229.042969 90.109375 C 229.042969 88.753906 227.984375 87.699219 226.628906 87.699219 C 225.269531 87.699219 224.214844 88.753906 224.214844 90.109375 Z M 224.214844 90.109375 " fill-opacity="1" fill-rule="nonzero"/><path fill="#333333" d="M 117.351562 90.109375 C 117.351562 97.046875 123.007812 102.699219 130.023438 102.699219 C 136.960938 102.699219 142.617188 97.046875 142.691406 90.113281 C 142.691406 83.175781 137.035156 77.523438 130.023438 77.523438 C 123.007812 77.523438 117.351562 83.101562 117.351562 90.109375 Z M 117.351562 90.109375 " fill-opacity="1" fill-rule="nonzero"/><path fill="#71b0e0" d="M 121.726562 90.109375 C 121.726562 94.632812 125.421875 98.328125 129.945312 98.328125 C 134.472656 98.328125 138.167969 94.710938 138.167969 90.109375 C 138.167969 85.589844 134.472656 81.894531 129.945312 81.894531 C 125.421875 81.894531 121.726562 85.589844 121.726562 90.109375 Z M 121.726562 90.109375 " fill-opacity="1" fill-rule="nonzero"/><path fill="#e6e6e6" d="M 127.535156 90.109375 C 127.535156 91.46875 128.589844 92.523438 129.945312 92.523438 C 131.304688 92.523438 132.359375 91.46875 132.359375 90.109375 C 132.359375 88.753906 131.304688 87.699219 129.945312 87.699219 C 128.664062 87.699219 127.535156 88.753906 127.535156 90.109375 Z M 127.535156 90.109375 " fill-opacity="1" fill-rule="nonzero"/><path fill="#2b2b2b" d="M 91.035156 90.109375 C 91.035156 94.632812 94.730469 98.328125 99.253906 98.328125 C 103.777344 98.328125 107.472656 94.710938 107.472656 90.109375 C 107.472656 85.589844 103.777344 81.894531 99.253906 81.894531 C 94.730469 81.894531 91.035156 85.589844 91.035156 90.109375 Z M 91.035156 90.109375 " fill-opacity="1" fill-rule="nonzero"/><path fill="#000000" d="M 96.839844 90.109375 C 96.839844 91.46875 97.894531 92.523438 99.253906 92.523438 C 100.609375 92.523438 101.667969 91.46875 101.667969 90.109375 C 101.667969 88.753906 100.609375 87.699219 99.253906 87.699219 C 97.894531 87.699219 96.839844 88.753906 96.839844 90.109375 Z M 96.839844 90.109375 " fill-opacity="1" fill-rule="nonzero"/><path fill="#4d4d4d" d="M 238.394531 32.75 L 242.238281 57.398438 C 238.089844 56.566406 233.945312 55.511719 229.945312 54.230469 L 226.554688 32.75 Z M 238.394531 32.75 " fill-opacity="1" fill-rule="nonzero"/><path fill="#ffffff" d="M 148.5 73.679688 C 150.761719 72.320312 157.324219 58.828125 155.589844 54.910156 C 153.855469 50.988281 141.636719 42.019531 136.359375 41.039062 C 133.265625 40.4375 138.695312 49.558594 140.882812 52.648438 C 143.597656 56.417969 146.765625 54.683594 149.480469 59.28125 C 149.933594 60.1875 146.011719 68.023438 145.40625 71.792969 C 145.257812 73.226562 145.933594 73.753906 146.386719 74.054688 C 147.140625 74.507812 147.445312 74.28125 148.5 73.679688 Z M 148.5 73.679688 " fill-opacity="1" fill-rule="nonzero"/><path fill="#ffd0c9" d="M 145.332031 70.363281 L 144.578125 71.417969 C 143.445312 71.871094 143.523438 72.472656 142.316406 72.847656 C 141.710938 73.074219 140.882812 73.601562 140.429688 73.601562 C 139.828125 73.601562 140.203125 74.355469 140.582031 74.582031 C 141.636719 75.109375 142.238281 74.660156 142.769531 74.734375 C 142.769531 74.960938 142.390625 76.84375 142.164062 78.203125 C 142.011719 79.03125 142.390625 80.011719 142.617188 80.085938 C 144.578125 80.765625 146.238281 78.804688 146.464844 78.125 C 146.765625 77.296875 146.6875 75.636719 148.5 73.601562 C 149.402344 71.644531 146.238281 70.210938 145.332031 70.363281 " fill-opacity="1" fill-rule="evenodd"/><g clip-path="url(#406ff66f81)"><path fill="#a2384d" d="M 145.632812 141.898438 C 144.199219 141.144531 144.050781 139.332031 144.050781 139.332031 L 143.824219 139.332031 C 145.105469 118.304688 148.648438 91.394531 146.011719 80.011719 C 145.03125 76.167969 139.675781 76.089844 139.902344 73.300781 C 141.863281 48.953125 120.292969 38.628906 119.3125 78.804688 L 118.9375 79.105469 C 117.65625 85.363281 113.582031 123.203125 111.09375 146.644531 C 111.695312 147.625 110.566406 148.980469 116.222656 149.058594 C 121.878906 149.058594 121.125 147.097656 120.820312 145.96875 C 119.765625 144.835938 118.785156 142.953125 118.710938 142.273438 C 118.710938 142.273438 130.550781 102.773438 131.605469 98.175781 C 132.210938 101.796875 137.035156 145.96875 137.113281 146.117188 C 137.714844 147.097656 139.074219 147.472656 144.953125 147.625 C 153.175781 147.777344 150.914062 144.609375 150.308594 144.007812 C 149.480469 143.253906 147.066406 142.648438 145.632812 141.898438 Z M 145.632812 141.898438 " fill-opacity="1" fill-rule="nonzero"/></g><g clip-path="url(#3a57a8dafb)"><path fill="#af455e" d="M 125.574219 72.171875 C 124.140625 64.179688 139.675781 76.089844 139.902344 73.300781 C 141.863281 48.953125 120.292969 38.628906 119.3125 78.804688 L 118.9375 79.105469 C 117.65625 85.363281 113.582031 123.203125 111.09375 146.644531 C 111.695312 147.625 110.566406 148.980469 116.222656 149.058594 C 121.878906 149.058594 121.125 147.097656 120.820312 145.96875 C 119.765625 144.835938 117.351562 142.953125 117.277344 142.273438 C 117.277344 142.273438 118.785156 127.425781 119.839844 122.824219 C 124.667969 94.40625 126.554688 77.523438 125.574219 72.171875 Z M 125.574219 72.171875 " fill-opacity="1" fill-rule="nonzero"/></g><g clip-path="url(#05c237ce4a)"><path fill="#000000" d="M 137.113281 146.117188 C 137.714844 147.097656 139.074219 147.472656 144.953125 147.625 C 153.175781 147.777344 150.914062 144.609375 150.308594 144.007812 C 149.480469 143.253906 147.066406 142.648438 145.632812 141.898438 C 144.199219 141.144531 144.050781 139.332031 144.050781 139.332031 L 139.902344 139.332031 C 134.171875 139.332031 136.132812 140.765625 136.582031 144.382812 Z M 111.019531 148.078125 C 111.472656 149.058594 113.582031 149.433594 118.257812 149.585938 C 124.820312 149.734375 123.761719 146.644531 123.3125 146.117188 C 122.632812 145.363281 119.390625 145.515625 119.539062 143.480469 C 119.691406 141.445312 118.863281 141.292969 118.863281 141.292969 L 113.28125 141.292969 C 110.265625 141.292969 110.492188 142.5 110.867188 146.117188 Z M 111.019531 148.078125 " fill-opacity="1" fill-rule="nonzero"/></g><path fill="#ffffff" d="M 146.085938 78.125 C 145.707031 69.230469 145.257812 47.144531 137.867188 41.492188 C 132.359375 39.984375 127.15625 39.609375 121.953125 41.417969 C 115.167969 43.753906 113.882812 44.882812 114.636719 48.050781 C 116.070312 54.910156 119.917969 67.574219 118.410156 80.914062 C 129.417969 82.800781 139.523438 81.96875 146.085938 79.859375 Z M 146.085938 78.125 " fill-opacity="1" fill-rule="nonzero"/><path fill="#ffffff" d="M 102.042969 40.136719 C 102.121094 40.285156 102.121094 40.511719 102.121094 40.738281 C 102.121094 41.417969 101.816406 41.945312 101.515625 41.945312 C 101.289062 41.945312 101.140625 41.792969 101.0625 41.492188 C 101.140625 41.339844 101.140625 41.113281 101.140625 40.890625 C 101.140625 40.585938 101.0625 40.285156 100.988281 40.058594 L 100.761719 40.058594 C 100.835938 40.285156 100.914062 40.585938 100.914062 40.890625 C 100.914062 41.566406 100.609375 42.09375 100.308594 42.09375 C 99.933594 42.09375 99.707031 41.566406 99.707031 40.890625 C 99.707031 40.585938 99.78125 40.285156 99.855469 40.058594 L 98.347656 40.058594 C 98.273438 40.285156 98.199219 40.585938 98.199219 40.890625 C 98.199219 41.71875 98.574219 42.398438 99.027344 42.398438 L 100.308594 42.398438 C 100.460938 42.398438 100.609375 42.320312 100.6875 42.171875 L 101.515625 42.171875 C 101.96875 42.171875 102.34375 41.492188 102.34375 40.664062 C 102.34375 40.4375 102.34375 40.210938 102.269531 40.058594 Z M 102.042969 40.136719 " fill-opacity="1" fill-rule="nonzero"/><path fill="#ffffff" d="M 89.675781 41.039062 L 89.375 41.039062 C 89.375 41.191406 89.375 41.417969 89.375 41.566406 C 89.375 42.699219 88.921875 43.601562 88.320312 43.601562 C 88.015625 43.601562 87.714844 43.300781 87.488281 42.847656 C 87.5625 42.546875 87.5625 42.246094 87.5625 41.867188 C 87.5625 41.566406 87.5625 41.265625 87.488281 41.039062 L 87.113281 41.039062 C 87.1875 41.265625 87.1875 41.566406 87.1875 41.867188 C 87.1875 43 86.734375 43.902344 86.132812 43.902344 C 85.527344 43.902344 85.074219 43 85.074219 41.867188 C 85.074219 41.566406 85.074219 41.265625 85.152344 41.039062 L 82.964844 41.039062 C 82.890625 41.339844 82.585938 41.566406 82.585938 41.867188 C 82.585938 43.300781 83.191406 44.433594 83.945312 44.433594 L 86.054688 44.433594 C 86.28125 44.433594 86.507812 44.28125 86.734375 44.128906 L 88.167969 44.128906 C 88.921875 44.128906 89.523438 43 89.523438 41.566406 C 89.675781 41.339844 89.675781 41.191406 89.675781 41.039062 Z M 89.675781 41.039062 " fill-opacity="1" fill-rule="nonzero"/><path fill="#ffffff" d="M 83.417969 38.628906 L 83.417969 40.285156 L 85 39.304688 L 85.226562 39.078125 L 99.40625 39.382812 L 99.101562 39.757812 L 83.417969 40.285156 L 83.417969 41.566406 L 102.570312 40.511719 L 102.949219 39.078125 Z M 83.417969 38.628906 " fill-opacity="1" fill-rule="nonzero"/><path fill="#ffffff" d="M 60.640625 42.847656 C 60.792969 44.355469 61.472656 45.5625 62.375 45.5625 C 63.28125 45.5625 63.960938 44.433594 64.109375 42.925781 C 62.980469 43.148438 61.847656 43.074219 60.640625 42.847656 Z M 60.640625 42.847656 " fill-opacity="1" fill-rule="nonzero"/><path fill="#ffffff" d="M 59.585938 42.546875 C 59.660156 44.207031 60.414062 45.5625 61.320312 45.5625 L 62.453125 45.5625 L 62.453125 44.808594 C 62.753906 44.355469 62.980469 43.753906 63.054688 43 C 61.847656 43.074219 60.640625 42.847656 59.585938 42.546875 Z M 59.585938 42.546875 " fill-opacity="1" fill-rule="nonzero"/><path fill="#ffffff" d="M 72.558594 40.136719 L 71.425781 40.136719 C 70.445312 40.136719 69.691406 41.566406 69.691406 43.300781 C 69.691406 45.035156 70.445312 46.46875 71.425781 46.46875 L 72.558594 46.46875 C 73.539062 46.46875 74.292969 45.035156 74.292969 43.300781 C 74.292969 41.566406 73.539062 40.136719 72.558594 40.136719 Z M 72.707031 45.714844 C 72.027344 45.714844 71.5 44.65625 71.5 43.300781 C 71.5 41.945312 72.027344 40.890625 72.707031 40.890625 C 73.386719 40.890625 73.914062 41.945312 73.914062 43.300781 C 73.914062 44.65625 73.386719 45.714844 72.707031 45.714844 Z M 72.707031 45.714844 " fill-opacity="1" fill-rule="nonzero"/><path fill="#ffffff" d="M 96.160156 41.644531 L 91.636719 41.945312 C 91.183594 41.945312 90.730469 41.644531 90.730469 41.113281 C 90.730469 40.664062 91.109375 40.210938 91.5625 40.210938 L 96.085938 39.910156 C 96.539062 39.910156 96.992188 40.210938 96.992188 40.738281 C 97.066406 41.191406 96.691406 41.566406 96.160156 41.644531 Z M 96.160156 41.644531 " fill-opacity="1" fill-rule="nonzero"/><path fill="#ffffff" d="M 65.542969 36.96875 L 61.246094 36.96875 L 60.941406 37.269531 L 65.542969 37.269531 Z M 65.542969 36.96875 " fill-opacity="1" fill-rule="nonzero"/><path fill="#ffffff" d="M 60.039062 36.96875 L 60.039062 37.269531 L 65.542969 37.269531 L 65.542969 36.96875 Z M 59.886719 38.324219 L 65.394531 38.324219 L 65.394531 38.023438 L 59.886719 38.023438 Z M 59.738281 39.457031 L 65.242188 39.457031 L 65.242188 39.15625 L 59.738281 39.15625 Z M 59.585938 40.511719 L 65.089844 40.511719 L 65.089844 40.210938 L 59.585938 40.210938 Z M 59.585938 40.511719 " fill-opacity="1" fill-rule="nonzero"/><path fill="#ffffff" d="M 65.242188 39.15625 L 59.738281 39.15625 L 59.738281 39.457031 L 65.242188 39.457031 Z M 65.242188 39.15625 " fill-opacity="1" fill-rule="nonzero"/><path fill="#ffffff" d="M 84.171875 39.003906 L 82.585938 39.003906 L 82.585938 25.738281 L 83.417969 25.664062 L 81.152344 25.058594 L 79.796875 25.058594 C 78.96875 24.832031 78.664062 24.910156 78.664062 24.910156 C 78.4375 24.910156 78.289062 24.910156 77.988281 24.910156 C 76.554688 25.285156 75.273438 26.039062 74.59375 27.171875 C 72.179688 27.171875 69.617188 27.394531 68.109375 27.847656 C 68.636719 27.320312 69.3125 26.71875 70.066406 26.191406 C 67.429688 27.09375 66.070312 29.054688 65.695312 29.882812 C 65.015625 30.035156 64.714844 30.109375 64.714844 30.109375 L 63.960938 32.144531 L 64.488281 32.144531 L 63.882812 34.03125 L 63.882812 32.75 L 63.355469 32.75 L 63.054688 33.050781 L 63.054688 34.933594 C 61.921875 35.234375 60.640625 35.761719 59.660156 36.289062 C 63.128906 35.535156 66.597656 36.140625 66.597656 36.140625 C 66.597656 36.140625 65.769531 40.664062 65.695312 41.339844 C 60.640625 41.71875 59.132812 41.265625 59.132812 41.265625 C 59.058594 40.285156 59.132812 39.457031 59.207031 38.703125 C 59.132812 38.777344 59.058594 38.855469 58.980469 38.929688 C 58.980469 39.003906 58.90625 39.003906 58.90625 39.078125 C 58.90625 39.15625 58.832031 39.15625 58.832031 39.230469 C 58.832031 39.230469 58.832031 39.230469 58.832031 39.304688 C 58.832031 39.382812 58.757812 39.382812 58.757812 39.457031 C 58.757812 39.457031 58.757812 39.53125 58.757812 39.53125 C 58.757812 39.609375 58.679688 39.609375 58.679688 39.683594 C 58.679688 39.683594 58.679688 39.757812 58.605469 39.757812 C 58.605469 39.832031 58.53125 39.832031 58.53125 39.910156 C 58.53125 39.910156 58.53125 39.984375 58.453125 39.984375 C 58.453125 40.058594 58.378906 40.136719 58.378906 40.210938 C 58.378906 40.210938 58.378906 40.285156 58.378906 40.285156 C 58.378906 40.359375 58.304688 40.511719 58.304688 40.585938 L 58.605469 40.890625 L 58.078125 41.113281 L 58.078125 43.753906 C 58.078125 43.753906 66.296875 44.582031 70.144531 43.980469 L 70.144531 44.207031 L 71.5 44.207031 C 71.425781 43.902344 71.425781 43.679688 71.425781 43.375 C 71.425781 42.019531 71.953125 40.964844 72.632812 40.964844 C 73.3125 40.964844 73.839844 42.019531 73.839844 43.375 C 73.839844 43.679688 73.839844 43.980469 73.761719 44.207031 L 74.667969 44.207031 L 85.074219 43.375 L 85.074219 39.382812 L 84.246094 39.382812 Z M 80.023438 26.113281 C 81.230469 26.339844 81.378906 27.925781 81.378906 27.925781 C 79.796875 24.757812 77.007812 27.925781 77.007812 27.925781 C 77.535156 26.945312 78.742188 25.8125 80.023438 26.113281 Z M 74.894531 34.933594 C 75.273438 34.859375 75.421875 35.085938 75.5 35.234375 L 76.253906 34.40625 L 74.894531 34.480469 L 75.5 31.390625 L 77.910156 31.617188 L 77.910156 34.332031 L 76.554688 34.40625 L 75.421875 35.6875 C 75.347656 35.839844 75.195312 35.988281 75.046875 35.988281 C 74.96875 35.988281 74.894531 35.988281 74.894531 35.988281 C 74.894531 35.988281 74.820312 35.988281 74.820312 35.914062 Z M 74.292969 30.710938 L 73.539062 34.03125 C 73.539062 34.03125 73.3125 34.632812 71.953125 34.558594 C 71.953125 34.558594 69.992188 34.558594 67.730469 34.558594 L 68.710938 31.164062 Z M 63.882812 34.707031 L 64.863281 31.464844 L 68.109375 31.242188 L 67.128906 34.558594 C 65.996094 34.558594 64.789062 34.632812 63.882812 34.707031 Z M 69.011719 40.585938 C 68.785156 40.664062 67.578125 40.8125 66.371094 41.039062 C 66.371094 41.039062 66.371094 40.285156 66.824219 39.832031 C 67.578125 39.382812 68.863281 38.855469 69.238281 39.078125 C 69.539062 39.382812 69.238281 40.585938 69.011719 40.585938 Z M 66.523438 39.757812 C 66.523438 39.757812 67.65625 37.421875 73.6875 36.742188 C 73.6875 36.742188 75.722656 36.59375 77.382812 36.96875 C 77.457031 36.894531 68.785156 37.796875 66.523438 39.757812 Z M 74.667969 41.644531 L 74.441406 41.339844 L 81.984375 40.738281 L 82.890625 41.191406 Z M 74.667969 41.644531 " fill-opacity="1" fill-rule="nonzero"/><path fill="#ffffff" d="M 84.699219 26.039062 L 84.699219 38.476562 L 83.191406 38.476562 L 83.191406 26.191406 Z M 85.300781 25.359375 L 82.664062 25.664062 L 82.664062 39.003906 L 85.300781 39.003906 Z M 85.300781 25.359375 " fill-opacity="1" fill-rule="nonzero"/><path fill="#ffffff" d="M 65.394531 38.324219 L 65.394531 38.023438 L 60.039062 38.023438 L 59.886719 38.175781 L 59.886719 38.324219 Z M 65.394531 38.324219 " fill-opacity="1" fill-rule="nonzero"/><path fill="#ffffff" d="M 65.015625 40.210938 L 59.585938 40.210938 L 59.585938 40.511719 L 65.089844 40.511719 L 65.089844 40.210938 Z M 65.015625 40.210938 " fill-opacity="1" fill-rule="nonzero"/><path fill="#ffffff" d="M 77.15625 31.691406 L 76.101562 31.691406 L 76.101562 34.40625 L 77.15625 34.40625 Z M 77.15625 31.691406 " fill-opacity="1" fill-rule="nonzero"/><path fill="#ffffff" d="M 75.722656 34.179688 L 76.101562 34.332031 L 76.101562 31.617188 L 75.722656 31.769531 Z M 75.722656 34.179688 " fill-opacity="1" fill-rule="nonzero"/><path fill="#ffffff" d="M 103.703125 35.460938 L 98.800781 34.03125 L 103.855469 34.707031 L 103.929688 34.179688 L 86.507812 27.925781 L 104.382812 31.617188 L 104.53125 30.9375 L 85.300781 25.359375 L 85.152344 38.175781 L 102.648438 38.402344 L 102.195312 40.511719 L 102.796875 40.511719 Z M 103.703125 35.460938 " fill-opacity="1" fill-rule="nonzero"/><path fill="#ffffff" d="M 111.167969 27.621094 L 111.167969 32.824219 C 111.167969 33.351562 111.320312 33.726562 111.546875 34.03125 C 111.773438 34.332031 112.148438 34.480469 112.675781 34.480469 C 113.207031 34.480469 113.582031 34.332031 113.808594 34.03125 C 114.109375 33.726562 114.1875 33.351562 114.1875 32.824219 L 114.1875 27.621094 L 116.296875 27.621094 L 116.296875 32.824219 C 116.296875 33.578125 116.144531 34.253906 115.769531 34.785156 C 115.46875 35.3125 115.015625 35.6875 114.410156 35.988281 C 113.882812 36.289062 113.207031 36.367188 112.527344 36.367188 C 111.847656 36.367188 111.246094 36.214844 110.640625 35.988281 C 110.113281 35.6875 109.660156 35.3125 109.359375 34.785156 C 109.058594 34.253906 108.90625 33.578125 108.90625 32.824219 L 108.90625 27.621094 Z M 111.167969 27.621094 " fill-opacity="1" fill-rule="nonzero"/><path fill="#ffffff" d="M 125.496094 36.289062 L 123.386719 36.289062 L 119.839844 30.9375 L 119.839844 36.289062 L 117.65625 36.289062 L 117.65625 27.621094 L 119.765625 27.621094 L 123.3125 32.972656 L 123.3125 27.621094 L 125.421875 27.621094 L 125.421875 36.289062 Z M 125.496094 36.289062 " fill-opacity="1" fill-rule="nonzero"/><path fill="#ffffff" d="M 126.855469 27.621094 L 128.96875 27.621094 L 128.96875 36.289062 L 126.855469 36.289062 Z M 126.855469 27.621094 " fill-opacity="1" fill-rule="nonzero"/><path fill="#ffffff" d="M 136.582031 27.621094 L 136.582031 29.28125 L 134.246094 29.28125 L 134.246094 36.289062 L 132.132812 36.289062 L 132.132812 29.28125 L 129.796875 29.28125 L 129.796875 27.621094 Z M 136.582031 27.621094 " fill-opacity="1" fill-rule="nonzero"/><path fill="#ffffff" d="M 139.523438 29.28125 L 139.523438 31.015625 L 142.390625 31.015625 L 142.390625 32.671875 L 139.523438 32.671875 L 139.523438 34.558594 L 142.769531 34.558594 L 142.769531 36.214844 L 137.414062 36.214844 L 137.414062 27.621094 L 142.769531 27.621094 L 142.769531 29.28125 Z M 139.523438 29.28125 " fill-opacity="1" fill-rule="nonzero"/><path fill="#ffffff" d="M 147.21875 27.621094 C 148.121094 27.621094 148.953125 27.773438 149.628906 28.148438 C 150.308594 28.527344 150.835938 29.054688 151.214844 29.65625 C 151.589844 30.335938 151.816406 31.089844 151.816406 31.917969 C 151.816406 32.75 151.589844 33.5 151.214844 34.179688 C 150.835938 34.859375 150.308594 35.386719 149.628906 35.6875 C 148.953125 36.066406 148.121094 36.214844 147.21875 36.214844 L 143.898438 36.214844 L 143.898438 27.621094 Z M 147.066406 34.480469 C 147.894531 34.480469 148.5 34.253906 148.953125 33.804688 C 149.402344 33.351562 149.628906 32.75 149.628906 31.917969 C 149.628906 31.089844 149.402344 30.488281 148.953125 30.035156 C 148.5 29.582031 147.894531 29.355469 147.066406 29.355469 L 146.085938 29.355469 L 146.085938 34.40625 L 147.066406 34.40625 Z M 147.066406 34.480469 " fill-opacity="1" fill-rule="nonzero"/><path fill="#ffffff" d="M 158.378906 36.367188 C 157.699219 36.367188 157.171875 36.289062 156.644531 36.066406 C 156.117188 35.839844 155.738281 35.535156 155.4375 35.160156 C 155.136719 34.785156 154.984375 34.253906 154.984375 33.726562 L 157.246094 33.726562 C 157.246094 34.03125 157.398438 34.332031 157.550781 34.480469 C 157.773438 34.632812 158 34.707031 158.304688 34.707031 C 158.605469 34.707031 158.90625 34.632812 159.058594 34.480469 C 159.207031 34.332031 159.359375 34.105469 159.359375 33.878906 C 159.359375 33.652344 159.285156 33.5 159.132812 33.351562 C 158.980469 33.199219 158.832031 33.125 158.605469 32.972656 C 158.378906 32.898438 158.078125 32.75 157.699219 32.671875 C 157.097656 32.523438 156.644531 32.296875 156.34375 32.144531 C 155.964844 31.996094 155.664062 31.691406 155.4375 31.390625 C 155.210938 31.089844 155.058594 30.636719 155.058594 30.035156 C 155.058594 29.207031 155.363281 28.601562 155.964844 28.148438 C 156.570312 27.699219 157.324219 27.472656 158.304688 27.472656 C 159.285156 27.472656 160.039062 27.699219 160.640625 28.148438 C 161.246094 28.601562 161.546875 29.207031 161.621094 30.035156 L 159.132812 30.035156 C 159.132812 29.734375 158.980469 29.507812 158.832031 29.355469 C 158.605469 29.207031 158.378906 29.128906 158.078125 29.128906 C 157.851562 29.128906 157.625 29.207031 157.472656 29.355469 C 157.324219 29.507812 157.246094 29.65625 157.246094 29.960938 C 157.246094 30.261719 157.398438 30.488281 157.625 30.636719 C 157.925781 30.789062 158.304688 30.9375 158.90625 31.164062 C 159.507812 31.390625 159.960938 31.542969 160.265625 31.691406 C 160.640625 31.84375 160.941406 32.144531 161.167969 32.445312 C 161.394531 32.75 161.546875 33.199219 161.546875 33.726562 C 161.546875 34.253906 161.394531 34.707031 161.167969 35.085938 C 160.941406 35.460938 160.566406 35.839844 160.039062 36.066406 C 159.585938 36.289062 159.058594 36.367188 158.378906 36.367188 Z M 158.378906 36.367188 " fill-opacity="1" fill-rule="nonzero"/><path fill="#ffffff" d="M 168.9375 27.621094 L 168.9375 29.28125 L 166.675781 29.28125 L 166.675781 36.289062 L 164.5625 36.289062 L 164.5625 29.28125 L 162.148438 29.28125 L 162.148438 27.621094 Z M 168.9375 27.621094 " fill-opacity="1" fill-rule="nonzero"/><path fill="#ffffff" d="M 175.269531 34.785156 L 171.953125 34.785156 L 171.425781 36.289062 L 169.164062 36.289062 L 172.332031 27.621094 L 174.820312 27.621094 L 177.984375 36.289062 L 175.722656 36.289062 Z M 174.742188 33.125 L 173.6875 29.960938 L 172.632812 33.125 Z M 174.742188 33.125 " fill-opacity="1" fill-rule="nonzero"/><path fill="#ffffff" d="M 185.074219 27.621094 L 185.074219 29.28125 L 182.738281 29.28125 L 182.738281 36.289062 L 180.625 36.289062 L 180.625 29.28125 L 178.289062 29.28125 L 178.289062 27.621094 Z M 185.074219 27.621094 " fill-opacity="1" fill-rule="nonzero"/><path fill="#ffffff" d="M 188.089844 29.28125 L 188.089844 31.015625 L 190.957031 31.015625 L 190.957031 32.671875 L 188.089844 32.671875 L 188.089844 34.558594 L 191.335938 34.558594 L 191.335938 36.214844 L 185.980469 36.214844 L 185.980469 27.621094 L 191.335938 27.621094 L 191.335938 29.28125 Z M 188.089844 29.28125 " fill-opacity="1" fill-rule="nonzero"/><path fill="#ffffff" d="M 195.632812 36.367188 C 194.953125 36.367188 194.425781 36.289062 193.898438 36.066406 C 193.371094 35.839844 192.992188 35.535156 192.691406 35.160156 C 192.390625 34.785156 192.238281 34.253906 192.238281 33.726562 L 194.5 33.726562 C 194.5 34.03125 194.652344 34.332031 194.804688 34.480469 C 195.03125 34.632812 195.257812 34.707031 195.558594 34.707031 C 195.859375 34.707031 196.160156 34.632812 196.3125 34.480469 C 196.460938 34.332031 196.613281 34.105469 196.613281 33.878906 C 196.613281 33.652344 196.539062 33.5 196.386719 33.351562 C 196.238281 33.199219 196.085938 33.125 195.859375 32.972656 C 195.632812 32.898438 195.332031 32.75 194.953125 32.671875 C 194.351562 32.523438 193.898438 32.296875 193.597656 32.144531 C 193.21875 31.996094 192.917969 31.691406 192.691406 31.390625 C 192.464844 31.089844 192.316406 30.636719 192.316406 30.035156 C 192.316406 29.207031 192.617188 28.601562 193.21875 28.148438 C 193.824219 27.699219 194.578125 27.472656 195.558594 27.472656 C 196.539062 27.472656 197.292969 27.699219 197.894531 28.148438 C 198.5 28.601562 198.800781 29.207031 198.875 30.035156 L 196.539062 30.035156 C 196.539062 29.734375 196.386719 29.507812 196.238281 29.355469 C 196.011719 29.207031 195.785156 29.128906 195.480469 29.128906 C 195.257812 29.128906 195.03125 29.207031 194.878906 29.355469 C 194.726562 29.507812 194.652344 29.65625 194.652344 29.960938 C 194.652344 30.261719 194.804688 30.488281 195.03125 30.636719 C 195.332031 30.789062 195.707031 30.9375 196.3125 31.164062 C 196.914062 31.390625 197.367188 31.542969 197.667969 31.691406 C 198.046875 31.84375 198.347656 32.144531 198.574219 32.445312 C 198.800781 32.75 198.953125 33.199219 198.953125 33.726562 C 198.953125 34.253906 198.800781 34.707031 198.574219 35.085938 C 198.347656 35.460938 197.972656 35.839844 197.441406 36.066406 C 196.839844 36.289062 196.3125 36.367188 195.632812 36.367188 Z M 195.632812 36.367188 " fill-opacity="1" fill-rule="nonzero"/><path fill="#ffffff" d="M 110.941406 43.226562 C 111.167969 43.226562 111.320312 43.375 111.472656 43.527344 C 111.621094 43.679688 111.695312 43.902344 111.695312 44.128906 C 111.695312 44.28125 111.621094 44.507812 111.546875 44.65625 C 111.472656 44.808594 111.320312 44.960938 111.167969 45.035156 C 111.019531 45.109375 110.792969 45.1875 110.566406 45.1875 L 109.132812 45.1875 L 109.132812 41.492188 L 110.492188 41.492188 C 110.714844 41.492188 110.941406 41.566406 111.09375 41.644531 C 111.246094 41.71875 111.394531 41.867188 111.472656 42.019531 C 111.546875 42.171875 111.621094 42.320312 111.621094 42.472656 C 111.621094 42.699219 111.546875 42.847656 111.472656 43 C 111.320312 43.074219 111.167969 43.226562 110.941406 43.226562 Z M 109.660156 43 L 110.414062 43 C 110.640625 43 110.792969 42.925781 110.867188 42.847656 C 110.941406 42.773438 111.019531 42.621094 111.019531 42.472656 C 111.019531 42.320312 110.941406 42.171875 110.867188 42.09375 C 110.792969 42.019531 110.640625 41.945312 110.414062 41.945312 L 109.660156 41.945312 Z M 110.414062 44.65625 C 110.640625 44.65625 110.792969 44.582031 110.867188 44.507812 C 111.019531 44.433594 111.019531 44.28125 111.019531 44.128906 C 111.019531 43.980469 110.941406 43.828125 110.867188 43.679688 C 110.714844 43.601562 110.566406 43.527344 110.414062 43.527344 L 109.660156 43.527344 L 109.660156 44.65625 Z M 110.414062 44.65625 " fill-opacity="1" fill-rule="nonzero"/><path fill="#ffffff" d="M 112.902344 41.945312 L 112.902344 43 L 114.1875 43 L 114.1875 43.453125 L 112.902344 43.453125 L 112.902344 44.582031 L 114.335938 44.582031 L 114.335938 45.035156 L 112.300781 45.035156 L 112.300781 41.339844 L 114.335938 41.339844 L 114.335938 41.792969 L 112.902344 41.792969 Z M 112.902344 41.945312 " fill-opacity="1" fill-rule="nonzero"/><path fill="#ffffff" d="M 116.144531 45.1875 C 115.921875 45.1875 115.695312 45.109375 115.46875 45.035156 C 115.242188 44.960938 115.089844 44.808594 115.015625 44.65625 C 114.941406 44.507812 114.863281 44.28125 114.863281 44.128906 L 115.46875 44.128906 C 115.46875 44.28125 115.542969 44.433594 115.617188 44.507812 C 115.695312 44.582031 115.921875 44.65625 116.070312 44.65625 C 116.296875 44.65625 116.449219 44.582031 116.523438 44.507812 C 116.675781 44.433594 116.675781 44.28125 116.675781 44.128906 C 116.675781 43.980469 116.675781 43.902344 116.597656 43.828125 C 116.523438 43.753906 116.449219 43.679688 116.296875 43.679688 C 116.222656 43.601562 116.070312 43.601562 115.84375 43.527344 C 115.617188 43.453125 115.390625 43.375 115.242188 43.300781 C 115.089844 43.226562 114.941406 43.148438 114.863281 43 C 114.789062 42.847656 114.714844 42.699219 114.714844 42.472656 C 114.714844 42.246094 114.789062 42.09375 114.863281 41.945312 C 114.941406 41.792969 115.089844 41.644531 115.316406 41.566406 C 115.46875 41.492188 115.695312 41.417969 115.996094 41.417969 C 116.371094 41.417969 116.597656 41.492188 116.824219 41.71875 C 117.050781 41.867188 117.203125 42.171875 117.203125 42.472656 L 116.523438 42.472656 C 116.523438 42.320312 116.449219 42.246094 116.371094 42.09375 C 116.222656 42.019531 116.070312 41.945312 115.921875 41.945312 C 115.769531 41.945312 115.617188 42.019531 115.46875 42.09375 C 115.390625 42.171875 115.316406 42.320312 115.316406 42.472656 C 115.316406 42.546875 115.316406 42.699219 115.390625 42.773438 C 115.46875 42.847656 115.542969 42.925781 115.617188 42.925781 C 115.695312 43 115.84375 43 116.070312 43.074219 C 116.296875 43.148438 116.523438 43.226562 116.675781 43.300781 C 116.824219 43.375 116.976562 43.453125 117.050781 43.601562 C 117.125 43.753906 117.203125 43.902344 117.203125 44.128906 C 117.203125 44.28125 117.125 44.507812 117.050781 44.65625 C 116.976562 44.808594 116.824219 44.960938 116.597656 45.035156 C 116.675781 45.109375 116.449219 45.1875 116.144531 45.1875 Z M 116.144531 45.1875 " fill-opacity="1" fill-rule="nonzero"/><path fill="#ffffff" d="M 120.371094 41.492188 L 120.371094 41.945312 L 119.390625 41.945312 L 119.390625 45.109375 L 118.785156 45.109375 L 118.785156 41.945312 L 117.804688 41.945312 L 117.804688 41.492188 Z M 120.371094 41.492188 " fill-opacity="1" fill-rule="nonzero"/><path fill="#ffffff" d="M 122.105469 43.300781 C 122.105469 42.925781 122.179688 42.621094 122.332031 42.320312 C 122.480469 42.019531 122.707031 41.792969 123.007812 41.644531 C 123.3125 41.492188 123.613281 41.417969 123.914062 41.417969 C 124.292969 41.417969 124.667969 41.492188 124.96875 41.71875 C 125.273438 41.945312 125.496094 42.171875 125.648438 42.546875 L 124.96875 42.546875 C 124.894531 42.320312 124.742188 42.246094 124.59375 42.09375 C 124.441406 42.019531 124.214844 41.945312 123.988281 41.945312 C 123.761719 41.945312 123.535156 42.019531 123.3125 42.09375 C 123.160156 42.171875 123.007812 42.398438 122.859375 42.546875 C 122.78125 42.773438 122.707031 43 122.707031 43.226562 C 122.707031 43.527344 122.78125 43.753906 122.859375 43.902344 C 122.933594 44.128906 123.085938 44.28125 123.3125 44.355469 C 123.460938 44.433594 123.6875 44.507812 123.988281 44.507812 C 124.214844 44.507812 124.367188 44.433594 124.59375 44.355469 C 124.742188 44.28125 124.894531 44.128906 124.96875 43.902344 L 125.648438 43.902344 C 125.496094 44.28125 125.273438 44.507812 124.96875 44.734375 C 124.667969 44.960938 124.292969 45.035156 123.914062 45.035156 C 123.535156 45.035156 123.234375 44.960938 123.007812 44.808594 C 122.707031 44.65625 122.480469 44.433594 122.332031 44.128906 C 122.179688 43.980469 122.105469 43.679688 122.105469 43.300781 Z M 122.105469 43.300781 " fill-opacity="1" fill-rule="nonzero"/><path fill="#ffffff" d="M 128.4375 44.355469 L 126.929688 44.355469 L 126.703125 45.109375 L 126.101562 45.109375 L 127.382812 41.417969 L 128.0625 41.417969 L 129.34375 45.109375 L 128.742188 45.109375 Z M 128.289062 43.902344 L 127.683594 42.171875 L 127.082031 43.902344 Z M 128.289062 43.902344 " fill-opacity="1" fill-rule="nonzero"/><path fill="#ffffff" d="M 131.757812 45.109375 L 130.925781 43.679688 L 130.476562 43.679688 L 130.476562 45.109375 L 129.871094 45.109375 L 129.871094 41.417969 L 131.152344 41.417969 C 131.457031 41.417969 131.683594 41.492188 131.832031 41.566406 C 132.058594 41.644531 132.132812 41.792969 132.285156 41.945312 C 132.359375 42.09375 132.4375 42.320312 132.4375 42.472656 C 132.4375 42.699219 132.359375 42.925781 132.210938 43.148438 C 132.058594 43.375 131.832031 43.453125 131.605469 43.527344 L 132.511719 45.035156 L 131.757812 45.035156 Z M 130.476562 43.226562 L 131.152344 43.226562 C 131.378906 43.226562 131.53125 43.148438 131.683594 43.074219 C 131.832031 43 131.832031 42.847656 131.832031 42.621094 C 131.832031 42.398438 131.757812 42.320312 131.683594 42.171875 C 131.605469 42.09375 131.378906 42.019531 131.152344 42.019531 L 130.476562 42.019531 Z M 130.476562 43.226562 " fill-opacity="1" fill-rule="nonzero"/><path fill="#ffffff" d="M 135.601562 45.1875 C 135.378906 45.1875 135.152344 45.109375 134.925781 45.035156 C 134.699219 44.960938 134.546875 44.808594 134.472656 44.65625 C 134.398438 44.507812 134.320312 44.28125 134.320312 44.128906 L 134.925781 44.128906 C 134.925781 44.28125 135 44.433594 135.074219 44.507812 C 135.152344 44.582031 135.378906 44.65625 135.527344 44.65625 C 135.753906 44.65625 135.90625 44.582031 135.980469 44.507812 C 136.132812 44.433594 136.132812 44.28125 136.132812 44.128906 C 136.132812 43.980469 136.132812 43.902344 136.054688 43.828125 C 135.980469 43.753906 135.90625 43.679688 135.753906 43.679688 C 135.679688 43.601562 135.527344 43.601562 135.300781 43.527344 C 135.074219 43.453125 134.847656 43.375 134.699219 43.300781 C 134.546875 43.226562 134.398438 43.148438 134.320312 43 C 134.246094 42.847656 134.171875 42.699219 134.171875 42.472656 C 134.171875 42.246094 134.246094 42.09375 134.320312 41.945312 C 134.398438 41.792969 134.546875 41.644531 134.773438 41.566406 C 134.925781 41.492188 135.152344 41.417969 135.453125 41.417969 C 135.828125 41.417969 136.054688 41.492188 136.28125 41.71875 C 136.507812 41.867188 136.660156 42.171875 136.660156 42.472656 L 135.980469 42.472656 C 135.980469 42.320312 135.90625 42.246094 135.828125 42.09375 C 135.679688 42.019531 135.527344 41.945312 135.378906 41.945312 C 135.226562 41.945312 135.074219 42.019531 134.925781 42.09375 C 134.847656 42.171875 134.773438 42.320312 134.773438 42.472656 C 134.773438 42.546875 134.773438 42.699219 134.847656 42.773438 C 134.925781 42.847656 135 42.925781 135.074219 42.925781 C 135.152344 43 135.300781 43 135.527344 43.074219 C 135.753906 43.148438 135.980469 43.226562 136.132812 43.300781 C 136.28125 43.375 136.433594 43.453125 136.507812 43.601562 C 136.582031 43.753906 136.660156 43.902344 136.660156 44.128906 C 136.660156 44.28125 136.582031 44.507812 136.507812 44.65625 C 136.433594 44.808594 136.28125 44.960938 136.054688 45.035156 C 136.054688 45.109375 135.828125 45.1875 135.601562 45.1875 Z M 135.601562 45.1875 " fill-opacity="1" fill-rule="nonzero"/><path fill="#ffffff" d="M 140.429688 41.492188 L 140.429688 45.1875 L 139.828125 45.1875 L 139.828125 43.601562 L 138.09375 43.601562 L 138.09375 45.1875 L 137.488281 45.1875 L 137.488281 41.492188 L 138.09375 41.492188 L 138.09375 43.074219 L 139.828125 43.074219 L 139.828125 41.492188 Z M 140.429688 41.492188 " fill-opacity="1" fill-rule="nonzero"/><path fill="#ffffff" d="M 141.109375 41.492188 L 141.710938 41.492188 L 141.710938 45.1875 L 141.109375 45.1875 Z M 141.109375 41.492188 " fill-opacity="1" fill-rule="nonzero"/><path fill="#ffffff" d="M 145.03125 42.546875 C 145.03125 42.699219 144.953125 42.925781 144.878906 43.074219 C 144.804688 43.226562 144.652344 43.375 144.425781 43.453125 C 144.199219 43.527344 143.972656 43.601562 143.671875 43.601562 L 142.992188 43.601562 L 142.992188 45.109375 L 142.390625 45.109375 L 142.390625 41.417969 L 143.671875 41.417969 C 143.972656 41.417969 144.199219 41.492188 144.351562 41.566406 C 144.578125 41.644531 144.652344 41.792969 144.804688 41.945312 C 144.953125 42.171875 145.03125 42.398438 145.03125 42.546875 Z M 143.75 43.148438 C 143.972656 43.148438 144.125 43.074219 144.277344 43 C 144.351562 42.925781 144.425781 42.773438 144.425781 42.546875 C 144.425781 42.171875 144.199219 41.945312 143.75 41.945312 L 143.070312 41.945312 L 143.070312 43.148438 Z M 143.75 43.148438 " fill-opacity="1" fill-rule="nonzero"/><path fill="#ffffff" d="M 148.046875 42.546875 C 148.046875 42.699219 147.972656 42.925781 147.894531 43.074219 C 147.820312 43.226562 147.667969 43.375 147.445312 43.453125 C 147.21875 43.527344 146.992188 43.601562 146.6875 43.601562 L 146.011719 43.601562 L 146.011719 45.109375 L 145.40625 45.109375 L 145.40625 41.417969 L 146.6875 41.417969 C 146.992188 41.417969 147.21875 41.492188 147.367188 41.566406 C 147.59375 41.644531 147.667969 41.792969 147.820312 41.945312 C 147.972656 42.171875 148.046875 42.398438 148.046875 42.546875 Z M 146.765625 43.148438 C 146.992188 43.148438 147.140625 43.074219 147.292969 43 C 147.367188 42.925781 147.445312 42.773438 147.445312 42.546875 C 147.445312 42.171875 147.21875 41.945312 146.765625 41.945312 L 146.085938 41.945312 L 146.085938 43.148438 Z M 146.765625 43.148438 " fill-opacity="1" fill-rule="nonzero"/><path fill="#ffffff" d="M 148.574219 41.492188 L 149.179688 41.492188 L 149.179688 45.1875 L 148.574219 45.1875 Z M 148.574219 41.492188 " fill-opacity="1" fill-rule="nonzero"/><path fill="#ffffff" d="M 152.875 45.109375 L 152.269531 45.109375 L 150.460938 42.398438 L 150.460938 45.109375 L 149.855469 45.109375 L 149.855469 41.417969 L 150.460938 41.417969 L 152.269531 44.128906 L 152.269531 41.417969 L 152.875 41.417969 Z M 152.875 45.109375 " fill-opacity="1" fill-rule="nonzero"/><path fill="#ffffff" d="M 156.265625 42.546875 C 156.191406 42.398438 156.039062 42.246094 155.890625 42.171875 C 155.738281 42.09375 155.511719 42.019531 155.285156 42.019531 C 155.058594 42.019531 154.832031 42.09375 154.609375 42.171875 C 154.457031 42.246094 154.304688 42.398438 154.15625 42.621094 C 154.078125 42.847656 154.003906 43.074219 154.003906 43.300781 C 154.003906 43.527344 154.078125 43.828125 154.15625 43.980469 C 154.230469 44.207031 154.382812 44.355469 154.609375 44.433594 C 154.757812 44.507812 154.984375 44.582031 155.285156 44.582031 C 155.589844 44.582031 155.890625 44.507812 156.039062 44.28125 C 156.191406 44.054688 156.34375 43.828125 156.417969 43.527344 L 155.058594 43.527344 L 155.058594 43.074219 L 157.019531 43.074219 L 157.019531 43.527344 C 156.945312 43.828125 156.871094 44.054688 156.71875 44.28125 C 156.570312 44.507812 156.34375 44.734375 156.117188 44.882812 C 155.890625 45.035156 155.589844 45.109375 155.285156 45.109375 C 154.910156 45.109375 154.609375 45.035156 154.382812 44.882812 C 154.078125 44.734375 153.855469 44.507812 153.703125 44.207031 C 153.550781 43.902344 153.476562 43.601562 153.476562 43.226562 C 153.476562 42.847656 153.550781 42.546875 153.703125 42.246094 C 153.855469 41.945312 154.078125 41.71875 154.382812 41.566406 C 154.683594 41.417969 154.984375 41.339844 155.285156 41.339844 C 155.664062 41.339844 156.039062 41.417969 156.34375 41.644531 C 156.644531 41.867188 156.871094 42.09375 157.019531 42.472656 L 156.265625 42.472656 Z M 156.265625 42.546875 " fill-opacity="1" fill-rule="nonzero"/><path fill="#e5e5e5" d="M 126.101562 57.925781 C 125.347656 49.707031 123.839844 40.8125 118.636719 42.699219 C 111.847656 45.035156 113.882812 44.882812 114.636719 48.050781 C 116.070312 54.910156 119.917969 67.574219 118.410156 80.914062 C 122.707031 81.894531 124.96875 81.96875 125.574219 81.894531 C 126.476562 71.417969 126.628906 63.425781 126.101562 57.925781 Z M 126.101562 57.925781 " fill-opacity="1" fill-rule="nonzero"/><path fill="#ffd0c9" d="M 135.753906 35.386719 C 135.074219 36.820312 134.019531 37.949219 132.664062 38.703125 L 132.738281 40.964844 L 133.039062 41.265625 C 134.320312 42.621094 132.964844 45.410156 131.457031 45.335938 C 127.761719 45.488281 124.96875 42.546875 126.027344 40.890625 L 126.476562 40.363281 L 126.554688 37.195312 C 126.328125 37.195312 124.96875 36.441406 124.59375 36.289062 C 123.988281 35.914062 123.535156 35.234375 123.535156 34.558594 C 123.460938 33.726562 124.820312 34.03125 124.820312 34.03125 C 123.234375 31.917969 121.5 30.183594 123.761719 28.226562 C 126.101562 26.339844 131.378906 25.210938 131.378906 25.210938 L 134.546875 24.078125 C 134.171875 25.136719 134.699219 28.828125 135.527344 31.089844 C 136.359375 33.050781 136.808594 33.351562 135.753906 35.386719 " fill-opacity="1" fill-rule="evenodd"/><path fill="#e5e5e5" d="M 128.210938 37.574219 C 128.210938 37.574219 130.023438 40.664062 131.457031 40.890625 C 132.964844 41.191406 132.210938 40.964844 132.738281 40.890625 L 132.664062 38.628906 C 131.683594 38.855469 130.703125 38.777344 128.210938 37.574219 " fill-opacity="0.4" fill-rule="evenodd"/><path fill="#e5e5e5" d="M 117.578125 72.773438 C 115.242188 69.683594 106.492188 64.179688 106.796875 63.199219 C 108.753906 58.226562 113.808594 58.679688 115.921875 54.457031 C 117.65625 50.988281 120.292969 42.09375 116.371094 43.601562 C 109.511719 46.242188 97.367188 57.398438 96.613281 61.390625 C 95.859375 65.386719 110.566406 74.960938 114.109375 75.414062 C 115.84375 75.636719 116.296875 75.714844 117.203125 75.035156 C 117.730469 74.660156 118.484375 73.90625 117.578125 72.773438 Z M 117.578125 72.773438 " fill-opacity="1" fill-rule="nonzero"/><path fill="#000000" d="M 132.585938 20.839844 C 131.457031 20.839844 130.398438 21.367188 129.796875 22.269531 C 124.820312 22.570312 120.671875 25.664062 120.597656 30.261719 C 120.519531 32.75 121.953125 35.839844 125.347656 36.667969 L 125.574219 36.667969 C 125.421875 36.59375 125.273438 36.441406 125.121094 36.367188 C 124.667969 36.066406 124.367188 35.085938 124.96875 34.632812 C 125.273438 34.40625 126.027344 34.707031 126.476562 34.933594 C 127.457031 35.386719 127.082031 34.933594 126.855469 34.332031 C 126.027344 32.296875 125.949219 31.015625 126.703125 30.109375 C 128.210938 28.300781 131.304688 29.882812 134.019531 28.527344 C 134.246094 28.375 134.472656 28.226562 134.699219 28.148438 C 135.679688 27.320312 136.28125 26.113281 136.28125 24.832031 C 136.207031 22.648438 134.546875 20.839844 132.585938 20.839844 Z M 132.585938 20.839844 " fill-opacity="1" fill-rule="nonzero"/><path fill="#ffd0c9" d="M 116.371094 72.171875 L 117.578125 72.773438 C 118.863281 72.699219 119.011719 73.300781 120.371094 73.152344 C 121.046875 73.074219 122.105469 73.226562 122.480469 73.074219 C 123.085938 72.847656 123.007812 73.601562 122.78125 73.90625 C 122.027344 74.734375 121.199219 74.582031 120.746094 74.808594 C 120.820312 75.035156 122.027344 76.46875 122.859375 77.523438 C 123.3125 78.125 123.460938 79.105469 123.234375 79.257812 C 121.652344 80.539062 119.238281 79.484375 118.710938 79.03125 C 118.03125 78.425781 117.351562 76.996094 114.789062 75.941406 C 113.128906 74.734375 115.46875 72.398438 116.371094 72.171875 " fill-opacity="1" fill-rule="evenodd"/></svg>