<?xml version="1.0" encoding="utf-8"?>
<!-- Generator: Adobe Illustrator 28.0.0, SVG Export Plug-In . SVG Version: 6.00 Build 0)  -->
<svg version="1.1" id="Layer_1" xmlns="http://www.w3.org/2000/svg" xmlns:xlink="http://www.w3.org/1999/xlink" x="0px" y="0px"
	 viewBox="0 0 377 279" style="enable-background:new 0 0 377 279;" xml:space="preserve">
<style type="text/css">
	.st0{fill:#FFFFFF;}
	.st1{fill:#F0F0F0;}
	.st2{fill:#9E9FB2;}
	.st3{fill-rule:evenodd;clip-rule:evenodd;fill:#A2384D;}
	.st4{fill:#A2384D;}
	.st5{fill-rule:evenodd;clip-rule:evenodd;fill:#F0F0F0;}
	.st6{fill-rule:evenodd;clip-rule:evenodd;fill:#DFDFDF;}
</style>
<g>
	<g>
		<ellipse cx="279.7" cy="73.1" rx="73.2" ry="73.1"/>
		<path class="st0" d="M311.4,43.8c0.4,0,0.8,0.1,1.1,0.4c0.3,0.3,0.4,0.6,0.4,1s-0.1,0.7-0.4,1s-0.6,0.4-1.1,0.4
			c-0.4,0-0.8-0.1-1.1-0.4c-0.3-0.3-0.4-0.6-0.4-1s0.1-0.7,0.4-1S310.9,43.8,311.4,43.8z M262.1,34.6c1,0,1.9,0.2,2.6,0.7
			c0.8,0.5,1.4,1.1,1.8,2s0.6,1.8,0.6,3v0.5c0,1.1-0.2,2.1-0.6,3s-1,1.5-1.8,2s-1.7,0.7-2.6,0.7c-1,0-1.9-0.2-2.6-0.7
			c-0.8-0.5-1.4-1.1-1.8-1.9c-0.4-0.8-0.7-1.8-0.7-2.9v-0.7c0-1.1,0.2-2.1,0.6-3s1-1.5,1.8-2S261.1,34.6,262.1,34.6z M273.4,34.6
			c1,0,1.9,0.2,2.6,0.7c0.8,0.5,1.4,1.1,1.8,2s0.6,1.8,0.6,3v0.5c0,1.1-0.2,2.1-0.6,3s-1,1.5-1.8,2s-1.7,0.7-2.6,0.7
			c-1,0-1.9-0.2-2.6-0.7c-0.8-0.5-1.4-1.1-1.8-1.9c-0.4-0.8-0.7-1.8-0.7-2.9v-0.7c0-1.1,0.2-2.1,0.6-3s1-1.5,1.8-2
			S272.4,34.6,273.4,34.6z M282.7,34.8v5.1l1-1.5l2.5-3.6h3.5l-3.9,5.1l3.9,6.5h-3.3l-2.6-4.3l-1.1,1.3v3.1h-2.8V34.8H282.7z
			 M251,34.8c1.5,0,2.6,0.3,3.4,0.8c0.8,0.5,1.2,1.3,1.2,2.4c0,0.6-0.1,1.1-0.4,1.5c-0.3,0.4-0.7,0.7-1.2,0.9
			c0.6,0.2,1.1,0.5,1.4,0.9c0.3,0.4,0.5,1,0.5,1.6c0,1.1-0.4,2-1.1,2.6c-0.7,0.6-1.8,0.9-3.2,0.9h-4.8V34.8H251L251,34.8z
			 M298.2,34.8V37H293v2.4h4.4v2.1H293v2.8h5.2v2.1h-8V34.8H298.2L298.2,34.8z M303.1,34.8c1,0,1.9,0.2,2.8,0.7
			c0.8,0.5,1.5,1.1,1.9,2c0.5,0.8,0.7,1.8,0.7,2.8v0.5c0,1.1-0.2,2-0.7,2.8c-0.4,0.8-1.1,1.5-1.9,2s-1.7,0.7-2.7,0.7h-3.8V34.8
			H303.1z M262,36.9c-1.4,0-2.1,1-2.2,3.1v0.9c0,1.1,0.2,2,0.6,2.6s0.9,0.9,1.7,0.9c0.7,0,1.3-0.3,1.6-0.9c0.4-0.6,0.6-1.5,0.6-2.6
			v-0.5c0-1.1-0.2-2-0.6-2.6S262.8,36.9,262,36.9z M273.2,36.9c-1.4,0-2.1,1-2.2,3.1v0.9c0,1.1,0.2,2,0.6,2.6s0.9,0.9,1.7,0.9
			c0.7,0,1.3-0.3,1.6-0.9c0.4-0.6,0.6-1.5,0.6-2.6v-0.5c0-1.1-0.2-2-0.6-2.6S274,36.9,273.2,36.9z M251.6,41.5h-2v2.8h1.8
			c0.5,0,0.9-0.1,1.2-0.3s0.4-0.6,0.4-1C253,42,252.5,41.6,251.6,41.5z M303.1,37h-0.9v7.3h1c0.8,0,1.4-0.3,1.8-0.9
			c0.4-0.6,0.6-1.4,0.6-2.5v-0.5c0-1.1-0.2-2-0.6-2.5C304.6,37.3,303.9,37,303.1,37z M312.9,34.8l-0.4,7.9h-2.2l-0.3-7.9H312.9z
			 M251,36.9h-1.4v2.7h1.5c0.6,0,1-0.1,1.3-0.3s0.4-0.5,0.4-1s-0.1-0.8-0.4-1.1C252.1,37,251.7,36.9,251,36.9L251,36.9z"/>
		<path class="st1" d="M377,200.2c0-3.9-2.5-7.8-7.7-10.8L136.9,55.2c-10.3-5.9-27-5.9-37.3,0l-91.9,53c-5.1,3-7.7,6.9-7.7,10.8
			v10.8h0.1c0.3,3.6,2.8,7.2,7.7,10L240.1,274c10.3,5.9,27,5.9,37.3,0l91.9-53c4.6-2.7,7.2-6.1,7.6-9.6h0.1V200.2z"/>
		<path class="st2" d="M377,200.2c0,3.9-2.6,7.7-7.7,10.7l-91.9,53c-10.3,5.9-27,5.9-37.3,0L7.7,129.8c-5.2-3-7.7-6.9-7.7-10.8v10.8
			h0.1c0.3,3.6,2.8,7.2,7.7,10L240.1,274c10.3,5.9,27,5.9,37.3,0l91.9-53c4.6-2.7,7.2-6.1,7.6-9.6h0.1V200.2z"/>
		<path class="st3" d="M21.3,133.6l196.4,113.5c9.8,5.7,25.7,5.7,35.4,0l87.3-50.4c9.8-5.7,9.8-14.8,0-20.5L144,62.8
			c-9.8-5.7-25.7-5.7-35.4,0l-87.3,50.4C11.5,118.8,11.5,128,21.3,133.6L21.3,133.6z"/>
		<path class="st2" d="M301.9,223.6c5.2-3,13.7-3,19,0c2.9,1.7,4.2,3.9,3.9,6.1c-0.3-1.8-1.5-3.5-3.9-4.9c-5.2-3-13.7-3-19,0
			c-2.3,1.4-3.6,3.1-3.9,4.9C297.7,227.5,299,225.3,301.9,223.6z M61.2,80.5c2-1.1,5.2-1.1,7.2,0h0.1c1.2,0.7,1.7,1.7,1.4,2.6
			c-0.2-0.5-0.7-1.1-1.4-1.5h-0.1c-2-1.1-5.2-1.1-7.2,0L42.3,92.5c-0.8,0.4-1.2,0.9-1.4,1.5c-0.3-0.9,0.2-1.9,1.4-2.6L61.2,80.5z
			 M72.4,73.3c2-1.2,5.3-1.2,7.3,0c1.3,0.8,1.8,1.8,1.4,2.8c-0.2-0.5-0.7-1-1.4-1.4c-2-1.2-5.3-1.2-7.3,0c-0.7,0.4-1.1,0.9-1.4,1.4
			C70.6,75.1,71.1,74.1,72.4,73.3z"/>
		<path class="st0" d="M324.9,189.1l-83.4,48.6c-6,3.5-16.1,3.3-22.5-0.5L69.8,148.8c-6.4-3.8-6.7-9.7-0.7-13.2L152.5,87
			c6-3.5,16.1-3.3,22.5,0.5l149.3,88.4C330.6,179.7,330.9,185.6,324.9,189.1L324.9,189.1z"/>
		<path class="st4" d="M300.3,183.1L231,223.5c-8,4-15.8,0.8-22.7-3.6c-7.8-4.7-7.8-11.1-2.6-14.1l69.3-40.4c6-3.4,14.8-2,21.4,3.2
			C305.5,174.1,305.5,180.1,300.3,183.1L300.3,183.1z"/>
		<path class="st5" d="M108.8,156.7L190,109c0.9-0.5,2.1-0.5,3,0l26,15.2c1.4,0.8,1.9,2.7,1.1,4.1c-0.3,0.4-0.6,0.8-1.1,1.1
			l-81.2,47.6c-0.9,0.5-2.1,0.5-3,0l-26-15.2c-1.4-0.8-1.9-2.7-1.1-4.1C107.9,157.3,108.3,156.9,108.8,156.7L108.8,156.7z"/>
		<path class="st6" d="M93.3,137l67.1-39.3l5.1,2.8l-67.1,39.3L93.3,137z"/>
		<path class="st6" d="M109.8,136.3l49.4-28.5l5.1,2.8l-49.4,28.5L109.8,136.3z"/>
		<path class="st5" d="M146,178.1l81.2-47.6c0.9-0.6,2.1-0.5,3,0l26,15.2c1.4,0.8,1.9,2.7,1.1,4.1c-0.3,0.4-0.6,0.8-1.1,1.1
			L175,198.5c-0.9,0.6-2.1,0.6-3,0l-26-15.2c-1.4-0.8-1.9-2.7-1.1-4.1C145.2,178.7,145.5,178.3,146,178.1L146,178.1z"/>
		<path class="st4" d="M234.2,142.2c0.6,0.4,1.1,0.7,1.3,1.2l3.9,5.9c0.2,0.3,0.1,0.7-0.3,0.9c-0.4,0.2-1,0.3-1.6,0.2l-10.1-2.3
			c-0.7-0.2-1.3-0.5-1.9-0.8c-2.6-1.5-2.7-3.9-0.3-5.3C227.6,140.6,231.6,140.7,234.2,142.2L234.2,142.2z M227.6,143.4
			c-1.2,0.7-1.1,1.9,0.1,2.6c1.3,0.8,3.3,0.8,4.5,0.1s1.1-1.9-0.1-2.6C230.8,142.7,228.8,142.7,227.6,143.4z M192.4,124.5
			c0.1-1.5,2.3-2.7,5-2.5c2.6,0.2,4.7,1.6,4.6,3.1c-0.1,1.5-2.3,2.7-5,2.5C194.4,127.5,192.3,126.1,192.4,124.5z"/>
		<path class="st0" d="M238.2,202.4c2.6,1.5,3.2,3.2,2.5,4.4h0.1c1.1-0.3,2.2-0.7,3.2-1.1l1.3,1.7c-2,0.6-3.7,1-5.8,1.5l-0.9,0.3
			c-2.6,1.3-6.6,1.5-10.3-0.7c-3.4-2-3.9-4.7-0.8-6.5C230.7,200.1,235.1,200.6,238.2,202.4L238.2,202.4z M229.5,203.3
			c-1.6,1-0.9,2.5,1.2,3.8c2.1,1.3,4.7,1.7,6.3,0.7c1.7-1,1-2.5-1.2-3.8C233.7,202.8,231.1,202.3,229.5,203.3z M242.9,193.2l6.3,3.7
			c3.5,2.1,3.5,4,0.7,5.6c-2.7,1.6-5.8,1.5-9.4-0.6l-6.3-3.7l2.5-1.3l6.5,3.8c1.9,1.1,3.6,1.3,4.8,0.6c1.3-0.7,1-1.7-1-2.9l-6.5-3.8
			L242.9,193.2L242.9,193.2z M260.2,189.7c3.7,2.2,3.8,4.7,0.7,6.5c-3.1,1.8-7.5,1.4-10.7-0.5c-3.4-2-3.9-4.7-0.8-6.5
			C252.7,187.4,257.1,187.9,260.2,189.7z M251.4,190.6c-1.6,0.9-0.9,2.4,1.3,3.7s4.7,1.7,6.3,0.7c1.6-0.9,0.9-2.4-1.3-3.7
			C255.7,190.1,253,189.6,251.4,190.6z M263.2,181.6l2.1,1.3l-2.9,1.7l9.1,5.4l-2.4,1.4l-9.1-5.5l-2.8,1.7l-2.1-1.3L263.2,181.6
			L263.2,181.6z M270.9,177l2.1,1.2l-4.1,2.4l2.3,1.4l3.9-2.3l2.1,1.3l-3.9,2.3l2.7,1.6l4.3-2.5l2.1,1.2l-6.7,3.9l-11.3-6.7
			L270.9,177L270.9,177z"/>
		<path class="st3" d="M307.2,70.7L285.3,64c-0.2-0.1-0.4-0.1-0.6,0l-21.9,6.6c-0.5,0.1-0.8,0.6-0.8,1.1V96
			c0,9.8,14.8,18.4,22.7,20.9c0.1,0,0.2,0,0.3,0s0.2,0,0.3,0c7.9-2.5,22.7-11.2,22.7-20.9V71.7C308,71.2,307.7,70.8,307.2,70.7z"/>
		<path class="st0" d="M278.2,54c0.2,0,0.3-0.1,0.5,0l0.2,0l23.3,7c0.4,0.1,0.8,0.5,0.8,1l0,0.2v25.7c0,5.1-3.8,9.9-8.7,13.8
			l-0.8,0.6c-0.5,0.4-1.1,0.8-1.6,1.2l-0.8,0.6l-0.8,0.5c-0.3,0.2-0.6,0.3-0.8,0.5l-0.8,0.5l-0.8,0.5l-0.4,0.2l-0.8,0.5
			c-0.3,0.1-0.6,0.3-0.8,0.4l-0.8,0.4l-0.4,0.2l-0.8,0.4l-0.8,0.4l-0.4,0.2l-0.8,0.3l-0.7,0.3l-0.7,0.3l-0.7,0.2
			c-0.2,0.1-0.5,0.2-0.7,0.2c-0.1,0-0.2,0.1-0.3,0.1c-0.1,0-0.2,0-0.3-0.1l-0.7-0.2l-0.7-0.2c-0.1,0-0.2-0.1-0.4-0.1l-0.7-0.3
			l-0.8-0.3l-0.4-0.2l-0.8-0.3l-0.8-0.4l-0.8-0.4l-0.4-0.2l-0.8-0.4l-0.8-0.4c-0.8-0.5-1.7-0.9-2.5-1.4l-0.8-0.5
			c-0.6-0.4-1.1-0.7-1.6-1.1l-0.8-0.6c-0.1-0.1-0.3-0.2-0.4-0.3l-0.8-0.6c-4.9-3.8-8.9-8.6-9.1-13.7l0-0.4V62.2
			c0-0.5,0.3-0.9,0.7-1.1l0.1-0.1L278.2,54L278.2,54z M278.5,56.8l-21.8,6.5v24.5c0,6.9,10.8,15.6,21.3,19.2l0.5,0.2l0,0
			c10.5-3.4,21.4-12.1,21.8-19.1l0-0.3V63.3L278.5,56.8L278.5,56.8z"/>
		<path class="st0" d="M288.6,72.5c0.5-0.6,1.3-0.7,1.9-0.2c0.5,0.4,0.7,1.2,0.3,1.8l-0.1,0.1l-10.9,14.2c-0.2,0.3-0.5,0.5-0.9,0.5
			l-0.2,0H278c-0.3,0-0.6-0.1-0.8-0.3l-0.1-0.1l-7.6-7.5c-0.5-0.5-0.6-1.4,0-2c0.5-0.5,1.2-0.6,1.8-0.2l0.1,0.1l7,6.9L288.6,72.5
			L288.6,72.5z"/>
	</g>
</g>
<g>
	<g>
		<g>
			<path class="st0" d="M73.7,113.9c0.2,0.1,0.4,0.2,0.6,0.3c0.6,0.3,0.9,0.7,0.6,0.9c-0.1,0.1-0.4,0.1-0.7,0
				c-0.1-0.1-0.3-0.2-0.5-0.3c-0.3-0.1-0.5-0.3-0.8-0.3c0,0,0,0,0,0l-0.2,0.1c0.3,0.1,0.5,0.2,0.8,0.3c0.6,0.3,0.9,0.7,0.6,0.9
				c-0.3,0.1-0.9,0-1.5-0.3c-0.3-0.2-0.5-0.3-0.6-0.5l-1.1,0.6c0.1,0.2,0.3,0.3,0.6,0.5c0.7,0.4,1.6,0.6,1.9,0.4l0.9-0.5
				c0.1-0.1,0.1-0.2,0.1-0.3l0.6-0.4c0.3-0.2,0-0.7-0.7-1.1c-0.2-0.1-0.4-0.2-0.6-0.3L73.7,113.9z"/>
			<path class="st0" d="M65.6,119.6l-0.2,0.1c0.2,0.1,0.3,0.2,0.5,0.2c1,0.5,1.4,1.2,1,1.4c-0.2,0.1-0.7,0.1-1.2,0
				c-0.2-0.2-0.5-0.4-0.8-0.5c-0.3-0.1-0.5-0.3-0.8-0.4l-0.2,0.1c0.3,0.1,0.5,0.2,0.8,0.4c1,0.5,1.4,1.2,1,1.4
				c-0.4,0.2-1.5,0-2.5-0.5c-0.3-0.1-0.5-0.3-0.7-0.5l-1.6,0.9c0.2,0.2,0.2,0.4,0.5,0.6c1.2,0.7,2.6,1,3.2,0.6l1.5-0.9
				c0.2-0.1,0.2-0.3,0.2-0.4l1-0.6c0.6-0.3,0-1.1-1.2-1.8C65.9,119.7,65.8,119.6,65.6,119.6z"/>
			<path class="st0" d="M59.1,121l1.4,0.8l0.3-1.2l-0.1-0.2l10.4-5.8l0.1,0.3l-10.8,6.9l1.1,0.6l12.9-8.6l-1-0.9L59.1,121z"/>
			<path class="st0" d="M46.4,132.7c1.4,0.7,2.9,1,3.6,0.6c0.6-0.4,0.1-1.2-1.1-2C48.3,131.9,47.4,132.3,46.4,132.7z"/>
			<path class="st0" d="M45.4,133c1.5,0.8,3.1,1.1,3.8,0.7l0.8-0.5l-0.6-0.4c-0.2-0.3-0.6-0.7-1.1-1.1
				C47.5,132.3,46.5,132.7,45.4,133z"/>
			<path class="st0" d="M52.6,126.4l-0.8,0.5c-0.7,0.4,0,1.4,1.5,2.3c1.5,0.8,3.3,1.2,4,0.8l0.8-0.5c0.7-0.4,0-1.4-1.5-2.3
				C55.1,126.3,53.3,126,52.6,126.4z M57.5,129c-0.5,0.3-1.8,0-3-0.7c-1.2-0.7-1.7-1.4-1.2-1.7c0.5-0.3,1.8,0,3,0.7
				C57.5,128,58,128.7,57.5,129z"/>
			<path class="st0" d="M70.8,117.1l-3,2.1c-0.3,0.2-0.9,0.2-1.4,0c-0.4-0.2-0.5-0.6-0.2-0.8l3-2.1c0.3-0.2,0.9-0.2,1.4,0
				C71,116.5,71.1,116.9,70.8,117.1z"/>
			<path class="st0" d="M44.9,127.8l-3.1,1.8l0,0.3l3.3-1.9L44.9,127.8z"/>
			<path class="st0" d="M40.9,130.1l0.3,0.1l3.9-2.3l-0.3-0.1L40.9,130.1z M42,130.9l3.9-2.3l-0.3-0.1l-3.9,2.3L42,130.9z
				 M42.8,131.5l3.9-2.3l-0.3-0.1l-3.9,2.3L42.8,131.5z M43.6,132l3.9-2.3l-0.3-0.1l-3.9,2.3L43.6,132z"/>
			<path class="st0" d="M46.5,129l-3.9,2.3l0.3,0.1l3.9-2.3L46.5,129z"/>
			<path class="st0" d="M60,120.9l-1.1,0.7l-11.4-6.5l0.5-0.4l-2.1,0.7l-1,0.6c-0.8,0.2-1,0.4-1,0.4c-0.1,0.1-0.3,0.2-0.4,0.3
				c-0.7,0.8-1,1.7-0.5,2.5c-1.7,1-3.4,2.2-4.1,3.1c-0.1-0.5-0.1-1.1,0-1.6c0,0,0,0,0,0c-1.2,1.5-0.4,3.1,0,3.7
				c-0.4,0.3-0.5,0.5-0.5,0.5l1.2,1.3l0.4-0.2L41,127l-1-0.6l-0.3,0.2l0,0.3l1.6,0.9c-0.5,0.6-1,1.4-1.3,2.1c1.8-1.8,4.8-3,4.8-3
				s3.3,2.6,3.8,2.9c-3.3,2.3-4.8,2.8-4.8,2.8c-0.9-0.4-1.6-0.9-2.2-1.3c0,0.1,0,0.1,0,0.2c0,0,0,0,0,0c0,0,0,0.1,0,0.1c0,0,0,0,0,0
				c0,0,0,0.1,0,0.1c0,0,0,0,0,0c0,0,0,0.1,0.1,0.1c0,0,0,0,0,0c0,0,0,0.1,0.1,0.1c0,0,0,0,0,0.1c0,0,0.1,0.1,0.1,0.1
				c0,0,0,0,0.1,0.1c0,0,0.1,0.1,0.1,0.1c0,0,0,0,0.1,0.1c0.1,0.1,0.1,0.1,0.2,0.2l0.5,0l0,0.3l2.3,1.3c0,0,6.6-3.1,8.8-5l0.2,0.1
				l1-0.6c-0.3-0.1-0.5-0.2-0.8-0.4c-1.2-0.7-1.7-1.4-1.2-1.7c0.5-0.3,1.8,0,3,0.7c0.3,0.1,0.5,0.3,0.7,0.5l0.6-0.3l6.7-4.8
				l-3.4-1.9l-0.6,0.4L60,120.9L60,120.9z M45.9,116.4c1.1-0.4,2.5,0.3,2.5,0.3c-3.9-0.9-3.1,1.9-3.1,1.9
				C44.9,117.9,44.8,116.8,45.9,116.4z M49.8,122.9C49.8,122.9,49.8,122.9,49.8,122.9C49.8,122.8,49.8,122.8,49.8,122.9
				c0.2-0.2,0.5-0.2,0.7-0.1l-0.2-0.7l-0.9,0.6l-2.2-1.8l2-0.9l2.3,1.3l-0.9,0.6l0.3,1.1l0,0c0.1,0.1,0.1,0.2,0,0.3
				c0,0-0.1,0.1-0.1,0.1c0,0-0.1,0-0.1,0L49.8,122.9z M45.8,121.1l2.3,1.9c0,0,0.3,0.4-0.7,0.9c0,0-1.5,0.8-3,1.8l-2.2-2.1
				L45.8,121.1z M41.8,127.4l-2.1-2l2.1-1.5l2.2,2C43.2,126.4,42.4,127,41.8,127.4z M50.5,128.1c-0.1,0.1-0.8,0.7-1.6,1.3
				c0,0-0.7-0.4-0.7-0.8c0.2-0.5,0.6-1.3,1.1-1.4C49.8,127.3,50.6,128,50.5,128.1z M48,128.7c0,0-1.2-1.6,2.5-4.5
				c0,0,1.4-0.9,2.9-1.5C53.4,122.7,47.9,126.8,48,128.7z M55.4,126.2l-0.5-0.1l4.9-3.5l1.1-0.2L55.4,126.2z"/>
			<path class="st0" d="M49.2,114.4l10.7,6l-1.1,0.6l-10.5-6L49.2,114.4z M49.1,113.8l-1.6,1.3l11.4,6.5l1.9-1.1L49.1,113.8z"/>
			<path class="st0" d="M45.9,128.5l-0.3-0.1l-3.8,2.2l0,0.1l0.1,0.1L45.9,128.5z"/>
			<path class="st0" d="M47.3,129.6l-3.9,2.3l0.3,0.1l3.9-2.3L47.3,129.6z"/>
			<path class="st0" d="M48.7,120.3l-0.8,0.5l2.3,1.3l0.8-0.5L48.7,120.3z"/>
			<path class="st0" d="M49.8,122.1l0.4-0.1l-2.3-1.3l-0.1,0.2L49.8,122.1z"/>
			<path class="st0" d="M70.9,111l-4.7,1.4l4.2-1.8l-0.4-0.3l-17.9,4.3l16-5.8l-0.5-0.4l-18.6,5.4l10.9,6.3l12.7-7.3l1.5,1.2
				l0.4-0.3L70.9,111z"/>
		</g>
	</g>
	<path class="st0" d="M69.5,104l4.5,2.5c0.4,0.3,0.9,0.4,1.3,0.4c0.4,0,0.8-0.1,1.2-0.3c0.4-0.2,0.5-0.4,0.5-0.7
		c0-0.2-0.3-0.5-0.7-0.8l-4.5-2.5l1.5-0.9l4.4,2.5c0.7,0.4,1.1,0.8,1.3,1.2c0.2,0.4,0.2,0.8,0.1,1.2c-0.2,0.4-0.5,0.7-1,1
		c-0.5,0.3-1.1,0.5-1.7,0.6c-0.6,0.1-1.3,0.1-2,0c-0.7-0.1-1.4-0.4-2-0.8l-4.4-2.5L69.5,104z"/>
	<path class="st0" d="M87.3,102.1l-1.5,0.9l-7.2-1.1l4.6,2.6l-1.5,0.9l-7.5-4.2l1.5-0.9l7.2,1.1l-4.6-2.6l1.5-0.9L87.3,102.1z"/>
	<path class="st0" d="M82.3,96.4l7.5,4.2l-1.5,0.9l-7.5-4.2L82.3,96.4z"/>
	<path class="st0" d="M87.8,93.2l1.5,0.8l-1.7,1l6,3.4L92,99.3l-6-3.4l-1.7,1l-1.5-0.8L87.8,93.2z"/>
	<path class="st0" d="M91.3,92.8l1.5,0.9l2.1-1.2l1.4,0.8l-2.1,1.2l1.6,0.9l2.3-1.4l1.5,0.8l-3.9,2.3l-7.5-4.2l3.9-2.3l1.5,0.8
		L91.3,92.8z"/>
	<path class="st0" d="M95.4,88.7c0.7-0.4,1.4-0.6,2.2-0.8c0.8-0.1,1.6-0.1,2.5,0.1c0.8,0.2,1.6,0.4,2.4,0.9c0.7,0.4,1.2,0.9,1.5,1.3
		c0.3,0.5,0.3,1,0.2,1.4c-0.2,0.5-0.6,0.9-1.3,1.3l-2.4,1.4L93,90.1L95.4,88.7z M101.2,92.1c0.6-0.3,0.8-0.7,0.8-1.1
		c-0.1-0.4-0.4-0.8-1.1-1.2c-0.7-0.4-1.4-0.6-2.1-0.6c-0.7,0-1.3,0.1-1.9,0.5l-0.7,0.4l4.3,2.4L101.2,92.1z"/>
	<path class="st0" d="M110.9,88.3c-0.5,0.3-1,0.5-1.5,0.6c-0.5,0.1-1.1,0.1-1.7,0.1c-0.6-0.1-1.1-0.2-1.6-0.5l1.6-1
		c0.3,0.1,0.6,0.2,0.9,0.2c0.3,0,0.5-0.1,0.8-0.2c0.2-0.1,0.3-0.3,0.4-0.4c0-0.1-0.1-0.3-0.3-0.4c-0.2-0.1-0.4-0.2-0.6-0.2
		c-0.2,0-0.4,0-0.7,0.1c-0.2,0-0.5,0.1-0.9,0.2c-0.6,0.2-1,0.3-1.4,0.3c-0.4,0.1-0.8,0.1-1.3,0c-0.5-0.1-0.9-0.2-1.4-0.5
		c-0.7-0.4-1-0.8-1-1.3c0-0.5,0.4-0.9,1.1-1.3c0.7-0.4,1.5-0.6,2.3-0.7c0.8,0,1.6,0.1,2.3,0.5l-1.7,1c-0.3-0.1-0.5-0.2-0.8-0.2
		c-0.3,0-0.5,0.1-0.7,0.2c-0.2,0.1-0.3,0.2-0.3,0.4c0,0.1,0.1,0.3,0.3,0.4c0.2,0.1,0.5,0.2,0.8,0.1c0.3,0,0.8-0.1,1.3-0.3
		c0.6-0.1,1.1-0.3,1.5-0.3c0.4-0.1,0.8-0.1,1.3,0c0.5,0.1,0.9,0.2,1.4,0.5c0.4,0.2,0.7,0.5,0.9,0.8c0.2,0.3,0.2,0.6,0,0.9
		C111.7,87.7,111.4,88,110.9,88.3z"/>
	<path class="st0" d="M111,79.5l1.5,0.8l-1.7,1l6,3.4l-1.5,0.9l-6-3.4l-1.7,1l-1.5-0.8L111,79.5z"/>
	<path class="st0" d="M121.6,80.3l-2.4,1.4l0.9,1l-1.6,0.9l-5.2-5.6l1.8-1l9.7,2.9l-1.6,1L121.6,80.3z M119.8,79.8l-3.5-1.1l2,2
		L119.8,79.8z"/>
	<path class="st0" d="M122.5,72.7l1.5,0.8l-1.7,1l6,3.4l-1.5,0.9l-6-3.4l-1.7,1l-1.5-0.8L122.5,72.7z"/>
	<path class="st0" d="M126.1,72.3l1.5,0.9l2.1-1.2l1.4,0.8l-2.1,1.2l1.6,0.9l2.3-1.4l1.5,0.8l-3.9,2.3l-7.5-4.2l3.9-2.3l1.5,0.8
		L126.1,72.3z"/>
	<path class="st0" d="M137.6,72.5c-0.5,0.3-1,0.5-1.5,0.6c-0.5,0.1-1.1,0.1-1.7,0.1c-0.6-0.1-1.1-0.2-1.6-0.5l1.6-1
		c0.3,0.1,0.6,0.2,0.9,0.2c0.3,0,0.5-0.1,0.8-0.2c0.2-0.1,0.3-0.3,0.4-0.4c0-0.1-0.1-0.3-0.3-0.4c-0.2-0.1-0.4-0.2-0.6-0.2
		c-0.2,0-0.4,0-0.7,0.1c-0.2,0-0.5,0.1-0.9,0.2c-0.6,0.2-1,0.3-1.4,0.3c-0.4,0.1-0.8,0.1-1.3,0c-0.5-0.1-0.9-0.2-1.4-0.5
		c-0.7-0.4-1-0.8-1-1.3c0-0.5,0.4-0.9,1.1-1.3c0.7-0.4,1.5-0.6,2.3-0.7c0.8,0,1.6,0.1,2.3,0.5l-1.7,1c-0.3-0.1-0.5-0.2-0.8-0.2
		c-0.3,0-0.5,0.1-0.7,0.2c-0.2,0.1-0.3,0.2-0.3,0.4c0,0.1,0.1,0.3,0.3,0.4c0.2,0.1,0.5,0.2,0.8,0.1c0.3,0,0.8-0.1,1.3-0.3
		c0.6-0.1,1.1-0.3,1.5-0.3c0.4-0.1,0.8-0.1,1.3,0c0.5,0.1,0.9,0.2,1.4,0.5c0.4,0.2,0.7,0.5,0.9,0.8c0.2,0.3,0.2,0.6,0,0.9
		C138.4,71.9,138.1,72.2,137.6,72.5z"/>
	<path class="st0" d="M82.8,111.6c0.2-0.1,0.4-0.1,0.6-0.1c0.2,0,0.5,0.1,0.6,0.2c0.2,0.1,0.3,0.2,0.3,0.3c0.1,0.1,0.1,0.2,0,0.3
		c-0.1,0.1-0.2,0.2-0.3,0.3l-1,0.6l-3.1-1.8l1-0.6c0.2-0.1,0.4-0.2,0.6-0.2c0.2,0,0.4,0,0.6,0c0.2,0,0.4,0.1,0.5,0.2
		c0.2,0.1,0.3,0.2,0.3,0.3C82.9,111.4,82.9,111.5,82.8,111.6z M81.7,112.1l0.5-0.3c0.1-0.1,0.2-0.2,0.2-0.3c0-0.1-0.1-0.2-0.2-0.3
		c-0.1-0.1-0.3-0.1-0.4-0.1c-0.2,0-0.3,0-0.4,0.1l-0.5,0.3L81.7,112.1z M83.6,112.5c0.1-0.1,0.2-0.2,0.2-0.3c0-0.1-0.1-0.2-0.2-0.3
		c-0.2-0.1-0.3-0.1-0.5-0.1c-0.2,0-0.3,0-0.5,0.1l-0.6,0.3l1,0.6L83.6,112.5z"/>
	<path class="st0" d="M83.1,110.2l0.9,0.5l0.9-0.5l0.4,0.2l-0.9,0.5l1,0.5l1-0.6l0.4,0.2l-1.4,0.8l-3.1-1.8l1.4-0.8l0.4,0.2
		L83.1,110.2z"/>
	<path class="st0" d="M88.2,110.4c-0.2,0.1-0.4,0.2-0.6,0.2c-0.2,0-0.4,0-0.6,0c-0.2,0-0.4-0.1-0.6-0.2l0.5-0.3
		c0.1,0.1,0.3,0.1,0.5,0.1c0.2,0,0.3,0,0.5-0.1c0.1-0.1,0.2-0.2,0.2-0.3c0-0.1-0.1-0.2-0.2-0.3c-0.1-0.1-0.2-0.1-0.3-0.1
		c-0.1,0-0.2,0-0.3,0c-0.1,0-0.3,0.1-0.4,0.1c-0.2,0.1-0.4,0.1-0.6,0.2c-0.2,0-0.3,0-0.5,0c-0.2,0-0.4-0.1-0.6-0.2
		c-0.2-0.1-0.3-0.2-0.4-0.3c-0.1-0.1-0.1-0.2,0-0.4c0.1-0.1,0.2-0.2,0.4-0.3c0.3-0.1,0.5-0.2,0.8-0.2c0.3,0,0.6,0.1,0.9,0.2
		l-0.5,0.3c-0.1-0.1-0.3-0.1-0.4-0.1c-0.2,0-0.3,0-0.4,0.1c-0.1,0.1-0.2,0.2-0.2,0.2c0,0.1,0.1,0.2,0.2,0.3c0.1,0.1,0.2,0.1,0.3,0.1
		c0.1,0,0.2,0,0.3,0c0.1,0,0.3-0.1,0.4-0.1c0.2-0.1,0.4-0.1,0.6-0.1c0.2,0,0.3,0,0.5,0c0.2,0,0.4,0.1,0.6,0.2
		c0.2,0.1,0.3,0.2,0.3,0.3c0.1,0.1,0.1,0.2,0,0.4C88.5,110.1,88.4,110.3,88.2,110.4z"/>
	<path class="st0" d="M88.1,106.8l0.4,0.2l-0.7,0.4l2.7,1.5l-0.4,0.3l-2.7-1.5l-0.7,0.4l-0.4-0.2L88.1,106.8z"/>
	<path class="st0" d="M90.8,107c-0.3-0.2-0.5-0.4-0.7-0.6c-0.1-0.2-0.2-0.4-0.1-0.6c0.1-0.2,0.2-0.4,0.5-0.5c0.3-0.2,0.6-0.3,1-0.3
		c0.4,0,0.8,0,1.2,0.1l-0.5,0.3c-0.2-0.1-0.4-0.1-0.7,0c-0.2,0-0.4,0.1-0.5,0.2c-0.2,0.1-0.3,0.2-0.3,0.4c0,0.1,0,0.3,0.1,0.4
		c0.1,0.1,0.3,0.3,0.5,0.4c0.2,0.1,0.5,0.2,0.7,0.3c0.3,0.1,0.5,0.1,0.7,0c0.2,0,0.4-0.1,0.6-0.2c0.2-0.1,0.3-0.2,0.3-0.3
		c0-0.1,0-0.2-0.1-0.4l0.5-0.3c0.2,0.2,0.3,0.5,0.2,0.7c-0.1,0.2-0.2,0.4-0.5,0.6c-0.2,0.1-0.5,0.2-0.9,0.3c-0.3,0-0.7,0-1.1,0
		C91.5,107.3,91.1,107.1,90.8,107z"/>
	<path class="st0" d="M96.3,104.8l-1.1,0.6l0.5,0.5l-0.4,0.3l-2.2-2.3l0.5-0.3l4.1,1.2l-0.4,0.3L96.3,104.8z M95.8,104.6l-1.9-0.6
		l1,1.1L95.8,104.6z"/>
	<path class="st0" d="M99.3,103.8l-1.9-0.4l-0.3,0.2l1.3,0.7l-0.4,0.3l-3.1-1.8l0.9-0.5c0.2-0.1,0.4-0.2,0.6-0.2c0.2,0,0.4,0,0.6,0
		c0.2,0,0.4,0.1,0.6,0.2c0.2,0.1,0.3,0.3,0.4,0.4c0.1,0.2,0,0.3-0.1,0.5l1.9,0.4L99.3,103.8z M96.7,103.4l0.5-0.3
		c0.2-0.1,0.2-0.2,0.2-0.3c0-0.1-0.1-0.2-0.3-0.3c-0.2-0.1-0.3-0.1-0.5-0.1c-0.2,0-0.3,0-0.5,0.1l-0.5,0.3L96.7,103.4z"/>
	<path class="st0" d="M102.1,102.2c-0.2,0.1-0.4,0.2-0.6,0.2c-0.2,0-0.4,0-0.6,0c-0.2,0-0.4-0.1-0.6-0.2l0.5-0.3
		c0.1,0.1,0.3,0.1,0.5,0.1c0.2,0,0.3,0,0.5-0.1c0.1-0.1,0.2-0.2,0.2-0.3c0-0.1-0.1-0.2-0.2-0.3c-0.1-0.1-0.2-0.1-0.3-0.1
		c-0.1,0-0.2,0-0.3,0c-0.1,0-0.3,0.1-0.4,0.1c-0.2,0.1-0.4,0.1-0.6,0.2c-0.2,0-0.3,0-0.5,0c-0.2,0-0.4-0.1-0.6-0.2
		c-0.2-0.1-0.3-0.2-0.4-0.3c-0.1-0.1-0.1-0.2,0-0.4c0.1-0.1,0.2-0.2,0.4-0.3c0.3-0.1,0.5-0.2,0.8-0.2c0.3,0,0.6,0.1,0.9,0.2
		l-0.5,0.3c-0.1-0.1-0.3-0.1-0.4-0.1c-0.2,0-0.3,0-0.4,0.1c-0.1,0.1-0.2,0.2-0.2,0.2c0,0.1,0.1,0.2,0.2,0.3c0.1,0.1,0.2,0.1,0.3,0.1
		c0.1,0,0.2,0,0.3,0c0.1,0,0.3-0.1,0.4-0.1c0.2-0.1,0.4-0.1,0.6-0.1c0.2,0,0.3,0,0.5,0c0.2,0,0.4,0.1,0.6,0.2
		c0.2,0.1,0.3,0.2,0.3,0.3c0.1,0.1,0.1,0.2,0,0.4C102.4,101.9,102.3,102,102.1,102.2z"/>
	<path class="st0" d="M102.4,98.3l3.1,1.8l-0.4,0.3l-1.4-0.8l-1.2,0.7l1.4,0.8l-0.4,0.3l-3.1-1.8l0.4-0.3l1.3,0.8l1.2-0.7l-1.3-0.8
		L102.4,98.3z"/>
	<path class="st0" d="M103.3,97.8l3.1,1.8l-0.4,0.3l-3.1-1.8L103.3,97.8z"/>
	<path class="st0" d="M106.6,96.9c0.2,0.1,0.3,0.2,0.4,0.3c0.1,0.1,0.1,0.2,0,0.4c0,0.1-0.2,0.3-0.4,0.4l-0.5,0.3l1.3,0.7l-0.4,0.3
		l-3.1-1.8l0.9-0.5c0.2-0.1,0.4-0.2,0.6-0.2c0.2,0,0.4,0,0.6,0C106.3,96.7,106.4,96.8,106.6,96.9z M106.2,97.7
		c0.2-0.1,0.2-0.2,0.2-0.3c0-0.1-0.1-0.2-0.3-0.3c-0.3-0.2-0.7-0.2-1,0l-0.5,0.3l1,0.6L106.2,97.7z"/>
	<path class="st0" d="M108.8,95.6c0.2,0.1,0.3,0.2,0.4,0.3c0.1,0.1,0.1,0.2,0,0.4c0,0.1-0.2,0.3-0.4,0.4l-0.5,0.3l1.3,0.7l-0.4,0.3
		l-3.1-1.8l0.9-0.5c0.2-0.1,0.4-0.2,0.6-0.2c0.2,0,0.4,0,0.6,0C108.4,95.5,108.6,95.5,108.8,95.6z M108.4,96.5
		c0.2-0.1,0.2-0.2,0.2-0.3c0-0.1-0.1-0.2-0.3-0.3c-0.3-0.2-0.7-0.2-1,0l-0.5,0.3l1,0.6L108.4,96.5z"/>
	<path class="st0" d="M108.7,94.6l3.1,1.8l-0.4,0.3l-3.1-1.8L108.7,94.6z"/>
	<path class="st0" d="M114.5,94.8l-0.4,0.3l-3.6-0.6l2.3,1.3l-0.4,0.3l-3.1-1.8l0.4-0.3l3.6,0.6l-2.3-1.3l0.4-0.3L114.5,94.8z"/>
	<path class="st0" d="M114.6,92.1c-0.2,0-0.4-0.1-0.6,0c-0.2,0-0.4,0.1-0.5,0.2c-0.2,0.1-0.3,0.2-0.3,0.4c0,0.1,0,0.3,0.1,0.4
		c0.1,0.1,0.3,0.3,0.5,0.4s0.5,0.2,0.7,0.3c0.2,0.1,0.5,0.1,0.7,0c0.2,0,0.4-0.1,0.6-0.2c0.2-0.1,0.3-0.3,0.3-0.5
		c0-0.2-0.1-0.3-0.4-0.5l-1,0.6l-0.4-0.2l1.4-0.8l0.4,0.2c0.2,0.2,0.4,0.3,0.5,0.5c0.1,0.2,0.1,0.4,0,0.5c-0.1,0.2-0.2,0.3-0.4,0.5
		c-0.2,0.1-0.5,0.2-0.9,0.3c-0.3,0-0.7,0-1.1,0c-0.4-0.1-0.7-0.2-1-0.4c-0.3-0.2-0.5-0.4-0.7-0.6c-0.1-0.2-0.2-0.4-0.1-0.6
		c0.1-0.2,0.2-0.4,0.5-0.5c0.3-0.2,0.6-0.3,1-0.3c0.4,0,0.8,0,1.2,0.1L114.6,92.1z"/>
</g>
</svg>
