<?xml version="1.0" encoding="utf-8"?>
<!-- Generator: Adobe Illustrator 28.0.0, SVG Export Plug-In . SVG Version: 6.00 Build 0)  -->
<svg version="1.1" id="Layer_1" xmlns="http://www.w3.org/2000/svg" xmlns:xlink="http://www.w3.org/1999/xlink" x="0px" y="0px"
	 viewBox="0 0 408 282" style="enable-background:new 0 0 408 282;" xml:space="preserve">
<style type="text/css">
	.st0{fill:#C1C1C1;}
	.st1{fill-rule:evenodd;clip-rule:evenodd;fill:#FFFFFF;}
	.st2{fill-rule:evenodd;clip-rule:evenodd;fill:#1D1D1D;}
	.st3{opacity:0.123;fill-rule:evenodd;clip-rule:evenodd;fill:#393B62;enable-background:new    ;}
	.st4{fill-rule:evenodd;clip-rule:evenodd;fill:#872A41;}
	.st5{fill-rule:evenodd;clip-rule:evenodd;fill:#A2384D;}
	.st6{fill-rule:evenodd;clip-rule:evenodd;fill:#B54761;}
	.st7{fill-rule:evenodd;clip-rule:evenodd;}
	.st8{fill-rule:evenodd;clip-rule:evenodd;fill:#2B2B2B;}
	.st9{fill-rule:evenodd;clip-rule:evenodd;fill:#595959;}
	.st10{fill-rule:evenodd;clip-rule:evenodd;fill:#E5E5E5;}
	.st11{filter:url(#Adobe_OpacityMaskFilter);}
	
		.st12{mask:url(#p3amelb39d_00000121993693783314864040000001895980899890721197_);fill-rule:evenodd;clip-rule:evenodd;fill:#E5E5E5;}
	.st13{fill:#A2384D;}
	.st14{fill:url(#SVGID_1_);}
	.st15{fill:#872A41;}
	.st16{fill-rule:evenodd;clip-rule:evenodd;stroke:#000000;stroke-width:0.4;}
	.st17{fill:#2B2B2B;}
	.st18{fill:#D1D1D1;}
	.st19{fill-rule:evenodd;clip-rule:evenodd;fill:#FEC937;}
	.st20{fill:url(#SVGID_00000022552586770916364150000006647057858166652571_);}
	.st21{fill:url(#SVGID_00000070840285414917386890000008796548746976088713_);}
	.st22{fill:url(#SVGID_00000132767790128951753610000003700770100376167842_);}
	.st23{fill-rule:evenodd;clip-rule:evenodd;fill:#FFD0C9;}
	.st24{opacity:0.4;fill-rule:evenodd;clip-rule:evenodd;fill:#FFFFFF;enable-background:new    ;}
	.st25{fill:#FFFFFF;}
</style>
<g>
	<g>
		<path class="st0" d="M92,222.3h191V90.9H92V222.3z"/>
		<path class="st1" d="M105.5,184.2h39.7v-38.8h-39.7V184.2z"/>
		<path class="st2" d="M105.5,184.2h39.7v-38.8h-39.7V184.2z"/>
		<path class="st1" d="M109.6,180.4h31.8v-31.3h-31.8V180.4z"/>
		<path class="st3" d="M200.3,98.1l-78,124.2H237V93.5L200.3,98.1z"/>
		<path class="st4" d="M281.4,58.6H112.1l-30.8,44h166L281.4,58.6z"/>
		<path class="st5" d="M234.7,58.6l-0.4,44h-54.5l31.7-44H234.7z"/>
		<path class="st6" d="M283,0l-75,69.1l4.6,4.9l6.4-6.3l64-32.3l63.9,32.3l6.4,6.3l4.7-4.9L283,0z M81.3,102.6H237v-9.1H81.3V102.6z
			"/>
		<path class="st0" d="M219,222.3h127.9V67.7L283,10.5l-64,57.2V222.3z"/>
		<path class="st7" d="M160.6,222.3h41.5v-76.9h-41.5V222.3z"/>
		<path class="st8" d="M164.3,217.8h34v-69h-34V217.8z"/>
		<path class="st2" d="M245.4,117.9h75.2V79.1h-75.2V117.9z"/>
		<path class="st1" d="M249.2,114.2h67.7V82.9h-67.7V114.2z"/>
		<path class="st2" d="M280.9,116.4h4.2V81.7h-4.2V116.4z M245.4,184.2h75.2v-38.8h-75.2V184.2z"/>
		<path class="st1" d="M249.2,180.4h67.7v-31.3h-67.7V180.4z"/>
		<path class="st2" d="M280.9,182.6h4.2v-34.7h-4.2V182.6z"/>
		<g>
			<path class="st5" d="M184.5,119.1h17.2c2.6,0,4.7-2.1,4.7-4.7s-2.1-4.7-4.7-4.7h-17.2c-2.6,0-4.7,2.1-4.7,4.7
				C179.8,116.9,181.9,119.1,184.5,119.1"/>
			<path class="st6" d="M148.4,119.1h17.2c2.6,0,4.7-2.1,4.7-4.7s-2.1-4.7-4.7-4.7h-17.2c-2.6,0-4.7,2.1-4.7,4.7
				C143.7,116.9,145.8,119.1,148.4,119.1 M112.3,119.1h17.2c2.6,0,4.7-2.1,4.7-4.7s-2.1-4.7-4.7-4.7h-17.2c-2.6,0-4.7,2.1-4.7,4.7
				C107.6,116.9,109.7,119.1,112.3,119.1"/>
			<path class="st9" d="M238.7,213.3c0,1.4-1.1,2.5-2.5,2.5h-4.7c-1.4,0-2.5-1.1-2.5-2.5v-20.7c0-1.4,1.1-2.5,2.5-2.5h4.7
				c1.4,0,2.5,1.1,2.5,2.5C238.7,192.6,238.7,213.3,238.7,213.3z"/>
			<g transform="translate(0 97.4)">
				<g>
					<g>
						<path class="st10" d="M33,1.6c-11,0-22,52.7-22,64.6c0,11.5,9.1,20.9,20.7,21.6v33.9h3.2V87.8C46.1,86.8,55,77.5,55,66.2
							C55,54.3,44,1.6,33,1.6z"/>
					</g>
					<g transform="translate(11 .6) translate(353 43.1)">
						<defs>
							<filter id="Adobe_OpacityMaskFilter" filterUnits="userSpaceOnUse" x="0" y="0.9" width="44" height="77.1">
								<feColorMatrix  type="matrix" values="1 0 0 0 0  0 1 0 0 0  0 0 1 0 0  0 0 0 1 0"/>
							</filter>
						</defs>
						
							<mask maskUnits="userSpaceOnUse" x="0" y="0.9" width="44" height="77.1" id="p3amelb39d_00000121993693783314864040000001895980899890721197_">
							<g class="st11">
								<path id="ot88q9oesc_00000076570471332801282690000018234098491254790793_" class="st1" d="M0,0.9h44V78H0V0.9z"/>
							</g>
						</mask>
						<path class="st12" d="M44,22.5c0-11.9-9.8-21.6-22-21.6S0,10.6,0,22.5C0,34,9.1,43.4,20.7,44.1V78h3.2V44.1
							C35.1,43.1,44,33.8,44,22.5"/>
					</g>
				</g>
			</g>
			<g>
				<path class="st13" d="M1.6,235.1c0,0,6.1,6.6,12.4,6.6h144.1c5.8,0,29.6-3.7,31.4-4.8c1.8-1.2,3.8-4.5,4.1-5.8
					c0.3-1.3,0.9-9.2,0.8-10.9c-0.1-1.7-3-4.7-3-7.5v-15.6c0-1.6-2.2-1.8-2.4-2.6c-0.1-0.8-8.1-17.6-13.4-21.9
					c-5.2-4.3-55.1-4.2-71.4-3c-16.3,1.2-25.7,5.2-36.1,12.4c-10.4,7.2-16.9,11.6-18.4,12.1s-16.9,2.3-25.7,4.2
					c-8.7,1.9-13.4,3.5-14.8,4.6c-1.4,1.1-4.5,3.5-6.3,10.5c0,0-1.9,1-2.4,2C0.2,216.6-0.9,228.4,1.6,235.1"/>
				
					<linearGradient id="SVGID_1_" gradientUnits="userSpaceOnUse" x1="-87.4871" y1="538.3604" x2="-87.4871" y2="537.3604" gradientTransform="matrix(18.5521 0 0 -11.9 1636.1498 6607.792)">
					<stop  offset="0" style="stop-color:#E2E2EF"/>
					<stop  offset="1" style="stop-color:#FFFFFF"/>
				</linearGradient>
				<path class="st14" d="M7.6,205.3c-1.2,1.6-2.8,4.2-3.8,7.9c0,0,3.7-1.1,8.2-3.7c4.5-2.6,11-8.2,10.3-8.2
					C21.7,201.3,13.1,203.4,7.6,205.3z"/>
				<path class="st15" d="M0.7,215.4c0,0.1-0.1,0.1-0.1,0.1c-0.4,1-1.5,12.8,1,19.6c0,0,6.1,6.6,12.4,6.6h144.1
					c5.8,0,29.6-3.7,31.4-4.8c1.8-1.2,3.8-4.5,4.1-5.8c0.3-1.3,0.9-9.2,0.8-10.9c-0.1-1.7-3-4.7-3-7.5v-10.4L0.7,215.4L0.7,215.4z"
					/>
				<path class="st16" d="M160.3,215.6c1.8-4,4.2-12.4,4-17.1c-0.3-4.6-10.1-22.4-14.5-25c-3.8-2.3-6.9-2.4-15.9-2.8
					c-1.5-0.1-3.2-0.1-5.2-0.2c-13.6-0.7-31.6,1-35.5,1.5c-1.9,0.3-8.6,1.8-14.6,5.4c-7.3,4.4-13.4,8.7-18,12.7
					c-5.6,4.8-7.1,6.8-7.9,11.9c-0.9,5.2-0.2,24.3,0.9,34.7l0.5-0.1c-1.1-10.4-1.8-29.4-0.9-34.6c0.8-5.1,2.3-6.9,7.8-11.6
					c4.6-4,10.7-8.3,18-12.7c5.9-3.6,12.5-5.1,14.4-5.3c2.6-0.4,11.8-1.2,21.7-1.6c-0.4,2.3-3.2,17.1-5.1,32
					c-2.1,16.2-1.2,34.5-1.2,34.7h0.5c0-0.2-0.9-18.5,1.2-34.6c1.9-15.2,4.7-30.2,5.1-32.1c4.4-0.1,9-0.1,13.2,0.1
					c1.9,0.1,3.6,0.2,5.2,0.2c9,0.4,12,0.5,15.7,2.7c4.3,2.6,14,20.1,14.2,24.6c0.3,4.6-2.1,12.9-3.9,16.9L160.3,215.6L160.3,215.6z
					 M27.1,201.2c1.5-0.2,3-0.4,4.3-0.6c2.8-0.4,4.8-0.5,6.2-0.5s2.2-0.1,2.5-0.4c0.1-0.1,0.6-0.3,1.2-0.6c2-1,5.3-2.7,6.5-4.6
					c-0.2,0-0.5,0.1-0.7,0.1c-1.3,1.6-4.4,3.2-6,4c-0.7,0.4-1.1,0.5-1.2,0.7c-0.2,0.2-1.1,0.2-2.2,0.3c-1.4,0-3.5,0.1-6.3,0.5
					c-1.4,0.2-2.8,0.4-4.3,0.6c-4.3,0.5-9.2,1.1-13.7,2.6c-3.2,1-5.5,2-7,2.6c-0.2,0.3-0.4,0.5-0.6,0.8c1.4-0.7,3.9-1.7,7.7-3
					C18,202.3,22.8,201.8,27.1,201.2"/>
				<path class="st7" d="M166.9,212.2c-14,0-25.5,10.2-27.6,23.6H53.1c-2.1-13.4-13.6-23.6-27.6-23.6c-11.1,0-20.7,6.5-25.2,15.9
					c0.2,2.5,0.6,5,1.4,7c0,0,6.1,6.6,12.4,6.6h144.2c5.8,0,29.6-3.7,31.4-4.8c1.7-1.1,3.5-4,4-5.4
					C189.8,220.2,179.3,212.2,166.9,212.2"/>
				<path class="st17" d="M4.8,237.9c2.4,1.8,5.7,3.8,9.2,3.8h32.2c0-0.5,0.1-1,0.1-1.6c0-11.5-9.3-20.8-20.8-20.8
					C14.7,219.3,5.9,227.5,4.8,237.9 M187.5,237.5c-1.3-10.2-10-18.2-20.6-18.2c-11.5,0-20.8,9.3-20.8,20.8c0,0.5,0,1.1,0.1,1.6
					h11.9C163.1,241.7,181.3,239,187.5,237.5"/>
				<path d="M25.5,223.3c9.3,0,16.8,7.5,16.8,16.8c0,9.3-7.5,16.8-16.8,16.8c-9.3,0-16.8-7.5-16.8-16.8
					C8.7,230.8,16.2,223.3,25.5,223.3"/>
				<path class="st18" d="M36.9,240.1c0,6.3-5.1,11.5-11.5,11.5c-6.3,0-11.5-5.1-11.5-11.5c0-6.3,5.1-11.5,11.5-11.5
					S36.9,233.8,36.9,240.1"/>
				<path d="M166.9,223.3c9.3,0,16.8,7.5,16.8,16.8c0,9.3-7.5,16.8-16.8,16.8c-9.3,0-16.8-7.5-16.8-16.8
					C150.1,230.8,157.6,223.3,166.9,223.3"/>
				<path class="st18" d="M178.4,240.1c0,6.3-5.1,11.5-11.5,11.5c-6.3,0-11.5-5.1-11.5-11.5c0-6.3,5.1-11.5,11.5-11.5
					C173.2,228.6,178.4,233.8,178.4,240.1"/>
				<path class="st19" d="M191.3,197.2c0-1.6-2.2-1.8-2.4-2.6c0,0,0-0.1-0.1-0.2h-7.9c-1,0-1.6,0.3-1.2,1.5c0.3,1.1,8,9.3,11.6,15.6
					L191.3,197.2L191.3,197.2z"/>
				
					<linearGradient id="SVGID_00000026855899504409216780000017286819115681299119_" gradientUnits="userSpaceOnUse" x1="-90.7602" y1="550.9907" x2="-90.7602" y2="549.9907" gradientTransform="matrix(53.4541 0 0 -25.6901 4936.2324 14327.7246)">
					<stop  offset="0" style="stop-color:#C4C4D5"/>
					<stop  offset="1" style="stop-color:#FFFFFF"/>
				</linearGradient>
				<path style="fill:url(#SVGID_00000026855899504409216780000017286819115681299119_);" d="M89.7,174.4
					c-3.5,0.7-10.9,4.5-16.4,8.6c-5.5,4.1-13.5,10.9-14.5,11.8c-1,0.9-1.6,3.7,1.6,3.6c3.2-0.1,44.4-2.6,45.8-2.7
					c1.4-0.1,1.4-1.8,1.7-3.9c0.3-2.2,2.9-14.4,3.3-16.2s0.4-2.6-0.5-2.8C109.9,172.6,99.5,172.6,89.7,174.4"/>
				
					<linearGradient id="SVGID_00000116220449733876524960000017224803014882458540_" gradientUnits="userSpaceOnUse" x1="-90.3347" y1="549.5627" x2="-90.3347" y2="548.5627" gradientTransform="matrix(42.9507 0 0 -22.7141 4016.5986 12655.5361)">
					<stop  offset="0" style="stop-color:#C4C4D5"/>
					<stop  offset="1" style="stop-color:#FFFFFF"/>
				</linearGradient>
				<path style="fill:url(#SVGID_00000116220449733876524960000017224803014882458540_);" d="M119.6,172.7c1,0,22.9,0.7,25.1,1.1
					c2.2,0.4,5.1,1.8,7.1,4.7c2,2.9,5.8,10,6.2,11.9c0.4,2-0.1,3.2-1.8,3.2s-37.7,1.7-38.8,1.8c-1.1,0.1-2.4-0.3-2.2-2.2
					c0.3-1.9,2.5-17,2.6-18.3C118,173.7,118.1,172.7,119.6,172.7"/>
				
					<linearGradient id="SVGID_00000051364307031083506210000001940652727545832888_" gradientUnits="userSpaceOnUse" x1="-88.9019" y1="546.4211" x2="-88.9019" y2="545.4211" gradientTransform="matrix(25.8473 0 0 -18.101 2472.7478 10064.3682)">
					<stop  offset="0" style="stop-color:#C4C4D5"/>
					<stop  offset="1" style="stop-color:#FFFFFF"/>
				</linearGradient>
				<path style="fill:url(#SVGID_00000051364307031083506210000001940652727545832888_);" d="M172.5,188.6c1.2,1.6,3.7,1.9,6.4,2.2
					c1.8,0.2,6.3,0.6,8.9,0.9c-2.3-4.7-7.2-14-11.1-18.1h-12.3c-1.2,0-3.6,0.3-1.8,3.3S171.2,187,172.5,188.6"/>
			</g>
			<path class="st5" d="M262.6,186.4c-1.3-53.2-29.6-39.5-27-7.3c0.4,3.8-6.6,3.9-7.9,8.9c-3.4,15.1,1.2,50.7,2.9,78.5h-0.3
				c0,0-0.2,2.4-2.1,3.4c-1.8,1-5.1,1.8-6.2,2.8c-0.8,0.8-3.8,5,7,4.7c7.7-0.2,9.5-0.7,10.3-2c0.1-0.2,6.4-58.6,7.2-63.4
				c1.4,6.1,16.9,58.4,16.9,58.4c-0.1,0.9-1.4,3.4-2.7,4.9c-0.4,1.5-1.4,4.1,6,4.1c7.4-0.1,5.9-1.9,6.7-3.2
				c-3.3-31.1-8.6-81.1-10.3-89.4L262.6,186.4z"/>
			<path class="st6" d="M254.2,190.7c6.8,35.2,13.9,79.7,13.9,79.7c-0.1,0.9-6.1,3.4-7.4,4.9c-0.4,1.5-1.4,4.1,6,4.1
				c7.4-0.1,5.9-1.9,6.7-3.2c-3.3-31.1-8.6-81.1-10.3-89.4l-0.5-0.4L254.2,190.7L254.2,190.7z"/>
			<path d="M239.3,275.8c-0.9,1.4-2.9,2-11.4,2.2c-12,0.2-8.7-4.4-7.8-5.2c1.2-1.1,4.7-2,6.8-3.1c2.1-1.1,2.3-3.7,2.3-3.7h6
				c8.3,0,5.4,2.1,4.8,7.3L239.3,275.8L239.3,275.8z"/>
			<path d="M273.5,278.8c-0.7,1.4-3.5,2-10,2.2c-9.1,0.2-7.6-4.2-7-5.1c0.9-1.1,5.4-0.8,5.2-3.8c-0.2-2.9,1-3.1,1-3.1h7.7
				c4.1,0,3.8,1.8,3.3,6.9L273.5,278.8L273.5,278.8z"/>
			<path class="st10" d="M238.6,137.4c-6.8,4.2-14.3,12.5-14.9,13.4c-0.6,0.9-18.3,0.8-22.3,0.9c-2.2-0.1-3.6,4.4-2.2,6.7
				c1.2,2.1,25.9,5.7,31.5,1.9c1.3-0.9,2.6-1.8,3.6-2.7l8.9-11.5C244.4,140.2,238.7,137.3,238.6,137.4"/>
			<path class="st10" d="M264,189.3c-1.2-11.1,1.7-31.2,2.8-41.6c0.4-3.6,0.1-8.9-7.5-10.7c-6.3-1.5-12.3-1.9-18.7-0.4
				c-1.8,0.4-3.5,1.5-4.9,3.5c-7.7,11.3-7.7,39.2-8.1,47.8C236.3,190.7,249.5,191.8,264,189.3"/>
			<path class="st1" d="M266.8,147.7c0.4-3.6,0.1-8.9-7.5-10.7c-6.3-1.5-9.3-5.6-8.5,12.7c0.8,18.2,1.8,29.9,3.4,40.4
				c5.1-0.8,6.1,0,9.8-0.8C262.8,178.2,265.7,158.1,266.8,147.7z"/>
			<path class="st23" d="M241.1,129c1,2,2.4,3.6,4,4.4l-0.1,2.9l-0.4,0.4c-1.7,1.8,0.1,5.5,2.1,5.4c4.8,0.2,8.5-3.7,7.1-5.9
				l-0.6-0.7l-0.1-4.2c0.2,0,2.1-1,2.6-1.2s1.3-1.2,1.4-2.3c0.1-1.1-1.6-0.7-1.6-0.7c2.1-2.8,4.4-5.1,1.4-7.7c-3-2.5-10-4-10-4
				l-4.2-1.4c0.5,1.4-0.2,6.3-1.3,9.3C240.4,125.9,239.8,126.3,241.1,129"/>
			<path class="st24" d="M251.1,131.9c0,0-2.4,4.1-4.3,4.4c-1.9,0.4-0.9,0.1-1.7,0l0.1-2.9C246.5,133.6,247.8,133.5,251.1,131.9"/>
			<path class="st7" d="M255.2,130.2c-0.3,0.2-0.8,0.5-0.8,0.5c4.7-0.9,6.7-5.2,6.6-8.6c-0.1-6.1-5.5-10.1-12.1-10.6
				c-0.9-1.2-2.2-1.9-3.6-1.9c-2.6,0-4.7,2.4-4.7,5.3c0,1.8,0.8,3.4,2.1,4.4c0.2,0.2,0.5,0.4,0.8,0.6c3.5,1.8,7.6-0.3,9.6,2.1
				c1,1.2,0.9,2.9-0.2,5.6c-0.3,0.8-0.8,1.4,0.5,0.7c0.6-0.3,1.6-0.7,2-0.4C256.2,128.5,255.8,129.8,255.2,130.2"/>
			<path class="st23" d="M201,153l-1.7-0.5c-1.2-1.1-1.4-0.5-2.6-1.8c-0.6-0.6-1.1-1.6-1.4-2.1c-0.4-0.8-1,0.1-1,0.6
				c-0.1,1.5,0.4,2.1,0.6,2.7c-0.3,0.1-3.3,0.5-5.1,0.9c-0.6,0.1-1.3,0.5-1.7,1c-0.8,1.1,0.9,2.6,1.7,3.1s1.8,1,2.7,0.9
				c1.2,0,3.1-0.9,6.6,0.3C202,158.4,201.7,154,201,153"/>
		</g>
		<path class="st25" d="M257.2,138.6c-7.8,4.2-3.4,9.9-3.4,9.9l12.5,18c4.4,10.5,5.1,15.9,6.7,27.2c0,0,1,1.3,3.5,1.3
			c2.4,0,3-1.5,3-1.5c0.1-7.7,0.2-15.4-0.7-23.1c-0.8-6.8-4.3-13-7.6-19.2c-2-3.8-4-7.5-6-11.3c0,0-1.5-2.3-4.4-2.3
			C259.7,137.6,258.6,137.9,257.2,138.6"/>
		<path class="st23" d="M273.7,193.4l-0.2,1.8c-0.9,1.4-0.5,1.9-1.6,3.3c-0.5,0.7-1.1,1.9-1.6,2.3c-0.7,0.5,0.2,1,0.8,0.9
			c1.5-0.2,1.9-1.2,2.4-1.6c0.2,0.3,0.9,2.6,1.5,4.3c0.4,1,1.3,1.8,1.7,1.7c2.5-0.8,3.1-4.2,3-5.1c-0.2-1.2-1.3-2.9-0.6-6.5
			C278.9,191.6,274.7,192.5,273.7,193.4"/>
	</g>
</g>
</svg>
