<svg width="277" height="277" viewBox="0 0 277 277" fill="none" xmlns="http://www.w3.org/2000/svg">
<g clip-path="url(#clip0_667_2529)">
<path d="M276.5 211.584H0.5V211.722H276.5V211.584Z" fill="#EBEBEB" style="fill:#EBEBEB;fill:color(display-p3 0.9216 0.9216 0.9216);fill-opacity:1;"/>
<path d="M131.324 186.965H24.7382C23.9032 186.964 23.1029 186.631 22.513 186.04C21.9231 185.449 21.5918 184.649 21.5918 183.814V33.9842C21.5991 33.154 21.9336 32.3602 22.5227 31.7752C23.1118 31.1902 23.908 30.8613 24.7382 30.8599H131.324C132.16 30.8599 132.962 31.1919 133.553 31.783C134.144 32.3741 134.476 33.1758 134.476 34.0118V183.814C134.476 184.649 134.144 185.451 133.553 186.042C132.962 186.633 132.16 186.965 131.324 186.965ZM24.7382 30.9703C23.9398 30.9717 23.1746 31.2899 22.6106 31.855C22.0466 32.42 21.7298 33.1858 21.7298 33.9842V183.814C21.7298 184.612 22.0466 185.378 22.6106 185.943C23.1746 186.508 23.9398 186.826 24.7382 186.827H131.324C132.123 186.826 132.889 186.508 133.453 185.943C134.018 185.378 134.336 184.612 134.338 183.814V33.9842C134.336 33.1853 134.018 32.4195 133.453 31.8546C132.889 31.2897 132.123 30.9717 131.324 30.9703H24.7382Z" fill="#EBEBEB" style="fill:#EBEBEB;fill:color(display-p3 0.9216 0.9216 0.9216);fill-opacity:1;"/>
<path d="M250.727 186.965H144.136C143.3 186.964 142.499 186.631 141.909 186.041C141.318 185.45 140.985 184.649 140.984 183.814V33.9842C140.993 33.1535 141.328 32.3597 141.918 31.7749C142.508 31.19 143.305 30.8613 144.136 30.8599H250.727C251.556 30.8627 252.351 31.1923 252.939 31.7771C253.527 32.362 253.861 33.1549 253.868 33.9842V183.814C253.868 184.648 253.537 185.448 252.949 186.038C252.36 186.629 251.561 186.963 250.727 186.965ZM144.136 30.9703C143.337 30.9717 142.571 31.2897 142.006 31.8546C141.441 32.4195 141.123 33.1853 141.122 33.9842V183.814C141.123 184.612 141.441 185.378 142.006 185.943C142.571 186.508 143.337 186.826 144.136 186.827H250.727C251.526 186.826 252.292 186.508 252.857 185.943C253.421 185.378 253.739 184.612 253.741 183.814V33.9842C253.739 33.1853 253.421 32.4195 252.857 31.8546C252.292 31.2897 251.526 30.9717 250.727 30.9703H144.136Z" fill="#EBEBEB" style="fill:#EBEBEB;fill:color(display-p3 0.9216 0.9216 0.9216);fill-opacity:1;"/>
<path d="M248.845 220.466H234.493V220.604H248.845V220.466Z" fill="#EBEBEB" style="fill:#EBEBEB;fill:color(display-p3 0.9216 0.9216 0.9216);fill-opacity:1;"/>
<path d="M197.028 221.968H172.172V222.106H197.028V221.968Z" fill="#EBEBEB" style="fill:#EBEBEB;fill:color(display-p3 0.9216 0.9216 0.9216);fill-opacity:1;"/>
<path d="M233.941 215.344H200.385V215.482H233.941V215.344Z" fill="#EBEBEB" style="fill:#EBEBEB;fill:color(display-p3 0.9216 0.9216 0.9216);fill-opacity:1;"/>
<path d="M40.073 216.271H29.458V216.409H40.073V216.271Z" fill="#EBEBEB" style="fill:#EBEBEB;fill:color(display-p3 0.9216 0.9216 0.9216);fill-opacity:1;"/>
<path d="M75.5113 216.271H44.9912V216.409H75.5113V216.271Z" fill="#EBEBEB" style="fill:#EBEBEB;fill:color(display-p3 0.9216 0.9216 0.9216);fill-opacity:1;"/>
<path d="M135.265 218.601H94.1577V218.739H135.265V218.601Z" fill="#EBEBEB" style="fill:#EBEBEB;fill:color(display-p3 0.9216 0.9216 0.9216);fill-opacity:1;"/>
<path d="M37.7268 171.079H26.0244V211.585H37.7268V171.079Z" fill="#FAFAFA" style="fill:#FAFAFA;fill:color(display-p3 0.9792 0.9792 0.9792);fill-opacity:1;"/>
<path d="M47.9719 179.966H36.2695V211.585H47.9719V179.966Z" fill="#FAFAFA" style="fill:#FAFAFA;fill:color(display-p3 0.9792 0.9792 0.9792);fill-opacity:1;"/>
<path d="M55.4573 153.912H43.7549V211.585H55.4573V153.912Z" fill="#FAFAFA" style="fill:#FAFAFA;fill:color(display-p3 0.9792 0.9792 0.9792);fill-opacity:1;"/>
<path d="M63.2346 107.146H51.5322V211.585H63.2346V107.146Z" fill="#FAFAFA" style="fill:#FAFAFA;fill:color(display-p3 0.9792 0.9792 0.9792);fill-opacity:1;"/>
<path d="M92.1816 115.277H60.7783V211.585H92.1816V115.277Z" fill="#FAFAFA" style="fill:#FAFAFA;fill:color(display-p3 0.9792 0.9792 0.9792);fill-opacity:1;"/>
<path d="M214.279 211.584H227.648V183.863H214.279V211.584Z" fill="#FAFAFA" style="fill:#FAFAFA;fill:color(display-p3 0.9792 0.9792 0.9792);fill-opacity:1;"/>
<path d="M202.565 211.584H215.935V189.946H202.565V211.584Z" fill="#FAFAFA" style="fill:#FAFAFA;fill:color(display-p3 0.9792 0.9792 0.9792);fill-opacity:1;"/>
<path d="M194.02 211.584H207.39V172.111H194.02V211.584Z" fill="#FAFAFA" style="fill:#FAFAFA;fill:color(display-p3 0.9792 0.9792 0.9792);fill-opacity:1;"/>
<path d="M185.133 211.584H198.502V140.106H185.133V211.584Z" fill="#FAFAFA" style="fill:#FAFAFA;fill:color(display-p3 0.9792 0.9792 0.9792);fill-opacity:1;"/>
<path d="M192.32 124.264H151.29V211.585H192.32V124.264Z" fill="#F0F0F0" style="fill:#F0F0F0;fill:color(display-p3 0.9412 0.9412 0.9412);fill-opacity:1;"/>
<path d="M188.412 127.923H186.458V138.549H188.412V127.923Z" fill="#F5F5F5" style="fill:#F5F5F5;fill:color(display-p3 0.9608 0.9608 0.9608);fill-opacity:1;"/>
<path d="M188.412 144.544H186.458V155.17H188.412V144.544Z" fill="#F5F5F5" style="fill:#F5F5F5;fill:color(display-p3 0.9608 0.9608 0.9608);fill-opacity:1;"/>
<path d="M188.412 161.16H186.458V171.786H188.412V161.16Z" fill="#F5F5F5" style="fill:#F5F5F5;fill:color(display-p3 0.9608 0.9608 0.9608);fill-opacity:1;"/>
<path d="M188.412 177.774H186.458V188.4H188.412V177.774Z" fill="#F5F5F5" style="fill:#F5F5F5;fill:color(display-p3 0.9608 0.9608 0.9608);fill-opacity:1;"/>
<path d="M188.412 194.396H186.458V205.022H188.412V194.396Z" fill="#F5F5F5" style="fill:#F5F5F5;fill:color(display-p3 0.9608 0.9608 0.9608);fill-opacity:1;"/>
<path d="M181.49 127.923H179.536V138.549H181.49V127.923Z" fill="#F5F5F5" style="fill:#F5F5F5;fill:color(display-p3 0.9608 0.9608 0.9608);fill-opacity:1;"/>
<path d="M181.49 144.544H179.536V155.17H181.49V144.544Z" fill="#F5F5F5" style="fill:#F5F5F5;fill:color(display-p3 0.9608 0.9608 0.9608);fill-opacity:1;"/>
<path d="M181.49 161.16H179.536V171.786H181.49V161.16Z" fill="#F5F5F5" style="fill:#F5F5F5;fill:color(display-p3 0.9608 0.9608 0.9608);fill-opacity:1;"/>
<path d="M181.49 177.774H179.536V188.4H181.49V177.774Z" fill="#F5F5F5" style="fill:#F5F5F5;fill:color(display-p3 0.9608 0.9608 0.9608);fill-opacity:1;"/>
<path d="M181.49 194.396H179.536V205.022H181.49V194.396Z" fill="#F5F5F5" style="fill:#F5F5F5;fill:color(display-p3 0.9608 0.9608 0.9608);fill-opacity:1;"/>
<path d="M174.568 127.923H172.614V138.549H174.568V127.923Z" fill="#F5F5F5" style="fill:#F5F5F5;fill:color(display-p3 0.9608 0.9608 0.9608);fill-opacity:1;"/>
<path d="M174.568 144.544H172.614V155.17H174.568V144.544Z" fill="#F5F5F5" style="fill:#F5F5F5;fill:color(display-p3 0.9608 0.9608 0.9608);fill-opacity:1;"/>
<path d="M174.568 161.16H172.614V171.786H174.568V161.16Z" fill="#F5F5F5" style="fill:#F5F5F5;fill:color(display-p3 0.9608 0.9608 0.9608);fill-opacity:1;"/>
<path d="M174.568 177.774H172.614V188.4H174.568V177.774Z" fill="#F5F5F5" style="fill:#F5F5F5;fill:color(display-p3 0.9608 0.9608 0.9608);fill-opacity:1;"/>
<path d="M174.568 194.396H172.614V205.022H174.568V194.396Z" fill="#F5F5F5" style="fill:#F5F5F5;fill:color(display-p3 0.9608 0.9608 0.9608);fill-opacity:1;"/>
<path d="M167.645 127.923H165.691V138.549H167.645V127.923Z" fill="#F5F5F5" style="fill:#F5F5F5;fill:color(display-p3 0.9608 0.9608 0.9608);fill-opacity:1;"/>
<path d="M167.645 144.544H165.691V155.17H167.645V144.544Z" fill="#F5F5F5" style="fill:#F5F5F5;fill:color(display-p3 0.9608 0.9608 0.9608);fill-opacity:1;"/>
<path d="M167.645 161.16H165.691V171.786H167.645V161.16Z" fill="#F5F5F5" style="fill:#F5F5F5;fill:color(display-p3 0.9608 0.9608 0.9608);fill-opacity:1;"/>
<path d="M167.645 177.774H165.691V188.4H167.645V177.774Z" fill="#F5F5F5" style="fill:#F5F5F5;fill:color(display-p3 0.9608 0.9608 0.9608);fill-opacity:1;"/>
<path d="M167.645 194.396H165.691V205.022H167.645V194.396Z" fill="#F5F5F5" style="fill:#F5F5F5;fill:color(display-p3 0.9608 0.9608 0.9608);fill-opacity:1;"/>
<path d="M160.718 127.923H158.764V138.549H160.718V127.923Z" fill="#F5F5F5" style="fill:#F5F5F5;fill:color(display-p3 0.9608 0.9608 0.9608);fill-opacity:1;"/>
<path d="M160.718 144.544H158.764V155.17H160.718V144.544Z" fill="#F5F5F5" style="fill:#F5F5F5;fill:color(display-p3 0.9608 0.9608 0.9608);fill-opacity:1;"/>
<path d="M160.718 161.16H158.764V171.786H160.718V161.16Z" fill="#F5F5F5" style="fill:#F5F5F5;fill:color(display-p3 0.9608 0.9608 0.9608);fill-opacity:1;"/>
<path d="M160.718 177.774H158.764V188.4H160.718V177.774Z" fill="#F5F5F5" style="fill:#F5F5F5;fill:color(display-p3 0.9608 0.9608 0.9608);fill-opacity:1;"/>
<path d="M160.718 194.396H158.764V205.022H160.718V194.396Z" fill="#F5F5F5" style="fill:#F5F5F5;fill:color(display-p3 0.9608 0.9608 0.9608);fill-opacity:1;"/>
<path opacity="0.5" d="M151.29 124.264H159.741L163.417 211.585H151.29V124.264Z" fill="#E0E0E0" style="fill:#E0E0E0;fill:color(display-p3 0.8784 0.8784 0.8784);fill-opacity:1;"/>
<path d="M131.12 90.5254L155.452 95.1291V211.585H131.12V90.5254Z" fill="#F0F0F0" style="fill:#F0F0F0;fill:color(display-p3 0.9412 0.9412 0.9412);fill-opacity:1;"/>
<path d="M131.12 90.5254H111.651V211.585H131.12V90.5254Z" fill="#E6E6E6" style="fill:#E6E6E6;fill:color(display-p3 0.9020 0.9020 0.9020);fill-opacity:1;"/>
<path d="M111.651 101.179H155.452V100.561H111.651V101.179Z" fill="#E0E0E0" style="fill:#E0E0E0;fill:color(display-p3 0.8784 0.8784 0.8784);fill-opacity:1;"/>
<path d="M111.651 107.77H155.452V107.152H111.651V107.77Z" fill="#E0E0E0" style="fill:#E0E0E0;fill:color(display-p3 0.8784 0.8784 0.8784);fill-opacity:1;"/>
<path d="M111.651 114.361H155.452V113.743H111.651V114.361Z" fill="#E0E0E0" style="fill:#E0E0E0;fill:color(display-p3 0.8784 0.8784 0.8784);fill-opacity:1;"/>
<path d="M111.651 120.946H155.452V120.328H111.651V120.946Z" fill="#E0E0E0" style="fill:#E0E0E0;fill:color(display-p3 0.8784 0.8784 0.8784);fill-opacity:1;"/>
<path d="M111.651 127.542H155.452V126.924H111.651V127.542Z" fill="#E0E0E0" style="fill:#E0E0E0;fill:color(display-p3 0.8784 0.8784 0.8784);fill-opacity:1;"/>
<path d="M111.651 134.133H155.452V133.515H111.651V134.133Z" fill="#E0E0E0" style="fill:#E0E0E0;fill:color(display-p3 0.8784 0.8784 0.8784);fill-opacity:1;"/>
<path d="M111.651 140.725H155.452V140.106H111.651V140.725Z" fill="#E0E0E0" style="fill:#E0E0E0;fill:color(display-p3 0.8784 0.8784 0.8784);fill-opacity:1;"/>
<path d="M111.651 147.315H155.452V146.697H111.651V147.315Z" fill="#E0E0E0" style="fill:#E0E0E0;fill:color(display-p3 0.8784 0.8784 0.8784);fill-opacity:1;"/>
<path d="M111.651 153.912H155.452V153.293H111.651V153.912Z" fill="#E0E0E0" style="fill:#E0E0E0;fill:color(display-p3 0.8784 0.8784 0.8784);fill-opacity:1;"/>
<path d="M111.651 160.502H155.452V159.884H111.651V160.502Z" fill="#E0E0E0" style="fill:#E0E0E0;fill:color(display-p3 0.8784 0.8784 0.8784);fill-opacity:1;"/>
<path d="M111.651 167.093H155.452V166.475H111.651V167.093Z" fill="#E0E0E0" style="fill:#E0E0E0;fill:color(display-p3 0.8784 0.8784 0.8784);fill-opacity:1;"/>
<path d="M111.651 173.679H155.452V173.06H111.651V173.679Z" fill="#E0E0E0" style="fill:#E0E0E0;fill:color(display-p3 0.8784 0.8784 0.8784);fill-opacity:1;"/>
<path d="M111.651 180.275H155.452V179.657H111.651V180.275Z" fill="#E0E0E0" style="fill:#E0E0E0;fill:color(display-p3 0.8784 0.8784 0.8784);fill-opacity:1;"/>
<path d="M111.651 186.866H155.452V186.248H111.651V186.866Z" fill="#E0E0E0" style="fill:#E0E0E0;fill:color(display-p3 0.8784 0.8784 0.8784);fill-opacity:1;"/>
<path d="M111.651 193.457H155.452V192.839H111.651V193.457Z" fill="#E0E0E0" style="fill:#E0E0E0;fill:color(display-p3 0.8784 0.8784 0.8784);fill-opacity:1;"/>
<path d="M111.651 200.048H155.452V199.43H111.651V200.048Z" fill="#E0E0E0" style="fill:#E0E0E0;fill:color(display-p3 0.8784 0.8784 0.8784);fill-opacity:1;"/>
<path d="M111.651 206.644H155.452V206.026H111.651V206.644Z" fill="#E0E0E0" style="fill:#E0E0E0;fill:color(display-p3 0.8784 0.8784 0.8784);fill-opacity:1;"/>
<path d="M101.003 64.7969H80.6504V211.585H101.003V64.7969Z" fill="#F0F0F0" style="fill:#F0F0F0;fill:color(display-p3 0.9412 0.9412 0.9412);fill-opacity:1;"/>
<path d="M101.003 64.7969H80.6504L88.141 51.8359H117.287L101.003 64.7969Z" fill="#FAFAFA" style="fill:#FAFAFA;fill:color(display-p3 0.9792 0.9792 0.9792);fill-opacity:1;"/>
<path d="M101.002 64.7969L117.286 51.8359V211.585H101.002V64.7969Z" fill="#EBEBEB" style="fill:#EBEBEB;fill:color(display-p3 0.9216 0.9216 0.9216);fill-opacity:1;"/>
<path d="M117.287 71.6362H80.6504V72.4201H117.287V71.6362Z" fill="#E0E0E0" style="fill:#E0E0E0;fill:color(display-p3 0.8784 0.8784 0.8784);fill-opacity:1;"/>
<path d="M117.287 79.9438H80.6504V80.7277H117.287V79.9438Z" fill="#E0E0E0" style="fill:#E0E0E0;fill:color(display-p3 0.8784 0.8784 0.8784);fill-opacity:1;"/>
<path d="M117.287 88.2515H80.6504V89.0353H117.287V88.2515Z" fill="#E0E0E0" style="fill:#E0E0E0;fill:color(display-p3 0.8784 0.8784 0.8784);fill-opacity:1;"/>
<path d="M117.287 96.5645H80.6504V97.3483H117.287V96.5645Z" fill="#E0E0E0" style="fill:#E0E0E0;fill:color(display-p3 0.8784 0.8784 0.8784);fill-opacity:1;"/>
<path d="M117.287 104.872H80.6504V105.656H117.287V104.872Z" fill="#E0E0E0" style="fill:#E0E0E0;fill:color(display-p3 0.8784 0.8784 0.8784);fill-opacity:1;"/>
<path d="M117.287 113.18H80.6504V113.964H117.287V113.18Z" fill="#E0E0E0" style="fill:#E0E0E0;fill:color(display-p3 0.8784 0.8784 0.8784);fill-opacity:1;"/>
<path d="M117.287 121.487H80.6504V122.271H117.287V121.487Z" fill="#E0E0E0" style="fill:#E0E0E0;fill:color(display-p3 0.8784 0.8784 0.8784);fill-opacity:1;"/>
<path d="M117.287 129.795H80.6504V130.579H117.287V129.795Z" fill="#E0E0E0" style="fill:#E0E0E0;fill:color(display-p3 0.8784 0.8784 0.8784);fill-opacity:1;"/>
<path d="M117.287 138.103H80.6504V138.886H117.287V138.103Z" fill="#E0E0E0" style="fill:#E0E0E0;fill:color(display-p3 0.8784 0.8784 0.8784);fill-opacity:1;"/>
<path d="M117.287 146.416H80.6504V147.199H117.287V146.416Z" fill="#E0E0E0" style="fill:#E0E0E0;fill:color(display-p3 0.8784 0.8784 0.8784);fill-opacity:1;"/>
<path d="M117.287 154.723H80.6504V155.507H117.287V154.723Z" fill="#E0E0E0" style="fill:#E0E0E0;fill:color(display-p3 0.8784 0.8784 0.8784);fill-opacity:1;"/>
<path d="M117.287 163.031H80.6504V163.815H117.287V163.031Z" fill="#E0E0E0" style="fill:#E0E0E0;fill:color(display-p3 0.8784 0.8784 0.8784);fill-opacity:1;"/>
<path d="M117.287 171.338H80.6504V172.122H117.287V171.338Z" fill="#E0E0E0" style="fill:#E0E0E0;fill:color(display-p3 0.8784 0.8784 0.8784);fill-opacity:1;"/>
<path d="M117.287 179.646H80.6504V180.43H117.287V179.646Z" fill="#E0E0E0" style="fill:#E0E0E0;fill:color(display-p3 0.8784 0.8784 0.8784);fill-opacity:1;"/>
<path d="M117.287 187.954H80.6504V188.737H117.287V187.954Z" fill="#E0E0E0" style="fill:#E0E0E0;fill:color(display-p3 0.8784 0.8784 0.8784);fill-opacity:1;"/>
<path d="M117.287 196.267H80.6504V197.05H117.287V196.267Z" fill="#E0E0E0" style="fill:#E0E0E0;fill:color(display-p3 0.8784 0.8784 0.8784);fill-opacity:1;"/>
<path d="M117.287 204.574H80.6504V205.358H117.287V204.574Z" fill="#E0E0E0" style="fill:#E0E0E0;fill:color(display-p3 0.8784 0.8784 0.8784);fill-opacity:1;"/>
<path d="M77.1174 135.828H54.8994V211.585H77.1174V135.828Z" fill="#F0F0F0" style="fill:#F0F0F0;fill:color(display-p3 0.9412 0.9412 0.9412);fill-opacity:1;"/>
<path d="M62.8374 139.742H59.2715V151.902H62.8374V139.742Z" fill="#E6E6E6" style="fill:#E6E6E6;fill:color(display-p3 0.9020 0.9020 0.9020);fill-opacity:1;"/>
<path d="M71.5864 139.742H68.0205V151.902H71.5864V139.742Z" fill="#E6E6E6" style="fill:#E6E6E6;fill:color(display-p3 0.9020 0.9020 0.9020);fill-opacity:1;"/>
<path d="M62.8374 155.49H59.2715V167.651H62.8374V155.49Z" fill="#E6E6E6" style="fill:#E6E6E6;fill:color(display-p3 0.9020 0.9020 0.9020);fill-opacity:1;"/>
<path d="M71.5864 155.49H68.0205V167.651H71.5864V155.49Z" fill="#E6E6E6" style="fill:#E6E6E6;fill:color(display-p3 0.9020 0.9020 0.9020);fill-opacity:1;"/>
<path d="M62.8374 171.233H59.2715V183.394H62.8374V171.233Z" fill="#E6E6E6" style="fill:#E6E6E6;fill:color(display-p3 0.9020 0.9020 0.9020);fill-opacity:1;"/>
<path d="M71.5864 171.233H68.0205V183.394H71.5864V171.233Z" fill="#E6E6E6" style="fill:#E6E6E6;fill:color(display-p3 0.9020 0.9020 0.9020);fill-opacity:1;"/>
<path d="M62.8374 186.982H59.2715V199.142H62.8374V186.982Z" fill="#E6E6E6" style="fill:#E6E6E6;fill:color(display-p3 0.9020 0.9020 0.9020);fill-opacity:1;"/>
<path d="M71.5864 186.982H68.0205V199.142H71.5864V186.982Z" fill="#E6E6E6" style="fill:#E6E6E6;fill:color(display-p3 0.9020 0.9020 0.9020);fill-opacity:1;"/>
<path d="M77.1119 135.828H54.8994L60.1103 130.579H82.3283L77.1119 135.828Z" fill="white" style="fill:white;fill-opacity:1;"/>
<path d="M77.1123 135.828L82.3287 130.579L87.5396 135.828V211.585H77.1123V135.828Z" fill="#E6E6E6" style="fill:#E6E6E6;fill:color(display-p3 0.9020 0.9020 0.9020);fill-opacity:1;"/>
<path d="M138.5 236.513C197.609 236.513 245.527 233.715 245.527 230.264C245.527 226.813 197.609 224.016 138.5 224.016C79.3904 224.016 31.4727 226.813 31.4727 230.264C31.4727 233.715 79.3904 236.513 138.5 236.513Z" fill="#F5F5F5" style="fill:#F5F5F5;fill:color(display-p3 0.9608 0.9608 0.9608);fill-opacity:1;"/>
<path d="M230.656 63.748H160.26C157.428 63.748 155.132 66.044 155.132 68.8761V225.131C155.132 227.963 157.428 230.259 160.26 230.259H230.656C233.489 230.259 235.785 227.963 235.785 225.131V68.8761C235.785 66.044 233.489 63.748 230.656 63.748Z" fill="#A2384D" style="fill:#A2384D;fill:color(display-p3 0.6353 0.2196 0.3020);fill-opacity:1;"/>
<path d="M227.466 63.748H157.069C154.237 63.748 151.941 66.044 151.941 68.8761V225.131C151.941 227.963 154.237 230.259 157.069 230.259H227.466C230.298 230.259 232.594 227.963 232.594 225.131V68.8761C232.594 66.044 230.298 63.748 227.466 63.748Z" fill="#A2384D" style="fill:#A2384D;fill:color(display-p3 0.6353 0.2196 0.3020);fill-opacity:1;"/>
<path opacity="0.7" d="M227.466 63.748H157.069C154.237 63.748 151.941 66.044 151.941 68.8761V225.131C151.941 227.963 154.237 230.259 157.069 230.259H227.466C230.298 230.259 232.594 227.963 232.594 225.131V68.8761C232.594 66.044 230.298 63.748 227.466 63.748Z" fill="white" style="fill:white;fill-opacity:1;"/>
<g opacity="0.9">
<path d="M168.131 63.748H163.765V230.259H168.131V63.748Z" fill="white" style="fill:white;fill-opacity:1;"/>
<path d="M214.329 63.748H211.651V230.259H214.329V63.748Z" fill="white" style="fill:white;fill-opacity:1;"/>
<path d="M151.941 99.915V104.281L232.594 99.2858V94.9194L151.941 99.915Z" fill="white" style="fill:white;fill-opacity:1;"/>
<path d="M151.947 203.067V207.434H232.6V203.067H151.947Z" fill="white" style="fill:white;fill-opacity:1;"/>
<path d="M151.941 121.714V124.093H232.594V121.714H151.941Z" fill="white" style="fill:white;fill-opacity:1;"/>
<path d="M151.941 178.001V183.002L232.594 155.711V150.71L151.941 178.001Z" fill="white" style="fill:white;fill-opacity:1;"/>
<path d="M180.209 63.748H175.843L187.578 230.264H191.945L180.209 63.748Z" fill="white" style="fill:white;fill-opacity:1;"/>
</g>
<path d="M218.54 213.18H122.52V183.25H207.158L215.057 189.67C216.149 190.556 217.028 191.676 217.631 192.946C218.234 194.216 218.544 195.606 218.54 197.012V213.18Z" fill="#A2384D" style="fill:#A2384D;fill:color(display-p3 0.6353 0.2196 0.3020);fill-opacity:1;"/>
<path opacity="0.5" d="M218.54 213.18H122.52V183.25H207.158L215.057 189.67C216.149 190.556 217.028 191.676 217.631 192.946C218.234 194.216 218.544 195.606 218.54 197.012V213.18Z" fill="black" style="fill:black;fill-opacity:1;"/>
<path d="M121.967 210.481C121.967 199.557 126.935 190.703 133.007 190.703H121.294C115.183 190.703 110.254 199.535 110.254 210.481C110.254 221.427 115.222 230.264 121.294 230.264H133.029C126.908 230.264 121.967 221.405 121.967 210.481Z" fill="#263238" style="fill:#263238;fill:color(display-p3 0.1490 0.1961 0.2196);fill-opacity:1;"/>
<path d="M133.029 230.259C139.139 230.259 144.091 221.404 144.091 210.481C144.091 199.558 139.139 190.703 133.029 190.703C126.92 190.703 121.967 199.558 121.967 210.481C121.967 221.404 126.92 230.259 133.029 230.259Z" fill="#263238" style="fill:#263238;fill:color(display-p3 0.1490 0.1961 0.2196);fill-opacity:1;"/>
<path d="M133.918 225.903C138.25 225.903 141.762 218.998 141.762 210.48C141.762 201.963 138.25 195.058 133.918 195.058C129.586 195.058 126.074 201.963 126.074 210.48C126.074 218.998 129.586 225.903 133.918 225.903Z" fill="white" style="fill:white;fill-opacity:1;"/>
<path d="M58.2061 210.481C58.2061 199.557 63.1741 190.703 69.2461 190.703H57.5327C51.422 190.703 46.4927 199.535 46.4927 210.481C46.4927 221.427 51.4607 230.264 57.5327 230.264H69.2682C63.1576 230.264 58.2061 221.405 58.2061 210.481Z" fill="#263238" style="fill:#263238;fill:color(display-p3 0.1490 0.1961 0.2196);fill-opacity:1;"/>
<path d="M69.2681 230.259C75.3776 230.259 80.3302 221.404 80.3302 210.481C80.3302 199.558 75.3776 190.703 69.2681 190.703C63.1587 190.703 58.2061 199.558 58.2061 210.481C58.2061 221.404 63.1587 230.259 69.2681 230.259Z" fill="#263238" style="fill:#263238;fill:color(display-p3 0.1490 0.1961 0.2196);fill-opacity:1;"/>
<path d="M197.773 210.481C197.773 199.557 202.741 190.703 208.813 190.703H197.1C190.995 190.703 186.06 199.535 186.06 210.481C186.06 221.427 191.028 230.264 197.1 230.264H208.836C202.73 230.264 197.773 221.405 197.773 210.481Z" fill="#263238" style="fill:#263238;fill:color(display-p3 0.1490 0.1961 0.2196);fill-opacity:1;"/>
<path d="M208.836 230.259C214.945 230.259 219.898 221.404 219.898 210.481C219.898 199.558 214.945 190.703 208.836 190.703C202.726 190.703 197.773 199.558 197.773 210.481C197.773 221.404 202.726 230.259 208.836 230.259Z" fill="#263238" style="fill:#263238;fill:color(display-p3 0.1490 0.1961 0.2196);fill-opacity:1;"/>
<path d="M209.73 225.903C214.062 225.903 217.574 218.998 217.574 210.48C217.574 201.963 214.062 195.058 209.73 195.058C205.398 195.058 201.886 201.963 201.886 210.48C201.886 218.998 205.398 225.903 209.73 225.903Z" fill="white" style="fill:white;fill-opacity:1;"/>
<path d="M108.896 216.001H94.7042L93.9093 215.228C93.0929 214.41 91.985 213.949 90.8291 213.947H55.3576C54.2018 213.949 53.0939 214.41 52.2775 215.228L51.7917 215.708H50.5C49.4964 215.708 48.5027 215.51 47.5759 215.124C46.6492 214.739 45.8077 214.175 45.0999 213.463C44.392 212.752 43.8317 211.907 43.4511 210.979C43.0706 210.05 42.8773 209.055 42.8824 208.052V196.377H123.375L116.972 210.298C116.381 211.968 115.287 213.413 113.841 214.434C112.394 215.455 110.667 216.003 108.896 216.001Z" fill="#A2384D" style="fill:#A2384D;fill:color(display-p3 0.6353 0.2196 0.3020);fill-opacity:1;"/>
<path opacity="0.2" d="M108.896 216.001H94.7042L93.9093 215.228C93.0929 214.41 91.985 213.949 90.8291 213.947H55.3576C54.2018 213.949 53.0939 214.41 52.2775 215.228L51.7917 215.708H50.5C49.4964 215.708 48.5027 215.51 47.5759 215.124C46.6492 214.739 45.8077 214.175 45.0999 213.463C44.392 212.752 43.8317 211.907 43.4511 210.979C43.0706 210.05 42.8773 209.055 42.8824 208.052V196.377H123.375L116.972 210.298C116.381 211.968 115.287 213.413 113.841 214.434C112.394 215.455 110.667 216.003 108.896 216.001Z" fill="black" style="fill:black;fill-opacity:1;"/>
<path d="M192.684 146.603C192.636 146.604 192.588 146.591 192.546 146.565C192.515 146.547 192.487 146.523 192.465 146.494C192.443 146.466 192.426 146.433 192.417 146.398C192.408 146.363 192.406 146.326 192.411 146.291C192.416 146.255 192.428 146.22 192.447 146.189L196.311 139.565C196.327 139.53 196.35 139.499 196.379 139.473C196.408 139.447 196.442 139.428 196.478 139.416C196.515 139.404 196.554 139.4 196.592 139.404C196.631 139.409 196.668 139.421 196.701 139.44C196.735 139.46 196.764 139.486 196.786 139.517C196.809 139.548 196.825 139.584 196.833 139.622C196.84 139.66 196.84 139.699 196.832 139.737C196.824 139.774 196.808 139.81 196.786 139.841L192.922 146.465C192.898 146.507 192.863 146.542 192.821 146.566C192.78 146.59 192.732 146.603 192.684 146.603Z" fill="#263238" style="fill:#263238;fill:color(display-p3 0.1490 0.1961 0.2196);fill-opacity:1;"/>
<path d="M213.064 179.558V172.028C213.064 168.07 207.312 149.396 199.402 145.897C191.492 142.397 172.354 140.84 160.298 141.481C148.243 142.121 132.146 167.336 132.146 167.336L133.896 189.019C136.347 189.019 144.152 188.279 145.295 209.73C145.372 211.242 146.027 212.667 147.126 213.709C148.224 214.751 149.682 215.331 151.196 215.327H193.402C194.82 215.326 196.189 214.813 197.259 213.881C198.328 212.95 199.024 211.664 199.22 210.26C200.324 202.615 203.205 189.002 210.155 189.002C215.029 189.002 218.523 193.175 218.523 197.961C218.525 192.704 217.248 187.524 214.803 182.87L213.064 179.558Z" fill="#A2384D" style="fill:#A2384D;fill:color(display-p3 0.6353 0.2196 0.3020);fill-opacity:1;"/>
<path d="M116.138 141.48C94.1851 141.48 69.312 167.336 69.312 167.336H132.168C132.168 167.336 148.248 142.126 160.32 141.48H116.138Z" fill="#A2384D" style="fill:#A2384D;fill:color(display-p3 0.6353 0.2196 0.3020);fill-opacity:1;"/>
<path opacity="0.4" d="M117.485 141.48C98.9932 141.48 79.5959 159.829 73.9379 165.608C73.7973 165.751 73.7022 165.933 73.6646 166.13C73.6269 166.327 73.6484 166.53 73.7263 166.715C73.8042 166.9 73.9351 167.057 74.1024 167.168C74.2697 167.279 74.466 167.337 74.6666 167.336H125.373C127.414 167.342 129.428 166.866 131.25 165.947C133.072 165.028 134.652 163.692 135.861 162.048C141.315 154.618 151.82 141.939 160.32 141.48H117.485Z" fill="white" style="fill:white;fill-opacity:1;"/>
<path d="M132.168 167.336L108.951 185.657L46.4703 185.459C46.4703 185.459 42.8823 190.675 42.8823 196.377H123.375C124.694 192.883 129.32 189.019 133.918 189.019C133.918 182.516 132.168 167.336 132.168 167.336Z" fill="#A2384D" style="fill:#A2384D;fill:color(display-p3 0.6353 0.2196 0.3020);fill-opacity:1;"/>
<path opacity="0.2" d="M116.972 180.259C116.906 180.258 116.842 180.234 116.793 180.19C116.743 180.146 116.711 180.087 116.702 180.021C116.692 179.95 116.711 179.877 116.754 179.819C116.798 179.762 116.862 179.723 116.933 179.712C122.507 178.809 127.722 176.382 132.003 172.702C132.849 171.99 133.4 170.988 133.548 169.892C133.696 168.796 133.431 167.684 132.803 166.773C132.781 166.744 132.764 166.71 132.754 166.673C132.745 166.637 132.743 166.599 132.749 166.562C132.754 166.525 132.768 166.49 132.787 166.458C132.807 166.426 132.833 166.399 132.864 166.377C132.895 166.356 132.93 166.341 132.966 166.334C133.003 166.326 133.041 166.326 133.077 166.334C133.114 166.341 133.149 166.356 133.18 166.378C133.21 166.399 133.236 166.427 133.256 166.459C133.96 167.483 134.257 168.732 134.091 169.963C133.925 171.195 133.306 172.32 132.356 173.121C128 176.87 122.69 179.339 117.016 180.253L116.972 180.259Z" fill="black" style="fill:black;fill-opacity:1;"/>
<path d="M46.4702 185.459C46.4702 185.459 57.444 172.669 69.312 167.336H132.168L108.951 185.657L46.4702 185.459Z" fill="#A2384D" style="fill:#A2384D;fill:color(display-p3 0.6353 0.2196 0.3020);fill-opacity:1;"/>
<path d="M95.0738 185.458H53.856V186.656H95.0738V185.458Z" fill="#263238" style="fill:#263238;fill:color(display-p3 0.1490 0.1961 0.2196);fill-opacity:1;"/>
<path d="M94.2185 183.063L96.4265 180.855C96.923 180.359 97.5514 180.016 98.237 179.866L114.913 176.234C115.499 176.106 116.108 176.125 116.685 176.29L117.579 176.538C118.174 176.706 118.718 177.021 119.158 177.455C119.599 177.89 119.922 178.428 120.099 179.021C120.275 179.614 120.298 180.242 120.167 180.846C120.035 181.45 119.752 182.012 119.346 182.477L115.758 186.579C115.139 187.284 114.274 187.727 113.34 187.815L97.1496 189.284C96.6148 189.335 96.0754 189.267 95.5697 189.086C95.0641 188.904 94.6046 188.614 94.224 188.235C93.5393 187.549 93.1544 186.619 93.1533 185.65C93.1523 184.68 93.5353 183.75 94.2185 183.063Z" fill="white" style="fill:white;fill-opacity:1;"/>
<path d="M55.0208 184.233L53.1937 180.816C52.9364 180.337 52.5551 179.937 52.0897 179.657C51.6476 179.392 51.1447 179.245 50.6294 179.23C50.1141 179.216 49.6038 179.334 49.1475 179.574L47.762 180.303C47.0815 180.663 46.5642 181.269 46.3157 181.997L45.4712 184.498C45.3307 184.91 45.2812 185.347 45.3261 185.779C45.371 186.212 45.5092 186.63 45.7311 187.004C45.9531 187.378 46.2535 187.7 46.6118 187.947C46.97 188.193 47.3775 188.359 47.8061 188.434L51.6205 189.09C52.2426 189.198 52.8828 189.107 53.4505 188.831C54.0182 188.555 54.4845 188.107 54.7834 187.55L55.0373 187.081C55.271 186.642 55.3919 186.152 55.389 185.655C55.3861 185.158 55.2596 184.669 55.0208 184.233Z" fill="white" style="fill:white;fill-opacity:1;"/>
<path opacity="0.4" d="M145.008 168.07H203.123C203.615 168.071 204.101 167.956 204.541 167.734C204.982 167.513 205.364 167.192 205.658 166.797C205.952 166.401 206.149 165.943 206.234 165.458C206.319 164.972 206.29 164.474 206.147 164.002C204.823 159.586 202.283 152.681 198.469 149.159C198.045 148.771 197.525 148.504 196.962 148.386C190.112 146.934 179.099 145.968 170.93 145.405C167.227 145.152 163.513 145.703 160.043 147.022C156.574 148.341 153.431 150.396 150.832 153.045C147.723 156.185 144.916 159.609 142.447 163.273C142.137 163.738 141.96 164.277 141.932 164.834C141.905 165.392 142.03 165.946 142.292 166.438C142.555 166.93 142.947 167.342 143.425 167.629C143.903 167.917 144.45 168.069 145.008 168.07Z" fill="white" style="fill:white;fill-opacity:1;"/>
<path d="M107.433 202.846C107.433 204.657 105.579 206.131 103.293 206.131C101.008 206.131 99.1533 204.657 99.1533 202.846C99.1533 201.036 101.003 199.567 103.293 199.567C105.584 199.567 107.433 201.036 107.433 202.846Z" fill="#263238" style="fill:#263238;fill:color(display-p3 0.1490 0.1961 0.2196);fill-opacity:1;"/>
<path d="M74.076 182.952C75.4339 182.952 76.0964 184.343 75.5554 186.054C75.0144 187.766 73.4799 189.162 72.1164 189.162C70.753 189.162 70.0961 187.771 70.6371 186.054C71.178 184.338 72.7181 182.952 74.076 182.952Z" fill="#263238" style="fill:#263238;fill:color(display-p3 0.1490 0.1961 0.2196);fill-opacity:1;"/>
<path d="M46.2222 202.846C46.2222 204.657 45.6702 206.131 45.0574 206.131C44.4447 206.131 43.8872 204.657 43.8872 202.846C43.8872 201.036 44.4392 199.567 45.0574 199.567C45.6757 199.567 46.2222 201.036 46.2222 202.846Z" fill="#263238" style="fill:#263238;fill:color(display-p3 0.1490 0.1961 0.2196);fill-opacity:1;"/>
<path d="M143.219 167.546V165.686C143.219 165.152 143.337 164.625 143.566 164.143C143.795 163.66 144.129 163.235 144.543 162.898C144.957 162.562 145.441 162.321 145.96 162.195C146.479 162.069 147.019 162.06 147.541 162.17L154.618 163.643C155.426 163.812 156.151 164.254 156.672 164.894C157.193 165.534 157.477 166.334 157.477 167.16V167.546C157.477 168.498 157.1 169.411 156.427 170.085C155.754 170.759 154.842 171.138 153.889 171.14H146.813C145.86 171.14 144.946 170.761 144.272 170.087C143.598 169.413 143.219 168.499 143.219 167.546Z" fill="#263238" style="fill:#263238;fill:color(display-p3 0.1490 0.1961 0.2196);fill-opacity:1;"/>
<path d="M180.452 146.178C180.452 146.178 179.508 146.084 177.863 145.941C185.138 160.845 183.283 168.071 183.283 168.071H188.837C188.892 158.996 180.452 146.178 180.452 146.178Z" fill="#263238" style="fill:#263238;fill:color(display-p3 0.1490 0.1961 0.2196);fill-opacity:1;"/>
<path opacity="0.2" d="M119.092 161.397C118.979 162.568 118.435 163.656 117.564 164.448C116.694 165.24 115.56 165.679 114.383 165.68H85.773C83.6864 165.68 82.9302 163.351 84.4426 161.618C87.1718 158.51 90.1355 155.616 93.3078 152.962C98.6953 148.425 105.386 146.068 111.64 146.504L114.002 146.675C115.022 146.755 115.989 147.161 116.759 147.835C117.528 148.508 118.06 149.412 118.275 150.412C119.11 154.01 119.385 157.715 119.092 161.397Z" fill="#A2384D" style="fill:#A2384D;fill:color(display-p3 0.6353 0.2196 0.3020);fill-opacity:1;"/>
<path opacity="0.2" d="M183.946 211.403C183.873 211.403 183.803 211.373 183.751 211.322C183.699 211.27 183.67 211.2 183.67 211.127C183.67 205.54 186.518 182.505 187.263 179.055C187.987 175.705 187.987 171.962 187.263 169.528C187.243 169.458 187.251 169.382 187.286 169.318C187.322 169.254 187.381 169.206 187.451 169.186C187.521 169.167 187.596 169.175 187.66 169.21C187.724 169.245 187.772 169.304 187.793 169.373C188.539 171.89 188.539 175.738 187.793 179.171C187.048 182.605 184.211 205.562 184.211 211.127C184.211 211.198 184.183 211.266 184.134 211.318C184.085 211.369 184.017 211.4 183.946 211.403Z" fill="black" style="fill:black;fill-opacity:1;"/>
<path opacity="0.2" d="M183.212 179.348H176.483C176.355 179.352 176.229 179.327 176.112 179.274C175.996 179.221 175.893 179.143 175.812 179.044C175.731 178.945 175.674 178.829 175.645 178.705C175.615 178.581 175.615 178.451 175.644 178.327L175.782 177.548C175.838 177.268 175.986 177.015 176.204 176.83C176.421 176.645 176.694 176.538 176.98 176.527H183.709C183.836 176.523 183.963 176.548 184.08 176.601C184.196 176.654 184.299 176.733 184.38 176.831C184.461 176.93 184.518 177.046 184.547 177.17C184.576 177.295 184.577 177.424 184.548 177.548L184.41 178.327C184.354 178.607 184.206 178.86 183.988 179.045C183.771 179.231 183.497 179.337 183.212 179.348Z" fill="black" style="fill:black;fill-opacity:1;"/>
<path d="M203.57 95.7088H203.018C203.018 94.3034 202.815 92.9053 202.416 91.5578L202.968 91.4032C203.375 92.8019 203.578 94.2521 203.57 95.7088ZM201.191 88.6487C199.926 86.3798 198.08 84.489 195.841 83.1714C193.603 81.8537 191.054 81.1569 188.456 81.1526V80.6006C191.152 80.6033 193.799 81.3262 196.122 82.6945C198.446 84.0629 200.361 86.027 201.671 88.3838L201.191 88.6487Z" fill="#A2384D" style="fill:#A2384D;fill:color(display-p3 0.6353 0.2196 0.3020);fill-opacity:1;"/>
<path d="M188.456 82.5327C184.962 82.5342 181.612 83.923 179.142 86.3939C176.673 88.8648 175.285 92.2154 175.285 95.709C175.285 108.405 188.456 117.104 188.456 117.104C188.456 117.104 201.638 108.399 201.638 95.709C201.636 92.2139 200.247 88.8625 197.775 86.3916C195.303 83.9207 191.951 82.5327 188.456 82.5327ZM188.456 101.913C187.24 101.912 186.052 101.551 185.041 100.874C184.03 100.198 183.243 99.2373 182.779 98.1136C182.314 96.9898 182.193 95.7536 182.431 94.5611C182.669 93.3686 183.255 92.2734 184.115 91.414C184.975 90.5546 186.071 89.9695 187.264 89.7326C188.456 89.4958 189.693 89.6179 190.816 90.0835C191.939 90.5491 192.899 91.3372 193.575 92.3484C194.25 93.3595 194.611 94.5482 194.611 95.7642C194.611 96.5722 194.451 97.3722 194.142 98.1187C193.833 98.8651 193.379 99.5432 192.808 100.114C192.236 100.685 191.557 101.138 190.811 101.447C190.064 101.756 189.264 101.914 188.456 101.913Z" fill="#A2384D" style="fill:#A2384D;fill:color(display-p3 0.6353 0.2196 0.3020);fill-opacity:1;"/>
<path d="M164.979 229.426L168.314 229.371L169.274 221.643L165.945 221.698L164.979 229.426Z" fill="#B55B52" style="fill:#B55B52;fill:color(display-p3 0.7098 0.3569 0.3216);fill-opacity:1;"/>
<path d="M180.894 229.177L184.128 228.189L182.119 220.864L178.884 221.858L180.894 229.177Z" fill="#B55B52" style="fill:#B55B52;fill:color(display-p3 0.7098 0.3569 0.3216);fill-opacity:1;"/>
<path d="M184.029 227.217L180.419 229.078C180.36 229.109 180.314 229.16 180.288 229.221C180.262 229.282 180.258 229.35 180.275 229.414L181.048 232.346C181.067 232.417 181.102 232.483 181.15 232.538C181.198 232.594 181.258 232.638 181.325 232.668C181.393 232.697 181.466 232.71 181.539 232.707C181.613 232.704 181.685 232.684 181.749 232.649C182.903 232.031 183.714 231.545 185.177 230.767C186.077 230.303 188.837 229 190.079 228.355C191.321 227.709 190.852 226.401 190.289 226.555C187.75 227.234 185.674 227.433 184.603 227.151C184.41 227.101 184.205 227.124 184.029 227.217Z" fill="#263238" style="fill:#263238;fill:color(display-p3 0.1490 0.1961 0.2196);fill-opacity:1;"/>
<path d="M168.38 228.984L164.742 229.045C164.677 229.046 164.613 229.07 164.563 229.112C164.513 229.154 164.479 229.212 164.466 229.276L163.853 232.246C163.837 232.318 163.838 232.392 163.855 232.464C163.872 232.535 163.906 232.602 163.953 232.658C163.999 232.715 164.059 232.76 164.126 232.79C164.193 232.82 164.266 232.834 164.339 232.831C165.653 232.787 167.546 232.682 169.197 232.655C171.123 232.627 171.686 232.704 173.95 232.655C175.313 232.655 175.672 231.242 175.098 231.126C172.481 230.574 171.46 230.574 169.191 229.216C168.945 229.07 168.666 228.99 168.38 228.984Z" fill="#263238" style="fill:#263238;fill:color(display-p3 0.1490 0.1961 0.2196);fill-opacity:1;"/>
<path d="M173.442 128.04C174.198 129.558 175.054 131.164 175.909 132.693C176.765 134.222 177.67 135.745 178.636 137.175C178.884 137.528 179.116 137.898 179.37 138.235L179.994 139.085C180.121 139.251 180.193 139.328 180.215 139.367C180.237 139.405 180.248 139.46 180.408 139.471C180.994 139.366 181.539 139.098 181.981 138.699C182.285 138.467 182.594 138.202 182.897 137.92C183.201 137.639 183.505 137.313 183.77 137.054L185.972 138.279C185.788 138.767 185.571 139.241 185.321 139.698C185.074 140.166 184.79 140.612 184.471 141.034C184.131 141.494 183.742 141.916 183.311 142.292C182.8 142.748 182.206 143.102 181.562 143.335C180.755 143.63 179.879 143.678 179.045 143.473C178.263 143.282 177.539 142.903 176.936 142.369C176.802 142.257 176.675 142.137 176.555 142.011L176.378 141.829L176.251 141.685L175.766 141.133C175.44 140.763 175.142 140.382 174.833 140.029C173.654 138.513 172.566 136.928 171.576 135.282C171.09 134.465 170.61 133.626 170.168 132.803C169.727 131.981 169.296 131.147 168.888 130.214L173.442 128.04Z" fill="#B55B52" style="fill:#B55B52;fill:color(display-p3 0.7098 0.3569 0.3216);fill-opacity:1;"/>
<path d="M167.469 128.062C166.569 131.12 172.89 139.449 172.89 139.449L179.265 135.348C178.066 132.699 176.585 130.185 174.849 127.852C172.238 124.523 168.452 124.7 167.469 128.062Z" fill="#A2384D" style="fill:#A2384D;fill:color(display-p3 0.6353 0.2196 0.3020);fill-opacity:1;"/>
<g opacity="0.2">
<path d="M167.469 128.062C166.569 131.12 172.89 139.449 172.89 139.449L179.265 135.348C178.066 132.699 176.585 130.185 174.849 127.852C172.238 124.523 168.452 124.7 167.469 128.062Z" fill="black" style="fill:black;fill-opacity:1;"/>
</g>
<path opacity="0.2" d="M171.355 131.65C172.663 132.202 174.595 135.37 175.6 137.722L172.895 139.461C171.381 137.44 170.021 135.309 168.827 133.085C169.682 132.136 170.659 131.357 171.355 131.65Z" fill="black" style="fill:black;fill-opacity:1;"/>
<path d="M183.389 137.65L185.696 133.918L187.711 137.137C187.226 137.995 186.439 138.643 185.503 138.953L183.389 137.65Z" fill="#B55B52" style="fill:#B55B52;fill:color(display-p3 0.7098 0.3569 0.3216);fill-opacity:1;"/>
<path d="M188.914 133.957V135.111C188.914 135.471 188.789 135.821 188.561 136.099L187.722 137.137L185.707 133.919L187.788 133.163C187.915 133.118 188.052 133.104 188.185 133.122C188.319 133.141 188.446 133.191 188.557 133.269C188.667 133.347 188.757 133.45 188.819 133.57C188.881 133.689 188.914 133.822 188.914 133.957Z" fill="#B55B52" style="fill:#B55B52;fill:color(display-p3 0.7098 0.3569 0.3216);fill-opacity:1;"/>
<path d="M186.662 138.726L183.03 138.671L185.039 131.147L188.671 131.203L186.662 138.726Z" fill="#A2384D" style="fill:#A2384D;fill:color(display-p3 0.6353 0.2196 0.3020);fill-opacity:1;"/>
<path d="M187.032 138.726L183.399 138.671L185.409 131.147L189.041 131.203L187.032 138.726Z" fill="#263238" style="fill:#263238;fill:color(display-p3 0.1490 0.1961 0.2196);fill-opacity:1;"/>
<path opacity="0.2" d="M169.274 221.648L168.777 225.628L165.443 225.683L165.94 221.698L169.274 221.648Z" fill="black" style="fill:black;fill-opacity:1;"/>
<path opacity="0.2" d="M178.884 221.858L182.125 220.864L183.157 224.64L179.917 225.634L178.884 221.858Z" fill="black" style="fill:black;fill-opacity:1;"/>
<path d="M153.404 129.668C156.125 141.381 155.534 153.001 155.833 155.507L173.601 154.182C175.307 135.144 171.266 125.478 171.266 125.478C171.266 125.478 170.124 125.258 168.573 125.097C168.087 125.048 167.557 125.004 167.011 124.976C166.707 124.976 166.403 124.948 166.089 124.943C163.563 124.982 161.042 125.166 158.537 125.495C158.063 125.556 157.582 125.622 157.113 125.699L155.855 125.931H155.805C155.398 126.012 155.012 126.174 154.669 126.407C154.327 126.641 154.035 126.941 153.811 127.289C153.586 127.638 153.435 128.029 153.365 128.437C153.295 128.846 153.308 129.265 153.404 129.668Z" fill="#A2384D" style="fill:#A2384D;fill:color(display-p3 0.6353 0.2196 0.3020);fill-opacity:1;"/>
<g opacity="0.2">
<path d="M153.404 129.668C156.125 141.381 155.534 153.001 155.833 155.507L173.601 154.182C175.307 135.144 171.266 125.478 171.266 125.478C171.266 125.478 170.124 125.258 168.573 125.097C168.087 125.048 167.557 125.004 167.011 124.976C166.707 124.976 166.403 124.948 166.089 124.943C163.563 124.982 161.042 125.166 158.537 125.495C158.063 125.556 157.582 125.622 157.113 125.699L155.855 125.931H155.805C155.398 126.012 155.012 126.174 154.669 126.407C154.327 126.641 154.035 126.941 153.811 127.289C153.586 127.638 153.435 128.029 153.365 128.437C153.295 128.846 153.308 129.265 153.404 129.668Z" fill="black" style="fill:black;fill-opacity:1;"/>
</g>
<path opacity="0.2" d="M156.413 132.141L154.37 134.763C154.373 134.796 154.373 134.829 154.37 134.862C154.657 136.64 154.878 138.379 155.044 140.057C157.003 137.645 156.716 133.289 156.413 132.141Z" fill="black" style="fill:black;fill-opacity:1;"/>
<path d="M159.393 120.317C159.818 122.106 159.79 124.093 158.51 125.517C159.928 126.731 161.767 128.117 164.659 128.006C167.552 127.896 166.906 125.942 166.061 124.954C163.594 124.556 163.588 122.95 163.566 121.184C163.565 121.005 163.507 120.831 163.401 120.687C163.295 120.544 163.146 120.437 162.975 120.383L160.26 119.511C160.145 119.475 160.022 119.469 159.905 119.495C159.787 119.522 159.679 119.579 159.591 119.661C159.502 119.743 159.438 119.847 159.403 119.962C159.368 120.078 159.365 120.2 159.393 120.317Z" fill="#B55B52" style="fill:#B55B52;fill:color(display-p3 0.7098 0.3569 0.3216);fill-opacity:1;"/>
<path d="M167.204 139.422C165.714 139.422 164.339 137.634 164.069 135.348C163.963 134.743 163.981 134.123 164.123 133.525C164.264 132.927 164.525 132.364 164.891 131.871C165.064 131.663 165.279 131.494 165.523 131.378C165.767 131.262 166.034 131.2 166.304 131.197C167.789 131.197 169.169 132.986 169.434 135.271C169.54 135.876 169.523 136.496 169.382 137.094C169.242 137.691 168.982 138.254 168.617 138.749C168.443 138.955 168.227 139.123 167.984 139.239C167.74 139.355 167.474 139.417 167.204 139.422ZM166.31 131.749C166.117 131.753 165.928 131.798 165.755 131.883C165.583 131.968 165.431 132.09 165.311 132.241C165 132.676 164.779 133.17 164.661 133.692C164.544 134.215 164.532 134.755 164.626 135.282C164.852 137.231 166.034 138.87 167.21 138.87C167.403 138.868 167.593 138.822 167.767 138.737C167.941 138.652 168.093 138.53 168.214 138.379C168.524 137.942 168.744 137.449 168.862 136.927C168.979 136.405 168.992 135.864 168.899 135.337C168.683 133.389 167.502 131.749 166.332 131.749H166.31Z" fill="#A2384D" style="fill:#A2384D;fill:color(display-p3 0.6353 0.2196 0.3020);fill-opacity:1;"/>
<path opacity="0.2" d="M163.572 121.283L160.839 121.636C160.9 121.758 160.977 121.874 161.049 121.99C161.568 122.818 162.705 123.364 163.886 123.563C163.631 122.832 163.524 122.056 163.572 121.283Z" fill="black" style="fill:black;fill-opacity:1;"/>
<path d="M167.116 114.212C168.634 114.466 171.471 112.744 170.809 110.448C169.959 111.513 167.116 111.154 167.116 111.154V114.212Z" fill="#263238" style="fill:#263238;fill:color(display-p3 0.1490 0.1961 0.2196);fill-opacity:1;"/>
<path d="M161.187 116.641C161.353 118.176 159.459 120.908 157.207 120.108C158.311 119.324 158.134 116.459 158.134 116.459L161.187 116.641Z" fill="#263238" style="fill:#263238;fill:color(display-p3 0.1490 0.1961 0.2196);fill-opacity:1;"/>
<path d="M158.962 113.66C158.554 116.939 158.145 118.844 159.476 120.836C161.468 123.801 165.752 123.044 167.132 119.97C168.374 117.21 168.832 112.291 165.895 110.403C165.252 109.986 164.513 109.74 163.748 109.688C162.983 109.636 162.218 109.779 161.524 110.105C160.83 110.431 160.231 110.929 159.782 111.551C159.334 112.173 159.052 112.899 158.962 113.66Z" fill="#B55B52" style="fill:#B55B52;fill:color(display-p3 0.7098 0.3569 0.3216);fill-opacity:1;"/>
<path d="M158.51 116.972C159.31 117.817 161.513 114.367 161.11 113.108C161.938 113.472 163.528 112.777 163.428 111.408C165.907 112.733 169.5 113.782 169.555 111.408C169.611 109.034 167.347 107.24 165.139 107.053C165.404 107.765 164.703 108.068 163.263 107.765C161.822 107.461 156.269 104.905 156.881 110.011C154.806 110.133 154.535 112.76 158.51 116.972Z" fill="#263238" style="fill:#263238;fill:color(display-p3 0.1490 0.1961 0.2196);fill-opacity:1;"/>
<path d="M156.887 115.697C157.002 116.521 157.438 117.265 158.101 117.767C158.984 118.424 159.536 117.729 159.619 116.691C159.697 115.752 159.619 114.284 158.565 114.036C158.336 113.986 158.097 113.994 157.872 114.059C157.647 114.125 157.441 114.246 157.275 114.411C157.108 114.576 156.985 114.78 156.917 115.005C156.85 115.229 156.839 115.467 156.887 115.697Z" fill="#B55B52" style="fill:#B55B52;fill:color(display-p3 0.7098 0.3569 0.3216);fill-opacity:1;"/>
<path d="M161.894 155.06L173.574 154.193C173.574 154.193 175.086 178.167 174.97 188.329C174.854 198.905 170.002 224.833 170.002 224.833L164.361 224.921C164.361 224.921 164.808 199.772 164.808 189.389C164.808 175.407 161.877 155.06 161.877 155.06" fill="#263238" style="fill:#263238;fill:color(display-p3 0.1490 0.1961 0.2196);fill-opacity:1;"/>
<path opacity="0.2" d="M166.409 179.983C166.564 180.673 170.908 200.109 172.31 211.447C173.055 206.733 173.823 201.439 174.341 196.764L166.409 179.983Z" fill="black" style="fill:black;fill-opacity:1;"/>
<path d="M167.27 154.668C167.27 154.668 176.163 176.45 178.167 186.005C180.375 196.466 183.88 222.923 183.88 222.923L177.847 223.862C177.847 223.862 173.282 204.083 170.726 193.982C167.822 182.467 156.308 164.235 155.822 155.519L167.27 154.668Z" fill="#263238" style="fill:#263238;fill:color(display-p3 0.1490 0.1961 0.2196);fill-opacity:1;"/>
<path d="M184.636 223.437L177.14 225.192L176.196 222.305L184.382 220.903L184.636 223.437Z" fill="#A2384D" style="fill:#A2384D;fill:color(display-p3 0.6353 0.2196 0.3020);fill-opacity:1;"/>
<path d="M170.731 224.96L164.008 225.065L163.975 222.895L171.482 222.664L170.731 224.96Z" fill="#A2384D" style="fill:#A2384D;fill:color(display-p3 0.6353 0.2196 0.3020);fill-opacity:1;"/>
<path d="M163.533 115.36C163.484 115.625 163.583 115.862 163.754 115.912C163.925 115.962 164.107 115.758 164.157 115.493C164.207 115.228 164.107 114.99 163.931 114.941C163.754 114.891 163.583 115.095 163.533 115.36Z" fill="#263238" style="fill:#263238;fill:color(display-p3 0.1490 0.1961 0.2196);fill-opacity:1;"/>
<path d="M166.801 116.056C166.751 116.315 166.851 116.558 167.022 116.608C167.193 116.658 167.375 116.453 167.425 116.189C167.474 115.924 167.375 115.681 167.204 115.637C167.033 115.592 166.851 115.791 166.801 116.056Z" fill="#263238" style="fill:#263238;fill:color(display-p3 0.1490 0.1961 0.2196);fill-opacity:1;"/>
<path d="M165.725 115.99C165.888 116.856 166.171 117.696 166.564 118.485C166.359 118.58 166.135 118.629 165.909 118.629C165.684 118.629 165.46 118.58 165.255 118.485L165.725 115.99Z" fill="#A02724" style="fill:#A02724;fill:color(display-p3 0.6275 0.1529 0.1412);fill-opacity:1;"/>
<path d="M164.698 119.296C164.402 119.235 164.122 119.114 163.876 118.94C163.629 118.766 163.42 118.544 163.263 118.286C163.253 118.267 163.251 118.245 163.257 118.224C163.263 118.204 163.277 118.186 163.296 118.176C163.314 118.167 163.335 118.166 163.355 118.172C163.374 118.178 163.39 118.191 163.401 118.209C163.581 118.491 163.824 118.727 164.112 118.897C164.399 119.068 164.723 119.169 165.057 119.191C165.074 119.196 165.09 119.206 165.101 119.221C165.112 119.235 165.118 119.253 165.118 119.271C165.118 119.29 165.112 119.307 165.101 119.322C165.09 119.336 165.074 119.347 165.057 119.351C164.936 119.343 164.816 119.325 164.698 119.296Z" fill="#263238" style="fill:#263238;fill:color(display-p3 0.1490 0.1961 0.2196);fill-opacity:1;"/>
<path d="M163.207 114.179C163.181 114.168 163.157 114.153 163.136 114.135C163.108 114.104 163.093 114.063 163.093 114.022C163.093 113.98 163.108 113.94 163.136 113.908C163.318 113.736 163.539 113.61 163.78 113.54C164.021 113.47 164.275 113.458 164.521 113.505C164.561 113.517 164.595 113.544 164.615 113.58C164.636 113.616 164.642 113.658 164.631 113.699C164.621 113.738 164.596 113.772 164.56 113.793C164.525 113.813 164.483 113.819 164.444 113.809C164.246 113.774 164.043 113.786 163.851 113.844C163.659 113.903 163.484 114.006 163.34 114.146C163.321 114.161 163.3 114.171 163.277 114.177C163.254 114.183 163.23 114.184 163.207 114.179Z" fill="#263238" style="fill:#263238;fill:color(display-p3 0.1490 0.1961 0.2196);fill-opacity:1;"/>
<path d="M168.562 115.234C168.536 115.225 168.514 115.211 168.495 115.192C168.477 115.172 168.464 115.149 168.457 115.123C168.412 114.931 168.322 114.752 168.193 114.602C168.064 114.452 167.901 114.335 167.717 114.262C167.677 114.249 167.644 114.221 167.624 114.184C167.604 114.147 167.6 114.104 167.612 114.063C167.625 114.023 167.653 113.99 167.69 113.97C167.727 113.951 167.771 113.946 167.811 113.958C168.047 114.052 168.257 114.201 168.422 114.393C168.588 114.585 168.704 114.815 168.76 115.062C168.767 115.082 168.77 115.103 168.767 115.124C168.765 115.145 168.759 115.166 168.749 115.184C168.738 115.202 168.724 115.218 168.707 115.23C168.69 115.243 168.671 115.251 168.65 115.256C168.619 115.26 168.587 115.252 168.562 115.234Z" fill="#263238" style="fill:#263238;fill:color(display-p3 0.1490 0.1961 0.2196);fill-opacity:1;"/>
<path d="M185.276 227.229C185.012 227.357 184.734 227.455 184.448 227.521C184.436 227.531 184.422 227.536 184.407 227.536C184.392 227.536 184.377 227.531 184.365 227.521C184.356 227.508 184.352 227.493 184.352 227.477C184.352 227.461 184.356 227.446 184.365 227.433C184.437 227.311 185.089 226.229 185.503 226.229C185.549 226.229 185.595 226.242 185.635 226.267C185.675 226.291 185.708 226.326 185.729 226.367C185.772 226.433 185.799 226.508 185.806 226.586C185.814 226.664 185.803 226.742 185.773 226.815C185.656 227.003 185.482 227.148 185.276 227.229ZM184.597 227.317C185.002 227.257 185.369 227.046 185.624 226.726C185.643 226.676 185.65 226.623 185.643 226.57C185.637 226.517 185.617 226.466 185.585 226.423C185.552 226.367 185.525 226.362 185.497 226.362C185.282 226.362 184.868 226.897 184.597 227.317Z" fill="#A2384D" style="fill:#A2384D;fill:color(display-p3 0.6353 0.2196 0.3020);fill-opacity:1;"/>
<path d="M184.465 227.516H184.421C184.407 227.513 184.393 227.508 184.382 227.499C184.37 227.49 184.361 227.479 184.355 227.466C184.154 227.034 184.089 226.551 184.167 226.08C184.19 226.024 184.224 225.973 184.268 225.93C184.312 225.887 184.364 225.854 184.421 225.832C184.473 225.806 184.534 225.798 184.591 225.812C184.648 225.825 184.7 225.857 184.736 225.904C184.973 226.202 184.736 227.157 184.493 227.483C184.49 227.49 184.487 227.496 184.482 227.502C184.477 227.508 184.472 227.512 184.465 227.516ZM184.465 226.009C184.405 226.039 184.358 226.09 184.333 226.152C184.267 226.525 184.313 226.909 184.465 227.256C184.647 226.864 184.774 226.18 184.636 226.009C184.636 226.009 184.592 225.954 184.498 226.009H184.465Z" fill="#A2384D" style="fill:#A2384D;fill:color(display-p3 0.6353 0.2196 0.3020);fill-opacity:1;"/>
<path d="M168.717 229.442C168.702 229.436 168.69 229.426 168.681 229.414C168.673 229.401 168.668 229.386 168.668 229.37C168.668 229.355 168.673 229.34 168.681 229.327C168.69 229.314 168.702 229.304 168.717 229.298C168.866 229.216 170.196 228.515 170.604 228.746C170.642 228.768 170.674 228.798 170.697 228.835C170.72 228.871 170.734 228.913 170.737 228.956C170.745 229.027 170.737 229.1 170.712 229.167C170.687 229.234 170.646 229.294 170.593 229.343C170.235 229.668 169.28 229.552 168.739 229.453L168.717 229.442ZM170.516 228.862C169.985 228.893 169.47 229.052 169.015 229.326C169.509 229.467 170.037 229.428 170.505 229.216C170.54 229.183 170.567 229.143 170.582 229.097C170.598 229.052 170.601 229.003 170.593 228.956C170.594 228.939 170.59 228.922 170.581 228.907C170.572 228.893 170.559 228.881 170.544 228.873L170.516 228.862Z" fill="#A2384D" style="fill:#A2384D;fill:color(display-p3 0.6353 0.2196 0.3020);fill-opacity:1;"/>
<path d="M168.716 229.442C168.706 229.433 168.697 229.423 168.691 229.41C168.685 229.398 168.683 229.384 168.683 229.37C168.712 228.899 168.886 228.448 169.18 228.079C169.301 227.976 169.457 227.924 169.616 227.935C169.837 227.935 169.898 228.068 169.914 228.156C169.98 228.531 169.197 229.26 168.81 229.448C168.796 229.457 168.779 229.462 168.762 229.461C168.745 229.46 168.729 229.453 168.716 229.442ZM169.66 228.101C169.635 228.094 169.608 228.094 169.583 228.101C169.525 228.094 169.467 228.1 169.411 228.118C169.356 228.136 169.305 228.166 169.263 228.206C169.018 228.497 168.869 228.858 168.838 229.238C169.246 228.989 169.776 228.41 169.737 228.189C169.737 228.156 169.726 228.123 169.66 228.101Z" fill="#A2384D" style="fill:#A2384D;fill:color(display-p3 0.6353 0.2196 0.3020);fill-opacity:1;"/>
<path d="M158.709 130.706C157.605 132.666 156.501 134.758 155.507 136.817C154.506 138.829 153.649 140.91 152.94 143.043C152.857 143.303 152.797 143.556 152.719 143.81C152.692 143.926 152.642 144.092 152.626 144.169C152.608 144.233 152.593 144.297 152.581 144.362C152.534 144.709 152.543 145.062 152.609 145.406C152.831 146.351 153.194 147.257 153.685 148.094C154.831 150.023 156.166 151.833 157.671 153.498L156.07 155.419C153.935 154.007 152.038 152.265 150.451 150.258C149.566 149.139 148.881 147.877 148.425 146.526C148.162 145.72 148.044 144.873 148.077 144.026C148.077 143.799 148.121 143.562 148.149 143.336C148.176 143.109 148.21 142.993 148.243 142.817C148.309 142.497 148.37 142.16 148.441 141.845C149.06 139.394 149.899 137.003 150.948 134.702C151.954 132.442 153.097 130.244 154.37 128.123L158.709 130.706Z" fill="#B55B52" style="fill:#B55B52;fill:color(display-p3 0.7098 0.3569 0.3216);fill-opacity:1;"/>
<path d="M155.242 126.185C152.167 127.03 149.17 135.668 149.17 135.668L156.572 137.722C157.869 135.903 158.904 133.911 159.647 131.804C161.204 127.604 158.962 125.169 155.242 126.185Z" fill="#A2384D" style="fill:#A2384D;fill:color(display-p3 0.6353 0.2196 0.3020);fill-opacity:1;"/>
<g opacity="0.2">
<path d="M155.242 126.185C152.167 127.03 149.17 135.668 149.17 135.668L156.572 137.722C157.869 135.903 158.904 133.911 159.647 131.804C161.204 127.604 158.962 125.169 155.242 126.185Z" fill="black" style="fill:black;fill-opacity:1;"/>
</g>
<path d="M156.252 152.93L159.63 153.818L158.289 156.992C158.289 156.992 155.258 156.352 155.275 154.702L156.252 152.93Z" fill="#B55B52" style="fill:#B55B52;fill:color(display-p3 0.7098 0.3569 0.3216);fill-opacity:1;"/>
<path d="M160.928 155.971L159.929 158.483L158.289 156.992L159.63 153.818L160.928 155.971Z" fill="#B55B52" style="fill:#B55B52;fill:color(display-p3 0.7098 0.3569 0.3216);fill-opacity:1;"/>
</g>
<defs>
<clipPath id="clip0_667_2529">
<rect width="276" height="276" fill="white" style="fill:white;fill-opacity:1;" transform="translate(0.5 0.5)"/>
</clipPath>
</defs>
</svg>
