<?xml version="1.0" encoding="utf-8"?>
<!-- Generator: Adobe Illustrator 28.0.0, SVG Export Plug-In . SVG Version: 6.00 Build 0)  -->
<svg version="1.1" id="Layer_1" xmlns="http://www.w3.org/2000/svg" xmlns:xlink="http://www.w3.org/1999/xlink" x="0px" y="0px"
	 viewBox="0 0 358 198" style="enable-background:new 0 0 358 198;" xml:space="preserve">
<style type="text/css">
	.st0{fill:#363636;}
	.st1{fill:#A2384D;}
	.st2{fill:#8C263E;}
	.st3{stroke:#000000;stroke-width:0.4;}
	.st4{fill:#0035A3;}
	.st5{fill:#4D4D4D;}
	.st6{fill:#2B2B2B;}
	.st7{fill:#404040;}
	.st8{fill:#EEEEEE;}
	.st9{fill:#A0A0A0;}
	.st10{fill:#FFFFFF;}
	.st11{fill:#FEC937;}
	.st12{fill:url(#SVGID_1_);}
	.st13{fill:url(#SVGID_00000132776264395955105480000018148115372643922071_);}
	.st14{fill:url(#SVGID_00000125574823304298365950000013019953709777233080_);}
	.st15{opacity:0.303;fill:#C7C8CA;enable-background:new    ;}
	.st16{fill:#686868;}
	.st17{fill:#E6E6E6;}
	.st18{fill:#545454;}
	.st19{opacity:0.593;fill:#FFFFFF;enable-background:new    ;}
	.st20{fill:#AF455E;}
	.st21{fill:#1D1D1D;}
	.st22{fill:#71B0E0;}
	.st23{fill:#333333;}
	.st24{fill-rule:evenodd;clip-rule:evenodd;fill:#FFD0C9;}
	.st25{fill:#E5E5E5;}
	.st26{opacity:0.4;fill-rule:evenodd;clip-rule:evenodd;fill:#E5E5E5;enable-background:new    ;}
</style>
<g>
	<g>
		<path d="M77,103.8l-1.5-3.6l-74.8,29l1.5,3.6L77,103.8z"/>
		<g transform="translate(0 1) translate(.351 34)">
			<path class="st0" d="M4.9,46.4l7.5-2.9l1.5,4l-7.5,2.9L4.9,46.4z"/>
			<path d="M1.2,40.3l3.5-1.4c0.9-0.4,2,0.1,2.4,1.1l5.2,13.6c0.4,0.9-0.1,2-1.1,2.4l-3.5,1.4c-0.9,0.4-2-0.1-2.4-1.1L0.1,42.7
				C-0.2,41.7,0.3,40.6,1.2,40.3z"/>
			<path class="st1" d="M156.3,19.9c0,0-2.5,5.9-7.1,7.5L45.2,64c-4.2,1.5-22.3,5.1-24,4.8c-1.7-0.5-3.3-1.5-4.5-2.8
				c-1.3-2.3-2.5-4.6-3.6-7c-0.4-1.2,0.9-3.9,0.1-5.7L8.9,43c-0.4-1,1.1-1.8,1-2.3c-0.1-0.6,1-13.7,3.6-17.9S52.1,6,64.2,2.7
				s20-3,29.4-0.9c9.5,2.1,15.4,3.4,16.6,3.4c1.3,0,12.8-2.8,19.7-3.7c6.8-0.9,10.7-1.1,12-0.7s4.2,1.2,7.4,5.4c0,0,1.7,0.1,2.3,0.7
				C152.2,7.3,156.2,14.8,156.3,19.9L156.3,19.9z"/>
			<path class="st2" d="M151.5,6.6c0,0,0.1,0,0.1,0.1c0.6,0.6,4.6,8.2,4.7,13.2c0,0-2.5,5.9-7.1,7.5L45.2,64
				c-4.2,1.5-22.3,5.1-24,4.8c-1.7-0.5-3.3-1.5-4.5-2.8c-1.3-2.3-2.5-4.6-3.6-7c-0.4-1.2,0.9-3.9,0.1-5.7l-2.9-6.9L151.5,6.6z"/>
			<path class="st3" d="M36.4,47.3c-2.4-2.2-6.5-7.2-7.6-10.4c-1.1-3.1,1.1-17.4,3.5-20.3c2.1-2.5,4.3-3.3,10.7-5.9
				c1.1-0.4,2.3-0.9,3.7-1.5c9.6-3.9,23.1-7.4,26-8c4-0.7,8-0.7,12-0.1C90.3,2,95.8,3.2,101.2,5s7,2.7,9,5.9
				c2.1,3.2,6.9,16.1,8.9,23.3l-0.4,0.1c-2.1-7.2-6.8-20-8.9-23.2c-2-3.2-3.6-4-8.8-5.7c-5.4-1.7-10.9-3-16.5-3.8
				C80.6,1,76.6,1,72.7,1.7c-2,0.4-8.9,2.2-16.1,4.5c0.9,1.4,7,10.5,12.5,20c6,10.2,10.4,22.6,10.4,22.7L79.1,49
				c0-0.1-4.5-12.5-10.4-22.7c-5.6-9.6-11.8-18.8-12.5-20c-3.2,1-6.5,2.2-9.5,3.4c-1.4,0.6-2.6,1-3.7,1.5c-6.4,2.5-8.5,3.4-10.6,5.8
				c-2.4,2.8-4.5,16.9-3.5,20C30,40.1,34,45,36.4,47.3C36.4,47.3,36.4,47.3,36.4,47.3z"/>
			<path class="st4" d="M128.5,3.9c-1.1,0.3-2.2,0.5-3.3,0.7c-1.6,0.3-3.1,0.7-4.6,1.2c-1,0.3-1.6,0.5-1.9,0.4s-0.7-0.1-1-0.1
				c-1.7-0.2-4.6-0.4-6-1.4l0.6-0.1c1.4,0.7,4,1,5.5,1.1c0.4,0,0.7,0.1,1.1,0.1c0.6,0,1.1-0.2,1.7-0.4c1.5-0.5,3.1-0.9,4.7-1.2
				c1-0.2,2.1-0.5,3.3-0.7c3.5-0.9,7-1.5,10.6-1.8c2.6-0.1,4.5-0.1,5.8,0c0.2,0.1,0.4,0.3,0.7,0.4c-2.1-0.1-4.3-0.1-6.4,0
				C135.5,2.4,132,3,128.5,3.9z"/>
			<path d="M30.7,46.7C40.8,43.2,52,47,57.1,55.4l62.2-21.9c-2.2-9.4,3.3-19.2,13.4-22.7c7.7-2.8,16.4-1.2,22.6,4.2
				c0.5,1.6,0.8,3.3,0.9,5c0,0-2.5,5.9-7.1,7.5l-25.8,9.1l-2.6,0.9L58.9,59.3l-2.4,0.8l-11.4,4c-4.2,1.5-22.3,5.1-24,4.8
				c-1.7-0.5-3.2-1.4-4.4-2.6C16.4,57.9,21.7,49.9,30.7,46.7z"/>
			<path class="st5" d="M154.7,22.6c-1.2,1.8-3.1,4-5.6,4.8l-23.2,8.2c-0.2-0.3-0.3-0.7-0.5-1c-3.2-7.6,1-16.2,9.3-19.1
				C142.5,12.8,151.1,15.9,154.7,22.6z"/>
			<path class="st6" d="M22.8,68.8c-1.9-7.1,2.2-14.6,9.8-17.3c8.3-2.9,17.6,0.9,20.7,8.5c0.1,0.4,0.3,0.7,0.4,1.1l-8.6,3
				C41.6,65.3,27.7,68.2,22.8,68.8z"/>
			<ellipse transform="matrix(0.9339 -0.3575 0.3575 0.9339 -1.076 51.9566)" class="st7" cx="140" cy="28.9" rx="13" ry="11.9"/>
			<path class="st8" d="M132.2,32.2c1.7,4.2,6.9,6.3,11.4,4.7c4.6-1.6,6.9-6.3,5.1-10.5c-1.7-4.2-6.9-6.3-11.4-4.7
				C132.7,23.3,130.4,28,132.2,32.2z"/>
			<circle cx="38.4" cy="65.9" r="13"/>
			<path class="st9" d="M30.1,68.7c1.7,4.4,6.9,6.6,11.4,4.9c4.5-1.7,6.9-6.6,5.1-11c-1.7-4.4-6.9-6.6-11.4-4.9
				C30.7,59.4,28.4,64.3,30.1,68.7L30.1,68.7z"/>
			<path class="st10" d="M132,2.7c0.4-0.1,6.7-1.9,11.7-1c1.9,1.1,3.6,2.6,4.9,4.3c-2.3,0.1-4.7,0-7-0.4C137.7,5,131.5,2.9,132,2.7
				L132,2.7z"/>
			<path class="st11" d="M8.9,43c-0.4-1,1.1-1.8,1-2.3v-0.1l5.7-2c0.8-0.3,1.2-0.2,1.3,0.7c0.1,0.8-3.2,8.2-4.1,13.3L8.9,43z"/>
			
				<linearGradient id="SVGID_1_" gradientUnits="userSpaceOnUse" x1="-115.2274" y1="467.6805" x2="-115.2274" y2="466.6805" gradientTransform="matrix(44.9766 0 0 -18.7108 5265.0713 8752.4932)">
				<stop  offset="0" style="stop-color:#C4C4D5"/>
				<stop  offset="1" style="stop-color:#FFFFFF"/>
			</linearGradient>
			<path class="st12" d="M76,2c2.7-0.5,9.1,0.2,14.2,1.6C95.3,5,103,7.4,103.9,7.8c0.9,0.4,2.1,2-0.2,2.8
				c-2.3,0.8-32.7,9.6-33.8,9.9c-1.1,0.3-1.5-0.8-2.3-2.2c-0.8-1.4-6.1-8.8-6.8-10c-0.8-1.1-1-1.6-0.4-2C60.8,6,68.4,3.3,76,2z"/>
			
				<linearGradient id="SVGID_00000118383346654643235450000011768966800852048552_" gradientUnits="userSpaceOnUse" x1="-114.1615" y1="471.152" x2="-114.1615" y2="470.152" gradientTransform="matrix(31.9831 0 0 -23.4389 3698.3569 11051.6777)">
				<stop  offset="0" style="stop-color:#C4C4D5"/>
				<stop  offset="1" style="stop-color:#FFFFFF"/>
			</linearGradient>
			<path style="fill:url(#SVGID_00000118383346654643235450000011768966800852048552_);" d="M53.9,8.5c-0.7,0.3-16.3,6.3-17.8,7.1
				c-1.9,1.1-3.3,2.8-3.8,4.9c-0.7,2.4-1.4,8.1-1.1,9.5s0.9,2.1,2.2,1.7c1.2-0.4,27.6-8.4,28.5-8.7c0.8-0.2,1.7-0.8,0.9-2
				c-0.7-1.2-6.5-10.7-6.9-11.5C55.3,8.7,55,8.1,53.9,8.5z"/>
			
				<linearGradient id="SVGID_00000045577821231211262300000015321923905618262421_" gradientUnits="userSpaceOnUse" x1="-109.5331" y1="467.1269" x2="-109.5331" y2="466.1269" gradientTransform="matrix(14.1862 0 0 -18.1276 1570.949 8488.1562)">
				<stop  offset="0" style="stop-color:#E2E2EF"/>
				<stop  offset="1" style="stop-color:#FFFFFF"/>
			</linearGradient>
			<path style="fill:url(#SVGID_00000045577821231211262300000015321923905618262421_);" d="M20.2,32.5c-0.4,1.4-2.1,2.2-4,3.1
				c-1.3,0.6-4.4,2-6.2,2.8c0.3-3.7,1.3-11.1,3-14.8l8.9-3.1c0.9-0.3,2.7-0.7,2.2,1.7S20.6,31.1,20.2,32.5z"/>
		</g>
		<path class="st15" d="M66.1,135.7c0,1.8,65.2,3.3,145.7,3.3s145.7-1.5,145.7-3.3s-65.2-3.3-145.7-3.3S66.1,133.9,66.1,135.7z"/>
		<path class="st6" d="M289.9,52.3c0.1,0.5-0.2,1-0.6,1.2l-0.1,0l-7,1.6l0,37.4h38.6c9.1,0,15.5,3.2,15.7,12.2l0,0.3l0,0.3
			c-0.2,8.7-6.4,12.1-15.3,12.2l-0.3,0h-188v-10.8l-25.2,0v8.8h-19v-8.8H78.3v-5.4h54.4v-4.1h0.5l1.2,0h0.2l1.2,0
			c18.5,0,112.7,0.1,134,0.1l1.2,0h0.5l1.1,0h0.2l1.2,0l6-4.8V54.3c0-0.4,0.3-0.8,0.7-1l0.1,0l7.8-1.8
			C289.2,51.4,289.7,51.7,289.9,52.3L289.9,52.3z"/>
		<path class="st16" d="M274.6,1.1V102l-193.9,0l-3.5,10.1H66.8l0-10.1l-0.1,0V1.1H274.6z"/>
		<path d="M300.5,102.4l0.3,0c9.1,0.2,16.5,7.6,16.5,16.7l0,0.3c-0.3,9.1-7.7,16.4-16.8,16.4l-0.3,0c-9.1-0.2-16.5-7.6-16.5-16.7
			C283.7,109.8,291.2,102.4,300.5,102.4L300.5,102.4z M131.6,102.4l0.3,0c6.1,0.1,11.4,3.5,14.3,8.4l113.5,0v4.7l-34.6,0v4.1h-20.4
			v-4.1H148c0.2,1.1,0.4,2.2,0.4,3.3l0,0.3l0,0.3c-0.3,9.1-7.7,16.4-16.8,16.4l-0.3,0c-9.2-0.2-16.5-7.6-16.5-16.7
			C114.8,109.8,122.3,102.4,131.6,102.4L131.6,102.4z M355.3,115.4c1.2,0,2.2,0.9,2.3,2.1l0,0.2v0.2c-0.1,1.3-1.1,2.3-2.3,2.3h-30.8
			c-1.2,0-2.2-0.9-2.3-2.1l0-0.2v-0.2c0-1.3,1-2.3,2.3-2.3H355.3z M106.6,113.6c1.6,0,2.9,1.3,2.9,2.9v0.2c0.1,1.6-1.3,2.9-2.9,2.9
			H88.7c-1.6,0-2.9-1.3-2.9-2.9v-0.2c0-1.6,1.3-2.9,2.9-2.9H106.6z M77.3,110.7c0.5,0,1,0.4,1,1v6.9c0,0.5-0.4,1-1,1H67
			c-0.5,0-1-0.4-1-1v-6.9c0-0.5,0.4-1,1-1H77.3z"/>
		<path class="st17" d="M105.5,113.5h-2V106h2V113.5z"/>
		<path class="st17" d="M92.6,113.5h-2V106h2V113.5z"/>
		<path class="st18" d="M276,119.6h-25.1v-10.8H276V119.6z"/>
		<path class="st18" d="M225.1,113.5h-20.4v-6.1h20.4V113.5z"/>
		<path class="st1" d="M289.7,38.3h47.7l8.7,14.5l8.2,25l0.1,37.7h-30.1c0-15.6-14.3-16.3-14.3-16.3h-25.1V43.9
			C284.8,41.1,286.8,38.3,289.7,38.3L289.7,38.3z"/>
		<path class="st19" d="M302.5,93.8H295V81.6h7.5V93.8z"/>
		<path class="st10" d="M345.1,113.5h-9c-1.3,0-2.3-1-2.3-2.3V111c0-1.3,1-2.3,2.3-2.3h9c1.3,0,2.3,1,2.3,2.3v0.2
			C347.3,112.5,346.3,113.5,345.1,113.5z"/>
		<path class="st20" d="M354.2,111.4h-0.1c-0.7,0-1.3-0.6-1.3-1.3V91c0-0.7,0.6-1.3,1.3-1.3h0.1c0.7,0,1.3,0.6,1.3,1.3v19.1
			C355.5,110.9,354.9,111.4,354.2,111.4z"/>
		<path class="st20" d="M337.4,38.3c0,0-5.3-25.9-53-25.8c0,0-1.3,18.9,0.7,22.4c0,0,1.6,3.4,3.5,3.4H337.4z"/>
		<path class="st19" d="M340.7,84.3h-6.4c-0.7,0-1.2-0.5-1.2-1.2v-0.3c0-0.7,0.5-1.2,1.2-1.2h6.4c0.7,0,1.2,0.5,1.2,1.2v0.3
			C341.9,83.8,341.4,84.3,340.7,84.3z"/>
		<path class="st21" d="M294.4,43v23c0,0,4.3,7.3,47.1,12.7c0,0-2.2-26.3-16.2-35.7H294.4z"/>
		<path class="st21" d="M337.3,38.7c0,0,17,13.3,17,41.3c0,0-2.7,0.2-2.9-1.1C348.8,56.7,339.4,45.6,337.3,38.7z"/>
		<path class="st22" d="M289.6,119.1c0,6,4.9,10.9,10.9,10.9s10.9-4.8,10.9-10.9c0-6-4.9-10.9-10.9-10.9S289.6,113.1,289.6,119.1z"
			/>
		<path class="st22" d="M297.3,119.1c0,1.8,1.4,3.2,3.2,3.2c1.8,0,3.2-1.4,3.2-3.2c0-1.8-1.4-3.2-3.2-3.2
			C298.7,115.9,297.3,117.3,297.3,119.1z"/>
		<path class="st6" d="M289.6,119.1c0,6,4.9,10.9,10.9,10.9s10.9-4.8,10.9-10.9c0-6-4.9-10.9-10.9-10.9S289.6,113.1,289.6,119.1z"/>
		<path d="M297.3,119.1c0,1.8,1.4,3.2,3.2,3.2c1.8,0,3.2-1.4,3.2-3.2c0-1.8-1.4-3.2-3.2-3.2C298.7,115.9,297.3,117.3,297.3,119.1z"
			/>
		<path class="st23" d="M155.6,119.1c0,9.2,7.5,16.7,16.8,16.7c9.2,0,16.7-7.5,16.8-16.7c0-9.2-7.5-16.7-16.8-16.7
			S155.6,109.8,155.6,119.1z"/>
		<path class="st22" d="M161.4,119.1c0,6,4.9,10.9,10.9,10.9s10.9-4.8,10.9-10.9c0-6-4.9-10.9-10.9-10.9S161.4,113.1,161.4,119.1z"
			/>
		<path class="st17" d="M169.1,119.1c0,1.8,1.4,3.2,3.2,3.2s3.2-1.4,3.2-3.2c0-1.8-1.4-3.2-3.2-3.2
			C170.6,115.9,169.1,117.3,169.1,119.1z"/>
		<path class="st6" d="M120.7,119.1c0,6,4.9,10.9,10.9,10.9s10.9-4.8,10.9-10.9c0-6-4.9-10.9-10.9-10.9S120.7,113.1,120.7,119.1z"/>
		<path d="M128.4,119.1c0,1.8,1.4,3.2,3.2,3.2s3.2-1.4,3.2-3.2c0-1.8-1.4-3.2-3.2-3.2S128.4,117.3,128.4,119.1z"/>
		<path class="st5" d="M316.1,43l5.1,32.7c-5.5-1.1-11-2.5-16.3-4.2L300.4,43H316.1L316.1,43z"/>
		<path class="st10" d="M196.9,97.3c3-1.8,11.7-19.7,9.4-24.9c-2.3-5.2-18.5-17.1-25.5-18.4c-4.1-0.8,3.1,11.3,6,15.4
			c3.6,5,7.8,2.7,11.4,8.8c0.6,1.2-4.6,11.6-5.4,16.6c-0.2,1.9,0.7,2.6,1.3,3C195.1,98.4,195.5,98.1,196.9,97.3z"/>
		<path class="st24" d="M192.7,92.9l-1,1.4c-1.5,0.6-1.4,1.4-3,1.9c-0.8,0.3-1.9,1-2.5,1c-0.8,0-0.3,1,0.2,1.3
			c1.4,0.7,2.2,0.1,2.9,0.2c0,0.3-0.5,2.8-0.8,4.6c-0.2,1.1,0.3,2.4,0.6,2.5c2.6,0.9,4.8-1.7,5.1-2.6c0.4-1.1,0.3-3.3,2.7-6
			C198.1,94.6,193.9,92.7,192.7,92.9"/>
		<path class="st1" d="M193.1,187.8c-1.9-1-2.1-3.4-2.1-3.4h-0.3c1.7-27.9,6.4-63.6,2.9-78.7c-1.3-5.1-8.4-5.2-8.1-8.9
			c2.6-32.3-26-46-27.3,7.3l-0.5,0.4c-1.7,8.3-7.1,58.5-10.4,89.6c0.8,1.3-0.7,3.1,6.8,3.2c7.5,0,6.5-2.6,6.1-4.1
			c-1.4-1.5-2.7-4-2.8-4.9c0,0,15.7-52.4,17.1-58.5c0.8,4.8,7.2,63.4,7.3,63.6c0.8,1.3,2.6,1.8,10.4,2c10.9,0.2,7.9-4,7.1-4.8
			C198.2,189.6,195,188.8,193.1,187.8z"/>
		<path class="st20" d="M166.5,95.3c-1.9-10.6,18.7,5.2,19,1.5c2.6-32.3-26-46-27.3,7.3l-0.5,0.4c-1.7,8.3-7.1,58.5-10.4,89.6
			c0.8,1.3-0.7,3.1,6.8,3.2c7.5,0,6.5-2.6,6.1-4.1c-1.4-1.5-4.6-4-4.7-4.9c0,0,2-19.7,3.4-25.8C165.3,124.8,167.8,102.4,166.5,95.3
			L166.5,95.3z"/>
		<path d="M181.8,193.4c0.8,1.3,2.6,1.8,10.4,2c10.9,0.2,7.9-4,7.1-4.8c-1.1-1-4.3-1.8-6.2-2.8s-2.1-3.4-2.1-3.4h-5.5
			c-7.6,0-5,1.9-4.4,6.7L181.8,193.4z M147.2,196c0.6,1.3,3.4,1.8,9.6,2c8.7,0.2,7.3-3.9,6.7-4.6c-0.9-1-5.2-0.8-5-3.5
			c0.2-2.7-0.9-2.9-0.9-2.9h-7.4c-4,0-3.7,1.6-3.2,6.4L147.2,196L147.2,196z"/>
		<path class="st10" d="M193.7,103.2c-0.5-11.8-1.1-41.1-10.9-48.6c-7.3-2-14.2-2.5-21.1-0.1c-9,3.1-10.7,4.6-9.7,8.8
			c1.9,9.1,7,25.9,5,43.6c14.6,2.5,28,1.4,36.7-1.4V103.2z"/>
		<g>
			<g>
				<g>
					<path class="st10" d="M135.3,52.8c0.1,0.2,0.1,0.5,0.1,0.8c0,0.9-0.4,1.6-0.8,1.6c-0.3,0-0.5-0.2-0.6-0.6
						c0.1-0.2,0.1-0.5,0.1-0.8c0-0.4-0.1-0.8-0.2-1.1c0,0,0,0,0,0h-0.3c0.1,0.3,0.2,0.7,0.2,1.1c0,0.9-0.4,1.6-0.8,1.6
						c-0.5,0-0.8-0.7-0.8-1.6c0-0.4,0.1-0.8,0.2-1.1h-2c-0.1,0.3-0.2,0.7-0.2,1.1c0,1.1,0.5,2,1.1,2h1.7c0.2,0,0.4-0.1,0.5-0.3h1.1
						c0.6,0,1.1-0.9,1.1-2c0-0.3,0-0.6-0.1-0.8L135.3,52.8z"/>
					<path class="st10" d="M118.9,54h-0.4c0,0.2,0,0.5,0,0.7c0,1.5-0.6,2.7-1.4,2.7c-0.4,0-0.8-0.4-1.1-1c0.1-0.4,0.1-0.8,0.1-1.3
						c0-0.4,0-0.8-0.1-1.1h-0.5c0.1,0.3,0.1,0.7,0.1,1.1c0,1.5-0.6,2.7-1.4,2.7s-1.4-1.2-1.4-2.7c0-0.4,0-0.8,0.1-1.1h-2.9
						c-0.1,0.4-0.5,0.7-0.5,1.1c0,1.9,0.8,3.4,1.8,3.4h2.8c0.3,0,0.6-0.2,0.9-0.4h1.9c1,0,1.8-1.5,1.8-3.4
						C118.9,54.4,118.9,54.2,118.9,54z"/>
					<path class="st10" d="M110.6,50.8V53l2.1-1.3l0.3-0.3l18.8,0.4l-0.4,0.5L110.6,53v1.7l25.4-1.4l0.5-1.9L110.6,50.8z"/>
					<path class="st10" d="M80.4,56.4c0.2,2,1.1,3.6,2.3,3.6c1.2,0,2.1-1.5,2.3-3.5C83.5,56.8,82,56.7,80.4,56.4z"/>
					<path class="st10" d="M79,56c0.1,2.2,1.1,4,2.3,4h1.5l0-1c0.4-0.6,0.7-1.4,0.8-2.4C82,56.7,80.4,56.4,79,56z"/>
					<path class="st10" d="M96.2,52.8h-1.5c-1.3,0-2.3,1.9-2.3,4.2c0,2.3,1,4.2,2.3,4.2h1.5c1.3,0,2.3-1.9,2.3-4.2
						C98.5,54.7,97.5,52.8,96.2,52.8z M96.4,60.2c-0.9,0-1.6-1.4-1.6-3.2c0-1.8,0.7-3.2,1.6-3.2c0.9,0,1.6,1.4,1.6,3.2
						C98,58.8,97.3,60.2,96.4,60.2z"/>
					<path class="st10" d="M127.5,54.8l-6,0.4c-0.6,0-1.2-0.4-1.2-1.1c0-0.6,0.5-1.2,1.1-1.2l6-0.4c0.6,0,1.2,0.4,1.2,1.1
						C128.7,54.2,128.2,54.7,127.5,54.8z"/>
					<path class="st10" d="M86.9,48.6h-5.7L80.8,49h6.1V48.6z"/>
					<path class="st10" d="M79.6,48.6V49h7.3l0-0.4H79.6z M79.4,50.4h7.3V50h-7.3V50.4z M79.2,51.9h7.3v-0.4h-7.3V51.9z M79,53.3
						h7.3v-0.4H79V53.3z"/>
					<path class="st10" d="M86.5,51.5h-7.3l0,0.4h7.3L86.5,51.5z"/>
					<path class="st10" d="M111.6,51.3h-2.1V33.7l1.1-0.1l-3-0.8h-1.8c-1.1-0.3-1.5-0.2-1.5-0.2c-0.3,0-0.5,0-0.9,0
						c-1.9,0.5-3.6,1.5-4.5,3c-3.2,0-6.6,0.3-8.6,0.9c0.7-0.7,1.6-1.5,2.6-2.2c0,0,0,0,0,0c-3.5,1.2-5.3,3.8-5.8,4.9
						c-0.9,0.2-1.3,0.3-1.3,0.3l-1,2.7l0.7,0l-0.8,2.5V43H84l-0.4,0.4v2.5c-1.5,0.4-3.2,1.1-4.5,1.8c4.6-1,9.2-0.2,9.2-0.2
						s-1.1,6-1.2,6.9c-6.7,0.5-8.7-0.1-8.7-0.1c-0.1-1.3,0-2.4,0.1-3.4c-0.1,0.1-0.2,0.2-0.3,0.3c0,0,0,0,0,0c0,0.1-0.1,0.1-0.1,0.2
						c0,0,0,0,0,0c0,0.1-0.1,0.1-0.1,0.2c0,0,0,0,0,0.1c0,0.1-0.1,0.1-0.1,0.2c0,0,0,0.1,0,0.1c0,0.1-0.1,0.1-0.1,0.2
						c0,0,0,0.1-0.1,0.1c0,0.1-0.1,0.1-0.1,0.2c0,0,0,0.1-0.1,0.1c0,0.1-0.1,0.2-0.1,0.3c0,0,0,0.1,0,0.1c0,0.1-0.1,0.3-0.1,0.4
						l0.4,0.4L77,54.1v3.5c0,0,10.9,1.1,16,0.3v0.3h1.8c-0.1-0.4-0.1-0.7-0.1-1.1c0-1.8,0.7-3.2,1.6-3.2c0.9,0,1.6,1.4,1.6,3.2
						c0,0.4,0,0.8-0.1,1.1H99l13.8-1.1v-5.3h-1.1L111.6,51.3L111.6,51.3z M106.1,34.2c1.6,0.3,1.8,2.4,1.8,2.4c-2.1-4.2-5.8,0-5.8,0
						C102.8,35.3,104.4,33.8,106.1,34.2z M99.3,45.9C99.3,45.9,99.3,45.9,99.3,45.9C99.3,45.9,99.3,45.9,99.3,45.9
						c0.5-0.1,0.7,0.2,0.8,0.4l1-1.1l-1.8,0.1l0.8-4.1l3.2,0.3v3.6l-1.8,0.1l-1.5,1.7l0,0c-0.1,0.2-0.3,0.4-0.5,0.4
						c-0.1,0-0.2,0-0.2,0c0,0-0.1,0-0.1-0.1L99.3,45.9z M98.5,40.3l-1,4.4c0,0-0.3,0.8-2.1,0.7c0,0-2.6,0-5.6,0l1.3-4.5L98.5,40.3z
						 M84.7,45.6l1.3-4.3l4.3-0.3L89,45.4C87.5,45.4,85.9,45.5,84.7,45.6z M91.5,53.4c-0.3,0.1-1.9,0.3-3.5,0.6c0,0,0-1,0.6-1.6
						c1-0.6,2.7-1.3,3.2-1C92.2,51.8,91.8,53.4,91.5,53.4z M88.2,52.3c0,0,1.5-3.1,9.5-4c0,0,2.7-0.2,4.9,0.3
						C102.7,48.5,91.2,49.7,88.2,52.3z M99,54.8l-0.3-0.4l10-0.8l1.2,0.6L99,54.8z"/>
					<path class="st10" d="M112.3,34.1v16.5h-2V34.3L112.3,34.1z M113.1,33.2l-3.5,0.4v17.7h3.5V33.2z"/>
					<path class="st10" d="M86.7,50.4V50h-7.1l-0.2,0.2v0.2H86.7z"/>
					<path class="st10" d="M86.2,52.9H79v0.4h7.3V52.9z"/>
					<path class="st10" d="M102.3,41.6h-1.4v3.6h1.4V41.6z"/>
					<path class="st10" d="M100.4,44.9l0.5,0.2v-3.6l-0.5,0.2V44.9z"/>
					<path class="st10" d="M137.5,46.6l-6.5-1.9l6.7,0.9l0.1-0.7l-23.1-8.3l23.7,4.9l0.2-0.9l-25.5-7.4l-0.2,17l23.2,0.3l-0.6,2.8
						l0.8,0L137.5,46.6z"/>
				</g>
			</g>
			<path class="st10" d="M147.4,36.2v6.9c0,0.7,0.2,1.2,0.5,1.6c0.3,0.4,0.8,0.6,1.5,0.6c0.7,0,1.2-0.2,1.5-0.6
				c0.4-0.4,0.5-0.9,0.5-1.6v-6.9h2.8v6.9c0,1-0.2,1.9-0.7,2.6c-0.4,0.7-1,1.2-1.8,1.6c-0.7,0.4-1.6,0.5-2.5,0.5
				c-0.9,0-1.7-0.2-2.5-0.5c-0.7-0.4-1.3-0.9-1.7-1.6c-0.4-0.7-0.6-1.6-0.6-2.6v-6.9H147.4z"/>
			<path class="st10" d="M166.4,47.7h-2.8l-4.7-7.1v7.1H156V36.2h2.8l4.7,7.1v-7.1h2.8V47.7z"/>
			<path class="st10" d="M171,36.2v11.5h-2.8V36.2H171z"/>
			<path class="st10" d="M181.1,36.2v2.2H178v9.3h-2.8v-9.3h-3.1v-2.2H181.1z"/>
			<path class="st10" d="M185,38.4v2.3h3.8v2.2H185v2.5h4.3v2.2h-7.1V36.2h7.1v2.2H185z"/>
			<path class="st10" d="M195.2,36.2c1.2,0,2.3,0.2,3.2,0.7c0.9,0.5,1.6,1.2,2.1,2c0.5,0.9,0.8,1.9,0.8,3c0,1.1-0.3,2.1-0.8,3
				c-0.5,0.9-1.2,1.6-2.1,2c-0.9,0.5-2,0.7-3.2,0.7h-4.4V36.2H195.2z M195,45.3c1.1,0,1.9-0.3,2.5-0.9c0.6-0.6,0.9-1.4,0.9-2.5
				s-0.3-1.9-0.9-2.5c-0.6-0.6-1.4-0.9-2.5-0.9h-1.3v6.7H195z"/>
			<path class="st10" d="M210,47.8c-0.9,0-1.6-0.1-2.3-0.4c-0.7-0.3-1.2-0.7-1.6-1.2c-0.4-0.5-0.6-1.2-0.6-1.9h3
				c0,0.4,0.2,0.8,0.4,1c0.3,0.2,0.6,0.3,1,0.3c0.4,0,0.8-0.1,1-0.3c0.2-0.2,0.4-0.5,0.4-0.8c0-0.3-0.1-0.5-0.3-0.7
				c-0.2-0.2-0.4-0.3-0.7-0.5c-0.3-0.1-0.7-0.3-1.2-0.4c-0.8-0.2-1.4-0.5-1.8-0.7c-0.5-0.2-0.9-0.6-1.2-1c-0.3-0.4-0.5-1-0.5-1.8
				c0-1.1,0.4-1.9,1.2-2.5c0.8-0.6,1.8-0.9,3.1-0.9c1.3,0,2.3,0.3,3.1,0.9c0.8,0.6,1.2,1.4,1.3,2.5H211c0-0.4-0.2-0.7-0.4-0.9
				c-0.3-0.2-0.6-0.3-1-0.3c-0.3,0-0.6,0.1-0.8,0.3c-0.2,0.2-0.3,0.4-0.3,0.8c0,0.4,0.2,0.7,0.5,0.9c0.4,0.2,0.9,0.4,1.7,0.7
				c0.8,0.3,1.4,0.5,1.8,0.7c0.5,0.2,0.9,0.6,1.2,1c0.3,0.4,0.5,1,0.5,1.7c0,0.7-0.2,1.3-0.5,1.8c-0.3,0.5-0.8,1-1.5,1.3
				C211.6,47.7,210.9,47.8,210,47.8z"/>
			<path class="st10" d="M224,36.2v2.2H221v9.3h-2.8v-9.3H215v-2.2H224z"/>
			<path class="st10" d="M232.4,45.7H228l-0.7,2h-3l4.2-11.5h3.3l4.2,11.5h-3L232.4,45.7z M231.7,43.5l-1.4-4.2l-1.4,4.2H231.7z"/>
			<path class="st10" d="M245.4,36.2v2.2h-3.1v9.3h-2.8v-9.3h-3.1v-2.2H245.4z"/>
			<path class="st10" d="M249.4,38.4v2.3h3.8v2.2h-3.8v2.5h4.3v2.2h-7.1V36.2h7.1v2.2H249.4z"/>
			<path class="st10" d="M259.4,47.8c-0.9,0-1.6-0.1-2.3-0.4c-0.7-0.3-1.2-0.7-1.6-1.2c-0.4-0.5-0.6-1.2-0.6-1.9h3
				c0,0.4,0.2,0.8,0.4,1c0.3,0.2,0.6,0.3,1,0.3c0.4,0,0.8-0.1,1-0.3c0.2-0.2,0.4-0.5,0.4-0.8c0-0.3-0.1-0.5-0.3-0.7
				c-0.2-0.2-0.4-0.3-0.7-0.5c-0.3-0.1-0.7-0.3-1.2-0.4c-0.8-0.2-1.4-0.5-1.8-0.7c-0.5-0.2-0.9-0.6-1.2-1c-0.3-0.4-0.5-1-0.5-1.8
				c0-1.1,0.4-1.9,1.2-2.5c0.8-0.6,1.8-0.9,3.1-0.9c1.3,0,2.3,0.3,3.1,0.9c0.8,0.6,1.2,1.4,1.3,2.5h-3.1c0-0.4-0.2-0.7-0.4-0.9
				c-0.3-0.2-0.6-0.3-1-0.3c-0.3,0-0.6,0.1-0.8,0.3c-0.2,0.2-0.3,0.4-0.3,0.8c0,0.4,0.2,0.7,0.5,0.9c0.4,0.2,0.9,0.4,1.7,0.7
				c0.8,0.3,1.4,0.5,1.8,0.7c0.5,0.2,0.9,0.6,1.2,1c0.3,0.4,0.5,1,0.5,1.7c0,0.7-0.2,1.3-0.5,1.8c-0.3,0.5-0.8,1-1.5,1.3
				C261,47.7,260.3,47.8,259.4,47.8z"/>
			<path class="st10" d="M147.1,56.9c0.3,0,0.5,0.2,0.7,0.4c0.2,0.2,0.3,0.5,0.3,0.8c0,0.2-0.1,0.5-0.2,0.7
				c-0.1,0.2-0.3,0.4-0.5,0.5c-0.2,0.1-0.5,0.2-0.8,0.2h-1.9v-4.9h1.8c0.3,0,0.6,0.1,0.8,0.2c0.2,0.1,0.4,0.3,0.5,0.5
				c0.1,0.2,0.2,0.4,0.2,0.6c0,0.3-0.1,0.5-0.2,0.7C147.6,56.7,147.4,56.9,147.1,56.9z M145.4,56.6h1c0.3,0,0.5-0.1,0.6-0.2
				c0.1-0.1,0.2-0.3,0.2-0.5c0-0.2-0.1-0.4-0.2-0.5c-0.1-0.1-0.3-0.2-0.6-0.2h-1V56.6z M146.4,58.8c0.3,0,0.5-0.1,0.6-0.2
				c0.2-0.1,0.2-0.3,0.2-0.5c0-0.2-0.1-0.4-0.2-0.6c-0.2-0.1-0.4-0.2-0.6-0.2h-1v1.5H146.4z"/>
			<path class="st10" d="M149.7,55.2v1.4h1.7v0.6h-1.7v1.5h1.9v0.6h-2.7v-4.9h2.7v0.6H149.7z"/>
			<path class="st10" d="M154,59.5c-0.3,0-0.6-0.1-0.9-0.2c-0.3-0.1-0.5-0.3-0.6-0.5c-0.1-0.2-0.2-0.5-0.2-0.7h0.8
				c0,0.2,0.1,0.4,0.2,0.5c0.1,0.1,0.4,0.2,0.6,0.2c0.3,0,0.5-0.1,0.6-0.2c0.2-0.1,0.2-0.3,0.2-0.5c0-0.2,0-0.3-0.1-0.4
				c-0.1-0.1-0.2-0.2-0.4-0.2c-0.1-0.1-0.3-0.1-0.6-0.2c-0.3-0.1-0.6-0.2-0.8-0.3c-0.2-0.1-0.4-0.2-0.5-0.4
				c-0.1-0.2-0.2-0.4-0.2-0.7c0-0.3,0.1-0.5,0.2-0.7c0.1-0.2,0.3-0.4,0.6-0.5c0.2-0.1,0.5-0.2,0.9-0.2c0.5,0,0.8,0.1,1.1,0.4
				c0.3,0.2,0.5,0.6,0.5,1h-0.9c0-0.2-0.1-0.3-0.2-0.5c-0.2-0.1-0.4-0.2-0.6-0.2c-0.2,0-0.4,0.1-0.6,0.2c-0.1,0.1-0.2,0.3-0.2,0.5
				c0,0.1,0,0.3,0.1,0.4c0.1,0.1,0.2,0.2,0.3,0.2c0.1,0.1,0.3,0.1,0.6,0.2c0.3,0.1,0.6,0.2,0.8,0.3c0.2,0.1,0.4,0.2,0.5,0.4
				c0.1,0.2,0.2,0.4,0.2,0.7c0,0.2-0.1,0.5-0.2,0.7c-0.1,0.2-0.3,0.4-0.6,0.5C154.7,59.4,154.4,59.5,154,59.5z"/>
			<path class="st10" d="M159.6,54.6v0.6h-1.3v4.2h-0.8v-4.2h-1.3v-0.6H159.6z"/>
			<path class="st10" d="M161.9,57c0-0.5,0.1-0.9,0.3-1.3c0.2-0.4,0.5-0.7,0.9-0.9c0.4-0.2,0.8-0.3,1.2-0.3c0.5,0,1,0.1,1.4,0.4
				c0.4,0.3,0.7,0.6,0.9,1.1h-0.9c-0.1-0.3-0.3-0.4-0.5-0.6c-0.2-0.1-0.5-0.2-0.8-0.2c-0.3,0-0.6,0.1-0.9,0.2
				c-0.2,0.1-0.4,0.4-0.6,0.6c-0.1,0.3-0.2,0.6-0.2,0.9c0,0.4,0.1,0.7,0.2,0.9c0.1,0.3,0.3,0.5,0.6,0.6c0.2,0.1,0.5,0.2,0.9,0.2
				c0.3,0,0.5-0.1,0.8-0.2c0.2-0.1,0.4-0.3,0.5-0.6h0.9c-0.2,0.5-0.5,0.8-0.9,1.1c-0.4,0.3-0.9,0.4-1.4,0.4c-0.5,0-0.9-0.1-1.2-0.3
				c-0.4-0.2-0.7-0.5-0.9-0.9C162,57.9,161.9,57.5,161.9,57z"/>
			<path class="st10" d="M170.3,58.4h-2l-0.3,1h-0.8l1.7-4.9h0.9l1.7,4.9h-0.8L170.3,58.4z M170.1,57.8l-0.8-2.3l-0.8,2.3H170.1z"/>
			<path class="st10" d="M174.7,59.4l-1.1-1.9H173v1.9h-0.8v-4.9h1.7c0.4,0,0.7,0.1,0.9,0.2c0.3,0.1,0.4,0.3,0.6,0.5
				c0.1,0.2,0.2,0.5,0.2,0.7c0,0.3-0.1,0.6-0.3,0.9c-0.2,0.3-0.5,0.4-0.8,0.5l1.2,2H174.7z M173,56.9h0.9c0.3,0,0.5-0.1,0.7-0.2
				c0.2-0.1,0.2-0.3,0.2-0.6c0-0.3-0.1-0.4-0.2-0.6c-0.1-0.1-0.4-0.2-0.7-0.2H173V56.9z"/>
			<path class="st10" d="M179.8,59.5c-0.3,0-0.6-0.1-0.9-0.2c-0.3-0.1-0.5-0.3-0.6-0.5c-0.1-0.2-0.2-0.5-0.2-0.7h0.8
				c0,0.2,0.1,0.4,0.2,0.5c0.1,0.1,0.4,0.2,0.6,0.2c0.3,0,0.5-0.1,0.6-0.2c0.2-0.1,0.2-0.3,0.2-0.5c0-0.2,0-0.3-0.1-0.4
				c-0.1-0.1-0.2-0.2-0.4-0.2c-0.1-0.1-0.3-0.1-0.6-0.2c-0.3-0.1-0.6-0.2-0.8-0.3c-0.2-0.1-0.4-0.2-0.5-0.4
				c-0.1-0.2-0.2-0.4-0.2-0.7c0-0.3,0.1-0.5,0.2-0.7c0.1-0.2,0.3-0.4,0.6-0.5c0.2-0.1,0.5-0.2,0.9-0.2c0.5,0,0.8,0.1,1.1,0.4
				c0.3,0.2,0.5,0.6,0.5,1h-0.9c0-0.2-0.1-0.3-0.2-0.5c-0.2-0.1-0.4-0.2-0.6-0.2c-0.2,0-0.4,0.1-0.6,0.2c-0.1,0.1-0.2,0.3-0.2,0.5
				c0,0.1,0,0.3,0.1,0.4c0.1,0.1,0.2,0.2,0.3,0.2c0.1,0.1,0.3,0.1,0.6,0.2c0.3,0.1,0.6,0.2,0.8,0.3c0.2,0.1,0.4,0.2,0.5,0.4
				c0.1,0.2,0.2,0.4,0.2,0.7c0,0.2-0.1,0.5-0.2,0.7c-0.1,0.2-0.3,0.4-0.6,0.5C180.4,59.4,180.1,59.5,179.8,59.5z"/>
			<path class="st10" d="M186.2,54.6v4.9h-0.8v-2.1h-2.3v2.1h-0.8v-4.9h0.8v2.1h2.3v-2.1H186.2z"/>
			<path class="st10" d="M187.9,54.6v4.9h-0.8v-4.9H187.9z"/>
			<path class="st10" d="M192.3,56c0,0.2-0.1,0.5-0.2,0.7c-0.1,0.2-0.3,0.4-0.6,0.5c-0.3,0.1-0.6,0.2-1,0.2h-0.9v2h-0.8v-4.9h1.7
				c0.4,0,0.7,0.1,0.9,0.2c0.3,0.1,0.4,0.3,0.6,0.5C192.2,55.5,192.3,55.8,192.3,56z M190.6,56.8c0.3,0,0.5-0.1,0.7-0.2
				c0.1-0.1,0.2-0.3,0.2-0.6c0-0.5-0.3-0.8-0.9-0.8h-0.9v1.6H190.6z"/>
			<path class="st10" d="M196.3,56c0,0.2-0.1,0.5-0.2,0.7c-0.1,0.2-0.3,0.4-0.6,0.5c-0.3,0.1-0.6,0.2-1,0.2h-0.9v2h-0.8v-4.9h1.7
				c0.4,0,0.7,0.1,0.9,0.2c0.3,0.1,0.4,0.3,0.6,0.5C196.2,55.5,196.3,55.8,196.3,56z M194.6,56.8c0.3,0,0.5-0.1,0.7-0.2
				c0.1-0.1,0.2-0.3,0.2-0.6c0-0.5-0.3-0.8-0.9-0.8h-0.9v1.6H194.6z"/>
			<path class="st10" d="M197.8,54.6v4.9H197v-4.9H197.8z"/>
			<path class="st10" d="M202.7,59.4h-0.8l-2.4-3.6v3.6h-0.8v-4.9h0.8l2.4,3.6v-3.6h0.8V59.4z"/>
			<path class="st10" d="M207.2,56c-0.1-0.2-0.3-0.4-0.5-0.5c-0.2-0.1-0.5-0.2-0.8-0.2c-0.3,0-0.6,0.1-0.9,0.2
				c-0.2,0.1-0.4,0.3-0.6,0.6c-0.1,0.3-0.2,0.6-0.2,0.9s0.1,0.7,0.2,0.9c0.1,0.3,0.3,0.5,0.6,0.6c0.2,0.1,0.5,0.2,0.9,0.2
				c0.4,0,0.8-0.1,1-0.4s0.4-0.6,0.5-1h-1.8v-0.6h2.6v0.6c-0.1,0.4-0.2,0.7-0.4,1c-0.2,0.3-0.5,0.6-0.8,0.8
				c-0.3,0.2-0.7,0.3-1.1,0.3c-0.5,0-0.9-0.1-1.2-0.3c-0.4-0.2-0.7-0.5-0.9-0.9c-0.2-0.4-0.3-0.8-0.3-1.3c0-0.5,0.1-0.9,0.3-1.3
				c0.2-0.4,0.5-0.7,0.9-0.9c0.4-0.2,0.8-0.3,1.2-0.3c0.5,0,1,0.1,1.4,0.4c0.4,0.3,0.7,0.6,0.9,1.1H207.2z"/>
		</g>
		<path class="st25" d="M167.2,76.4c-1-10.9-3-22.7-9.9-20.2c-9,3.1-6.3,2.9-5.3,7.1c1.9,9.1,7,25.9,5,43.6c5.7,1.3,8.7,1.4,9.5,1.3
			C167.7,94.3,167.9,83.7,167.2,76.4z"/>
		<path class="st24" d="M180,46.5c-0.9,1.9-2.3,3.4-4.1,4.4l0.1,3l0.4,0.4c1.7,1.8-0.1,5.5-2.1,5.4c-4.9,0.2-8.6-3.7-7.2-5.9
			l0.6-0.7l0.1-4.2c-0.3,0-2.1-1-2.6-1.2c-0.8-0.5-1.4-1.4-1.4-2.3c-0.1-1.1,1.7-0.7,1.7-0.7c-2.1-2.8-4.4-5.1-1.4-7.7
			c3.1-2.5,10.1-4,10.1-4l4.2-1.5c-0.5,1.4,0.2,6.3,1.3,9.3C180.8,43.4,181.4,43.8,180,46.5"/>
		<path class="st26" d="M170,49.4c0,0,2.4,4.1,4.3,4.4c2,0.4,1,0.1,1.7,0l-0.1-3C174.6,51.1,173.3,51,170,49.4"/>
		<path class="st25" d="M155.9,96.1c-3.1-4.1-14.7-11.4-14.3-12.7c2.6-6.6,9.3-6,12.1-11.6c2.3-4.6,5.8-16.4,0.6-14.4
			c-9.1,3.5-25.2,18.3-26.2,23.6s18.5,18,23.2,18.6c2.3,0.3,2.9,0.4,4.1-0.5C156.1,98.6,157.1,97.6,155.9,96.1L155.9,96.1z"/>
		<path d="M175.8,27.2c-1.5,0-2.9,0.7-3.7,1.9c-6.6,0.4-12.1,4.5-12.2,10.6c-0.1,3.3,1.8,7.4,6.3,8.5h0.3c-0.2-0.1-0.4-0.3-0.6-0.4
			c-0.6-0.4-1-1.7-0.2-2.3c0.4-0.3,1.4,0.1,2,0.4c1.3,0.6,0.8,0,0.5-0.8c-1.1-2.7-1.2-4.4-0.2-5.6c2-2.4,6.1-0.3,9.7-2.1
			c0.3-0.2,0.6-0.4,0.9-0.5c1.3-1.1,2.1-2.7,2.1-4.4C180.6,29.6,178.4,27.2,175.8,27.2L175.8,27.2z"/>
		<path class="st24" d="M154.3,95.3l1.6,0.8c1.7-0.1,1.9,0.7,3.7,0.5c0.9-0.1,2.3,0.1,2.8-0.1c0.8-0.3,0.7,0.7,0.4,1.1
			c-1,1.1-2.1,0.9-2.7,1.2c0.1,0.3,1.7,2.2,2.8,3.6c0.6,0.8,0.8,2.1,0.5,2.3c-2.1,1.7-5.3,0.3-6-0.3c-0.9-0.8-1.8-2.7-5.2-4.1
			C150,98.7,153.1,95.6,154.3,95.3"/>
	</g>
</g>
</svg>
