<svg xmlns="http://www.w3.org/2000/svg" xmlns:xlink="http://www.w3.org/1999/xlink" width="277" zoomAndPan="magnify" viewBox="0 0 207.75 207.000001" height="276" preserveAspectRatio="xMidYMid meet" version="1.0"><defs><clipPath id="322c11cb0f"><path d="M 0.375 149 L 45 149 L 45 169 L 0.375 169 Z M 0.375 149 " clip-rule="nonzero"/></clipPath><clipPath id="34c3c37df8"><path d="M 0.375 134 L 8 134 L 8 146 L 0.375 146 Z M 0.375 134 " clip-rule="nonzero"/></clipPath><clipPath id="525d6148bb"><path d="M 35 112 L 62 112 L 62 124 L 35 124 Z M 35 112 " clip-rule="nonzero"/></clipPath><clipPath id="a8fe271100"><path d="M 44.472656 112.996094 C 46.035156 112.707031 49.730469 113.113281 52.675781 113.917969 C 55.621094 114.726562 60.066406 116.109375 60.585938 116.339844 C 61.105469 116.574219 61.796875 117.496094 60.46875 117.957031 C 59.140625 118.417969 41.585938 123.492188 40.953125 123.667969 C 40.316406 123.839844 40.085938 123.207031 39.625 122.398438 C 39.160156 121.589844 36.101562 117.320312 35.695312 116.628906 C 35.234375 115.996094 35.121094 115.707031 35.464844 115.476562 C 35.695312 115.304688 40.085938 113.746094 44.472656 112.996094 Z M 44.472656 112.996094 " clip-rule="nonzero"/></clipPath><linearGradient x1="-115.226997" gradientTransform="matrix(25.972458, 0, 0, -10.791625, 3040.986072, 5159.923359)" y1="467.69742" x2="-115.226997" gradientUnits="userSpaceOnUse" y2="466.665931" id="2923c77341"><stop stop-opacity="1" stop-color="rgb(76.899719%, 76.899719%, 83.499146%)" offset="0"/><stop stop-opacity="1" stop-color="rgb(77.070618%, 77.070618%, 83.621216%)" offset="0.03125"/><stop stop-opacity="1" stop-color="rgb(77.427673%, 77.427673%, 83.876038%)" offset="0.046875"/><stop stop-opacity="1" stop-color="rgb(77.799988%, 77.799988%, 84.141541%)" offset="0.0625"/><stop stop-opacity="1" stop-color="rgb(78.172302%, 78.172302%, 84.408569%)" offset="0.078125"/><stop stop-opacity="1" stop-color="rgb(78.544617%, 78.544617%, 84.674072%)" offset="0.09375"/><stop stop-opacity="1" stop-color="rgb(78.916931%, 78.916931%, 84.939575%)" offset="0.109375"/><stop stop-opacity="1" stop-color="rgb(79.289246%, 79.289246%, 85.206604%)" offset="0.125"/><stop stop-opacity="1" stop-color="rgb(79.66156%, 79.66156%, 85.472107%)" offset="0.140625"/><stop stop-opacity="1" stop-color="rgb(80.033875%, 80.033875%, 85.73761%)" offset="0.15625"/><stop stop-opacity="1" stop-color="rgb(80.406189%, 80.406189%, 86.003113%)" offset="0.171875"/><stop stop-opacity="1" stop-color="rgb(80.778503%, 80.778503%, 86.270142%)" offset="0.1875"/><stop stop-opacity="1" stop-color="rgb(81.150818%, 81.150818%, 86.535645%)" offset="0.203125"/><stop stop-opacity="1" stop-color="rgb(81.523132%, 81.523132%, 86.801147%)" offset="0.21875"/><stop stop-opacity="1" stop-color="rgb(81.895447%, 81.895447%, 87.068176%)" offset="0.234375"/><stop stop-opacity="1" stop-color="rgb(82.267761%, 82.267761%, 87.333679%)" offset="0.25"/><stop stop-opacity="1" stop-color="rgb(82.640076%, 82.640076%, 87.599182%)" offset="0.265625"/><stop stop-opacity="1" stop-color="rgb(83.01239%, 83.01239%, 87.864685%)" offset="0.28125"/><stop stop-opacity="1" stop-color="rgb(83.384705%, 83.384705%, 88.131714%)" offset="0.296875"/><stop stop-opacity="1" stop-color="rgb(83.757019%, 83.757019%, 88.397217%)" offset="0.3125"/><stop stop-opacity="1" stop-color="rgb(84.129333%, 84.129333%, 88.66272%)" offset="0.328125"/><stop stop-opacity="1" stop-color="rgb(84.501648%, 84.501648%, 88.928223%)" offset="0.34375"/><stop stop-opacity="1" stop-color="rgb(84.873962%, 84.873962%, 89.195251%)" offset="0.359375"/><stop stop-opacity="1" stop-color="rgb(85.246277%, 85.246277%, 89.460754%)" offset="0.375"/><stop stop-opacity="1" stop-color="rgb(85.618591%, 85.618591%, 89.726257%)" offset="0.390625"/><stop stop-opacity="1" stop-color="rgb(85.990906%, 85.990906%, 89.993286%)" offset="0.40625"/><stop stop-opacity="1" stop-color="rgb(86.36322%, 86.36322%, 90.258789%)" offset="0.421875"/><stop stop-opacity="1" stop-color="rgb(86.735535%, 86.735535%, 90.524292%)" offset="0.4375"/><stop stop-opacity="1" stop-color="rgb(87.107849%, 87.107849%, 90.789795%)" offset="0.453125"/><stop stop-opacity="1" stop-color="rgb(87.480164%, 87.480164%, 91.056824%)" offset="0.46875"/><stop stop-opacity="1" stop-color="rgb(87.852478%, 87.852478%, 91.322327%)" offset="0.484375"/><stop stop-opacity="1" stop-color="rgb(88.224792%, 88.224792%, 91.58783%)" offset="0.5"/><stop stop-opacity="1" stop-color="rgb(88.597107%, 88.597107%, 91.854858%)" offset="0.515625"/><stop stop-opacity="1" stop-color="rgb(88.969421%, 88.969421%, 92.120361%)" offset="0.53125"/><stop stop-opacity="1" stop-color="rgb(89.341736%, 89.341736%, 92.385864%)" offset="0.546875"/><stop stop-opacity="1" stop-color="rgb(89.71405%, 89.71405%, 92.651367%)" offset="0.5625"/><stop stop-opacity="1" stop-color="rgb(90.086365%, 90.086365%, 92.918396%)" offset="0.578125"/><stop stop-opacity="1" stop-color="rgb(90.458679%, 90.458679%, 93.183899%)" offset="0.59375"/><stop stop-opacity="1" stop-color="rgb(90.830994%, 90.830994%, 93.449402%)" offset="0.609375"/><stop stop-opacity="1" stop-color="rgb(91.203308%, 91.203308%, 93.716431%)" offset="0.625"/><stop stop-opacity="1" stop-color="rgb(91.575623%, 91.575623%, 93.981934%)" offset="0.640625"/><stop stop-opacity="1" stop-color="rgb(91.947937%, 91.947937%, 94.247437%)" offset="0.65625"/><stop stop-opacity="1" stop-color="rgb(92.318726%, 92.318726%, 94.512939%)" offset="0.671875"/><stop stop-opacity="1" stop-color="rgb(92.69104%, 92.69104%, 94.779968%)" offset="0.6875"/><stop stop-opacity="1" stop-color="rgb(93.063354%, 93.063354%, 95.045471%)" offset="0.703125"/><stop stop-opacity="1" stop-color="rgb(93.435669%, 93.435669%, 95.310974%)" offset="0.71875"/><stop stop-opacity="1" stop-color="rgb(93.807983%, 93.807983%, 95.576477%)" offset="0.734375"/><stop stop-opacity="1" stop-color="rgb(94.180298%, 94.180298%, 95.843506%)" offset="0.75"/><stop stop-opacity="1" stop-color="rgb(94.552612%, 94.552612%, 96.109009%)" offset="0.765625"/><stop stop-opacity="1" stop-color="rgb(94.924927%, 94.924927%, 96.374512%)" offset="0.78125"/><stop stop-opacity="1" stop-color="rgb(95.297241%, 95.297241%, 96.641541%)" offset="0.796875"/><stop stop-opacity="1" stop-color="rgb(95.669556%, 95.669556%, 96.907043%)" offset="0.8125"/><stop stop-opacity="1" stop-color="rgb(96.04187%, 96.04187%, 97.172546%)" offset="0.828125"/><stop stop-opacity="1" stop-color="rgb(96.414185%, 96.414185%, 97.438049%)" offset="0.84375"/><stop stop-opacity="1" stop-color="rgb(96.786499%, 96.786499%, 97.705078%)" offset="0.859375"/><stop stop-opacity="1" stop-color="rgb(97.158813%, 97.158813%, 97.970581%)" offset="0.875"/><stop stop-opacity="1" stop-color="rgb(97.531128%, 97.531128%, 98.236084%)" offset="0.890625"/><stop stop-opacity="1" stop-color="rgb(97.903442%, 97.903442%, 98.503113%)" offset="0.90625"/><stop stop-opacity="1" stop-color="rgb(98.275757%, 98.275757%, 98.768616%)" offset="0.921875"/><stop stop-opacity="1" stop-color="rgb(98.648071%, 98.648071%, 99.034119%)" offset="0.9375"/><stop stop-opacity="1" stop-color="rgb(99.020386%, 99.020386%, 99.299622%)" offset="0.953125"/><stop stop-opacity="1" stop-color="rgb(99.3927%, 99.3927%, 99.56665%)" offset="0.96875"/><stop stop-opacity="1" stop-color="rgb(99.765015%, 99.765015%, 99.832153%)" offset="0.984375"/><stop stop-opacity="1" stop-color="rgb(99.975586%, 99.975586%, 99.981689%)" offset="1"/></linearGradient><clipPath id="e48db74f9d"><path d="M 18 116 L 38 116 L 38 131 L 18 131 Z M 18 116 " clip-rule="nonzero"/></clipPath><clipPath id="9832569e82"><path d="M 31.710938 116.746094 C 31.308594 116.917969 22.300781 120.378906 21.433594 120.839844 C 20.335938 121.476562 19.527344 122.457031 19.238281 123.667969 C 18.835938 125.050781 18.429688 128.339844 18.605469 129.144531 C 18.777344 129.953125 19.125 130.355469 19.875 130.125 C 20.566406 129.894531 35.8125 125.28125 36.332031 125.109375 C 36.792969 124.992188 37.3125 124.648438 36.851562 123.953125 C 36.449219 123.261719 33.097656 117.785156 32.867188 117.320312 C 32.519531 116.859375 32.347656 116.515625 31.710938 116.746094 Z M 31.710938 116.746094 " clip-rule="nonzero"/></clipPath><linearGradient x1="-114.162003" gradientTransform="matrix(18.469153, 0, 0, -13.5186, 2136.262314, 6485.999202)" y1="471.164509" x2="-114.162003" gradientUnits="userSpaceOnUse" y2="470.140571" id="2bec65eeb1"><stop stop-opacity="1" stop-color="rgb(76.899719%, 76.899719%, 83.499146%)" offset="0"/><stop stop-opacity="1" stop-color="rgb(76.939392%, 76.939392%, 83.528137%)" offset="0.015625"/><stop stop-opacity="1" stop-color="rgb(77.165222%, 77.165222%, 83.688354%)" offset="0.03125"/><stop stop-opacity="1" stop-color="rgb(77.534485%, 77.534485%, 83.952332%)" offset="0.046875"/><stop stop-opacity="1" stop-color="rgb(77.903748%, 77.903748%, 84.216309%)" offset="0.0625"/><stop stop-opacity="1" stop-color="rgb(78.27301%, 78.27301%, 84.480286%)" offset="0.078125"/><stop stop-opacity="1" stop-color="rgb(78.642273%, 78.642273%, 84.744263%)" offset="0.09375"/><stop stop-opacity="1" stop-color="rgb(79.013062%, 79.013062%, 85.00824%)" offset="0.109375"/><stop stop-opacity="1" stop-color="rgb(79.382324%, 79.382324%, 85.272217%)" offset="0.125"/><stop stop-opacity="1" stop-color="rgb(79.751587%, 79.751587%, 85.536194%)" offset="0.140625"/><stop stop-opacity="1" stop-color="rgb(80.12085%, 80.12085%, 85.800171%)" offset="0.15625"/><stop stop-opacity="1" stop-color="rgb(80.491638%, 80.491638%, 86.064148%)" offset="0.171875"/><stop stop-opacity="1" stop-color="rgb(80.860901%, 80.860901%, 86.328125%)" offset="0.1875"/><stop stop-opacity="1" stop-color="rgb(81.230164%, 81.230164%, 86.592102%)" offset="0.203125"/><stop stop-opacity="1" stop-color="rgb(81.599426%, 81.599426%, 86.856079%)" offset="0.21875"/><stop stop-opacity="1" stop-color="rgb(81.968689%, 81.968689%, 87.120056%)" offset="0.234375"/><stop stop-opacity="1" stop-color="rgb(82.339478%, 82.339478%, 87.384033%)" offset="0.25"/><stop stop-opacity="1" stop-color="rgb(82.70874%, 82.70874%, 87.64801%)" offset="0.265625"/><stop stop-opacity="1" stop-color="rgb(83.078003%, 83.078003%, 87.911987%)" offset="0.28125"/><stop stop-opacity="1" stop-color="rgb(83.447266%, 83.447266%, 88.175964%)" offset="0.296875"/><stop stop-opacity="1" stop-color="rgb(83.816528%, 83.816528%, 88.439941%)" offset="0.3125"/><stop stop-opacity="1" stop-color="rgb(84.187317%, 84.187317%, 88.703918%)" offset="0.328125"/><stop stop-opacity="1" stop-color="rgb(84.55658%, 84.55658%, 88.967896%)" offset="0.34375"/><stop stop-opacity="1" stop-color="rgb(84.925842%, 84.925842%, 89.231873%)" offset="0.359375"/><stop stop-opacity="1" stop-color="rgb(85.295105%, 85.295105%, 89.49585%)" offset="0.375"/><stop stop-opacity="1" stop-color="rgb(85.664368%, 85.664368%, 89.759827%)" offset="0.390625"/><stop stop-opacity="1" stop-color="rgb(86.035156%, 86.035156%, 90.023804%)" offset="0.40625"/><stop stop-opacity="1" stop-color="rgb(86.404419%, 86.404419%, 90.287781%)" offset="0.421875"/><stop stop-opacity="1" stop-color="rgb(86.773682%, 86.773682%, 90.551758%)" offset="0.4375"/><stop stop-opacity="1" stop-color="rgb(87.142944%, 87.142944%, 90.815735%)" offset="0.453125"/><stop stop-opacity="1" stop-color="rgb(87.512207%, 87.512207%, 91.079712%)" offset="0.46875"/><stop stop-opacity="1" stop-color="rgb(87.882996%, 87.882996%, 91.343689%)" offset="0.484375"/><stop stop-opacity="1" stop-color="rgb(88.252258%, 88.252258%, 91.607666%)" offset="0.5"/><stop stop-opacity="1" stop-color="rgb(88.621521%, 88.621521%, 91.871643%)" offset="0.515625"/><stop stop-opacity="1" stop-color="rgb(88.990784%, 88.990784%, 92.13562%)" offset="0.53125"/><stop stop-opacity="1" stop-color="rgb(89.360046%, 89.360046%, 92.399597%)" offset="0.546875"/><stop stop-opacity="1" stop-color="rgb(89.730835%, 89.730835%, 92.663574%)" offset="0.5625"/><stop stop-opacity="1" stop-color="rgb(90.100098%, 90.100098%, 92.927551%)" offset="0.578125"/><stop stop-opacity="1" stop-color="rgb(90.46936%, 90.46936%, 93.191528%)" offset="0.59375"/><stop stop-opacity="1" stop-color="rgb(90.838623%, 90.838623%, 93.455505%)" offset="0.609375"/><stop stop-opacity="1" stop-color="rgb(91.209412%, 91.209412%, 93.719482%)" offset="0.625"/><stop stop-opacity="1" stop-color="rgb(91.578674%, 91.578674%, 93.983459%)" offset="0.640625"/><stop stop-opacity="1" stop-color="rgb(91.947937%, 91.947937%, 94.247437%)" offset="0.65625"/><stop stop-opacity="1" stop-color="rgb(92.3172%, 92.3172%, 94.511414%)" offset="0.671875"/><stop stop-opacity="1" stop-color="rgb(92.686462%, 92.686462%, 94.775391%)" offset="0.6875"/><stop stop-opacity="1" stop-color="rgb(93.057251%, 93.057251%, 95.039368%)" offset="0.703125"/><stop stop-opacity="1" stop-color="rgb(93.426514%, 93.426514%, 95.303345%)" offset="0.71875"/><stop stop-opacity="1" stop-color="rgb(93.795776%, 93.795776%, 95.567322%)" offset="0.734375"/><stop stop-opacity="1" stop-color="rgb(94.165039%, 94.165039%, 95.831299%)" offset="0.75"/><stop stop-opacity="1" stop-color="rgb(94.534302%, 94.534302%, 96.095276%)" offset="0.765625"/><stop stop-opacity="1" stop-color="rgb(94.90509%, 94.90509%, 96.359253%)" offset="0.78125"/><stop stop-opacity="1" stop-color="rgb(95.274353%, 95.274353%, 96.62323%)" offset="0.796875"/><stop stop-opacity="1" stop-color="rgb(95.643616%, 95.643616%, 96.887207%)" offset="0.8125"/><stop stop-opacity="1" stop-color="rgb(96.012878%, 96.012878%, 97.151184%)" offset="0.828125"/><stop stop-opacity="1" stop-color="rgb(96.382141%, 96.382141%, 97.415161%)" offset="0.84375"/><stop stop-opacity="1" stop-color="rgb(96.75293%, 96.75293%, 97.679138%)" offset="0.859375"/><stop stop-opacity="1" stop-color="rgb(97.122192%, 97.122192%, 97.943115%)" offset="0.875"/><stop stop-opacity="1" stop-color="rgb(97.491455%, 97.491455%, 98.207092%)" offset="0.890625"/><stop stop-opacity="1" stop-color="rgb(97.860718%, 97.860718%, 98.471069%)" offset="0.90625"/><stop stop-opacity="1" stop-color="rgb(98.22998%, 98.22998%, 98.735046%)" offset="0.921875"/><stop stop-opacity="1" stop-color="rgb(98.600769%, 98.600769%, 98.999023%)" offset="0.9375"/><stop stop-opacity="1" stop-color="rgb(98.970032%, 98.970032%, 99.263%)" offset="0.953125"/><stop stop-opacity="1" stop-color="rgb(99.339294%, 99.339294%, 99.526978%)" offset="0.96875"/><stop stop-opacity="1" stop-color="rgb(99.708557%, 99.708557%, 99.790955%)" offset="0.984375"/><stop stop-opacity="1" stop-color="rgb(99.946594%, 99.946594%, 99.961853%)" offset="1"/></linearGradient><clipPath id="e855ae427a"><path d="M 6 123 L 15 123 L 15 134 L 6 134 Z M 6 123 " clip-rule="nonzero"/></clipPath><clipPath id="cd78739617"><path d="M 12.25 130.585938 C 12.019531 131.394531 11.039062 131.855469 9.941406 132.375 C 9.191406 132.722656 7.402344 133.527344 6.363281 133.992188 C 6.535156 131.855469 7.113281 127.589844 8.09375 125.453125 L 13.234375 123.667969 C 13.753906 123.492188 14.792969 123.261719 14.503906 124.648438 C 14.214844 126.03125 12.484375 129.78125 12.25 130.585938 Z M 12.25 130.585938 " clip-rule="nonzero"/></clipPath><linearGradient x1="-109.532997" gradientTransform="matrix(8.192049, 0, 0, -10.455259, 907.756469, 5007.465072)" y1="467.152667" x2="-109.532997" gradientUnits="userSpaceOnUse" y2="466.126607" id="0178f8ffda"><stop stop-opacity="1" stop-color="rgb(88.598633%, 88.598633%, 93.699646%)" offset="0"/><stop stop-opacity="1" stop-color="rgb(88.635254%, 88.635254%, 93.719482%)" offset="0.03125"/><stop stop-opacity="1" stop-color="rgb(88.85498%, 88.85498%, 93.840027%)" offset="0.0625"/><stop stop-opacity="1" stop-color="rgb(89.219666%, 89.219666%, 94.042969%)" offset="0.09375"/><stop stop-opacity="1" stop-color="rgb(89.585876%, 89.585876%, 94.244385%)" offset="0.125"/><stop stop-opacity="1" stop-color="rgb(89.950562%, 89.950562%, 94.445801%)" offset="0.15625"/><stop stop-opacity="1" stop-color="rgb(90.316772%, 90.316772%, 94.648743%)" offset="0.1875"/><stop stop-opacity="1" stop-color="rgb(90.682983%, 90.682983%, 94.850159%)" offset="0.21875"/><stop stop-opacity="1" stop-color="rgb(91.047668%, 91.047668%, 95.053101%)" offset="0.25"/><stop stop-opacity="1" stop-color="rgb(91.413879%, 91.413879%, 95.254517%)" offset="0.28125"/><stop stop-opacity="1" stop-color="rgb(91.778564%, 91.778564%, 95.455933%)" offset="0.3125"/><stop stop-opacity="1" stop-color="rgb(92.144775%, 92.144775%, 95.658875%)" offset="0.34375"/><stop stop-opacity="1" stop-color="rgb(92.50946%, 92.50946%, 95.860291%)" offset="0.375"/><stop stop-opacity="1" stop-color="rgb(92.875671%, 92.875671%, 96.061707%)" offset="0.40625"/><stop stop-opacity="1" stop-color="rgb(93.240356%, 93.240356%, 96.264648%)" offset="0.4375"/><stop stop-opacity="1" stop-color="rgb(93.606567%, 93.606567%, 96.466064%)" offset="0.46875"/><stop stop-opacity="1" stop-color="rgb(93.972778%, 93.972778%, 96.669006%)" offset="0.5"/><stop stop-opacity="1" stop-color="rgb(94.337463%, 94.337463%, 96.870422%)" offset="0.53125"/><stop stop-opacity="1" stop-color="rgb(94.703674%, 94.703674%, 97.071838%)" offset="0.5625"/><stop stop-opacity="1" stop-color="rgb(95.068359%, 95.068359%, 97.27478%)" offset="0.59375"/><stop stop-opacity="1" stop-color="rgb(95.43457%, 95.43457%, 97.476196%)" offset="0.625"/><stop stop-opacity="1" stop-color="rgb(95.799255%, 95.799255%, 97.679138%)" offset="0.65625"/><stop stop-opacity="1" stop-color="rgb(96.165466%, 96.165466%, 97.880554%)" offset="0.6875"/><stop stop-opacity="1" stop-color="rgb(96.531677%, 96.531677%, 98.08197%)" offset="0.71875"/><stop stop-opacity="1" stop-color="rgb(96.896362%, 96.896362%, 98.284912%)" offset="0.75"/><stop stop-opacity="1" stop-color="rgb(97.262573%, 97.262573%, 98.486328%)" offset="0.78125"/><stop stop-opacity="1" stop-color="rgb(97.627258%, 97.627258%, 98.687744%)" offset="0.8125"/><stop stop-opacity="1" stop-color="rgb(97.993469%, 97.993469%, 98.890686%)" offset="0.84375"/><stop stop-opacity="1" stop-color="rgb(98.358154%, 98.358154%, 99.092102%)" offset="0.875"/><stop stop-opacity="1" stop-color="rgb(98.724365%, 98.724365%, 99.295044%)" offset="0.90625"/><stop stop-opacity="1" stop-color="rgb(99.08905%, 99.08905%, 99.49646%)" offset="0.9375"/><stop stop-opacity="1" stop-color="rgb(99.455261%, 99.455261%, 99.697876%)" offset="0.96875"/><stop stop-opacity="1" stop-color="rgb(99.81842%, 99.81842%, 99.899292%)" offset="1"/></linearGradient><clipPath id="f99974a6d2"><path d="M 85 131 L 117 131 L 117 205.855469 L 85 205.855469 Z M 85 131 " clip-rule="nonzero"/></clipPath><clipPath id="35566b9452"><path d="M 85 131 L 108 131 L 108 205.855469 L 85 205.855469 Z M 85 131 " clip-rule="nonzero"/></clipPath><clipPath id="8f990299a8"><path d="M 85 198 L 117 198 L 117 205.855469 L 85 205.855469 Z M 85 198 " clip-rule="nonzero"/></clipPath></defs><g clip-path="url(#322c11cb0f)"><path fill="#000000" d="M 44.847656 151.523438 L 43.984375 149.449219 L 0.789062 166.171875 L 1.65625 168.25 Z M 44.847656 151.523438 " fill-opacity="1" fill-rule="nonzero"/></g><path fill="#363636" d="M 3.417969 138.605469 L 7.746094 136.933594 L 8.613281 139.238281 L 4.28125 140.910156 Z M 3.417969 138.605469 " fill-opacity="1" fill-rule="nonzero"/><g clip-path="url(#34c3c37df8)"><path fill="#000000" d="M 1.28125 135.085938 L 3.300781 134.277344 C 3.820312 134.046875 4.457031 134.335938 4.6875 134.914062 L 7.691406 142.757812 C 7.921875 143.277344 7.632812 143.910156 7.054688 144.140625 L 5.035156 144.949219 C 4.511719 145.179688 3.878906 144.890625 3.648438 144.316406 L 0.644531 136.46875 C 0.472656 135.894531 0.761719 135.257812 1.28125 135.085938 Z M 1.28125 135.085938 " fill-opacity="1" fill-rule="nonzero"/></g><path fill="#a2384d" d="M 90.84375 123.320312 C 90.84375 123.320312 89.402344 126.722656 86.746094 127.644531 L 26.6875 148.753906 C 24.261719 149.621094 13.8125 151.695312 12.828125 151.523438 C 11.847656 151.234375 10.921875 150.660156 10.230469 149.910156 C 9.480469 148.582031 8.785156 147.257812 8.152344 145.871094 C 7.921875 145.179688 8.671875 143.621094 8.210938 142.585938 L 5.726562 136.644531 C 5.496094 136.066406 6.363281 135.605469 6.304688 135.316406 C 6.246094 134.972656 6.882812 127.414062 8.382812 124.992188 C 9.882812 122.570312 30.671875 115.304688 37.660156 113.398438 C 44.648438 111.496094 49.210938 111.671875 54.636719 112.882812 C 60.125 114.09375 63.53125 114.84375 64.222656 114.84375 C 64.972656 114.84375 71.613281 113.226562 75.601562 112.707031 C 79.527344 112.1875 81.777344 112.074219 82.527344 112.304688 C 83.28125 112.535156 84.953125 112.996094 86.800781 115.417969 C 86.800781 115.417969 87.785156 115.476562 88.128906 115.824219 C 88.476562 116.054688 90.785156 120.378906 90.84375 123.320312 Z M 90.84375 123.320312 " fill-opacity="1" fill-rule="nonzero"/><path fill="#8c263e" d="M 88.074219 115.648438 C 88.074219 115.648438 88.128906 115.648438 88.128906 115.707031 C 88.476562 116.054688 90.785156 120.4375 90.84375 123.320312 C 90.84375 123.320312 89.402344 126.722656 86.746094 127.644531 L 26.6875 148.753906 C 24.261719 149.621094 13.8125 151.695312 12.828125 151.523438 C 11.847656 151.234375 10.921875 150.660156 10.230469 149.910156 C 9.480469 148.582031 8.785156 147.257812 8.152344 145.871094 C 7.921875 145.179688 8.671875 143.621094 8.210938 142.585938 L 6.535156 138.605469 Z M 88.074219 115.648438 " fill-opacity="1" fill-rule="nonzero"/><path stroke-linecap="butt" transform="matrix(0.577466, 0, 0, 0.576759, 0.586879, 111.842954)" fill-opacity="1" fill="#000000" fill-rule="nonzero" stroke-linejoin="miter" d="M 36.397972 47.302321 C 34.00335 45.101174 29.897318 40.102879 28.801475 36.899365 C 27.698866 33.797442 29.897318 19.50015 32.298704 16.60141 C 34.402454 14.102262 36.600906 13.303077 43.000093 10.702338 C 44.102701 10.302745 45.300012 9.801561 46.700257 9.198786 C 56.299037 5.297677 69.800914 1.802934 72.702871 1.200159 C 76.700672 0.502565 80.698472 0.502565 84.703037 1.098567 C 90.297252 1.999344 95.796765 3.198122 101.201574 4.999676 C 106.59962 6.801229 108.202799 7.702006 110.198317 10.898748 C 112.302066 14.102262 117.098074 26.997593 119.100356 34.197034 L 118.701253 34.298626 C 116.597503 27.099184 111.902963 14.298672 109.799213 11.101931 C 107.796931 7.898416 106.200516 7.099231 100.99864 5.399269 C 95.600595 3.699306 90.101083 2.398937 84.500103 1.599751 C 80.597005 0.996976 76.599205 0.996976 72.702871 1.701343 C 70.700589 2.100935 63.800831 3.902489 56.596673 6.198454 C 57.503112 7.600415 63.597897 16.703001 69.09741 26.198408 C 75.097493 36.398181 79.501161 48.7991 79.501161 48.900691 L 79.102058 49.002283 C 79.102058 48.900691 74.596922 36.499772 68.698306 26.299999 C 63.097327 16.703001 56.901074 7.498823 56.19757 6.300045 C 52.997976 7.302413 49.696916 8.501192 46.700257 9.69997 C 45.300012 10.302745 44.102701 10.702338 43.000093 11.196749 C 36.600906 13.702669 34.497156 14.596674 32.400171 17.001003 C 29.998785 19.798151 27.9018 33.899033 28.902942 37.000956 C 29.998785 40.102879 34.00335 44.999583 36.397972 47.302321 Z M 36.397972 47.302321 " stroke="#000000" stroke-width="0.4" stroke-opacity="1" stroke-miterlimit="4"/><path fill="#0035a3" d="M 74.792969 114.09375 C 74.15625 114.265625 73.519531 114.378906 72.886719 114.496094 C 71.960938 114.667969 71.09375 114.898438 70.230469 115.1875 C 69.652344 115.359375 69.304688 115.476562 69.132812 115.417969 C 68.957031 115.359375 68.726562 115.359375 68.554688 115.359375 C 67.574219 115.246094 65.898438 115.128906 65.089844 114.554688 L 65.4375 114.496094 C 66.246094 114.898438 67.746094 115.074219 68.613281 115.128906 C 68.84375 115.128906 69.015625 115.1875 69.246094 115.1875 C 69.59375 115.1875 69.882812 115.074219 70.230469 114.957031 C 71.09375 114.667969 72.019531 114.4375 72.941406 114.265625 C 73.519531 114.148438 74.15625 113.976562 74.847656 113.863281 C 76.871094 113.34375 78.890625 112.996094 80.96875 112.824219 C 82.472656 112.765625 83.570312 112.765625 84.320312 112.824219 C 84.433594 112.882812 84.550781 112.996094 84.722656 113.054688 C 83.511719 112.996094 82.242188 112.996094 81.027344 113.054688 C 78.832031 113.226562 76.8125 113.574219 74.792969 114.09375 Z M 74.792969 114.09375 " fill-opacity="1" fill-rule="nonzero"/><path fill="#000000" d="M 18.316406 138.777344 C 24.148438 136.757812 30.613281 138.949219 33.558594 143.796875 L 69.480469 131.164062 C 68.207031 125.742188 71.382812 120.089844 77.214844 118.070312 C 81.664062 116.457031 86.6875 117.378906 90.265625 120.496094 C 90.554688 121.417969 90.730469 122.398438 90.785156 123.378906 C 90.785156 123.378906 89.34375 126.78125 86.6875 127.703125 L 71.789062 132.953125 L 70.285156 133.472656 L 34.601562 146.042969 L 33.214844 146.507812 L 26.628906 148.8125 C 24.207031 149.679688 13.753906 151.753906 12.769531 151.582031 C 11.789062 151.292969 10.921875 150.773438 10.230469 150.082031 C 10.058594 145.238281 13.117188 140.625 18.316406 138.777344 Z M 18.316406 138.777344 " fill-opacity="1" fill-rule="nonzero"/><path fill="#4d4d4d" d="M 89.921875 124.878906 C 89.226562 125.914062 88.128906 127.183594 86.6875 127.644531 L 73.289062 132.375 C 73.175781 132.203125 73.117188 131.972656 73 131.796875 C 71.152344 127.414062 73.578125 122.457031 78.371094 120.78125 C 82.875 119.226562 87.84375 121.011719 89.921875 124.878906 Z M 89.921875 124.878906 " fill-opacity="1" fill-rule="nonzero"/><path fill="#2b2b2b" d="M 13.753906 151.523438 C 12.65625 147.429688 15.023438 143.101562 19.414062 141.546875 C 24.207031 139.875 29.574219 142.066406 31.367188 146.449219 C 31.421875 146.679688 31.539062 146.851562 31.597656 147.082031 L 26.628906 148.8125 C 24.609375 149.503906 16.582031 151.179688 13.753906 151.523438 Z M 13.753906 151.523438 " fill-opacity="1" fill-rule="nonzero"/><path fill="#404040" d="M 88.445312 125.828125 C 88.605469 126.25 88.71875 126.683594 88.789062 127.128906 C 88.855469 127.578125 88.878906 128.027344 88.851562 128.484375 C 88.824219 128.941406 88.75 129.394531 88.628906 129.839844 C 88.503906 130.289062 88.339844 130.722656 88.128906 131.144531 C 87.917969 131.566406 87.664062 131.96875 87.371094 132.347656 C 87.078125 132.730469 86.75 133.082031 86.386719 133.40625 C 86.023438 133.730469 85.628906 134.019531 85.210938 134.273438 C 84.789062 134.527344 84.351562 134.742188 83.890625 134.917969 C 83.429688 135.09375 82.957031 135.226562 82.476562 135.320312 C 81.992188 135.410156 81.507812 135.457031 81.019531 135.457031 C 80.53125 135.457031 80.054688 135.414062 79.582031 135.328125 C 79.109375 135.242188 78.652344 135.109375 78.214844 134.9375 C 77.773438 134.765625 77.359375 134.550781 76.96875 134.300781 C 76.578125 134.046875 76.222656 133.761719 75.894531 133.4375 C 75.570312 133.117188 75.285156 132.765625 75.035156 132.390625 C 74.789062 132.011719 74.582031 131.609375 74.421875 131.191406 C 74.261719 130.769531 74.144531 130.335938 74.078125 129.886719 C 74.007812 129.441406 73.988281 128.988281 74.015625 128.53125 C 74.042969 128.078125 74.117188 127.625 74.238281 127.175781 C 74.359375 126.730469 74.527344 126.292969 74.738281 125.871094 C 74.949219 125.449219 75.203125 125.050781 75.496094 124.667969 C 75.789062 124.289062 76.117188 123.9375 76.480469 123.613281 C 76.84375 123.289062 77.234375 123 77.65625 122.746094 C 78.074219 122.492188 78.515625 122.273438 78.976562 122.097656 C 79.4375 121.921875 79.910156 121.789062 80.390625 121.699219 C 80.875 121.609375 81.359375 121.5625 81.847656 121.5625 C 82.332031 121.558594 82.8125 121.601562 83.285156 121.691406 C 83.757812 121.777344 84.214844 121.90625 84.652344 122.082031 C 85.09375 122.253906 85.507812 122.464844 85.898438 122.71875 C 86.289062 122.972656 86.644531 123.257812 86.96875 123.578125 C 87.296875 123.902344 87.582031 124.25 87.828125 124.628906 C 88.078125 125.007812 88.28125 125.40625 88.445312 125.828125 Z M 88.445312 125.828125 " fill-opacity="1" fill-rule="nonzero"/><path fill="#eeeeee" d="M 76.929688 130.414062 C 77.910156 132.835938 80.914062 134.046875 83.511719 133.125 C 86.167969 132.203125 87.496094 129.492188 86.457031 127.070312 C 85.472656 124.648438 82.472656 123.4375 79.871094 124.359375 C 77.214844 125.28125 75.886719 127.992188 76.929688 130.414062 Z M 76.929688 130.414062 " fill-opacity="1" fill-rule="nonzero"/><path fill="#000000" d="M 30.269531 149.851562 C 30.269531 150.34375 30.21875 150.832031 30.125 151.3125 C 30.027344 151.796875 29.886719 152.265625 29.695312 152.71875 C 29.507812 153.175781 29.277344 153.609375 29.003906 154.015625 C 28.730469 154.425781 28.417969 154.804688 28.070312 155.152344 C 27.722656 155.5 27.34375 155.8125 26.933594 156.085938 C 26.523438 156.359375 26.089844 156.589844 25.632812 156.777344 C 25.179688 156.96875 24.710938 157.109375 24.226562 157.207031 C 23.742188 157.300781 23.253906 157.347656 22.761719 157.347656 C 22.269531 157.347656 21.78125 157.300781 21.296875 157.207031 C 20.8125 157.109375 20.34375 156.96875 19.890625 156.777344 C 19.433594 156.589844 19 156.359375 18.589844 156.085938 C 18.179688 155.8125 17.800781 155.5 17.453125 155.152344 C 17.105469 154.804688 16.792969 154.425781 16.519531 154.015625 C 16.246094 153.609375 16.015625 153.175781 15.824219 152.71875 C 15.636719 152.265625 15.496094 151.796875 15.398438 151.3125 C 15.300781 150.832031 15.253906 150.34375 15.253906 149.851562 C 15.253906 149.359375 15.300781 148.871094 15.398438 148.386719 C 15.496094 147.90625 15.636719 147.4375 15.824219 146.980469 C 16.015625 146.527344 16.246094 146.09375 16.519531 145.6875 C 16.792969 145.277344 17.105469 144.898438 17.453125 144.550781 C 17.800781 144.203125 18.179688 143.890625 18.589844 143.617188 C 19 143.34375 19.433594 143.113281 19.890625 142.925781 C 20.34375 142.734375 20.8125 142.59375 21.296875 142.496094 C 21.78125 142.402344 22.269531 142.351562 22.761719 142.351562 C 23.253906 142.351562 23.742188 142.402344 24.226562 142.496094 C 24.710938 142.59375 25.179688 142.734375 25.632812 142.925781 C 26.089844 143.113281 26.523438 143.34375 26.933594 143.617188 C 27.34375 143.890625 27.722656 144.203125 28.070312 144.550781 C 28.417969 144.898438 28.730469 145.277344 29.003906 145.6875 C 29.277344 146.09375 29.507812 146.527344 29.695312 146.980469 C 29.886719 147.4375 30.027344 147.90625 30.125 148.386719 C 30.21875 148.871094 30.269531 149.359375 30.269531 149.851562 Z M 30.269531 149.851562 " fill-opacity="1" fill-rule="nonzero"/><path fill="#a0a0a0" d="M 17.96875 151.464844 C 18.949219 154.003906 21.953125 155.273438 24.550781 154.292969 C 27.148438 153.3125 28.535156 150.484375 27.496094 147.949219 C 26.515625 145.410156 23.511719 144.140625 20.914062 145.121094 C 18.316406 146.101562 16.988281 148.929688 17.96875 151.464844 Z M 17.96875 151.464844 " fill-opacity="1" fill-rule="nonzero"/><path fill="#ffffff" d="M 76.8125 113.398438 C 77.042969 113.34375 80.679688 112.304688 83.570312 112.824219 C 84.664062 113.457031 85.648438 114.324219 86.398438 115.304688 C 85.070312 115.359375 83.683594 115.304688 82.355469 115.074219 C 80.105469 114.726562 76.523438 113.515625 76.8125 113.398438 Z M 76.8125 113.398438 " fill-opacity="1" fill-rule="nonzero"/><path fill="#fec937" d="M 5.726562 136.644531 C 5.496094 136.066406 6.363281 135.605469 6.304688 135.316406 L 6.304688 135.257812 L 9.59375 134.105469 C 10.058594 133.933594 10.289062 133.992188 10.347656 134.507812 C 10.402344 134.972656 8.5 139.238281 7.976562 142.179688 Z M 5.726562 136.644531 " fill-opacity="1" fill-rule="nonzero"/><g clip-path="url(#525d6148bb)"><g clip-path="url(#a8fe271100)"><path fill="url(#2923c77341)" d="M 35.121094 123.839844 L 35.121094 112.707031 L 61.796875 112.707031 L 61.796875 123.839844 Z M 35.121094 123.839844 " fill-rule="nonzero"/></g></g><g clip-path="url(#e48db74f9d)"><g clip-path="url(#9832569e82)"><path fill="url(#2bec65eeb1)" d="M 18.429688 130.355469 L 18.429688 116.515625 L 37.3125 116.515625 L 37.3125 130.355469 Z M 18.429688 130.355469 " fill-rule="nonzero"/></g></g><g clip-path="url(#e855ae427a)"><g clip-path="url(#cd78739617)"><path fill="url(#0178f8ffda)" d="M 6.363281 133.992188 L 6.363281 123.261719 L 14.792969 123.261719 L 14.792969 133.992188 Z M 6.363281 133.992188 " fill-rule="nonzero"/></g></g><path fill="#c7c8ca" d="M 38.554688 169.921875 C 38.554688 170.960938 76.207031 171.824219 122.691406 171.824219 C 169.175781 171.824219 206.828125 170.960938 206.828125 169.921875 C 206.828125 168.882812 169.175781 168.019531 122.691406 168.019531 C 76.207031 168.019531 38.554688 168.882812 38.554688 169.921875 Z M 38.554688 169.921875 " fill-opacity="0.303" fill-rule="nonzero"/><path fill="#2b2b2b" d="M 167.792969 121.820312 C 167.847656 122.109375 167.675781 122.398438 167.445312 122.511719 L 167.386719 122.511719 L 163.34375 123.4375 L 163.34375 145.007812 L 185.636719 145.007812 C 190.890625 145.007812 194.585938 146.851562 194.703125 152.042969 L 194.703125 152.390625 C 194.585938 157.40625 191.003906 159.367188 185.867188 159.425781 L 77.128906 159.425781 L 77.128906 153.195312 L 62.578125 153.195312 L 62.578125 158.273438 L 51.605469 158.273438 L 51.605469 153.195312 L 45.601562 153.195312 L 45.601562 150.082031 L 77.015625 150.082031 L 77.015625 147.71875 L 78.804688 147.71875 C 89.488281 147.71875 143.882812 147.773438 156.183594 147.773438 L 158.609375 147.773438 L 162.074219 145.007812 L 162.074219 122.972656 C 162.074219 122.742188 162.246094 122.511719 162.480469 122.398438 L 162.535156 122.398438 L 167.039062 121.359375 C 167.386719 121.300781 167.675781 121.476562 167.792969 121.820312 Z M 167.792969 121.820312 " fill-opacity="1" fill-rule="nonzero"/><path fill="#686868" d="M 158.957031 92.289062 L 158.957031 150.484375 L 46.984375 150.484375 L 44.964844 156.3125 L 38.957031 156.3125 L 38.957031 150.484375 L 38.902344 150.484375 L 38.902344 92.289062 Z M 158.957031 92.289062 " fill-opacity="1" fill-rule="nonzero"/><path fill="#000000" d="M 173.914062 150.714844 L 174.085938 150.714844 C 179.339844 150.832031 183.613281 155.101562 183.613281 160.347656 L 183.613281 160.519531 C 183.441406 165.769531 179.167969 169.980469 173.914062 169.980469 L 173.738281 169.980469 C 168.484375 169.863281 164.210938 165.597656 164.210938 160.347656 C 164.210938 154.984375 168.542969 150.714844 173.914062 150.714844 Z M 76.378906 150.714844 L 76.550781 150.714844 C 80.074219 150.773438 83.136719 152.734375 84.808594 155.5625 L 150.351562 155.5625 L 150.351562 158.273438 L 130.371094 158.273438 L 130.371094 160.636719 L 118.589844 160.636719 L 118.589844 158.273438 L 85.847656 158.273438 C 85.964844 158.90625 86.082031 159.539062 86.082031 160.175781 L 86.082031 160.519531 C 85.90625 165.769531 81.632812 169.980469 76.378906 169.980469 L 76.207031 169.980469 C 70.894531 169.863281 66.675781 165.597656 66.675781 160.347656 C 66.675781 154.984375 71.007812 150.714844 76.378906 150.714844 Z M 205.558594 158.214844 C 206.25 158.214844 206.828125 158.734375 206.886719 159.425781 L 206.886719 159.65625 C 206.828125 160.40625 206.25 160.984375 205.558594 160.984375 L 187.773438 160.984375 C 187.078125 160.984375 186.5 160.464844 186.445312 159.773438 L 186.445312 159.539062 C 186.445312 158.792969 187.019531 158.214844 187.773438 158.214844 Z M 61.941406 157.175781 C 62.867188 157.175781 63.617188 157.925781 63.617188 158.847656 L 63.617188 158.964844 C 63.675781 159.886719 62.867188 160.636719 61.941406 160.636719 L 51.605469 160.636719 C 50.679688 160.636719 49.929688 159.886719 49.929688 158.964844 L 49.929688 158.847656 C 49.929688 157.925781 50.679688 157.175781 51.605469 157.175781 Z M 45.023438 155.503906 C 45.3125 155.503906 45.601562 155.734375 45.601562 156.082031 L 45.601562 160.058594 C 45.601562 160.347656 45.367188 160.636719 45.023438 160.636719 L 39.074219 160.636719 C 38.785156 160.636719 38.496094 160.40625 38.496094 160.058594 L 38.496094 156.082031 C 38.496094 155.792969 38.726562 155.503906 39.074219 155.503906 Z M 45.023438 155.503906 " fill-opacity="1" fill-rule="nonzero"/><path fill="#e6e6e6" d="M 60.152344 152.792969 L 61.308594 152.792969 L 61.308594 157.117188 L 60.152344 157.117188 Z M 60.152344 152.792969 " fill-opacity="1" fill-rule="nonzero"/><path fill="#e6e6e6" d="M 52.703125 152.792969 L 53.859375 152.792969 L 53.859375 157.117188 L 52.703125 157.117188 Z M 52.703125 152.792969 " fill-opacity="1" fill-rule="nonzero"/><path fill="#545454" d="M 145.269531 154.40625 L 159.765625 154.40625 L 159.765625 160.636719 L 145.269531 160.636719 Z M 145.269531 154.40625 " fill-opacity="1" fill-rule="nonzero"/><path fill="#545454" d="M 118.589844 153.601562 L 130.371094 153.601562 L 130.371094 157.117188 L 118.589844 157.117188 Z M 118.589844 153.601562 " fill-opacity="1" fill-rule="nonzero"/><path fill="#a2384d" d="M 167.675781 113.746094 L 195.222656 113.746094 L 200.246094 122.109375 L 204.980469 136.527344 L 205.039062 158.273438 L 187.65625 158.273438 C 187.65625 149.273438 179.398438 148.871094 179.398438 148.871094 L 164.902344 148.871094 L 164.902344 116.976562 C 164.847656 115.359375 166 113.746094 167.675781 113.746094 Z M 167.675781 113.746094 " fill-opacity="1" fill-rule="nonzero"/><path fill="#ffffff" d="M 170.738281 138.71875 L 175.066406 138.71875 L 175.066406 145.757812 L 170.738281 145.757812 Z M 170.738281 138.71875 " fill-opacity="0.593" fill-rule="nonzero"/><path fill="#ffffff" d="M 199.667969 157.117188 L 194.46875 157.117188 C 193.71875 157.117188 193.140625 156.542969 193.140625 155.792969 L 193.140625 155.675781 C 193.140625 154.925781 193.71875 154.351562 194.46875 154.351562 L 199.667969 154.351562 C 200.417969 154.351562 200.996094 154.925781 200.996094 155.675781 L 200.996094 155.792969 C 200.9375 156.542969 200.359375 157.117188 199.667969 157.117188 Z M 199.667969 157.117188 " fill-opacity="1" fill-rule="nonzero"/><path fill="#af455e" d="M 204.921875 155.90625 L 204.863281 155.90625 C 204.460938 155.90625 204.113281 155.5625 204.113281 155.15625 L 204.113281 144.140625 C 204.113281 143.738281 204.460938 143.390625 204.863281 143.390625 L 204.921875 143.390625 C 205.328125 143.390625 205.671875 143.738281 205.671875 144.140625 L 205.671875 155.15625 C 205.671875 155.617188 205.328125 155.90625 204.921875 155.90625 Z M 204.921875 155.90625 " fill-opacity="1" fill-rule="nonzero"/><path fill="#af455e" d="M 195.222656 113.746094 C 195.222656 113.746094 192.160156 98.808594 164.617188 98.867188 C 164.617188 98.867188 163.863281 109.765625 165.019531 111.785156 C 165.019531 111.785156 165.945312 113.746094 167.039062 113.746094 Z M 195.222656 113.746094 " fill-opacity="1" fill-rule="nonzero"/><path fill="#ffffff" d="M 197.125 140.277344 L 193.429688 140.277344 C 193.027344 140.277344 192.738281 139.988281 192.738281 139.585938 L 192.738281 139.410156 C 192.738281 139.007812 193.027344 138.71875 193.429688 138.71875 L 197.125 138.71875 C 197.53125 138.71875 197.820312 139.007812 197.820312 139.410156 L 197.820312 139.585938 C 197.820312 139.988281 197.53125 140.277344 197.125 140.277344 Z M 197.125 140.277344 " fill-opacity="0.593" fill-rule="nonzero"/><path fill="#1d1d1d" d="M 170.390625 116.457031 L 170.390625 129.722656 C 170.390625 129.722656 172.875 133.933594 197.589844 137.046875 C 197.589844 137.046875 196.320312 121.878906 188.234375 116.457031 Z M 170.390625 116.457031 " fill-opacity="1" fill-rule="nonzero"/><path fill="#1d1d1d" d="M 195.164062 113.976562 C 195.164062 113.976562 204.980469 121.648438 204.980469 137.796875 C 204.980469 137.796875 203.421875 137.914062 203.304688 137.164062 C 201.804688 124.359375 196.375 117.957031 195.164062 113.976562 Z M 195.164062 113.976562 " fill-opacity="1" fill-rule="nonzero"/><path fill="#71b0e0" d="M 167.617188 160.347656 C 167.617188 163.808594 170.449219 166.636719 173.914062 166.636719 C 177.378906 166.636719 180.207031 163.867188 180.207031 160.347656 C 180.207031 156.886719 177.378906 154.0625 173.914062 154.0625 C 170.449219 154.0625 167.617188 156.886719 167.617188 160.347656 Z M 167.617188 160.347656 " fill-opacity="1" fill-rule="nonzero"/><path fill="#71b0e0" d="M 172.066406 160.347656 C 172.066406 161.386719 172.875 162.195312 173.914062 162.195312 C 174.953125 162.195312 175.761719 161.386719 175.761719 160.347656 C 175.761719 159.308594 174.953125 158.503906 173.914062 158.503906 C 172.875 158.503906 172.066406 159.308594 172.066406 160.347656 Z M 172.066406 160.347656 " fill-opacity="1" fill-rule="nonzero"/><path fill="#2b2b2b" d="M 167.617188 160.347656 C 167.617188 163.808594 170.449219 166.636719 173.914062 166.636719 C 177.378906 166.636719 180.207031 163.867188 180.207031 160.347656 C 180.207031 156.886719 177.378906 154.0625 173.914062 154.0625 C 170.449219 154.0625 167.617188 156.886719 167.617188 160.347656 Z M 167.617188 160.347656 " fill-opacity="1" fill-rule="nonzero"/><path fill="#000000" d="M 172.066406 160.347656 C 172.066406 161.386719 172.875 162.195312 173.914062 162.195312 C 174.953125 162.195312 175.761719 161.386719 175.761719 160.347656 C 175.761719 159.308594 174.953125 158.503906 173.914062 158.503906 C 172.875 158.503906 172.066406 159.308594 172.066406 160.347656 Z M 172.066406 160.347656 " fill-opacity="1" fill-rule="nonzero"/><path fill="#333333" d="M 90.238281 160.347656 C 90.238281 165.65625 94.570312 169.980469 99.9375 169.980469 C 105.253906 169.980469 109.582031 165.65625 109.640625 160.347656 C 109.640625 155.042969 105.308594 150.714844 99.9375 150.714844 C 94.570312 150.714844 90.238281 154.984375 90.238281 160.347656 Z M 90.238281 160.347656 " fill-opacity="1" fill-rule="nonzero"/><path fill="#71b0e0" d="M 93.585938 160.347656 C 93.585938 163.808594 96.417969 166.636719 99.882812 166.636719 C 103.347656 166.636719 106.175781 163.867188 106.175781 160.347656 C 106.175781 156.886719 103.347656 154.0625 99.882812 154.0625 C 96.417969 154.0625 93.585938 156.886719 93.585938 160.347656 Z M 93.585938 160.347656 " fill-opacity="1" fill-rule="nonzero"/><path fill="#e6e6e6" d="M 98.035156 160.347656 C 98.035156 161.386719 98.84375 162.195312 99.882812 162.195312 C 100.921875 162.195312 101.730469 161.386719 101.730469 160.347656 C 101.730469 159.308594 100.921875 158.503906 99.882812 158.503906 C 98.898438 158.503906 98.035156 159.308594 98.035156 160.347656 Z M 98.035156 160.347656 " fill-opacity="1" fill-rule="nonzero"/><path fill="#2b2b2b" d="M 70.085938 160.347656 C 70.085938 163.808594 72.914062 166.636719 76.378906 166.636719 C 79.84375 166.636719 82.671875 163.867188 82.671875 160.347656 C 82.671875 156.886719 79.84375 154.0625 76.378906 154.0625 C 72.914062 154.0625 70.085938 156.886719 70.085938 160.347656 Z M 70.085938 160.347656 " fill-opacity="1" fill-rule="nonzero"/><path fill="#000000" d="M 74.53125 160.347656 C 74.53125 161.386719 75.339844 162.195312 76.378906 162.195312 C 77.417969 162.195312 78.226562 161.386719 78.226562 160.347656 C 78.226562 159.308594 77.417969 158.503906 76.378906 158.503906 C 75.339844 158.503906 74.53125 159.308594 74.53125 160.347656 Z M 74.53125 160.347656 " fill-opacity="1" fill-rule="nonzero"/><path fill="#4d4d4d" d="M 182.921875 116.457031 L 185.867188 135.316406 C 182.691406 134.683594 179.515625 133.875 176.453125 132.894531 L 173.855469 116.457031 Z M 182.921875 116.457031 " fill-opacity="1" fill-rule="nonzero"/><path fill="#ffffff" d="M 114.085938 147.773438 C 115.820312 146.738281 120.84375 136.414062 119.515625 133.414062 C 118.1875 130.414062 108.832031 123.550781 104.789062 122.800781 C 102.421875 122.339844 106.582031 129.320312 108.253906 131.683594 C 110.332031 134.566406 112.757812 133.242188 114.839844 136.757812 C 115.183594 137.449219 112.179688 143.449219 111.71875 146.332031 C 111.605469 147.429688 112.125 147.832031 112.46875 148.0625 C 113.046875 148.410156 113.277344 148.238281 114.085938 147.773438 Z M 114.085938 147.773438 " fill-opacity="1" fill-rule="nonzero"/><path fill="#ffd0c9" d="M 111.660156 145.238281 L 111.085938 146.042969 C 110.21875 146.390625 110.277344 146.851562 109.351562 147.140625 C 108.890625 147.3125 108.253906 147.71875 107.910156 147.71875 C 107.445312 147.71875 107.734375 148.292969 108.023438 148.46875 C 108.832031 148.871094 109.292969 148.523438 109.699219 148.582031 C 109.699219 148.753906 109.410156 150.199219 109.238281 151.234375 C 109.121094 151.871094 109.410156 152.621094 109.582031 152.675781 C 111.085938 153.195312 112.355469 151.695312 112.527344 151.179688 C 112.757812 150.542969 112.703125 149.273438 114.085938 147.71875 C 114.78125 146.21875 112.355469 145.121094 111.660156 145.238281 " fill-opacity="1" fill-rule="evenodd"/><g clip-path="url(#f99974a6d2)"><path fill="#a2384d" d="M 111.894531 199.972656 C 110.796875 199.394531 110.679688 198.011719 110.679688 198.011719 L 110.507812 198.011719 C 111.488281 181.917969 114.203125 161.328125 112.179688 152.621094 C 111.429688 149.679688 107.332031 149.621094 107.503906 147.488281 C 109.003906 128.855469 92.488281 120.957031 91.738281 151.695312 L 91.449219 151.925781 C 90.46875 156.714844 87.351562 185.667969 85.445312 203.605469 C 85.90625 204.355469 85.039062 205.394531 89.371094 205.449219 C 93.703125 205.449219 93.125 203.953125 92.894531 203.085938 C 92.085938 202.222656 91.335938 200.777344 91.277344 200.261719 C 91.277344 200.261719 100.34375 170.039062 101.152344 166.519531 C 101.613281 169.289062 105.308594 203.085938 105.367188 203.203125 C 105.828125 203.953125 106.867188 204.238281 111.375 204.355469 C 117.667969 204.46875 115.933594 202.046875 115.472656 201.585938 C 114.839844 201.011719 112.988281 200.546875 111.894531 199.972656 Z M 111.894531 199.972656 " fill-opacity="1" fill-rule="nonzero"/></g><g clip-path="url(#35566b9452)"><path fill="#af455e" d="M 96.53125 146.621094 C 95.433594 140.507812 107.332031 149.621094 107.503906 147.488281 C 109.003906 128.855469 92.488281 120.957031 91.738281 151.695312 L 91.449219 151.925781 C 90.46875 156.714844 87.351562 185.667969 85.445312 203.605469 C 85.90625 204.355469 85.039062 205.394531 89.371094 205.449219 C 93.703125 205.449219 93.125 203.953125 92.894531 203.085938 C 92.085938 202.222656 90.238281 200.777344 90.179688 200.261719 C 90.179688 200.261719 91.335938 188.898438 92.144531 185.378906 C 95.839844 163.636719 97.28125 150.714844 96.53125 146.621094 Z M 96.53125 146.621094 " fill-opacity="1" fill-rule="nonzero"/></g><g clip-path="url(#8f990299a8)"><path fill="#000000" d="M 105.367188 203.203125 C 105.828125 203.953125 106.867188 204.238281 111.375 204.355469 C 117.667969 204.46875 115.933594 202.046875 115.472656 201.585938 C 114.839844 201.011719 112.988281 200.546875 111.894531 199.972656 C 110.796875 199.394531 110.679688 198.011719 110.679688 198.011719 L 107.503906 198.011719 C 103.117188 198.011719 104.617188 199.105469 104.964844 201.875 Z M 85.386719 204.703125 C 85.734375 205.449219 87.351562 205.738281 90.929688 205.855469 C 95.953125 205.96875 95.144531 203.605469 94.800781 203.203125 C 94.28125 202.625 91.796875 202.738281 91.914062 201.183594 C 92.027344 199.625 91.394531 199.511719 91.394531 199.511719 L 87.121094 199.511719 C 84.808594 199.511719 84.984375 200.433594 85.273438 203.203125 Z M 85.386719 204.703125 " fill-opacity="1" fill-rule="nonzero"/></g><path fill="#ffffff" d="M 112.238281 151.179688 C 111.949219 144.371094 111.605469 127.472656 105.945312 123.148438 C 101.730469 121.992188 97.746094 121.707031 93.761719 123.089844 C 88.5625 124.878906 87.582031 125.742188 88.160156 128.164062 C 89.257812 133.414062 92.203125 143.101562 91.046875 153.3125 C 99.476562 154.753906 107.214844 154.121094 112.238281 152.503906 Z M 112.238281 151.179688 " fill-opacity="1" fill-rule="nonzero"/><path fill="#ffffff" d="M 78.515625 122.109375 C 78.574219 122.226562 78.574219 122.398438 78.574219 122.570312 C 78.574219 123.089844 78.34375 123.492188 78.109375 123.492188 C 77.9375 123.492188 77.824219 123.378906 77.765625 123.148438 C 77.824219 123.03125 77.824219 122.859375 77.824219 122.6875 C 77.824219 122.457031 77.765625 122.226562 77.707031 122.050781 L 77.535156 122.050781 C 77.589844 122.226562 77.648438 122.457031 77.648438 122.6875 C 77.648438 123.207031 77.417969 123.609375 77.1875 123.609375 C 76.898438 123.609375 76.726562 123.207031 76.726562 122.6875 C 76.726562 122.457031 76.78125 122.226562 76.839844 122.050781 L 75.6875 122.050781 C 75.628906 122.226562 75.570312 122.457031 75.570312 122.6875 C 75.570312 123.320312 75.859375 123.839844 76.207031 123.839844 L 77.1875 123.839844 C 77.300781 123.839844 77.417969 123.78125 77.476562 123.667969 L 78.109375 123.667969 C 78.457031 123.667969 78.746094 123.148438 78.746094 122.511719 C 78.746094 122.339844 78.746094 122.167969 78.6875 122.050781 Z M 78.515625 122.109375 " fill-opacity="1" fill-rule="nonzero"/><path fill="#ffffff" d="M 69.042969 122.800781 L 68.8125 122.800781 C 68.8125 122.917969 68.8125 123.089844 68.8125 123.207031 C 68.8125 124.070312 68.46875 124.761719 68.003906 124.761719 C 67.773438 124.761719 67.542969 124.53125 67.371094 124.1875 C 67.429688 123.953125 67.429688 123.722656 67.429688 123.4375 C 67.429688 123.207031 67.429688 122.972656 67.371094 122.800781 L 67.082031 122.800781 C 67.140625 122.972656 67.140625 123.207031 67.140625 123.4375 C 67.140625 124.300781 66.792969 124.992188 66.332031 124.992188 C 65.867188 124.992188 65.523438 124.300781 65.523438 123.4375 C 65.523438 123.207031 65.523438 122.972656 65.582031 122.800781 L 63.90625 122.800781 C 63.847656 123.03125 63.617188 123.207031 63.617188 123.4375 C 63.617188 124.53125 64.078125 125.398438 64.65625 125.398438 L 66.273438 125.398438 C 66.445312 125.398438 66.621094 125.28125 66.792969 125.167969 L 67.890625 125.167969 C 68.46875 125.167969 68.929688 124.300781 68.929688 123.207031 C 69.042969 123.03125 69.042969 122.917969 69.042969 122.800781 Z M 69.042969 122.800781 " fill-opacity="1" fill-rule="nonzero"/><path fill="#ffffff" d="M 64.25 120.957031 L 64.25 122.226562 L 65.464844 121.476562 L 65.636719 121.300781 L 76.496094 121.53125 L 76.261719 121.820312 L 64.25 122.226562 L 64.25 123.207031 L 78.917969 122.398438 L 79.207031 121.300781 Z M 64.25 120.957031 " fill-opacity="1" fill-rule="nonzero"/><path fill="#ffffff" d="M 46.8125 124.1875 C 46.929688 125.339844 47.449219 126.261719 48.140625 126.261719 C 48.832031 126.261719 49.351562 125.398438 49.46875 124.242188 C 48.601562 124.417969 47.738281 124.359375 46.8125 124.1875 Z M 46.8125 124.1875 " fill-opacity="1" fill-rule="nonzero"/><path fill="#ffffff" d="M 46.003906 123.953125 C 46.0625 125.222656 46.640625 126.261719 47.332031 126.261719 L 48.199219 126.261719 L 48.199219 125.683594 C 48.429688 125.339844 48.601562 124.878906 48.660156 124.300781 C 47.738281 124.359375 46.8125 124.1875 46.003906 123.953125 Z M 46.003906 123.953125 " fill-opacity="1" fill-rule="nonzero"/><path fill="#ffffff" d="M 55.9375 122.109375 L 55.070312 122.109375 C 54.320312 122.109375 53.742188 123.207031 53.742188 124.53125 C 53.742188 125.859375 54.320312 126.953125 55.070312 126.953125 L 55.9375 126.953125 C 56.6875 126.953125 57.265625 125.859375 57.265625 124.53125 C 57.265625 123.207031 56.6875 122.109375 55.9375 122.109375 Z M 56.050781 126.378906 C 55.53125 126.378906 55.128906 125.570312 55.128906 124.53125 C 55.128906 123.492188 55.53125 122.6875 56.050781 122.6875 C 56.570312 122.6875 56.976562 123.492188 56.976562 124.53125 C 56.976562 125.570312 56.570312 126.378906 56.050781 126.378906 Z M 56.050781 126.378906 " fill-opacity="1" fill-rule="nonzero"/><path fill="#ffffff" d="M 74.011719 123.261719 L 70.546875 123.492188 C 70.199219 123.492188 69.851562 123.261719 69.851562 122.859375 C 69.851562 122.511719 70.140625 122.167969 70.488281 122.167969 L 73.953125 121.9375 C 74.300781 121.9375 74.644531 122.167969 74.644531 122.570312 C 74.703125 122.917969 74.414062 123.207031 74.011719 123.261719 Z M 74.011719 123.261719 " fill-opacity="1" fill-rule="nonzero"/><path fill="#ffffff" d="M 50.566406 119.6875 L 47.273438 119.6875 L 47.042969 119.917969 L 50.566406 119.917969 Z M 50.566406 119.6875 " fill-opacity="1" fill-rule="nonzero"/><path fill="#ffffff" d="M 46.351562 119.6875 L 46.351562 119.917969 L 50.566406 119.917969 L 50.566406 119.6875 Z M 46.234375 120.726562 L 50.449219 120.726562 L 50.449219 120.496094 L 46.234375 120.496094 Z M 46.121094 121.589844 L 50.335938 121.589844 L 50.335938 121.359375 L 46.121094 121.359375 Z M 46.003906 122.398438 L 50.21875 122.398438 L 50.21875 122.167969 L 46.003906 122.167969 Z M 46.003906 122.398438 " fill-opacity="1" fill-rule="nonzero"/><path fill="#ffffff" d="M 50.335938 121.359375 L 46.121094 121.359375 L 46.121094 121.589844 L 50.335938 121.589844 Z M 50.335938 121.359375 " fill-opacity="1" fill-rule="nonzero"/><path fill="#ffffff" d="M 64.828125 121.242188 L 63.617188 121.242188 L 63.617188 111.09375 L 64.25 111.035156 L 62.519531 110.574219 L 61.480469 110.574219 C 60.84375 110.402344 60.613281 110.457031 60.613281 110.457031 C 60.441406 110.457031 60.324219 110.457031 60.09375 110.457031 C 58.996094 110.746094 58.015625 111.324219 57.496094 112.1875 C 55.648438 112.1875 53.683594 112.363281 52.53125 112.707031 C 52.933594 112.304688 53.453125 111.84375 54.03125 111.4375 C 52.007812 112.132812 50.96875 113.632812 50.679688 114.265625 C 50.160156 114.378906 49.929688 114.4375 49.929688 114.4375 L 49.351562 115.996094 L 49.757812 115.996094 L 49.296875 117.4375 L 49.296875 116.457031 L 48.890625 116.457031 L 48.660156 116.6875 L 48.660156 118.128906 C 47.792969 118.359375 46.8125 118.765625 46.0625 119.167969 C 48.71875 118.589844 51.375 119.050781 51.375 119.050781 C 51.375 119.050781 50.738281 122.511719 50.679688 123.03125 C 46.8125 123.320312 45.65625 122.972656 45.65625 122.972656 C 45.601562 122.226562 45.65625 121.589844 45.714844 121.011719 C 45.65625 121.070312 45.601562 121.128906 45.542969 121.1875 C 45.542969 121.242188 45.484375 121.242188 45.484375 121.300781 C 45.484375 121.359375 45.425781 121.359375 45.425781 121.417969 C 45.425781 121.417969 45.425781 121.417969 45.425781 121.476562 C 45.425781 121.53125 45.367188 121.53125 45.367188 121.589844 C 45.367188 121.589844 45.367188 121.648438 45.367188 121.648438 C 45.367188 121.707031 45.3125 121.707031 45.3125 121.761719 C 45.3125 121.761719 45.3125 121.820312 45.253906 121.820312 C 45.253906 121.878906 45.195312 121.878906 45.195312 121.9375 C 45.195312 121.9375 45.195312 121.992188 45.136719 121.992188 C 45.136719 122.050781 45.078125 122.109375 45.078125 122.167969 C 45.078125 122.167969 45.078125 122.226562 45.078125 122.226562 C 45.078125 122.28125 45.023438 122.398438 45.023438 122.457031 L 45.253906 122.6875 L 44.847656 122.859375 L 44.847656 124.878906 C 44.847656 124.878906 51.144531 125.511719 54.089844 125.050781 L 54.089844 125.222656 L 55.128906 125.222656 C 55.070312 124.992188 55.070312 124.820312 55.070312 124.589844 C 55.070312 123.550781 55.472656 122.742188 55.996094 122.742188 C 56.515625 122.742188 56.917969 123.550781 56.917969 124.589844 C 56.917969 124.820312 56.917969 125.050781 56.859375 125.222656 L 57.554688 125.222656 L 65.523438 124.589844 L 65.523438 121.53125 L 64.886719 121.53125 Z M 61.652344 111.382812 C 62.578125 111.554688 62.691406 112.765625 62.691406 112.765625 C 61.480469 110.34375 59.34375 112.765625 59.34375 112.765625 C 59.746094 112.015625 60.671875 111.152344 61.652344 111.382812 Z M 57.726562 118.128906 C 58.015625 118.070312 58.128906 118.246094 58.1875 118.359375 L 58.765625 117.726562 L 57.726562 117.785156 L 58.1875 115.417969 L 60.035156 115.59375 L 60.035156 117.667969 L 58.996094 117.726562 L 58.128906 118.707031 C 58.074219 118.820312 57.957031 118.9375 57.84375 118.9375 C 57.785156 118.9375 57.726562 118.9375 57.726562 118.9375 C 57.726562 118.9375 57.667969 118.9375 57.667969 118.878906 Z M 57.265625 114.898438 L 56.6875 117.4375 C 56.6875 117.4375 56.515625 117.898438 55.472656 117.839844 C 55.472656 117.839844 53.972656 117.839844 52.242188 117.839844 L 52.992188 115.246094 Z M 49.296875 117.957031 L 50.046875 115.476562 L 52.53125 115.304688 L 51.777344 117.839844 C 50.914062 117.839844 49.988281 117.898438 49.296875 117.957031 Z M 53.222656 122.457031 C 53.050781 122.511719 52.125 122.628906 51.203125 122.800781 C 51.203125 122.800781 51.203125 122.226562 51.546875 121.878906 C 52.125 121.53125 53.105469 121.128906 53.394531 121.300781 C 53.625 121.53125 53.394531 122.457031 53.222656 122.457031 Z M 51.316406 121.820312 C 51.316406 121.820312 52.183594 120.03125 56.800781 119.515625 C 56.800781 119.515625 58.363281 119.398438 59.632812 119.6875 C 59.691406 119.628906 53.050781 120.320312 51.316406 121.820312 Z M 57.554688 123.261719 L 57.378906 123.03125 L 63.15625 122.570312 L 63.847656 122.917969 Z M 57.554688 123.261719 " fill-opacity="1" fill-rule="nonzero"/><path fill="#ffffff" d="M 65.234375 111.324219 L 65.234375 120.839844 L 64.078125 120.839844 L 64.078125 111.4375 Z M 65.695312 110.804688 L 63.675781 111.035156 L 63.675781 121.242188 L 65.695312 121.242188 Z M 65.695312 110.804688 " fill-opacity="1" fill-rule="nonzero"/><path fill="#ffffff" d="M 50.449219 120.726562 L 50.449219 120.496094 L 46.351562 120.496094 L 46.234375 120.609375 L 46.234375 120.726562 Z M 50.449219 120.726562 " fill-opacity="1" fill-rule="nonzero"/><path fill="#ffffff" d="M 50.160156 122.167969 L 46.003906 122.167969 L 46.003906 122.398438 L 50.21875 122.398438 L 50.21875 122.167969 Z M 50.160156 122.167969 " fill-opacity="1" fill-rule="nonzero"/><path fill="#ffffff" d="M 59.457031 115.648438 L 58.652344 115.648438 L 58.652344 117.726562 L 59.457031 117.726562 Z M 59.457031 115.648438 " fill-opacity="1" fill-rule="nonzero"/><path fill="#ffffff" d="M 58.363281 117.554688 L 58.652344 117.667969 L 58.652344 115.59375 L 58.363281 115.707031 Z M 58.363281 117.554688 " fill-opacity="1" fill-rule="nonzero"/><path fill="#ffffff" d="M 79.785156 118.535156 L 76.03125 117.4375 L 79.902344 117.957031 L 79.960938 117.554688 L 66.621094 112.765625 L 80.304688 115.59375 L 80.421875 115.074219 L 65.695312 110.804688 L 65.582031 120.609375 L 78.976562 120.78125 L 78.628906 122.398438 L 79.09375 122.398438 Z M 79.785156 118.535156 " fill-opacity="1" fill-rule="nonzero"/><path fill="#ffffff" d="M 85.503906 112.535156 L 85.503906 116.515625 C 85.503906 116.917969 85.617188 117.207031 85.792969 117.4375 C 85.964844 117.667969 86.253906 117.785156 86.65625 117.785156 C 87.0625 117.785156 87.351562 117.667969 87.523438 117.4375 C 87.753906 117.207031 87.8125 116.917969 87.8125 116.515625 L 87.8125 112.535156 L 89.429688 112.535156 L 89.429688 116.515625 C 89.429688 117.089844 89.3125 117.609375 89.023438 118.015625 C 88.792969 118.417969 88.449219 118.707031 87.984375 118.9375 C 87.582031 119.167969 87.0625 119.226562 86.542969 119.226562 C 86.023438 119.226562 85.558594 119.109375 85.097656 118.9375 C 84.695312 118.707031 84.347656 118.417969 84.117188 118.015625 C 83.886719 117.609375 83.769531 117.089844 83.769531 116.515625 L 83.769531 112.535156 Z M 85.503906 112.535156 " fill-opacity="1" fill-rule="nonzero"/><path fill="#ffffff" d="M 96.472656 119.167969 L 94.859375 119.167969 L 92.144531 115.074219 L 92.144531 119.167969 L 90.46875 119.167969 L 90.46875 112.535156 L 92.085938 112.535156 L 94.800781 116.628906 L 94.800781 112.535156 L 96.417969 112.535156 L 96.417969 119.167969 Z M 96.472656 119.167969 " fill-opacity="1" fill-rule="nonzero"/><path fill="#ffffff" d="M 97.515625 112.535156 L 99.132812 112.535156 L 99.132812 119.167969 L 97.515625 119.167969 Z M 97.515625 112.535156 " fill-opacity="1" fill-rule="nonzero"/><path fill="#ffffff" d="M 104.964844 112.535156 L 104.964844 113.804688 L 103.171875 113.804688 L 103.171875 119.167969 L 101.554688 119.167969 L 101.554688 113.804688 L 99.765625 113.804688 L 99.765625 112.535156 Z M 104.964844 112.535156 " fill-opacity="1" fill-rule="nonzero"/><path fill="#ffffff" d="M 107.214844 113.804688 L 107.214844 115.128906 L 109.410156 115.128906 L 109.410156 116.398438 L 107.214844 116.398438 L 107.214844 117.839844 L 109.699219 117.839844 L 109.699219 119.109375 L 105.597656 119.109375 L 105.597656 112.535156 L 109.699219 112.535156 L 109.699219 113.804688 Z M 107.214844 113.804688 " fill-opacity="1" fill-rule="nonzero"/><path fill="#ffffff" d="M 113.105469 112.535156 C 113.796875 112.535156 114.433594 112.652344 114.953125 112.9375 C 115.472656 113.226562 115.878906 113.632812 116.167969 114.09375 C 116.453125 114.613281 116.628906 115.1875 116.628906 115.824219 C 116.628906 116.457031 116.453125 117.035156 116.167969 117.554688 C 115.878906 118.070312 115.472656 118.476562 114.953125 118.707031 C 114.433594 118.996094 113.796875 119.109375 113.105469 119.109375 L 110.566406 119.109375 L 110.566406 112.535156 Z M 112.988281 117.785156 C 113.625 117.785156 114.085938 117.609375 114.433594 117.265625 C 114.78125 116.917969 114.953125 116.457031 114.953125 115.824219 C 114.953125 115.1875 114.78125 114.726562 114.433594 114.378906 C 114.085938 114.035156 113.625 113.863281 112.988281 113.863281 L 112.238281 113.863281 L 112.238281 117.726562 L 112.988281 117.726562 Z M 112.988281 117.785156 " fill-opacity="1" fill-rule="nonzero"/><path fill="#ffffff" d="M 121.652344 119.226562 C 121.132812 119.226562 120.726562 119.167969 120.324219 118.996094 C 119.917969 118.820312 119.632812 118.589844 119.398438 118.300781 C 119.167969 118.015625 119.054688 117.609375 119.054688 117.207031 L 120.785156 117.207031 C 120.785156 117.4375 120.902344 117.667969 121.015625 117.785156 C 121.191406 117.898438 121.363281 117.957031 121.59375 117.957031 C 121.824219 117.957031 122.054688 117.898438 122.171875 117.785156 C 122.289062 117.667969 122.402344 117.496094 122.402344 117.320312 C 122.402344 117.148438 122.34375 117.035156 122.230469 116.917969 C 122.113281 116.804688 122 116.746094 121.824219 116.628906 C 121.652344 116.574219 121.421875 116.457031 121.132812 116.398438 C 120.671875 116.285156 120.324219 116.109375 120.09375 115.996094 C 119.804688 115.878906 119.574219 115.648438 119.398438 115.417969 C 119.226562 115.1875 119.109375 114.84375 119.109375 114.378906 C 119.109375 113.746094 119.34375 113.285156 119.804688 112.9375 C 120.265625 112.59375 120.84375 112.417969 121.59375 112.417969 C 122.34375 112.417969 122.921875 112.59375 123.382812 112.9375 C 123.847656 113.285156 124.078125 113.746094 124.136719 114.378906 L 122.230469 114.378906 C 122.230469 114.148438 122.113281 113.976562 122 113.863281 C 121.824219 113.746094 121.652344 113.6875 121.421875 113.6875 C 121.246094 113.6875 121.074219 113.746094 120.960938 113.863281 C 120.84375 113.976562 120.785156 114.09375 120.785156 114.324219 C 120.785156 114.554688 120.902344 114.726562 121.074219 114.84375 C 121.304688 114.957031 121.59375 115.074219 122.054688 115.246094 C 122.519531 115.417969 122.863281 115.535156 123.097656 115.648438 C 123.382812 115.765625 123.617188 115.996094 123.789062 116.226562 C 123.960938 116.457031 124.078125 116.804688 124.078125 117.207031 C 124.078125 117.609375 123.960938 117.957031 123.789062 118.246094 C 123.617188 118.535156 123.328125 118.820312 122.921875 118.996094 C 122.574219 119.167969 122.171875 119.226562 121.652344 119.226562 Z M 121.652344 119.226562 " fill-opacity="1" fill-rule="nonzero"/><path fill="#ffffff" d="M 129.738281 112.535156 L 129.738281 113.804688 L 128.003906 113.804688 L 128.003906 119.167969 L 126.386719 119.167969 L 126.386719 113.804688 L 124.539062 113.804688 L 124.539062 112.535156 Z M 129.738281 112.535156 " fill-opacity="1" fill-rule="nonzero"/><path fill="#ffffff" d="M 134.585938 118.015625 L 132.046875 118.015625 L 131.640625 119.167969 L 129.910156 119.167969 L 132.335938 112.535156 L 134.242188 112.535156 L 136.667969 119.167969 L 134.933594 119.167969 Z M 134.183594 116.746094 L 133.375 114.324219 L 132.566406 116.746094 Z M 134.183594 116.746094 " fill-opacity="1" fill-rule="nonzero"/><path fill="#ffffff" d="M 142.09375 112.535156 L 142.09375 113.804688 L 140.304688 113.804688 L 140.304688 119.167969 L 138.6875 119.167969 L 138.6875 113.804688 L 136.898438 113.804688 L 136.898438 112.535156 Z M 142.09375 112.535156 " fill-opacity="1" fill-rule="nonzero"/><path fill="#ffffff" d="M 144.402344 113.804688 L 144.402344 115.128906 L 146.597656 115.128906 L 146.597656 116.398438 L 144.402344 116.398438 L 144.402344 117.839844 L 146.886719 117.839844 L 146.886719 119.109375 L 142.789062 119.109375 L 142.789062 112.535156 L 146.886719 112.535156 L 146.886719 113.804688 Z M 144.402344 113.804688 " fill-opacity="1" fill-rule="nonzero"/><path fill="#ffffff" d="M 150.179688 119.226562 C 149.660156 119.226562 149.253906 119.167969 148.851562 118.996094 C 148.445312 118.820312 148.15625 118.589844 147.925781 118.300781 C 147.695312 118.015625 147.582031 117.609375 147.582031 117.207031 L 149.3125 117.207031 C 149.3125 117.4375 149.429688 117.667969 149.542969 117.785156 C 149.71875 117.898438 149.890625 117.957031 150.121094 117.957031 C 150.351562 117.957031 150.582031 117.898438 150.699219 117.785156 C 150.8125 117.667969 150.929688 117.496094 150.929688 117.320312 C 150.929688 117.148438 150.871094 117.035156 150.757812 116.917969 C 150.640625 116.804688 150.523438 116.746094 150.351562 116.628906 C 150.179688 116.574219 149.949219 116.457031 149.660156 116.398438 C 149.195312 116.285156 148.851562 116.109375 148.621094 115.996094 C 148.332031 115.878906 148.101562 115.648438 147.925781 115.417969 C 147.753906 115.1875 147.636719 114.84375 147.636719 114.378906 C 147.636719 113.746094 147.867188 113.285156 148.332031 112.9375 C 148.792969 112.59375 149.371094 112.417969 150.121094 112.417969 C 150.871094 112.417969 151.449219 112.59375 151.910156 112.9375 C 152.375 113.285156 152.605469 113.746094 152.660156 114.378906 L 150.871094 114.378906 C 150.871094 114.148438 150.757812 113.976562 150.640625 113.863281 C 150.46875 113.746094 150.292969 113.6875 150.0625 113.6875 C 149.890625 113.6875 149.71875 113.746094 149.601562 113.863281 C 149.484375 113.976562 149.429688 114.09375 149.429688 114.324219 C 149.429688 114.554688 149.542969 114.726562 149.71875 114.84375 C 149.949219 114.957031 150.238281 115.074219 150.699219 115.246094 C 151.160156 115.417969 151.507812 115.535156 151.738281 115.648438 C 152.027344 115.765625 152.257812 115.996094 152.429688 116.226562 C 152.605469 116.457031 152.71875 116.804688 152.71875 117.207031 C 152.71875 117.609375 152.605469 117.957031 152.429688 118.246094 C 152.257812 118.535156 151.96875 118.820312 151.566406 118.996094 C 151.101562 119.167969 150.699219 119.226562 150.179688 119.226562 Z M 150.179688 119.226562 " fill-opacity="1" fill-rule="nonzero"/><path fill="#ffffff" d="M 85.328125 124.472656 C 85.503906 124.472656 85.617188 124.589844 85.734375 124.703125 C 85.847656 124.820312 85.90625 124.992188 85.90625 125.167969 C 85.90625 125.28125 85.847656 125.453125 85.792969 125.570312 C 85.734375 125.683594 85.617188 125.800781 85.503906 125.859375 C 85.386719 125.914062 85.214844 125.972656 85.039062 125.972656 L 83.945312 125.972656 L 83.945312 123.148438 L 84.984375 123.148438 C 85.15625 123.148438 85.328125 123.207031 85.445312 123.261719 C 85.558594 123.320312 85.675781 123.4375 85.734375 123.550781 C 85.792969 123.667969 85.847656 123.78125 85.847656 123.898438 C 85.847656 124.070312 85.792969 124.1875 85.734375 124.300781 C 85.617188 124.359375 85.503906 124.472656 85.328125 124.472656 Z M 84.347656 124.300781 L 84.925781 124.300781 C 85.097656 124.300781 85.214844 124.242188 85.273438 124.1875 C 85.328125 124.128906 85.386719 124.011719 85.386719 123.898438 C 85.386719 123.78125 85.328125 123.667969 85.273438 123.609375 C 85.214844 123.550781 85.097656 123.492188 84.925781 123.492188 L 84.347656 123.492188 Z M 84.925781 125.570312 C 85.097656 125.570312 85.214844 125.511719 85.273438 125.453125 C 85.386719 125.398438 85.386719 125.28125 85.386719 125.167969 C 85.386719 125.050781 85.328125 124.933594 85.273438 124.820312 C 85.15625 124.761719 85.039062 124.703125 84.925781 124.703125 L 84.347656 124.703125 L 84.347656 125.570312 Z M 84.925781 125.570312 " fill-opacity="1" fill-rule="nonzero"/><path fill="#ffffff" d="M 86.832031 123.492188 L 86.832031 124.300781 L 87.8125 124.300781 L 87.8125 124.648438 L 86.832031 124.648438 L 86.832031 125.511719 L 87.929688 125.511719 L 87.929688 125.859375 L 86.367188 125.859375 L 86.367188 123.03125 L 87.929688 123.03125 L 87.929688 123.378906 L 86.832031 123.378906 Z M 86.832031 123.492188 " fill-opacity="1" fill-rule="nonzero"/><path fill="#ffffff" d="M 89.3125 125.972656 C 89.140625 125.972656 88.96875 125.914062 88.792969 125.859375 C 88.621094 125.800781 88.503906 125.683594 88.449219 125.570312 C 88.390625 125.453125 88.332031 125.28125 88.332031 125.167969 L 88.792969 125.167969 C 88.792969 125.28125 88.851562 125.398438 88.910156 125.453125 C 88.96875 125.511719 89.140625 125.570312 89.257812 125.570312 C 89.429688 125.570312 89.546875 125.511719 89.601562 125.453125 C 89.71875 125.398438 89.71875 125.28125 89.71875 125.167969 C 89.71875 125.050781 89.71875 124.992188 89.660156 124.933594 C 89.601562 124.878906 89.546875 124.820312 89.429688 124.820312 C 89.371094 124.761719 89.257812 124.761719 89.082031 124.703125 C 88.910156 124.648438 88.738281 124.589844 88.621094 124.53125 C 88.503906 124.472656 88.390625 124.417969 88.332031 124.300781 C 88.273438 124.1875 88.214844 124.070312 88.214844 123.898438 C 88.214844 123.722656 88.273438 123.609375 88.332031 123.492188 C 88.390625 123.378906 88.503906 123.261719 88.679688 123.207031 C 88.792969 123.148438 88.96875 123.089844 89.199219 123.089844 C 89.488281 123.089844 89.660156 123.148438 89.832031 123.320312 C 90.007812 123.4375 90.121094 123.667969 90.121094 123.898438 L 89.601562 123.898438 C 89.601562 123.78125 89.546875 123.722656 89.488281 123.609375 C 89.371094 123.550781 89.257812 123.492188 89.140625 123.492188 C 89.023438 123.492188 88.910156 123.550781 88.792969 123.609375 C 88.738281 123.667969 88.679688 123.78125 88.679688 123.898438 C 88.679688 123.953125 88.679688 124.070312 88.738281 124.128906 C 88.792969 124.1875 88.851562 124.242188 88.910156 124.242188 C 88.96875 124.300781 89.082031 124.300781 89.257812 124.359375 C 89.429688 124.417969 89.601562 124.472656 89.71875 124.53125 C 89.832031 124.589844 89.949219 124.648438 90.007812 124.761719 C 90.066406 124.878906 90.121094 124.992188 90.121094 125.167969 C 90.121094 125.28125 90.066406 125.453125 90.007812 125.570312 C 89.949219 125.683594 89.832031 125.800781 89.660156 125.859375 C 89.71875 125.914062 89.546875 125.972656 89.3125 125.972656 Z M 89.3125 125.972656 " fill-opacity="1" fill-rule="nonzero"/><path fill="#ffffff" d="M 92.546875 123.148438 L 92.546875 123.492188 L 91.796875 123.492188 L 91.796875 125.914062 L 91.335938 125.914062 L 91.335938 123.492188 L 90.585938 123.492188 L 90.585938 123.148438 Z M 92.546875 123.148438 " fill-opacity="1" fill-rule="nonzero"/><path fill="#ffffff" d="M 93.875 124.53125 C 93.875 124.242188 93.933594 124.011719 94.050781 123.78125 C 94.164062 123.550781 94.339844 123.378906 94.570312 123.261719 C 94.800781 123.148438 95.03125 123.089844 95.261719 123.089844 C 95.550781 123.089844 95.839844 123.148438 96.070312 123.320312 C 96.300781 123.492188 96.472656 123.667969 96.589844 123.953125 L 96.070312 123.953125 C 96.011719 123.78125 95.898438 123.722656 95.78125 123.609375 C 95.667969 123.550781 95.492188 123.492188 95.320312 123.492188 C 95.144531 123.492188 94.972656 123.550781 94.800781 123.609375 C 94.683594 123.667969 94.570312 123.839844 94.453125 123.953125 C 94.394531 124.128906 94.339844 124.300781 94.339844 124.472656 C 94.339844 124.703125 94.394531 124.878906 94.453125 124.992188 C 94.511719 125.167969 94.625 125.28125 94.800781 125.339844 C 94.914062 125.398438 95.089844 125.453125 95.320312 125.453125 C 95.492188 125.453125 95.609375 125.398438 95.78125 125.339844 C 95.898438 125.28125 96.011719 125.167969 96.070312 124.992188 L 96.589844 124.992188 C 96.472656 125.28125 96.300781 125.453125 96.070312 125.628906 C 95.839844 125.800781 95.550781 125.859375 95.261719 125.859375 C 94.972656 125.859375 94.742188 125.800781 94.570312 125.683594 C 94.339844 125.570312 94.164062 125.398438 94.050781 125.167969 C 93.933594 125.050781 93.875 124.820312 93.875 124.53125 Z M 93.875 124.53125 " fill-opacity="1" fill-rule="nonzero"/><path fill="#ffffff" d="M 98.726562 125.339844 L 97.570312 125.339844 L 97.398438 125.914062 L 96.9375 125.914062 L 97.917969 123.089844 L 98.4375 123.089844 L 99.417969 125.914062 L 98.957031 125.914062 Z M 98.609375 124.992188 L 98.148438 123.667969 L 97.6875 124.992188 Z M 98.609375 124.992188 " fill-opacity="1" fill-rule="nonzero"/><path fill="#ffffff" d="M 101.265625 125.914062 L 100.632812 124.820312 L 100.285156 124.820312 L 100.285156 125.914062 L 99.824219 125.914062 L 99.824219 123.089844 L 100.804688 123.089844 C 101.035156 123.089844 101.210938 123.148438 101.324219 123.207031 C 101.5 123.261719 101.554688 123.378906 101.671875 123.492188 C 101.730469 123.609375 101.789062 123.78125 101.789062 123.898438 C 101.789062 124.070312 101.730469 124.242188 101.613281 124.417969 C 101.5 124.589844 101.324219 124.648438 101.152344 124.703125 L 101.84375 125.859375 L 101.265625 125.859375 Z M 100.285156 124.472656 L 100.804688 124.472656 C 100.980469 124.472656 101.09375 124.417969 101.210938 124.359375 C 101.324219 124.300781 101.324219 124.1875 101.324219 124.011719 C 101.324219 123.839844 101.265625 123.78125 101.210938 123.667969 C 101.152344 123.609375 100.980469 123.550781 100.804688 123.550781 L 100.285156 123.550781 Z M 100.285156 124.472656 " fill-opacity="1" fill-rule="nonzero"/><path fill="#ffffff" d="M 104.210938 125.972656 C 104.039062 125.972656 103.867188 125.914062 103.691406 125.859375 C 103.519531 125.800781 103.402344 125.683594 103.347656 125.570312 C 103.289062 125.453125 103.230469 125.28125 103.230469 125.167969 L 103.691406 125.167969 C 103.691406 125.28125 103.75 125.398438 103.808594 125.453125 C 103.867188 125.511719 104.039062 125.570312 104.15625 125.570312 C 104.328125 125.570312 104.445312 125.511719 104.5 125.453125 C 104.617188 125.398438 104.617188 125.28125 104.617188 125.167969 C 104.617188 125.050781 104.617188 124.992188 104.558594 124.933594 C 104.5 124.878906 104.445312 124.820312 104.328125 124.820312 C 104.269531 124.761719 104.15625 124.761719 103.980469 124.703125 C 103.808594 124.648438 103.636719 124.589844 103.519531 124.53125 C 103.402344 124.472656 103.289062 124.417969 103.230469 124.300781 C 103.171875 124.1875 103.117188 124.070312 103.117188 123.898438 C 103.117188 123.722656 103.171875 123.609375 103.230469 123.492188 C 103.289062 123.378906 103.402344 123.261719 103.578125 123.207031 C 103.691406 123.148438 103.867188 123.089844 104.097656 123.089844 C 104.386719 123.089844 104.558594 123.148438 104.730469 123.320312 C 104.90625 123.4375 105.019531 123.667969 105.019531 123.898438 L 104.5 123.898438 C 104.5 123.78125 104.445312 123.722656 104.386719 123.609375 C 104.269531 123.550781 104.15625 123.492188 104.039062 123.492188 C 103.925781 123.492188 103.808594 123.550781 103.691406 123.609375 C 103.636719 123.667969 103.578125 123.78125 103.578125 123.898438 C 103.578125 123.953125 103.578125 124.070312 103.636719 124.128906 C 103.691406 124.1875 103.75 124.242188 103.808594 124.242188 C 103.867188 124.300781 103.980469 124.300781 104.15625 124.359375 C 104.328125 124.417969 104.5 124.472656 104.617188 124.53125 C 104.730469 124.589844 104.847656 124.648438 104.90625 124.761719 C 104.964844 124.878906 105.019531 124.992188 105.019531 125.167969 C 105.019531 125.28125 104.964844 125.453125 104.90625 125.570312 C 104.847656 125.683594 104.730469 125.800781 104.558594 125.859375 C 104.558594 125.914062 104.386719 125.972656 104.210938 125.972656 Z M 104.210938 125.972656 " fill-opacity="1" fill-rule="nonzero"/><path fill="#ffffff" d="M 107.910156 123.148438 L 107.910156 125.972656 L 107.445312 125.972656 L 107.445312 124.761719 L 106.117188 124.761719 L 106.117188 125.972656 L 105.65625 125.972656 L 105.65625 123.148438 L 106.117188 123.148438 L 106.117188 124.359375 L 107.445312 124.359375 L 107.445312 123.148438 Z M 107.910156 123.148438 " fill-opacity="1" fill-rule="nonzero"/><path fill="#ffffff" d="M 108.429688 123.148438 L 108.890625 123.148438 L 108.890625 125.972656 L 108.429688 125.972656 Z M 108.429688 123.148438 " fill-opacity="1" fill-rule="nonzero"/><path fill="#ffffff" d="M 111.429688 123.953125 C 111.429688 124.070312 111.375 124.242188 111.316406 124.359375 C 111.257812 124.472656 111.140625 124.589844 110.96875 124.648438 C 110.796875 124.703125 110.621094 124.761719 110.390625 124.761719 L 109.871094 124.761719 L 109.871094 125.914062 L 109.410156 125.914062 L 109.410156 123.089844 L 110.390625 123.089844 C 110.621094 123.089844 110.796875 123.148438 110.910156 123.207031 C 111.085938 123.261719 111.140625 123.378906 111.257812 123.492188 C 111.375 123.667969 111.429688 123.839844 111.429688 123.953125 Z M 110.449219 124.417969 C 110.621094 124.417969 110.738281 124.359375 110.851562 124.300781 C 110.910156 124.242188 110.96875 124.128906 110.96875 123.953125 C 110.96875 123.667969 110.796875 123.492188 110.449219 123.492188 L 109.929688 123.492188 L 109.929688 124.417969 Z M 110.449219 124.417969 " fill-opacity="1" fill-rule="nonzero"/><path fill="#ffffff" d="M 113.742188 123.953125 C 113.742188 124.070312 113.683594 124.242188 113.625 124.359375 C 113.566406 124.472656 113.453125 124.589844 113.277344 124.648438 C 113.105469 124.703125 112.933594 124.761719 112.703125 124.761719 L 112.179688 124.761719 L 112.179688 125.914062 L 111.71875 125.914062 L 111.71875 123.089844 L 112.703125 123.089844 C 112.933594 123.089844 113.105469 123.148438 113.222656 123.207031 C 113.394531 123.261719 113.453125 123.378906 113.566406 123.492188 C 113.683594 123.667969 113.742188 123.839844 113.742188 123.953125 Z M 112.757812 124.417969 C 112.933594 124.417969 113.046875 124.359375 113.164062 124.300781 C 113.222656 124.242188 113.277344 124.128906 113.277344 123.953125 C 113.277344 123.667969 113.105469 123.492188 112.757812 123.492188 L 112.238281 123.492188 L 112.238281 124.417969 Z M 112.757812 124.417969 " fill-opacity="1" fill-rule="nonzero"/><path fill="#ffffff" d="M 114.144531 123.148438 L 114.605469 123.148438 L 114.605469 125.972656 L 114.144531 125.972656 Z M 114.144531 123.148438 " fill-opacity="1" fill-rule="nonzero"/><path fill="#ffffff" d="M 117.4375 125.914062 L 116.972656 125.914062 L 115.589844 123.839844 L 115.589844 125.914062 L 115.125 125.914062 L 115.125 123.089844 L 115.589844 123.089844 L 116.972656 125.167969 L 116.972656 123.089844 L 117.4375 123.089844 Z M 117.4375 125.914062 " fill-opacity="1" fill-rule="nonzero"/><path fill="#ffffff" d="M 120.035156 123.953125 C 119.976562 123.839844 119.863281 123.722656 119.746094 123.667969 C 119.632812 123.609375 119.457031 123.550781 119.285156 123.550781 C 119.109375 123.550781 118.9375 123.609375 118.765625 123.667969 C 118.648438 123.722656 118.535156 123.839844 118.417969 124.011719 C 118.359375 124.1875 118.304688 124.359375 118.304688 124.53125 C 118.304688 124.703125 118.359375 124.933594 118.417969 125.050781 C 118.476562 125.222656 118.589844 125.339844 118.765625 125.398438 C 118.878906 125.453125 119.054688 125.511719 119.285156 125.511719 C 119.515625 125.511719 119.746094 125.453125 119.863281 125.28125 C 119.976562 125.109375 120.09375 124.933594 120.152344 124.703125 L 119.109375 124.703125 L 119.109375 124.359375 L 120.613281 124.359375 L 120.613281 124.703125 C 120.554688 124.933594 120.496094 125.109375 120.382812 125.28125 C 120.265625 125.453125 120.09375 125.628906 119.917969 125.742188 C 119.746094 125.859375 119.515625 125.914062 119.285156 125.914062 C 118.996094 125.914062 118.765625 125.859375 118.589844 125.742188 C 118.359375 125.628906 118.1875 125.453125 118.070312 125.222656 C 117.957031 124.992188 117.898438 124.761719 117.898438 124.472656 C 117.898438 124.1875 117.957031 123.953125 118.070312 123.722656 C 118.1875 123.492188 118.359375 123.320312 118.589844 123.207031 C 118.824219 123.089844 119.054688 123.03125 119.285156 123.03125 C 119.574219 123.03125 119.863281 123.089844 120.09375 123.261719 C 120.324219 123.4375 120.496094 123.609375 120.613281 123.898438 L 120.035156 123.898438 Z M 120.035156 123.953125 " fill-opacity="1" fill-rule="nonzero"/><path fill="#e5e5e5" d="M 96.9375 135.722656 C 96.359375 129.433594 95.203125 122.628906 91.21875 124.070312 C 86.023438 125.859375 87.582031 125.742188 88.160156 128.164062 C 89.257812 133.414062 92.203125 143.101562 91.046875 153.3125 C 94.339844 154.0625 96.070312 154.121094 96.53125 154.0625 C 97.226562 146.042969 97.339844 139.929688 96.9375 135.722656 Z M 96.9375 135.722656 " fill-opacity="1" fill-rule="nonzero"/><path fill="#ffd0c9" d="M 104.328125 118.476562 C 103.808594 119.570312 103 120.4375 101.960938 121.011719 L 102.019531 122.742188 L 102.25 122.972656 C 103.230469 124.011719 102.191406 126.148438 101.035156 126.089844 C 98.207031 126.203125 96.070312 123.953125 96.878906 122.6875 L 97.226562 122.28125 L 97.28125 119.859375 C 97.109375 119.859375 96.070312 119.28125 95.78125 119.167969 C 95.320312 118.878906 94.972656 118.359375 94.972656 117.839844 C 94.914062 117.207031 95.953125 117.4375 95.953125 117.4375 C 94.742188 115.824219 93.414062 114.496094 95.144531 112.996094 C 96.9375 111.554688 100.980469 110.6875 100.980469 110.6875 L 103.402344 109.824219 C 103.117188 110.632812 103.519531 113.457031 104.15625 115.1875 C 104.789062 116.6875 105.136719 116.917969 104.328125 118.476562 " fill-opacity="1" fill-rule="evenodd"/><path fill="#e5e5e5" d="M 98.554688 120.148438 C 98.554688 120.148438 99.9375 122.511719 101.035156 122.6875 C 102.191406 122.917969 101.613281 122.742188 102.019531 122.6875 L 101.960938 120.957031 C 101.210938 121.128906 100.460938 121.070312 98.554688 120.148438 " fill-opacity="0.4" fill-rule="evenodd"/><path fill="#e5e5e5" d="M 90.410156 147.082031 C 88.621094 144.71875 81.921875 140.507812 82.152344 139.757812 C 83.65625 135.953125 87.523438 136.296875 89.140625 133.066406 C 90.46875 130.414062 92.488281 123.609375 89.488281 124.761719 C 84.230469 126.78125 74.933594 135.316406 74.359375 138.375 C 73.78125 141.429688 85.039062 148.753906 87.753906 149.101562 C 89.082031 149.273438 89.429688 149.332031 90.121094 148.8125 C 90.527344 148.523438 91.105469 147.949219 90.410156 147.082031 Z M 90.410156 147.082031 " fill-opacity="1" fill-rule="nonzero"/><path fill="#000000" d="M 101.902344 107.34375 C 101.035156 107.34375 100.226562 107.746094 99.765625 108.441406 C 95.953125 108.671875 92.777344 111.035156 92.722656 114.554688 C 92.664062 116.457031 93.761719 118.820312 96.359375 119.457031 L 96.53125 119.457031 C 96.417969 119.398438 96.300781 119.28125 96.1875 119.226562 C 95.839844 118.996094 95.609375 118.246094 96.070312 117.898438 C 96.300781 117.726562 96.878906 117.957031 97.226562 118.128906 C 97.976562 118.476562 97.6875 118.128906 97.515625 117.667969 C 96.878906 116.109375 96.820312 115.128906 97.398438 114.4375 C 98.554688 113.054688 100.921875 114.265625 103 113.226562 C 103.171875 113.113281 103.347656 112.996094 103.519531 112.9375 C 104.269531 112.304688 104.730469 111.382812 104.730469 110.402344 C 104.675781 108.726562 103.402344 107.34375 101.902344 107.34375 Z M 101.902344 107.34375 " fill-opacity="1" fill-rule="nonzero"/><path fill="#ffd0c9" d="M 89.488281 146.621094 L 90.410156 147.082031 C 91.394531 147.023438 91.507812 147.488281 92.546875 147.371094 C 93.066406 147.3125 93.875 147.429688 94.164062 147.3125 C 94.625 147.140625 94.570312 147.71875 94.394531 147.949219 C 93.816406 148.582031 93.183594 148.46875 92.835938 148.640625 C 92.894531 148.8125 93.816406 149.910156 94.453125 150.714844 C 94.800781 151.179688 94.914062 151.925781 94.742188 152.042969 C 93.53125 153.023438 91.679688 152.214844 91.277344 151.871094 C 90.757812 151.410156 90.238281 150.3125 88.273438 149.503906 C 87.003906 148.582031 88.792969 146.792969 89.488281 146.621094 " fill-opacity="1" fill-rule="evenodd"/></svg>