<svg xmlns="http://www.w3.org/2000/svg" xmlns:xlink="http://www.w3.org/1999/xlink" width="277" zoomAndPan="magnify" viewBox="0 0 207.75 207.000001" height="276" preserveAspectRatio="xMidYMid meet" version="1.0"><defs><clipPath id="62bdf09a18"><path d="M 113 50.570312 L 194 50.570312 L 194 131 L 113 131 Z M 113 50.570312 " clip-rule="nonzero"/></clipPath><clipPath id="b0a358838d"><path d="M 0.375 78 L 207.125 78 L 207.125 203.582031 L 0.375 203.582031 Z M 0.375 78 " clip-rule="nonzero"/></clipPath><clipPath id="9bb0f0126a"><path d="M 0.375 115 L 207.125 115 L 207.125 203.582031 L 0.375 203.582031 Z M 0.375 115 " clip-rule="nonzero"/></clipPath></defs><g clip-path="url(#62bdf09a18)"><path fill="#000000" d="M 193.90625 90.660156 C 193.90625 91.972656 193.839844 93.285156 193.710938 94.589844 C 193.582031 95.898438 193.390625 97.195312 193.132812 98.480469 C 192.878906 99.769531 192.558594 101.042969 192.175781 102.296875 C 191.792969 103.554688 191.351562 104.789062 190.847656 106.003906 C 190.347656 107.214844 189.785156 108.402344 189.164062 109.558594 C 188.546875 110.71875 187.871094 111.84375 187.140625 112.933594 C 186.410156 114.023438 185.628906 115.078125 184.792969 116.09375 C 183.960938 117.109375 183.078125 118.082031 182.148438 119.007812 C 181.21875 119.9375 180.246094 120.816406 179.230469 121.652344 C 178.210938 122.484375 177.15625 123.265625 176.066406 123.996094 C 174.972656 124.722656 173.84375 125.398438 172.6875 126.015625 C 171.527344 126.636719 170.339844 127.195312 169.125 127.699219 C 167.910156 128.203125 166.675781 128.644531 165.414062 129.023438 C 164.15625 129.40625 162.882812 129.722656 161.59375 129.980469 C 160.304688 130.238281 159.007812 130.429688 157.699219 130.558594 C 156.390625 130.6875 155.078125 130.75 153.761719 130.75 C 152.449219 130.75 151.136719 130.6875 149.828125 130.558594 C 148.519531 130.429688 147.222656 130.238281 145.933594 129.980469 C 144.640625 129.722656 143.367188 129.40625 142.109375 129.023438 C 140.851562 128.644531 139.617188 128.203125 138.402344 127.699219 C 137.1875 127.195312 136 126.636719 134.839844 126.015625 C 133.679688 125.398438 132.554688 124.722656 131.460938 123.996094 C 130.367188 123.265625 129.3125 122.484375 128.296875 121.652344 C 127.28125 120.816406 126.308594 119.9375 125.378906 119.007812 C 124.449219 118.082031 123.566406 117.109375 122.734375 116.09375 C 121.898438 115.078125 121.117188 114.023438 120.386719 112.933594 C 119.65625 111.84375 118.980469 110.71875 118.363281 109.558594 C 117.742188 108.402344 117.179688 107.214844 116.675781 106.003906 C 116.175781 104.789062 115.730469 103.554688 115.351562 102.296875 C 114.96875 101.042969 114.648438 99.769531 114.394531 98.480469 C 114.136719 97.195312 113.945312 95.898438 113.816406 94.589844 C 113.6875 93.285156 113.621094 91.972656 113.621094 90.660156 C 113.621094 89.347656 113.6875 88.039062 113.816406 86.730469 C 113.945312 85.425781 114.136719 84.128906 114.394531 82.839844 C 114.648438 81.550781 114.96875 80.28125 115.351562 79.023438 C 115.730469 77.765625 116.175781 76.53125 116.675781 75.320312 C 117.179688 74.105469 117.742188 72.921875 118.363281 71.761719 C 118.980469 70.605469 119.65625 69.480469 120.386719 68.386719 C 121.117188 67.296875 121.898438 66.242188 122.734375 65.226562 C 123.566406 64.214844 124.449219 63.242188 125.378906 62.3125 C 126.308594 61.382812 127.28125 60.503906 128.296875 59.671875 C 129.3125 58.839844 130.367188 58.058594 131.460938 57.328125 C 132.554688 56.597656 133.679688 55.921875 134.839844 55.304688 C 136 54.6875 137.1875 54.125 138.402344 53.621094 C 139.617188 53.121094 140.851562 52.679688 142.109375 52.296875 C 143.367188 51.917969 144.640625 51.597656 145.933594 51.339844 C 147.222656 51.085938 148.519531 50.894531 149.828125 50.765625 C 151.136719 50.636719 152.449219 50.570312 153.761719 50.570312 C 155.078125 50.570312 156.390625 50.636719 157.699219 50.765625 C 159.007812 50.894531 160.304688 51.085938 161.59375 51.339844 C 162.882812 51.597656 164.15625 51.917969 165.414062 52.296875 C 166.675781 52.679688 167.910156 53.121094 169.125 53.621094 C 170.339844 54.125 171.527344 54.6875 172.6875 55.304688 C 173.84375 55.921875 174.972656 56.597656 176.066406 57.328125 C 177.15625 58.058594 178.210938 58.839844 179.230469 59.671875 C 180.246094 60.503906 181.21875 61.382812 182.148438 62.3125 C 183.078125 63.242188 183.960938 64.214844 184.792969 65.226562 C 185.628906 66.242188 186.410156 67.296875 187.140625 68.386719 C 187.871094 69.480469 188.546875 70.605469 189.164062 71.761719 C 189.785156 72.921875 190.347656 74.105469 190.847656 75.320312 C 191.351562 76.53125 191.792969 77.765625 192.175781 79.023438 C 192.558594 80.28125 192.878906 81.550781 193.132812 82.839844 C 193.390625 84.128906 193.582031 85.425781 193.710938 86.730469 C 193.839844 88.039062 193.90625 89.347656 193.90625 90.660156 Z M 193.90625 90.660156 " fill-opacity="1" fill-rule="nonzero"/></g><path fill="#ffffff" d="M 171.148438 74.59375 C 171.367188 74.59375 171.585938 74.648438 171.75 74.8125 C 171.914062 74.976562 171.96875 75.140625 171.96875 75.359375 C 171.96875 75.578125 171.914062 75.742188 171.75 75.910156 C 171.585938 76.074219 171.421875 76.128906 171.148438 76.128906 C 170.925781 76.128906 170.707031 76.074219 170.542969 75.910156 C 170.378906 75.742188 170.324219 75.578125 170.324219 75.359375 C 170.324219 75.140625 170.378906 74.976562 170.542969 74.8125 C 170.707031 74.648438 170.871094 74.59375 171.148438 74.59375 Z M 144.113281 69.546875 C 144.660156 69.546875 145.152344 69.65625 145.539062 69.929688 C 145.976562 70.203125 146.304688 70.535156 146.523438 71.027344 C 146.742188 71.519531 146.855469 72.015625 146.855469 72.671875 L 146.855469 72.945312 C 146.855469 73.550781 146.742188 74.097656 146.523438 74.59375 C 146.304688 75.085938 145.976562 75.414062 145.539062 75.6875 C 145.097656 75.964844 144.605469 76.074219 144.113281 76.074219 C 143.5625 76.074219 143.070312 75.964844 142.6875 75.6875 C 142.246094 75.414062 141.917969 75.085938 141.699219 74.648438 C 141.480469 74.207031 141.316406 73.660156 141.316406 73.054688 L 141.316406 72.671875 C 141.316406 72.070312 141.425781 71.519531 141.644531 71.027344 C 141.863281 70.535156 142.191406 70.203125 142.632812 69.929688 C 143.070312 69.65625 143.5625 69.546875 144.113281 69.546875 Z M 150.308594 69.546875 C 150.855469 69.546875 151.351562 69.65625 151.734375 69.929688 C 152.171875 70.203125 152.5 70.535156 152.722656 71.027344 C 152.941406 71.519531 153.050781 72.015625 153.050781 72.671875 L 153.050781 72.945312 C 153.050781 73.550781 152.941406 74.097656 152.722656 74.59375 C 152.5 75.085938 152.171875 75.414062 151.734375 75.6875 C 151.296875 75.964844 150.800781 76.074219 150.308594 76.074219 C 149.761719 76.074219 149.265625 75.964844 148.882812 75.6875 C 148.445312 75.414062 148.113281 75.085938 147.894531 74.648438 C 147.675781 74.207031 147.511719 73.660156 147.511719 73.054688 L 147.511719 72.671875 C 147.511719 72.070312 147.621094 71.519531 147.839844 71.027344 C 148.058594 70.535156 148.390625 70.203125 148.828125 69.929688 C 149.265625 69.65625 149.761719 69.546875 150.308594 69.546875 Z M 155.410156 69.65625 L 155.410156 72.453125 L 155.957031 71.628906 L 157.328125 69.65625 L 159.246094 69.65625 L 157.109375 72.453125 L 159.246094 76.019531 L 157.4375 76.019531 L 156.011719 73.660156 L 155.410156 74.371094 L 155.410156 76.074219 L 153.871094 76.074219 L 153.871094 69.65625 Z M 138.023438 69.65625 C 138.847656 69.65625 139.449219 69.820312 139.890625 70.09375 C 140.328125 70.367188 140.546875 70.808594 140.546875 71.410156 C 140.546875 71.738281 140.492188 72.015625 140.328125 72.234375 C 140.164062 72.453125 139.945312 72.617188 139.667969 72.726562 C 140 72.835938 140.273438 73 140.4375 73.222656 C 140.601562 73.441406 140.710938 73.769531 140.710938 74.097656 C 140.710938 74.703125 140.492188 75.195312 140.109375 75.523438 C 139.722656 75.851562 139.121094 76.019531 138.355469 76.019531 L 135.722656 76.019531 L 135.722656 69.65625 Z M 163.910156 69.65625 L 163.910156 70.863281 L 161.058594 70.863281 L 161.058594 72.179688 L 163.46875 72.179688 L 163.46875 73.332031 L 161.058594 73.332031 L 161.058594 74.867188 L 163.910156 74.867188 L 163.910156 76.019531 L 159.519531 76.019531 L 159.519531 69.65625 Z M 166.59375 69.65625 C 167.144531 69.65625 167.636719 69.765625 168.132812 70.039062 C 168.570312 70.3125 168.953125 70.644531 169.171875 71.136719 C 169.445312 71.574219 169.558594 72.125 169.558594 72.671875 L 169.558594 72.945312 C 169.558594 73.550781 169.445312 74.042969 169.171875 74.480469 C 168.953125 74.921875 168.570312 75.304688 168.132812 75.578125 C 167.691406 75.851562 167.199219 75.964844 166.648438 75.964844 L 164.566406 75.964844 L 164.566406 69.65625 Z M 144.058594 70.808594 C 143.289062 70.808594 142.90625 71.355469 142.851562 72.507812 L 142.851562 73 C 142.851562 73.605469 142.960938 74.097656 143.179688 74.425781 C 143.398438 74.757812 143.671875 74.921875 144.113281 74.921875 C 144.496094 74.921875 144.824219 74.757812 144.988281 74.425781 C 145.207031 74.097656 145.316406 73.605469 145.316406 73 L 145.316406 72.726562 C 145.316406 72.125 145.207031 71.628906 144.988281 71.300781 C 144.769531 70.972656 144.496094 70.808594 144.058594 70.808594 Z M 150.199219 70.808594 C 149.429688 70.808594 149.046875 71.355469 148.992188 72.507812 L 148.992188 73 C 148.992188 73.605469 149.101562 74.097656 149.320312 74.425781 C 149.539062 74.757812 149.816406 74.921875 150.253906 74.921875 C 150.636719 74.921875 150.964844 74.757812 151.132812 74.425781 C 151.351562 74.097656 151.460938 73.605469 151.460938 73 L 151.460938 72.726562 C 151.460938 72.125 151.351562 71.628906 151.132812 71.300781 C 150.910156 70.972656 150.636719 70.808594 150.199219 70.808594 Z M 138.355469 73.332031 L 137.257812 73.332031 L 137.257812 74.867188 L 138.242188 74.867188 C 138.519531 74.867188 138.738281 74.8125 138.902344 74.703125 C 139.066406 74.59375 139.121094 74.371094 139.121094 74.152344 C 139.121094 73.605469 138.847656 73.386719 138.355469 73.332031 Z M 166.59375 70.863281 L 166.101562 70.863281 L 166.101562 74.867188 L 166.648438 74.867188 C 167.089844 74.867188 167.417969 74.703125 167.636719 74.371094 C 167.855469 74.042969 167.964844 73.605469 167.964844 73 L 167.964844 72.726562 C 167.964844 72.125 167.855469 71.628906 167.636719 71.355469 C 167.417969 71.027344 167.035156 70.863281 166.59375 70.863281 Z M 171.96875 69.65625 L 171.75 73.988281 L 170.542969 73.988281 L 170.378906 69.65625 Z M 138.023438 70.808594 L 137.257812 70.808594 L 137.257812 72.289062 L 138.078125 72.289062 C 138.410156 72.289062 138.628906 72.234375 138.792969 72.125 C 138.957031 72.015625 139.011719 71.851562 139.011719 71.574219 C 139.011719 71.300781 138.957031 71.136719 138.792969 70.972656 C 138.628906 70.863281 138.410156 70.808594 138.023438 70.808594 Z M 138.023438 70.808594 " fill-opacity="1" fill-rule="nonzero"/><g clip-path="url(#b0a358838d)"><path fill="#f0f0f0" d="M 207.121094 160.367188 C 207.121094 158.226562 205.75 156.089844 202.898438 154.441406 L 75.453125 80.84375 C 69.804688 77.609375 60.648438 77.609375 55 80.84375 L 4.601562 109.910156 C 1.804688 111.554688 0.378906 113.695312 0.378906 115.832031 L 0.378906 121.757812 L 0.433594 121.757812 C 0.597656 123.730469 1.96875 125.707031 4.65625 127.242188 L 132.046875 200.839844 C 137.695312 204.074219 146.855469 204.074219 152.5 200.839844 L 202.898438 171.773438 C 205.421875 170.292969 206.847656 168.425781 207.066406 166.507812 L 207.121094 166.507812 Z M 207.121094 160.367188 " fill-opacity="1" fill-rule="nonzero"/></g><g clip-path="url(#9bb0f0126a)"><path fill="#9e9fb2" d="M 207.121094 160.367188 C 207.121094 162.503906 205.695312 164.589844 202.898438 166.234375 L 152.5 195.300781 C 146.855469 198.535156 137.695312 198.535156 132.046875 195.300781 L 4.601562 121.757812 C 1.75 120.113281 0.378906 117.972656 0.378906 115.832031 L 0.378906 121.757812 L 0.433594 121.757812 C 0.597656 123.730469 1.96875 125.707031 4.65625 127.242188 L 132.046875 200.839844 C 137.695312 204.074219 146.855469 204.074219 152.5 200.839844 L 202.898438 171.773438 C 205.421875 170.292969 206.847656 168.425781 207.066406 166.507812 L 207.121094 166.507812 Z M 207.121094 160.367188 " fill-opacity="1" fill-rule="nonzero"/></g><path fill="#a2384d" d="M 12.0625 123.839844 L 119.761719 186.085938 C 125.136719 189.214844 133.855469 189.214844 139.175781 186.085938 L 187.050781 158.445312 C 192.425781 155.320312 192.425781 150.328125 187.050781 147.203125 L 79.347656 85.011719 C 73.972656 81.886719 65.253906 81.886719 59.933594 85.011719 L 12.0625 112.652344 C 6.6875 115.722656 6.6875 120.769531 12.0625 123.839844 Z M 12.0625 123.839844 " fill-opacity="1" fill-rule="evenodd"/><path fill="#9e9fb2" d="M 165.9375 173.199219 C 168.789062 171.554688 173.449219 171.554688 176.355469 173.199219 C 177.945312 174.132812 178.660156 175.335938 178.496094 176.542969 C 178.332031 175.558594 177.671875 174.625 176.355469 173.855469 C 173.503906 172.210938 168.84375 172.210938 165.9375 173.855469 C 164.675781 174.625 163.964844 175.558594 163.796875 176.542969 C 163.632812 175.335938 164.347656 174.132812 165.9375 173.199219 Z M 33.941406 94.71875 C 35.039062 94.117188 36.792969 94.117188 37.890625 94.71875 L 37.945312 94.71875 C 38.601562 95.101562 38.875 95.652344 38.710938 96.144531 C 38.601562 95.871094 38.328125 95.542969 37.945312 95.324219 L 37.890625 95.324219 C 36.792969 94.71875 35.039062 94.71875 33.941406 95.324219 L 23.578125 101.300781 C 23.136719 101.519531 22.917969 101.792969 22.808594 102.121094 C 22.644531 101.628906 22.917969 101.082031 23.578125 100.695312 Z M 40.082031 90.769531 C 41.179688 90.113281 42.988281 90.113281 44.085938 90.769531 C 44.800781 91.210938 45.074219 91.757812 44.855469 92.304688 C 44.746094 92.03125 44.46875 91.757812 44.085938 91.539062 C 42.988281 90.878906 41.179688 90.878906 40.082031 91.539062 C 39.699219 91.757812 39.480469 92.03125 39.316406 92.304688 C 39.097656 91.757812 39.371094 91.210938 40.082031 90.769531 Z M 40.082031 90.769531 " fill-opacity="1" fill-rule="nonzero"/><path fill="#ffffff" d="M 178.550781 154.277344 L 132.816406 180.933594 C 129.523438 182.851562 123.984375 182.742188 120.476562 180.65625 L 38.65625 132.175781 C 35.148438 130.09375 34.984375 126.855469 38.273438 124.9375 L 84.007812 98.285156 C 87.300781 96.363281 92.835938 96.472656 96.347656 98.558594 L 178.222656 147.039062 C 181.675781 149.125 181.839844 152.359375 178.550781 154.277344 Z M 178.550781 154.277344 " fill-opacity="1" fill-rule="nonzero"/><path fill="#a2384d" d="M 165.058594 150.988281 L 127.058594 173.144531 C 122.667969 175.335938 118.390625 173.582031 114.609375 171.167969 C 110.332031 168.59375 110.332031 165.082031 113.183594 163.4375 L 151.1875 141.28125 C 154.476562 139.414062 159.300781 140.183594 162.921875 143.035156 C 167.910156 146.050781 167.910156 149.34375 165.058594 150.988281 Z M 165.058594 150.988281 " fill-opacity="1" fill-rule="nonzero"/><path fill="#f0f0f0" d="M 60.042969 136.507812 L 104.574219 110.347656 C 105.066406 110.074219 105.726562 110.074219 106.21875 110.347656 L 120.476562 118.683594 C 121.242188 119.125 121.519531 120.167969 121.078125 120.933594 C 120.914062 121.152344 120.75 121.371094 120.476562 121.539062 L 75.949219 147.640625 C 75.453125 147.917969 74.796875 147.917969 74.300781 147.640625 L 60.042969 139.304688 C 59.277344 138.867188 59.003906 137.824219 59.441406 137.058594 C 59.550781 136.839844 59.769531 136.617188 60.042969 136.507812 Z M 60.042969 136.507812 " fill-opacity="1" fill-rule="evenodd"/><path fill="#dfdfdf" d="M 51.542969 125.707031 L 88.339844 104.152344 L 91.136719 105.6875 L 54.339844 127.242188 Z M 51.542969 125.707031 " fill-opacity="1" fill-rule="evenodd"/><path fill="#dfdfdf" d="M 60.59375 125.320312 L 87.683594 109.691406 L 90.480469 111.226562 L 63.390625 126.855469 Z M 60.59375 125.320312 " fill-opacity="1" fill-rule="evenodd"/><path fill="#f0f0f0" d="M 80.445312 148.246094 L 124.972656 122.140625 C 125.464844 121.8125 126.125 121.867188 126.617188 122.140625 L 140.875 130.476562 C 141.644531 130.914062 141.917969 131.957031 141.480469 132.726562 C 141.316406 132.945312 141.152344 133.164062 140.875 133.328125 L 96.347656 159.433594 C 95.855469 159.761719 95.195312 159.761719 94.703125 159.433594 L 80.445312 151.097656 C 79.675781 150.660156 79.402344 149.617188 79.839844 148.847656 C 80.003906 148.574219 80.171875 148.355469 80.445312 148.246094 Z M 80.445312 148.246094 " fill-opacity="1" fill-rule="evenodd"/><path fill="#a2384d" d="M 128.8125 128.558594 C 129.140625 128.777344 129.414062 128.941406 129.523438 129.214844 L 131.664062 132.449219 C 131.773438 132.617188 131.71875 132.835938 131.5 132.945312 C 131.28125 133.054688 130.949219 133.109375 130.621094 133.054688 L 125.082031 131.792969 C 124.699219 131.683594 124.371094 131.519531 124.039062 131.355469 C 122.613281 130.53125 122.558594 129.214844 123.875 128.449219 C 125.191406 127.679688 127.386719 127.734375 128.8125 128.558594 Z M 125.191406 129.214844 C 124.535156 129.597656 124.589844 130.257812 125.246094 130.640625 C 125.960938 131.078125 127.058594 131.078125 127.714844 130.695312 C 128.375 130.3125 128.316406 129.652344 127.660156 129.269531 C 126.945312 128.832031 125.851562 128.832031 125.191406 129.214844 Z M 105.890625 118.851562 C 105.945312 118.027344 107.152344 117.371094 108.632812 117.480469 C 110.058594 117.589844 111.207031 118.355469 111.152344 119.179688 C 111.097656 120 109.890625 120.660156 108.410156 120.550781 C 106.984375 120.496094 105.835938 119.726562 105.890625 118.851562 Z M 105.890625 118.851562 " fill-opacity="1" fill-rule="nonzero"/><path fill="#ffffff" d="M 131.003906 161.574219 C 132.429688 162.394531 132.761719 163.328125 132.375 163.984375 L 132.429688 163.984375 C 133.035156 163.820312 133.636719 163.601562 134.1875 163.382812 L 134.898438 164.316406 C 133.800781 164.644531 132.871094 164.863281 131.71875 165.136719 L 131.226562 165.300781 C 129.800781 166.015625 127.605469 166.125 125.578125 164.917969 C 123.710938 163.820312 123.4375 162.339844 125.136719 161.351562 C 126.890625 160.3125 129.304688 160.585938 131.003906 161.574219 Z M 126.234375 162.066406 C 125.355469 162.613281 125.742188 163.4375 126.890625 164.148438 C 128.042969 164.863281 129.46875 165.082031 130.347656 164.535156 C 131.28125 163.984375 130.894531 163.164062 129.6875 162.449219 C 128.539062 161.792969 127.113281 161.515625 126.234375 162.066406 Z M 133.582031 156.527344 L 137.039062 158.554688 C 138.957031 159.707031 138.957031 160.75 137.421875 161.628906 C 135.941406 162.503906 134.242188 162.449219 132.265625 161.296875 L 128.8125 159.269531 L 130.183594 158.554688 L 133.746094 160.640625 C 134.789062 161.242188 135.722656 161.351562 136.378906 160.96875 C 137.09375 160.585938 136.929688 160.035156 135.832031 159.378906 L 132.265625 157.292969 Z M 143.070312 154.605469 C 145.097656 155.8125 145.152344 157.183594 143.453125 158.171875 C 141.753906 159.160156 139.339844 158.941406 137.585938 157.898438 C 135.722656 156.800781 135.445312 155.320312 137.148438 154.332031 C 138.957031 153.347656 141.371094 153.621094 143.070312 154.605469 Z M 138.242188 155.101562 C 137.367188 155.59375 137.75 156.417969 138.957031 157.128906 C 140.164062 157.84375 141.535156 158.0625 142.410156 157.515625 C 143.289062 157.019531 142.90625 156.199219 141.699219 155.484375 C 140.601562 154.828125 139.121094 154.550781 138.242188 155.101562 Z M 144.714844 150.164062 L 145.867188 150.878906 L 144.277344 151.808594 L 149.265625 154.773438 L 147.949219 155.539062 L 142.960938 152.523438 L 141.425781 153.457031 L 140.273438 152.742188 Z M 148.9375 147.640625 L 150.089844 148.300781 L 147.839844 149.617188 L 149.101562 150.382812 L 151.242188 149.125 L 152.390625 149.835938 L 150.253906 151.097656 L 151.734375 151.976562 L 154.09375 150.605469 L 155.242188 151.261719 L 151.570312 153.402344 L 145.371094 149.726562 Z M 148.9375 147.640625 " fill-opacity="1" fill-rule="nonzero"/><path fill="#a2384d" d="M 168.84375 89.34375 L 156.835938 85.671875 C 156.722656 85.617188 156.613281 85.617188 156.503906 85.671875 L 144.496094 89.289062 C 144.222656 89.34375 144.058594 89.617188 144.058594 89.894531 L 144.058594 103.21875 C 144.058594 108.59375 152.171875 113.3125 156.503906 114.683594 C 156.558594 114.683594 156.613281 114.683594 156.667969 114.683594 C 156.722656 114.683594 156.78125 114.683594 156.835938 114.683594 C 161.167969 113.3125 169.28125 108.539062 169.28125 103.21875 L 169.28125 89.894531 C 169.28125 89.617188 169.117188 89.398438 168.84375 89.34375 Z M 168.84375 89.34375 " fill-opacity="1" fill-rule="evenodd"/><path fill="#ffffff" d="M 152.941406 80.1875 C 153.050781 80.1875 153.105469 80.132812 153.214844 80.1875 L 153.324219 80.1875 L 166.101562 84.023438 C 166.320312 84.078125 166.539062 84.300781 166.539062 84.574219 L 166.539062 98.777344 C 166.539062 101.574219 164.457031 104.207031 161.769531 106.347656 L 161.332031 106.675781 C 161.058594 106.894531 160.726562 107.113281 160.453125 107.332031 L 160.015625 107.660156 L 159.574219 107.9375 C 159.410156 108.046875 159.246094 108.101562 159.136719 108.210938 L 158.261719 108.757812 L 158.039062 108.867188 L 157.601562 109.144531 C 157.4375 109.199219 157.273438 109.308594 157.164062 109.363281 L 156.722656 109.582031 L 155.410156 110.238281 L 154.96875 110.402344 L 154.585938 110.570312 L 154.203125 110.734375 L 153.816406 110.84375 C 153.707031 110.898438 153.542969 110.953125 153.433594 110.953125 C 153.378906 110.953125 153.324219 111.007812 153.269531 111.007812 C 153.214844 111.007812 153.160156 111.007812 153.105469 110.953125 L 152.722656 110.84375 L 152.335938 110.734375 C 152.28125 110.734375 152.226562 110.679688 152.117188 110.679688 L 151.734375 110.515625 L 151.296875 110.347656 L 151.078125 110.238281 L 150.636719 110.074219 L 149.761719 109.636719 L 149.539062 109.527344 L 148.664062 109.089844 C 148.226562 108.8125 147.730469 108.59375 147.292969 108.320312 L 146.855469 108.046875 C 146.523438 107.828125 146.25 107.660156 145.976562 107.441406 L 145.539062 107.113281 C 145.484375 107.058594 145.375 107.003906 145.316406 106.949219 L 144.878906 106.621094 C 142.191406 104.535156 140 101.902344 139.890625 99.105469 L 139.890625 84.683594 C 139.890625 84.410156 140.054688 84.1875 140.273438 84.078125 L 140.328125 84.023438 Z M 153.105469 81.722656 L 141.152344 85.285156 L 141.152344 98.722656 C 141.152344 102.507812 147.074219 107.277344 152.832031 109.253906 L 153.105469 109.363281 C 158.863281 107.496094 164.839844 102.726562 165.058594 98.886719 L 165.058594 85.285156 Z M 153.105469 81.722656 " fill-opacity="1" fill-rule="nonzero"/><path fill="#ffffff" d="M 158.644531 90.332031 C 158.917969 90.003906 159.355469 89.949219 159.6875 90.222656 C 159.960938 90.441406 160.070312 90.878906 159.851562 91.210938 L 159.796875 91.265625 L 153.816406 99.050781 C 153.707031 99.214844 153.542969 99.324219 153.324219 99.324219 L 152.832031 99.324219 C 152.667969 99.324219 152.5 99.269531 152.390625 99.160156 L 152.335938 99.105469 L 148.167969 94.992188 C 147.894531 94.71875 147.839844 94.226562 148.167969 93.898438 C 148.445312 93.621094 148.828125 93.566406 149.15625 93.785156 L 149.210938 93.839844 L 153.050781 97.625 Z M 158.644531 90.332031 " fill-opacity="1" fill-rule="nonzero"/><path fill="#ffffff" d="M 40.796875 113.035156 C 40.90625 113.089844 41.015625 113.144531 41.125 113.203125 C 41.453125 113.367188 41.617188 113.585938 41.453125 113.695312 C 41.398438 113.75 41.234375 113.75 41.070312 113.695312 C 41.015625 113.640625 40.90625 113.585938 40.796875 113.53125 C 40.632812 113.476562 40.523438 113.367188 40.355469 113.367188 L 40.246094 113.421875 C 40.414062 113.476562 40.523438 113.53125 40.6875 113.585938 C 41.015625 113.75 41.179688 113.96875 41.015625 114.078125 C 40.851562 114.132812 40.523438 114.078125 40.191406 113.914062 C 40.027344 113.804688 39.917969 113.75 39.863281 113.640625 L 39.261719 113.96875 C 39.316406 114.078125 39.425781 114.132812 39.589844 114.242188 C 39.972656 114.460938 40.46875 114.570312 40.632812 114.460938 L 41.125 114.1875 C 41.179688 114.132812 41.179688 114.078125 41.179688 114.023438 L 41.507812 113.804688 C 41.671875 113.695312 41.507812 113.421875 41.125 113.203125 C 41.015625 113.144531 40.90625 113.089844 40.796875 113.035156 Z M 40.796875 113.035156 " fill-opacity="1" fill-rule="nonzero"/><path fill="#ffffff" d="M 36.355469 116.164062 L 36.246094 116.21875 C 36.355469 116.273438 36.410156 116.328125 36.519531 116.328125 C 37.066406 116.601562 37.285156 116.984375 37.066406 117.09375 C 36.957031 117.148438 36.683594 117.148438 36.410156 117.09375 C 36.300781 116.984375 36.136719 116.875 35.96875 116.820312 C 35.804688 116.765625 35.695312 116.65625 35.53125 116.601562 L 35.421875 116.65625 C 35.585938 116.710938 35.695312 116.765625 35.859375 116.875 C 36.410156 117.148438 36.628906 117.535156 36.410156 117.644531 C 36.191406 117.753906 35.585938 117.644531 35.039062 117.371094 C 34.875 117.3125 34.765625 117.203125 34.652344 117.09375 L 33.777344 117.589844 C 33.886719 117.699219 33.886719 117.808594 34.050781 117.917969 C 34.710938 118.300781 35.476562 118.464844 35.804688 118.246094 L 36.628906 117.753906 C 36.738281 117.699219 36.738281 117.589844 36.738281 117.535156 L 37.285156 117.203125 C 37.617188 117.039062 37.285156 116.601562 36.628906 116.21875 C 36.519531 116.21875 36.464844 116.164062 36.355469 116.164062 Z M 36.355469 116.164062 " fill-opacity="1" fill-rule="nonzero"/><path fill="#ffffff" d="M 32.789062 116.929688 L 33.558594 117.371094 L 33.722656 116.710938 L 33.667969 116.601562 L 39.371094 113.421875 L 39.425781 113.585938 L 33.503906 117.371094 L 34.105469 117.699219 L 41.179688 112.980469 L 40.632812 112.488281 Z M 32.789062 116.929688 " fill-opacity="1" fill-rule="nonzero"/><path fill="#ffffff" d="M 25.824219 123.347656 C 26.59375 123.730469 27.414062 123.894531 27.800781 123.675781 C 28.128906 123.457031 27.855469 123.019531 27.195312 122.578125 C 26.867188 122.910156 26.375 123.128906 25.824219 123.347656 Z M 25.824219 123.347656 " fill-opacity="1" fill-rule="nonzero"/><path fill="#ffffff" d="M 25.277344 123.511719 C 26.097656 123.949219 26.976562 124.113281 27.359375 123.894531 L 27.800781 123.621094 L 27.46875 123.402344 C 27.359375 123.238281 27.140625 123.019531 26.867188 122.796875 C 26.429688 123.128906 25.878906 123.347656 25.277344 123.511719 Z M 25.277344 123.511719 " fill-opacity="1" fill-rule="nonzero"/><path fill="#ffffff" d="M 29.226562 119.890625 L 28.785156 120.167969 C 28.402344 120.386719 28.785156 120.933594 29.609375 121.425781 C 30.433594 121.867188 31.417969 122.085938 31.800781 121.867188 L 32.242188 121.59375 C 32.625 121.371094 32.242188 120.824219 31.417969 120.332031 C 30.597656 119.835938 29.609375 119.671875 29.226562 119.890625 Z M 31.914062 121.316406 C 31.636719 121.480469 30.925781 121.316406 30.265625 120.933594 C 29.609375 120.550781 29.335938 120.167969 29.609375 120 C 29.882812 119.835938 30.597656 120 31.253906 120.386719 C 31.914062 120.769531 32.1875 121.152344 31.914062 121.316406 Z M 31.914062 121.316406 " fill-opacity="1" fill-rule="nonzero"/><path fill="#ffffff" d="M 39.207031 114.792969 L 37.5625 115.941406 C 37.394531 116.054688 37.066406 116.054688 36.792969 115.941406 C 36.574219 115.832031 36.519531 115.613281 36.683594 115.503906 L 38.328125 114.351562 C 38.492188 114.242188 38.820312 114.242188 39.097656 114.351562 C 39.316406 114.460938 39.371094 114.683594 39.207031 114.792969 Z M 39.207031 114.792969 " fill-opacity="1" fill-rule="nonzero"/><path fill="#ffffff" d="M 25.003906 120.660156 L 23.300781 121.648438 L 23.300781 121.8125 L 25.113281 120.769531 Z M 25.003906 120.660156 " fill-opacity="1" fill-rule="nonzero"/><path fill="#ffffff" d="M 22.808594 121.921875 L 22.972656 121.976562 L 25.113281 120.714844 L 24.949219 120.660156 Z M 23.414062 122.359375 L 25.550781 121.097656 L 25.386719 121.042969 L 23.246094 122.304688 Z M 23.851562 122.6875 L 25.988281 121.425781 L 25.824219 121.371094 L 23.6875 122.632812 Z M 24.289062 122.964844 L 26.429688 121.703125 L 26.265625 121.648438 L 24.125 122.910156 Z M 24.289062 122.964844 " fill-opacity="1" fill-rule="nonzero"/><path fill="#ffffff" d="M 25.878906 121.316406 L 23.742188 122.578125 L 23.90625 122.632812 L 26.042969 121.371094 Z M 25.878906 121.316406 " fill-opacity="1" fill-rule="nonzero"/><path fill="#ffffff" d="M 33.285156 116.875 L 32.679688 117.257812 L 26.429688 113.695312 L 26.703125 113.476562 L 25.550781 113.859375 L 25.003906 114.1875 C 24.5625 114.296875 24.453125 114.40625 24.453125 114.40625 C 24.398438 114.460938 24.289062 114.515625 24.234375 114.570312 C 23.851562 115.011719 23.6875 115.503906 23.960938 115.941406 C 23.027344 116.492188 22.097656 117.148438 21.710938 117.644531 C 21.65625 117.371094 21.65625 117.039062 21.710938 116.765625 C 21.054688 117.589844 21.492188 118.464844 21.710938 118.796875 C 21.492188 118.960938 21.4375 119.070312 21.4375 119.070312 L 22.097656 119.78125 L 22.316406 119.671875 L 22.863281 120.222656 L 22.316406 119.890625 L 22.152344 120 L 22.152344 120.167969 L 23.027344 120.660156 C 22.753906 120.988281 22.480469 121.425781 22.316406 121.8125 C 23.300781 120.824219 24.949219 120.167969 24.949219 120.167969 C 24.949219 120.167969 26.757812 121.59375 27.03125 121.757812 C 25.222656 123.019531 24.398438 123.292969 24.398438 123.292969 C 23.90625 123.074219 23.523438 122.796875 23.191406 122.578125 C 23.191406 122.632812 23.191406 122.632812 23.191406 122.6875 C 23.191406 122.6875 23.191406 122.742188 23.191406 122.742188 C 23.191406 122.742188 23.191406 122.796875 23.191406 122.796875 C 23.191406 122.796875 23.191406 122.851562 23.246094 122.851562 C 23.246094 122.851562 23.246094 122.910156 23.300781 122.910156 C 23.300781 122.910156 23.300781 122.910156 23.300781 122.964844 C 23.300781 122.964844 23.359375 123.019531 23.359375 123.019531 C 23.359375 123.019531 23.359375 123.019531 23.414062 123.074219 C 23.414062 123.074219 23.46875 123.128906 23.46875 123.128906 C 23.46875 123.128906 23.46875 123.128906 23.523438 123.183594 C 23.578125 123.238281 23.578125 123.238281 23.632812 123.292969 L 23.90625 123.292969 L 23.90625 123.457031 L 25.167969 124.167969 C 25.167969 124.167969 28.785156 122.46875 29.992188 121.425781 L 30.101562 121.484375 L 30.652344 121.152344 C 30.488281 121.097656 30.375 121.042969 30.210938 120.933594 C 29.554688 120.550781 29.28125 120.167969 29.554688 120 C 29.828125 119.835938 30.542969 120 31.199219 120.386719 C 31.363281 120.441406 31.472656 120.550781 31.582031 120.660156 L 31.914062 120.496094 L 35.585938 117.863281 L 33.722656 116.820312 L 33.394531 117.039062 Z M 25.550781 114.40625 C 26.152344 114.1875 26.921875 114.570312 26.921875 114.570312 C 24.785156 114.078125 25.222656 115.613281 25.222656 115.613281 C 25.003906 115.230469 24.949219 114.628906 25.550781 114.40625 Z M 27.691406 117.972656 C 27.691406 117.917969 27.691406 117.917969 27.691406 117.972656 C 27.800781 117.863281 27.964844 117.863281 28.074219 117.917969 L 27.964844 117.535156 L 27.46875 117.863281 L 26.265625 116.875 L 27.359375 116.382812 L 28.621094 117.09375 L 28.128906 117.425781 L 28.292969 118.027344 C 28.347656 118.082031 28.347656 118.136719 28.292969 118.191406 C 28.292969 118.191406 28.238281 118.246094 28.238281 118.246094 C 28.238281 118.246094 28.183594 118.246094 28.183594 118.246094 Z M 25.496094 116.984375 L 26.757812 118.027344 C 26.757812 118.027344 26.921875 118.246094 26.375 118.519531 C 26.375 118.519531 25.550781 118.960938 24.726562 119.507812 L 23.523438 118.355469 Z M 23.300781 120.441406 L 22.152344 119.34375 L 23.300781 118.519531 L 24.507812 119.617188 C 24.070312 119.890625 23.632812 120.222656 23.300781 120.441406 Z M 28.074219 120.824219 C 28.019531 120.878906 27.636719 121.207031 27.195312 121.539062 C 27.195312 121.539062 26.8125 121.316406 26.8125 121.097656 C 26.921875 120.824219 27.140625 120.386719 27.414062 120.332031 C 27.691406 120.386719 28.128906 120.769531 28.074219 120.824219 Z M 26.703125 121.152344 C 26.703125 121.152344 26.042969 120.277344 28.074219 118.683594 C 28.074219 118.683594 28.839844 118.191406 29.664062 117.863281 C 29.664062 117.863281 26.648438 120.113281 26.703125 121.152344 Z M 30.761719 119.78125 L 30.488281 119.726562 L 33.171875 117.808594 L 33.777344 117.699219 Z M 30.761719 119.78125 " fill-opacity="1" fill-rule="nonzero"/><path fill="#ffffff" d="M 27.359375 113.3125 L 33.226562 116.601562 L 32.625 116.929688 L 26.867188 113.640625 Z M 27.304688 112.980469 L 26.429688 113.695312 L 32.679688 117.257812 L 33.722656 116.65625 Z M 27.304688 112.980469 " fill-opacity="1" fill-rule="nonzero"/><path fill="#ffffff" d="M 25.550781 121.042969 L 25.386719 120.988281 L 23.300781 122.195312 L 23.300781 122.25 L 23.359375 122.304688 Z M 25.550781 121.042969 " fill-opacity="1" fill-rule="nonzero"/><path fill="#ffffff" d="M 26.320312 121.648438 L 24.179688 122.910156 L 24.34375 122.964844 L 26.484375 121.703125 Z M 26.320312 121.648438 " fill-opacity="1" fill-rule="nonzero"/><path fill="#ffffff" d="M 27.085938 116.546875 L 26.648438 116.820312 L 27.910156 117.535156 L 28.347656 117.257812 Z M 27.085938 116.546875 " fill-opacity="1" fill-rule="nonzero"/><path fill="#ffffff" d="M 27.691406 117.535156 L 27.910156 117.480469 L 26.648438 116.765625 L 26.59375 116.875 Z M 27.691406 117.535156 " fill-opacity="1" fill-rule="nonzero"/><path fill="#ffffff" d="M 39.261719 111.445312 L 36.683594 112.214844 L 38.988281 111.226562 L 38.765625 111.0625 L 28.949219 113.421875 L 37.726562 110.238281 L 37.449219 110.019531 L 27.25 112.980469 L 33.226562 116.4375 L 40.191406 112.433594 L 41.015625 113.089844 L 41.234375 112.925781 Z M 39.261719 111.445312 " fill-opacity="1" fill-rule="nonzero"/><path fill="#ffffff" d="M 38.492188 107.605469 L 40.960938 108.976562 C 41.179688 109.144531 41.453125 109.199219 41.671875 109.199219 C 41.894531 109.199219 42.113281 109.144531 42.332031 109.03125 C 42.550781 108.921875 42.605469 108.8125 42.605469 108.648438 C 42.605469 108.539062 42.441406 108.375 42.222656 108.210938 L 39.753906 106.839844 L 40.578125 106.347656 L 42.988281 107.71875 C 43.375 107.9375 43.59375 108.15625 43.703125 108.375 C 43.8125 108.59375 43.8125 108.8125 43.757812 109.03125 C 43.648438 109.253906 43.484375 109.417969 43.210938 109.582031 C 42.933594 109.746094 42.605469 109.855469 42.277344 109.910156 C 41.949219 109.964844 41.5625 109.964844 41.179688 109.910156 C 40.796875 109.855469 40.414062 109.691406 40.082031 109.472656 L 37.671875 108.101562 Z M 38.492188 107.605469 " fill-opacity="1" fill-rule="nonzero"/><path fill="#ffffff" d="M 48.253906 106.566406 L 47.429688 107.058594 L 43.484375 106.457031 L 46.003906 107.882812 L 45.183594 108.375 L 41.070312 106.070312 L 41.894531 105.578125 L 45.839844 106.179688 L 43.320312 104.753906 L 44.140625 104.261719 Z M 48.253906 106.566406 " fill-opacity="1" fill-rule="nonzero"/><path fill="#ffffff" d="M 45.511719 103.4375 L 49.625 105.742188 L 48.800781 106.234375 L 44.691406 103.933594 Z M 45.511719 103.4375 " fill-opacity="1" fill-rule="nonzero"/><path fill="#ffffff" d="M 48.527344 101.683594 L 49.351562 102.121094 L 48.417969 102.671875 L 51.707031 104.535156 L 50.832031 105.03125 L 47.542969 103.164062 L 46.609375 103.714844 L 45.785156 103.273438 Z M 48.527344 101.683594 " fill-opacity="1" fill-rule="nonzero"/><path fill="#ffffff" d="M 50.449219 101.464844 L 51.269531 101.957031 L 52.421875 101.300781 L 53.191406 101.738281 L 52.039062 102.398438 L 52.914062 102.890625 L 54.175781 102.121094 L 55 102.5625 L 52.859375 103.824219 L 48.746094 101.519531 L 50.886719 100.257812 L 51.707031 100.695312 Z M 50.449219 101.464844 " fill-opacity="1" fill-rule="nonzero"/><path fill="#ffffff" d="M 52.695312 99.214844 C 53.078125 98.996094 53.464844 98.886719 53.902344 98.777344 C 54.339844 98.722656 54.78125 98.722656 55.273438 98.832031 C 55.710938 98.941406 56.152344 99.050781 56.589844 99.324219 C 56.972656 99.546875 57.246094 99.820312 57.414062 100.039062 C 57.578125 100.3125 57.578125 100.585938 57.523438 100.808594 C 57.414062 101.082031 57.191406 101.300781 56.808594 101.519531 L 55.492188 102.289062 L 51.378906 99.984375 Z M 55.875 101.082031 C 56.207031 100.917969 56.316406 100.695312 56.316406 100.476562 C 56.261719 100.257812 56.097656 100.039062 55.710938 99.820312 C 55.328125 99.601562 54.945312 99.492188 54.5625 99.492188 C 54.175781 99.492188 53.847656 99.546875 53.519531 99.765625 L 53.132812 99.984375 L 55.492188 101.300781 Z M 55.875 101.082031 " fill-opacity="1" fill-rule="nonzero"/><path fill="#ffffff" d="M 61.195312 98.996094 C 60.921875 99.160156 60.648438 99.269531 60.375 99.324219 C 60.097656 99.378906 59.769531 99.378906 59.441406 99.378906 C 59.113281 99.324219 58.839844 99.269531 58.5625 99.105469 L 59.441406 98.558594 C 59.605469 98.613281 59.769531 98.667969 59.933594 98.667969 C 60.097656 98.667969 60.207031 98.613281 60.375 98.558594 C 60.484375 98.503906 60.539062 98.394531 60.59375 98.339844 C 60.59375 98.285156 60.539062 98.175781 60.429688 98.121094 C 60.320312 98.066406 60.207031 98.011719 60.097656 98.011719 C 59.988281 98.011719 59.878906 98.011719 59.714844 98.066406 C 59.605469 98.066406 59.441406 98.121094 59.222656 98.175781 C 58.894531 98.285156 58.671875 98.339844 58.453125 98.339844 C 58.234375 98.394531 58.015625 98.394531 57.742188 98.339844 C 57.46875 98.285156 57.246094 98.230469 56.972656 98.066406 C 56.589844 97.84375 56.425781 97.625 56.425781 97.351562 C 56.425781 97.078125 56.644531 96.859375 57.027344 96.640625 C 57.414062 96.417969 57.851562 96.308594 58.289062 96.253906 C 58.726562 96.253906 59.167969 96.308594 59.550781 96.527344 L 58.617188 97.078125 C 58.453125 97.023438 58.34375 96.96875 58.179688 96.96875 C 58.015625 96.96875 57.90625 97.023438 57.796875 97.078125 C 57.6875 97.132812 57.632812 97.1875 57.632812 97.296875 C 57.632812 97.351562 57.6875 97.460938 57.796875 97.515625 C 57.90625 97.570312 58.070312 97.625 58.234375 97.570312 C 58.398438 97.570312 58.671875 97.515625 58.949219 97.40625 C 59.277344 97.351562 59.550781 97.242188 59.769531 97.242188 C 59.988281 97.1875 60.207031 97.1875 60.484375 97.242188 C 60.757812 97.296875 60.976562 97.351562 61.25 97.515625 C 61.46875 97.625 61.632812 97.789062 61.746094 97.953125 C 61.855469 98.121094 61.855469 98.285156 61.746094 98.449219 C 61.632812 98.667969 61.46875 98.832031 61.195312 98.996094 Z M 61.195312 98.996094 " fill-opacity="1" fill-rule="nonzero"/><path fill="#ffffff" d="M 61.25 94.171875 L 62.074219 94.609375 L 61.140625 95.15625 L 64.429688 97.023438 L 63.609375 97.515625 L 60.320312 95.652344 L 59.386719 96.199219 L 58.5625 95.761719 Z M 61.25 94.171875 " fill-opacity="1" fill-rule="nonzero"/><path fill="#ffffff" d="M 67.0625 94.609375 L 65.746094 95.378906 L 66.242188 95.925781 L 65.363281 96.417969 L 62.511719 93.347656 L 63.5 92.800781 L 68.820312 94.390625 L 67.941406 94.9375 Z M 66.078125 94.335938 L 64.15625 93.730469 L 65.253906 94.828125 Z M 66.078125 94.335938 " fill-opacity="1" fill-rule="nonzero"/><path fill="#ffffff" d="M 67.558594 90.441406 L 68.378906 90.878906 L 67.449219 91.429688 L 70.738281 93.292969 L 69.914062 93.785156 L 66.625 91.921875 L 65.691406 92.46875 L 64.871094 92.03125 Z M 67.558594 90.441406 " fill-opacity="1" fill-rule="nonzero"/><path fill="#ffffff" d="M 69.53125 90.222656 L 70.355469 90.714844 L 71.503906 90.058594 L 72.273438 90.496094 L 71.121094 91.15625 L 72 91.648438 L 73.261719 90.878906 L 74.082031 91.320312 L 71.945312 92.582031 L 67.832031 90.277344 L 69.96875 89.015625 L 70.792969 89.453125 Z M 69.53125 90.222656 " fill-opacity="1" fill-rule="nonzero"/><path fill="#ffffff" d="M 75.835938 90.332031 C 75.5625 90.496094 75.289062 90.605469 75.015625 90.660156 C 74.742188 90.714844 74.410156 90.714844 74.082031 90.714844 C 73.753906 90.660156 73.480469 90.605469 73.207031 90.441406 L 74.082031 89.894531 C 74.246094 89.949219 74.410156 90.003906 74.578125 90.003906 C 74.742188 90.003906 74.851562 89.949219 75.015625 89.894531 C 75.125 89.839844 75.179688 89.730469 75.234375 89.671875 C 75.234375 89.617188 75.179688 89.507812 75.070312 89.453125 C 74.960938 89.398438 74.851562 89.34375 74.742188 89.34375 C 74.632812 89.34375 74.523438 89.34375 74.355469 89.398438 C 74.246094 89.398438 74.082031 89.453125 73.863281 89.507812 C 73.535156 89.617188 73.316406 89.671875 73.097656 89.671875 C 72.875 89.730469 72.65625 89.730469 72.382812 89.671875 C 72.109375 89.617188 71.890625 89.5625 71.617188 89.398438 C 71.230469 89.179688 71.066406 88.960938 71.066406 88.6875 C 71.066406 88.414062 71.285156 88.191406 71.671875 87.972656 C 72.054688 87.753906 72.492188 87.644531 72.929688 87.589844 C 73.371094 87.589844 73.808594 87.644531 74.191406 87.863281 L 73.261719 88.414062 C 73.097656 88.359375 72.984375 88.300781 72.820312 88.300781 C 72.65625 88.300781 72.546875 88.359375 72.4375 88.414062 C 72.328125 88.46875 72.273438 88.523438 72.273438 88.632812 C 72.273438 88.6875 72.328125 88.796875 72.4375 88.851562 C 72.546875 88.90625 72.710938 88.960938 72.875 88.90625 C 73.042969 88.90625 73.316406 88.851562 73.589844 88.742188 C 73.917969 88.6875 74.191406 88.578125 74.410156 88.578125 C 74.632812 88.523438 74.851562 88.523438 75.125 88.578125 C 75.398438 88.632812 75.617188 88.6875 75.894531 88.851562 C 76.113281 88.960938 76.277344 89.125 76.386719 89.289062 C 76.496094 89.453125 76.496094 89.617188 76.386719 89.785156 C 76.277344 90.003906 76.113281 90.167969 75.835938 90.332031 Z M 75.835938 90.332031 " fill-opacity="1" fill-rule="nonzero"/><path fill="#ffffff" d="M 45.785156 111.773438 C 45.894531 111.71875 46.003906 111.71875 46.117188 111.71875 C 46.226562 111.71875 46.390625 111.773438 46.445312 111.832031 C 46.554688 111.886719 46.609375 111.941406 46.609375 111.996094 C 46.664062 112.050781 46.664062 112.105469 46.609375 112.160156 C 46.554688 112.214844 46.5 112.269531 46.445312 112.324219 L 45.894531 112.652344 L 44.195312 111.664062 L 44.746094 111.335938 C 44.855469 111.28125 44.964844 111.226562 45.074219 111.226562 C 45.183594 111.226562 45.292969 111.226562 45.402344 111.226562 C 45.511719 111.226562 45.621094 111.28125 45.675781 111.335938 C 45.785156 111.390625 45.839844 111.445312 45.839844 111.5 C 45.839844 111.664062 45.839844 111.71875 45.785156 111.773438 Z M 45.183594 112.050781 L 45.457031 111.886719 C 45.511719 111.832031 45.566406 111.773438 45.566406 111.71875 C 45.566406 111.664062 45.511719 111.609375 45.457031 111.554688 C 45.402344 111.5 45.292969 111.5 45.238281 111.5 C 45.128906 111.5 45.074219 111.5 45.019531 111.554688 L 44.746094 111.71875 Z M 46.226562 112.269531 C 46.28125 112.214844 46.335938 112.160156 46.335938 112.105469 C 46.335938 112.050781 46.28125 111.996094 46.226562 111.941406 C 46.117188 111.886719 46.0625 111.886719 45.949219 111.886719 C 45.839844 111.886719 45.785156 111.886719 45.675781 111.941406 L 45.347656 112.105469 L 45.894531 112.433594 Z M 46.226562 112.269531 " fill-opacity="1" fill-rule="nonzero"/><path fill="#ffffff" d="M 45.949219 111.007812 L 46.445312 111.28125 L 46.9375 111.007812 L 47.15625 111.117188 L 46.664062 111.390625 L 47.210938 111.664062 L 47.761719 111.335938 L 47.980469 111.445312 L 47.210938 111.886719 L 45.511719 110.898438 L 46.28125 110.460938 L 46.5 110.570312 Z M 45.949219 111.007812 " fill-opacity="1" fill-rule="nonzero"/><path fill="#ffffff" d="M 48.746094 111.117188 C 48.636719 111.171875 48.527344 111.226562 48.417969 111.226562 C 48.308594 111.226562 48.199219 111.226562 48.089844 111.226562 C 47.980469 111.226562 47.871094 111.171875 47.761719 111.117188 L 48.035156 110.953125 C 48.089844 111.007812 48.199219 111.007812 48.308594 111.007812 C 48.417969 111.007812 48.472656 111.007812 48.582031 110.953125 C 48.636719 110.898438 48.691406 110.84375 48.691406 110.789062 C 48.691406 110.734375 48.636719 110.679688 48.582031 110.625 C 48.527344 110.570312 48.472656 110.570312 48.417969 110.570312 C 48.363281 110.570312 48.308594 110.570312 48.253906 110.570312 C 48.199219 110.570312 48.089844 110.625 48.035156 110.625 C 47.925781 110.679688 47.816406 110.679688 47.707031 110.734375 C 47.597656 110.734375 47.542969 110.734375 47.429688 110.734375 C 47.320312 110.734375 47.210938 110.679688 47.101562 110.625 C 46.992188 110.570312 46.9375 110.515625 46.882812 110.460938 C 46.828125 110.402344 46.828125 110.347656 46.882812 110.238281 C 46.9375 110.183594 46.992188 110.128906 47.101562 110.074219 C 47.265625 110.019531 47.375 109.964844 47.542969 109.964844 C 47.707031 109.964844 47.871094 110.019531 48.035156 110.074219 L 47.761719 110.238281 C 47.707031 110.183594 47.597656 110.183594 47.542969 110.183594 C 47.429688 110.183594 47.375 110.183594 47.320312 110.238281 C 47.265625 110.292969 47.210938 110.347656 47.210938 110.347656 C 47.210938 110.402344 47.265625 110.460938 47.320312 110.515625 C 47.375 110.570312 47.429688 110.570312 47.488281 110.570312 C 47.542969 110.570312 47.597656 110.570312 47.652344 110.570312 C 47.707031 110.570312 47.816406 110.515625 47.871094 110.515625 C 47.980469 110.460938 48.089844 110.460938 48.199219 110.460938 C 48.308594 110.460938 48.363281 110.460938 48.472656 110.460938 C 48.582031 110.460938 48.691406 110.515625 48.800781 110.570312 C 48.914062 110.625 48.96875 110.679688 48.96875 110.734375 C 49.023438 110.789062 49.023438 110.84375 48.96875 110.953125 C 48.914062 110.953125 48.855469 111.0625 48.746094 111.117188 Z M 48.746094 111.117188 " fill-opacity="1" fill-rule="nonzero"/><path fill="#ffffff" d="M 48.691406 109.144531 L 48.914062 109.253906 L 48.527344 109.472656 L 50.007812 110.292969 L 49.789062 110.460938 L 48.308594 109.636719 L 47.925781 109.855469 L 47.707031 109.746094 Z M 48.691406 109.144531 " fill-opacity="1" fill-rule="nonzero"/><path fill="#ffffff" d="M 50.171875 109.253906 C 50.007812 109.144531 49.898438 109.03125 49.789062 108.921875 C 49.734375 108.8125 49.679688 108.703125 49.734375 108.59375 C 49.789062 108.484375 49.84375 108.375 50.007812 108.320312 C 50.171875 108.210938 50.339844 108.15625 50.558594 108.15625 C 50.777344 108.15625 50.996094 108.15625 51.214844 108.210938 L 50.941406 108.375 C 50.832031 108.320312 50.722656 108.320312 50.558594 108.375 C 50.449219 108.375 50.339844 108.429688 50.28125 108.484375 C 50.171875 108.539062 50.117188 108.59375 50.117188 108.703125 C 50.117188 108.757812 50.117188 108.867188 50.171875 108.921875 C 50.226562 108.976562 50.339844 109.089844 50.449219 109.144531 C 50.558594 109.199219 50.722656 109.253906 50.832031 109.308594 C 50.996094 109.363281 51.105469 109.363281 51.214844 109.308594 C 51.324219 109.308594 51.433594 109.253906 51.542969 109.199219 C 51.652344 109.144531 51.707031 109.089844 51.707031 109.03125 C 51.707031 108.976562 51.707031 108.921875 51.652344 108.8125 L 51.929688 108.648438 C 52.039062 108.757812 52.09375 108.921875 52.039062 109.03125 C 51.984375 109.144531 51.929688 109.253906 51.765625 109.363281 C 51.652344 109.417969 51.488281 109.472656 51.269531 109.527344 C 51.105469 109.527344 50.886719 109.527344 50.667969 109.527344 C 50.558594 109.417969 50.339844 109.308594 50.171875 109.253906 Z M 50.171875 109.253906 " fill-opacity="1" fill-rule="nonzero"/><path fill="#ffffff" d="M 53.191406 108.046875 L 52.585938 108.375 L 52.859375 108.648438 L 52.640625 108.8125 L 51.433594 107.550781 L 51.707031 107.386719 L 53.957031 108.046875 L 53.738281 108.210938 Z M 52.914062 107.9375 L 51.875 107.605469 L 52.421875 108.210938 Z M 52.914062 107.9375 " fill-opacity="1" fill-rule="nonzero"/><path fill="#ffffff" d="M 54.835938 107.496094 L 53.792969 107.277344 L 53.628906 107.386719 L 54.339844 107.773438 L 54.121094 107.9375 L 52.421875 106.949219 L 52.914062 106.675781 C 53.023438 106.621094 53.132812 106.566406 53.246094 106.566406 C 53.355469 106.566406 53.464844 106.566406 53.574219 106.566406 C 53.683594 106.566406 53.792969 106.621094 53.902344 106.675781 C 54.011719 106.730469 54.066406 106.839844 54.121094 106.894531 C 54.175781 107.003906 54.121094 107.058594 54.066406 107.167969 L 55.109375 107.386719 Z M 53.410156 107.277344 L 53.683594 107.113281 C 53.792969 107.058594 53.792969 107.003906 53.792969 106.949219 C 53.792969 106.894531 53.738281 106.839844 53.628906 106.785156 C 53.519531 106.730469 53.464844 106.730469 53.355469 106.730469 C 53.246094 106.730469 53.191406 106.730469 53.078125 106.785156 L 52.804688 106.949219 Z M 53.410156 107.277344 " fill-opacity="1" fill-rule="nonzero"/><path fill="#ffffff" d="M 56.371094 106.621094 C 56.261719 106.675781 56.152344 106.730469 56.042969 106.730469 C 55.929688 106.730469 55.820312 106.730469 55.710938 106.730469 C 55.601562 106.730469 55.492188 106.675781 55.382812 106.621094 L 55.65625 106.457031 C 55.710938 106.511719 55.820312 106.511719 55.929688 106.511719 C 56.042969 106.511719 56.097656 106.511719 56.207031 106.457031 C 56.261719 106.402344 56.316406 106.347656 56.316406 106.289062 C 56.316406 106.234375 56.261719 106.179688 56.207031 106.125 C 56.152344 106.070312 56.097656 106.070312 56.042969 106.070312 C 55.988281 106.070312 55.929688 106.070312 55.875 106.070312 C 55.820312 106.070312 55.710938 106.125 55.65625 106.125 C 55.546875 106.179688 55.4375 106.179688 55.328125 106.234375 C 55.21875 106.234375 55.164062 106.234375 55.054688 106.234375 C 54.945312 106.234375 54.835938 106.179688 54.726562 106.125 C 54.617188 106.070312 54.5625 106.015625 54.503906 105.960938 C 54.449219 105.90625 54.449219 105.851562 54.503906 105.742188 C 54.5625 105.6875 54.617188 105.632812 54.726562 105.578125 C 54.890625 105.523438 55 105.46875 55.164062 105.46875 C 55.328125 105.46875 55.492188 105.523438 55.65625 105.578125 L 55.382812 105.742188 C 55.328125 105.6875 55.21875 105.6875 55.164062 105.6875 C 55.054688 105.6875 55 105.6875 54.945312 105.742188 C 54.890625 105.796875 54.835938 105.851562 54.835938 105.851562 C 54.835938 105.90625 54.890625 105.960938 54.945312 106.015625 C 55 106.070312 55.054688 106.070312 55.109375 106.070312 C 55.164062 106.070312 55.21875 106.070312 55.273438 106.070312 C 55.328125 106.070312 55.4375 106.015625 55.492188 106.015625 C 55.601562 105.960938 55.710938 105.960938 55.820312 105.960938 C 55.929688 105.960938 55.988281 105.960938 56.097656 105.960938 C 56.207031 105.960938 56.316406 106.015625 56.425781 106.070312 C 56.535156 106.125 56.589844 106.179688 56.589844 106.234375 C 56.644531 106.289062 56.644531 106.347656 56.589844 106.457031 C 56.535156 106.457031 56.480469 106.511719 56.371094 106.621094 Z M 56.371094 106.621094 " fill-opacity="1" fill-rule="nonzero"/><path fill="#ffffff" d="M 56.535156 104.480469 L 58.234375 105.46875 L 58.015625 105.632812 L 57.246094 105.195312 L 56.589844 105.578125 L 57.355469 106.015625 L 57.136719 106.179688 L 55.4375 105.195312 L 55.65625 105.03125 L 56.371094 105.46875 L 57.027344 105.085938 L 56.316406 104.644531 Z M 56.535156 104.480469 " fill-opacity="1" fill-rule="nonzero"/><path fill="#ffffff" d="M 57.027344 104.207031 L 58.726562 105.195312 L 58.507812 105.359375 L 56.808594 104.371094 Z M 57.027344 104.207031 " fill-opacity="1" fill-rule="nonzero"/><path fill="#ffffff" d="M 58.839844 103.714844 C 58.949219 103.769531 59.003906 103.824219 59.058594 103.878906 C 59.113281 103.933594 59.113281 103.988281 59.058594 104.097656 C 59.058594 104.152344 58.949219 104.261719 58.839844 104.316406 L 58.5625 104.480469 L 59.277344 104.863281 L 59.058594 105.03125 L 57.355469 104.042969 L 57.851562 103.769531 C 57.960938 103.714844 58.070312 103.660156 58.179688 103.660156 C 58.289062 103.660156 58.398438 103.660156 58.507812 103.660156 C 58.671875 103.605469 58.726562 103.660156 58.839844 103.714844 Z M 58.617188 104.152344 C 58.726562 104.097656 58.726562 104.042969 58.726562 103.988281 C 58.726562 103.933594 58.671875 103.878906 58.5625 103.824219 C 58.398438 103.714844 58.179688 103.714844 58.015625 103.824219 L 57.742188 103.988281 L 58.289062 104.316406 Z M 58.617188 104.152344 " fill-opacity="1" fill-rule="nonzero"/><path fill="#ffffff" d="M 60.042969 103 C 60.152344 103.054688 60.207031 103.109375 60.265625 103.164062 C 60.320312 103.21875 60.320312 103.273438 60.265625 103.382812 C 60.265625 103.4375 60.152344 103.550781 60.042969 103.605469 L 59.769531 103.769531 L 60.484375 104.152344 L 60.265625 104.316406 L 58.5625 103.328125 L 59.058594 103.054688 C 59.167969 103 59.277344 102.945312 59.386719 102.945312 C 59.496094 102.945312 59.605469 102.945312 59.714844 102.945312 C 59.824219 102.945312 59.933594 102.945312 60.042969 103 Z M 59.824219 103.492188 C 59.933594 103.4375 59.933594 103.382812 59.933594 103.328125 C 59.933594 103.273438 59.878906 103.21875 59.769531 103.164062 C 59.605469 103.054688 59.386719 103.054688 59.222656 103.164062 L 58.949219 103.328125 L 59.496094 103.660156 Z M 59.824219 103.492188 " fill-opacity="1" fill-rule="nonzero"/><path fill="#ffffff" d="M 59.988281 102.453125 L 61.691406 103.4375 L 61.46875 103.605469 L 59.769531 102.617188 Z M 59.988281 102.453125 " fill-opacity="1" fill-rule="nonzero"/><path fill="#ffffff" d="M 63.171875 102.5625 L 62.949219 102.726562 L 60.976562 102.398438 L 62.238281 103.109375 L 62.019531 103.273438 L 60.320312 102.289062 L 60.539062 102.121094 L 62.511719 102.453125 L 61.25 101.738281 L 61.46875 101.574219 Z M 63.171875 102.5625 " fill-opacity="1" fill-rule="nonzero"/><path fill="#ffffff" d="M 63.226562 101.082031 C 63.117188 101.082031 63.003906 101.027344 62.894531 101.082031 C 62.785156 101.082031 62.675781 101.136719 62.621094 101.191406 C 62.511719 101.246094 62.457031 101.300781 62.457031 101.410156 C 62.457031 101.464844 62.457031 101.574219 62.511719 101.628906 C 62.566406 101.683594 62.675781 101.792969 62.785156 101.847656 C 62.894531 101.902344 63.058594 101.957031 63.171875 102.011719 C 63.28125 102.066406 63.445312 102.066406 63.554688 102.011719 C 63.664062 102.011719 63.773438 101.957031 63.882812 101.902344 C 63.992188 101.847656 64.046875 101.738281 64.046875 101.628906 C 64.046875 101.519531 63.992188 101.464844 63.828125 101.355469 L 63.28125 101.683594 L 63.058594 101.574219 L 63.828125 101.136719 L 64.046875 101.246094 C 64.15625 101.355469 64.265625 101.410156 64.320312 101.519531 C 64.375 101.628906 64.375 101.738281 64.320312 101.792969 C 64.265625 101.902344 64.210938 101.957031 64.101562 102.066406 C 63.992188 102.121094 63.828125 102.179688 63.609375 102.234375 C 63.445312 102.234375 63.226562 102.234375 63.003906 102.234375 C 62.785156 102.179688 62.621094 102.121094 62.457031 102.011719 C 62.292969 101.902344 62.183594 101.792969 62.074219 101.683594 C 62.019531 101.574219 61.964844 101.464844 62.019531 101.355469 C 62.074219 101.246094 62.128906 101.136719 62.292969 101.082031 C 62.457031 100.972656 62.621094 100.917969 62.839844 100.917969 C 63.058594 100.917969 63.28125 100.917969 63.5 100.972656 Z M 63.226562 101.082031 " fill-opacity="1" fill-rule="nonzero"/></svg>