<svg width="327" height="66" viewBox="0 0 327 66" fill="none" xmlns="http://www.w3.org/2000/svg">
<g clip-path="url(#clip0_509_2189)">
<path d="M103.511 41.6427C103.64 42.0589 103.718 42.5398 103.718 43.0597C103.718 44.5964 103.073 45.8425 102.276 45.8425C101.83 45.8425 101.436 45.4423 101.171 44.8276C101.267 44.4172 101.319 43.9664 101.319 43.4932C101.319 42.8266 101.211 42.2107 101.03 41.6837C101.034 41.6696 101.04 41.6568 101.044 41.6434H100.495C100.724 42.1358 100.867 42.7799 100.867 43.4938C100.867 45.0306 100.222 46.2766 99.4253 46.2766C98.6294 46.2766 97.9834 45.0306 97.9834 43.4938C97.9834 42.7799 98.1267 42.1364 98.3554 41.6434H94.9242C94.7356 42.1787 94.6232 42.8113 94.6232 43.4938C94.6232 45.3955 95.471 46.9368 96.5166 46.9368H99.4247C99.7532 46.9368 100.058 46.7709 100.326 46.5033H102.275C103.32 46.5033 104.168 44.9621 104.168 43.0604C104.168 42.5539 104.104 42.0762 103.997 41.6434L103.511 41.6427Z" fill="url(#paint0_linear_509_2189)" style=""/>
<path d="M75.5274 43.5664H74.7611C74.8143 43.9493 74.8452 44.3489 74.8452 44.7638C74.8452 47.3218 73.7707 49.3951 72.4458 49.3951C71.7045 49.3951 71.0427 48.7459 70.6024 47.7271C70.7634 47.0382 70.8528 46.2807 70.8528 45.4854C70.8528 44.8112 70.7851 44.1677 70.6681 43.5671H69.8835C70.0221 44.1523 70.101 44.8003 70.101 45.4854C70.101 48.0435 69.0265 50.1168 67.7016 50.1168C66.3767 50.1168 65.3022 48.0435 65.3022 45.4854C65.3022 44.8003 65.3811 44.1523 65.5197 43.5671H60.531C60.4134 44.1677 59.7102 44.8118 59.7102 45.4854C59.7102 48.6505 61.1212 51.2162 62.8621 51.2162H67.7023C68.2576 51.2162 68.7781 50.953 69.2315 50.4952H72.4471C74.1874 50.4952 75.599 47.9295 75.599 44.7645C75.597 44.3527 75.5727 43.9532 75.5274 43.5664Z" fill="url(#paint1_linear_509_2189)" style=""/>
<path d="M61.5046 38.2167V41.933L65.129 39.7061L65.6686 39.1125L97.7406 39.8412L96.9914 40.6383L61.5046 41.933V44.7638L104.871 42.4139L105.79 39.1067L61.5046 38.2167Z" fill="url(#paint2_linear_509_2189)" style=""/>
<path d="M10.0534 47.7168C10.3267 51.1757 11.9579 53.8368 13.936 53.8368C15.8971 53.8368 17.5183 51.2193 17.8114 47.8026C15.2681 48.3866 12.6387 48.2316 10.0534 47.7168Z" fill="url(#paint3_linear_509_2189)" style=""/>
<path d="M7.50484 47.1027C7.62116 50.8562 9.32721 53.8368 11.421 53.8368L13.936 53.8368L13.9361 52.1778C14.6024 51.1655 15.0789 49.7568 15.2623 48.1535C12.6749 48.2886 10.0455 47.8122 7.50484 47.1027Z" fill="url(#paint4_linear_509_2189)" style=""/>
<path d="M36.9309 41.639H34.4159C32.2472 41.639 30.4885 44.836 30.4885 48.7796C30.4885 52.7233 32.2465 55.9203 34.4159 55.9203H36.9309C39.0996 55.9203 40.8583 52.7233 40.8583 48.7796C40.8583 44.836 39.1003 41.639 36.9309 41.639ZM37.2023 54.2722C35.6724 54.2722 34.4323 51.8128 34.4323 48.7796C34.4323 45.7465 35.6724 43.2871 37.2023 43.2871C38.7323 43.2871 39.9724 45.7465 39.9724 48.7796C39.9724 51.8128 38.7323 54.2722 37.2023 54.2722Z" fill="url(#paint5_linear_509_2189)" style=""/>
<path d="M90.3208 44.9365L80.0128 45.6626C78.9133 45.7401 77.9762 44.9288 77.9196 43.8505C77.8631 42.7723 78.7089 41.8355 79.8084 41.758L90.1164 41.0325C91.2159 40.9551 92.153 41.7663 92.2095 42.8446C92.266 43.9222 91.4202 44.859 90.3208 44.9365Z" fill="url(#paint6_linear_509_2189)" style=""/>
<path d="M21.0276 34.4536H11.3722L10.6106 35.1362H21.0276V34.4536Z" fill="url(#paint7_linear_509_2189)" style=""/>
<path d="M8.65635 34.4536V35.1355H21.0279L21.0276 34.4536H8.65635ZM8.29095 37.5815H20.6625V36.8996H8.29095V37.5815ZM7.92621 40.0262H20.2977V39.3443H7.92621V40.0262ZM7.56082 42.4715H19.9323V41.7896H7.56082V42.4715Z" fill="url(#paint8_linear_509_2189)" style=""/>
<path d="M20.2977 39.3443H7.92621L7.92599 40.0266H20.2975L20.2977 39.3443Z" fill="url(#paint9_linear_509_2189)" style=""/>
<path d="M63.2165 39.1124H59.7104V8.96878L61.5558 8.73571L56.3988 7.40004H53.3685C51.5278 6.85578 50.7411 7.02482 50.7411 7.02482C50.306 7.0357 49.8145 7.06324 49.2874 7.10294C46.0501 7.96927 43.125 9.62958 41.6976 12.1818C36.3086 12.1524 30.4531 12.7107 26.9621 13.6392C28.1161 12.4367 29.6257 11.0242 31.383 9.84984C31.3337 9.85945 31.2996 9.86585 31.2996 9.86585C25.285 11.8367 22.3296 16.3649 21.3438 18.2013C19.8934 18.4709 19.0726 18.6688 19.0726 18.6688L17.2982 23.2649L18.4963 23.1899L17.2088 27.4614V24.8611H16.1915L15.5343 25.5014V29.8203C12.943 30.5464 10.0389 31.7393 7.92081 32.8445C15.6999 31.1688 23.5507 32.484 23.5507 32.484C23.5507 32.484 21.6166 42.7858 21.5016 44.2579C10.008 45.0852 6.59658 44.1228 6.59658 44.1228C6.45923 41.9515 6.56569 39.9736 6.76482 38.2941C6.6209 38.4202 6.47303 38.5592 6.32056 38.7269C6.31399 38.734 6.30808 38.7397 6.30216 38.7461C6.22067 38.8358 6.13852 38.935 6.05703 39.0375C6.04192 39.0567 6.0268 39.0727 6.01169 39.0919C5.93677 39.188 5.8625 39.2936 5.78758 39.4012C5.7659 39.4326 5.74355 39.4601 5.72187 39.4921C5.65418 39.5939 5.5878 39.7053 5.52142 39.8167C5.49448 39.8622 5.46688 39.9025 5.43993 39.9499C5.38013 40.0549 5.32361 40.1708 5.26578 40.2848C5.23423 40.3469 5.20138 40.4039 5.17049 40.4692C5.11529 40.5857 5.06402 40.7138 5.01145 40.8387C4.98122 40.9104 4.94967 40.9763 4.92075 41.0512C4.86752 41.1883 4.81955 41.3375 4.77026 41.4847C4.74595 41.5584 4.719 41.6256 4.69534 41.7018C4.62568 41.9304 4.56062 42.1705 4.50147 42.4234L5.16195 43.1207L4.22611 43.818V49.7715C4.22611 49.7715 22.8915 51.5945 31.571 50.2198V50.7339H34.6144C34.4974 50.1263 34.4304 49.4693 34.4304 48.7803C34.4304 45.7466 35.6705 43.2878 37.2004 43.2878C38.7304 43.2878 39.9705 45.7472 39.9705 48.7803C39.9705 49.4693 39.9034 50.1263 39.7871 50.7339H41.6575L65.1263 48.7803V39.7066H63.2138V39.1124H63.2165ZM53.7287 9.83447C56.5349 10.3813 56.7839 13.9657 56.7839 13.9657C53.1674 6.79687 46.869 13.9657 46.869 13.9657C48.1163 11.7791 50.9225 9.28765 53.7287 9.83447ZM42.1221 29.9144C42.1221 29.8594 42.1707 29.8133 42.2273 29.8113C42.247 29.8107 42.2667 29.8101 42.2864 29.8094C42.9443 29.794 43.3721 30.177 43.5403 30.6495L45.1892 28.7158L42.1228 28.8682L43.5239 21.9215L49.0626 22.4465V28.5237L46.035 28.6742L43.5173 31.626L43.514 31.6234C43.3668 31.9583 43.0665 32.2336 42.5946 32.3277C42.4428 32.3578 42.3147 32.3713 42.2305 32.377C42.1701 32.3815 42.1228 32.3348 42.1228 32.2759L42.1221 29.9144ZM40.8583 20.3355L39.1378 27.756C39.1378 27.756 38.6239 29.0628 35.5108 28.9079C35.5108 28.9079 31.0071 28.8368 26.0184 28.9431L28.2923 21.326L40.8583 20.3355ZM17.2989 29.3868L19.5537 22.0143L26.9634 21.4304L24.7113 28.9751C22.0891 29.0474 19.4301 29.1723 17.2989 29.3868ZM28.9245 42.7013C28.3784 42.8076 25.6924 43.22 22.8902 43.647C22.8902 43.647 22.8909 41.9201 23.9226 40.8912C25.6175 39.8859 28.5966 38.6911 29.3615 39.259C30.1258 39.827 29.4706 42.595 28.9245 42.7013ZM23.3345 40.71C23.3345 40.71 25.8429 35.4454 39.5472 33.8184C39.5472 33.8184 44.1535 33.5379 47.954 34.3229C47.954 34.3236 28.3692 36.3815 23.3345 40.71ZM41.6397 45.0807L41.0995 44.3245L58.1193 43.04L60.2355 44.0709L41.6397 45.0807Z" fill="url(#paint10_linear_509_2189)" style=""/>
<path d="M64.3539 9.67317V37.8318H61.0246V10.0938L64.3539 9.67317ZM65.6683 8.21584L59.7104 8.96878V39.1124L65.6683 39.1124V8.21584Z" fill="url(#paint11_linear_509_2189)" style=""/>
<path d="M20.6621 37.5814V36.8988H8.6408L8.29052 37.2126V37.5814H20.6621Z" fill="url(#paint12_linear_509_2189)" style=""/>
<path d="M19.9323 41.7887H7.56082V42.4706H19.9323V41.7887Z" fill="url(#paint13_linear_509_2189)" style=""/>
<path d="M47.335 22.4464H44.9133V28.5235H47.335V22.4464Z" fill="url(#paint14_linear_509_2189)" style=""/>
<path d="M44.1213 28.1317L44.9133 28.5235V22.4464L44.1213 22.8389V28.1317Z" fill="url(#paint15_linear_509_2189)" style=""/>
<path d="M107.261 31.0933L96.1215 27.9008L107.575 29.3869L107.805 28.139L68.4066 13.9658L108.865 22.3858L109.142 20.8805L65.6683 8.21584L65.3021 37.2403L104.903 37.7275L103.889 42.4671L105.179 42.3883L107.261 31.0933Z" fill="url(#paint16_linear_509_2189)" style=""/>
<path d="M6.51281 61.9205V67.9338C6.51281 68.5351 6.66466 68.9981 6.96835 69.3226C7.27204 69.6471 7.71778 69.8094 8.30557 69.8094C8.89337 69.8094 9.34401 69.6471 9.6575 69.3226C9.97098 68.9981 10.1277 68.5351 10.1277 67.9338V61.9205H12.6405V67.9195C12.6405 68.8167 12.4446 69.5755 12.0527 70.1959C11.6609 70.8164 11.1319 71.2841 10.4657 71.599C9.80934 71.914 9.0746 72.0715 8.26149 72.0715C7.44838 72.0715 6.71854 71.9188 6.07197 71.6134C5.43519 71.2984 4.93067 70.8307 4.5584 70.2103C4.18613 69.5803 4 68.8167 4 67.9195V61.9205H6.51281Z" fill="black" style="fill:black;fill-opacity:1;"/>
<path d="M23.3395 71.9713H20.8267L16.624 65.7719V71.9713H14.1112V61.9205H16.624L20.8267 68.1486V61.9205H23.3395V71.9713Z" fill="black" style="fill:black;fill-opacity:1;"/>
<path d="M27.3799 61.9205V71.9713H24.8671V61.9205H27.3799Z" fill="black" style="fill:black;fill-opacity:1;"/>
<path d="M36.3279 61.9205V63.882H33.5946V71.9713H31.0818V63.882H28.3486V61.9205H36.3279Z" fill="black" style="fill:black;fill-opacity:1;"/>
<path d="M39.8079 63.882V65.9151H43.173V67.805H39.8079V70.0098H43.6138V71.9713H37.2951V61.9205H43.6138V63.882H39.8079Z" fill="black" style="fill:black;fill-opacity:1;"/>
<path d="M48.816 61.9205C49.9034 61.9205 50.8537 62.1305 51.6668 62.5505C52.4799 62.9705 53.1069 63.5623 53.5477 64.3258C53.9984 65.0799 54.2237 65.9532 54.2237 66.9459C54.2237 67.929 53.9984 68.8024 53.5477 69.566C53.1069 70.3296 52.475 70.9214 51.6521 71.3413C50.839 71.7613 49.8936 71.9713 48.816 71.9713H44.9513V61.9205H48.816ZM48.6544 69.8523C49.6046 69.8523 50.3443 69.5994 50.8733 69.0935C51.4023 68.5876 51.6668 67.8718 51.6668 66.9459C51.6668 66.0201 51.4023 65.2994 50.8733 64.784C50.3443 64.2686 49.6046 64.0109 48.6544 64.0109H47.4641V69.8523H48.6544Z" fill="black" style="fill:black;fill-opacity:1;"/>
<path d="M61.8867 72.0715C61.1324 72.0715 60.4564 71.9522 59.8588 71.7136C59.2612 71.475 58.7812 71.1218 58.4187 70.6541C58.066 70.1864 57.8799 69.6232 57.8603 68.9647H60.5348C60.574 69.3369 60.7062 69.6232 60.9315 69.8237C61.1568 70.0146 61.4507 70.11 61.8132 70.11C62.1855 70.11 62.4794 70.0289 62.6949 69.8666C62.9104 69.6948 63.0182 69.461 63.0182 69.1651C63.0182 68.9169 62.93 68.7117 62.7537 68.5495C62.5871 68.3872 62.3765 68.2536 62.1218 68.1486C61.8769 68.0436 61.5242 67.9243 61.0638 67.7906C60.3976 67.5902 59.8539 67.3897 59.4327 67.1893C59.0114 66.9889 58.6489 66.693 58.3452 66.3016C58.0415 65.9103 57.8897 65.3996 57.8897 64.7697C57.8897 63.8343 58.2375 63.1041 58.933 62.5791C59.6286 62.0446 60.5348 61.7774 61.6516 61.7774C62.788 61.7774 63.7039 62.0446 64.3995 62.5791C65.0951 63.1041 65.4673 63.8391 65.5163 64.784H62.7978C62.7782 64.4595 62.6557 64.2065 62.4304 64.0252C62.2051 63.8343 61.9161 63.7388 61.5634 63.7388C61.2597 63.7388 61.0148 63.82 60.8287 63.9822C60.6425 64.1349 60.5495 64.3593 60.5495 64.6551C60.5495 64.9797 60.7062 65.2326 61.0197 65.414C61.3332 65.5953 61.823 65.791 62.4892 66.001C63.1553 66.2205 63.6941 66.4305 64.1056 66.6309C64.5269 66.8314 64.8893 67.1225 65.193 67.5043C65.4967 67.8861 65.6486 68.3776 65.6486 68.979C65.6486 69.5517 65.4967 70.0719 65.193 70.5396C64.8991 71.0073 64.4681 71.3795 63.8999 71.6563C63.3317 71.9331 62.6606 72.0715 61.8867 72.0715Z" fill="#9F374C" style="fill:#9F374C;fill:color(display-p3 0.6235 0.2157 0.2980);fill-opacity:1;"/>
<path d="M74.3219 61.9205V63.882H71.5887V71.9713H69.0759V63.882H66.3426V61.9205H74.3219Z" fill="#9F374C" style="fill:#9F374C;fill:color(display-p3 0.6235 0.2157 0.2980);fill-opacity:1;"/>
<path d="M81.7108 70.1959H77.8607L77.2435 71.9713H74.6132L78.3457 61.9205H81.2552L84.9877 71.9713H82.3279L81.7108 70.1959ZM81.0642 68.3061L79.7857 64.6265L78.522 68.3061H81.0642Z" fill="#9F374C" style="fill:#9F374C;fill:color(display-p3 0.6235 0.2157 0.2980);fill-opacity:1;"/>
<path d="M93.2506 61.9205V63.882H90.5174V71.9713H88.0046V63.882H85.2714V61.9205H93.2506Z" fill="#9F374C" style="fill:#9F374C;fill:color(display-p3 0.6235 0.2157 0.2980);fill-opacity:1;"/>
<path d="M96.7307 63.882V65.9151H100.096V67.805H96.7307V70.0098H100.537V71.9713H94.2179V61.9205H100.537V63.882H96.7307Z" fill="#9F374C" style="fill:#9F374C;fill:color(display-p3 0.6235 0.2157 0.2980);fill-opacity:1;"/>
<path d="M105.607 72.0715C104.852 72.0715 104.176 71.9522 103.579 71.7136C102.981 71.475 102.501 71.1218 102.139 70.6541C101.786 70.1864 101.6 69.6232 101.58 68.9647H104.255C104.294 69.3369 104.426 69.6232 104.651 69.8237C104.877 70.0146 105.171 70.11 105.533 70.11C105.905 70.11 106.199 70.0289 106.415 69.8666C106.63 69.6948 106.738 69.461 106.738 69.1651C106.738 68.9169 106.65 68.7117 106.474 68.5495C106.307 68.3872 106.096 68.2536 105.842 68.1486C105.597 68.0436 105.244 67.9243 104.784 67.7906C104.117 67.5902 103.574 67.3897 103.153 67.1893C102.731 66.9889 102.369 66.693 102.065 66.3016C101.761 65.9103 101.61 65.3996 101.61 64.7697C101.61 63.8343 101.957 63.1041 102.653 62.5791C103.348 62.0446 104.255 61.7774 105.371 61.7774C106.508 61.7774 107.424 62.0446 108.119 62.5791C108.815 63.1041 109.187 63.8391 109.236 64.784H106.518C106.498 64.4595 106.376 64.2065 106.15 64.0252C105.925 63.8343 105.636 63.7388 105.283 63.7388C104.98 63.7388 104.735 63.82 104.549 63.9822C104.362 64.1349 104.269 64.3593 104.269 64.6551C104.269 64.9797 104.426 65.2326 104.74 65.414C105.053 65.5953 105.543 65.791 106.209 66.001C106.875 66.2205 107.414 66.4305 107.825 66.6309C108.247 66.8314 108.609 67.1225 108.913 67.5043C109.217 67.8861 109.368 68.3776 109.368 68.979C109.368 69.5517 109.217 70.0719 108.913 70.5396C108.619 71.0073 108.188 71.3795 107.62 71.6563C107.052 71.9331 106.38 72.0715 105.607 72.0715Z" fill="#9F374C" style="fill:#9F374C;fill:color(display-p3 0.6235 0.2157 0.2980);fill-opacity:1;"/>
<path d="M55.3007 80.044C55.5291 80.0847 55.7228 80.2046 55.8819 80.4037C56.041 80.6029 56.1205 80.8284 56.1205 81.0804C56.1205 81.2958 56.0634 81.4909 55.9492 81.6657C55.8391 81.8364 55.678 81.9725 55.4659 82.0742C55.2538 82.1717 55.007 82.2205 54.7256 82.2205H53.0247V77.9834H54.646C54.9356 77.9834 55.1844 78.0322 55.3925 78.1297C55.6005 78.2273 55.7575 78.3594 55.8635 78.526C55.9696 78.6886 56.0226 78.8715 56.0226 79.0747C56.0226 79.3185 55.9573 79.5218 55.8268 79.6843C55.6963 79.8469 55.5209 79.9668 55.3007 80.044ZM53.7222 79.7636H54.5849C54.8133 79.7636 54.9907 79.7128 55.1171 79.6112C55.2476 79.5055 55.3129 79.3551 55.3129 79.1601C55.3129 78.969 55.2476 78.8207 55.1171 78.715C54.9907 78.6053 54.8133 78.5504 54.5849 78.5504H53.7222V79.7636ZM54.6644 81.6535C54.9009 81.6535 55.0865 81.5966 55.2211 81.4828C55.3557 81.369 55.423 81.2105 55.423 81.0073C55.423 80.8 55.3517 80.6354 55.2089 80.5135C55.0661 80.3915 54.8765 80.3306 54.6399 80.3306H53.7222V81.6535H54.6644Z" fill="#0D0A19" style="fill:#0D0A19;fill:color(display-p3 0.0510 0.0392 0.0980);fill-opacity:1;"/>
<path d="M57.5214 78.5443V79.788H58.99V80.3549H57.5214V81.6535H59.1736V82.2205H56.824V77.9773H59.1736V78.5443H57.5214Z" fill="#0D0A19" style="fill:#0D0A19;fill:color(display-p3 0.0510 0.0392 0.0980);fill-opacity:1;"/>
<path d="M61.3791 82.2632C61.0936 82.2632 60.8365 82.2144 60.6081 82.1168C60.3797 82.0152 60.2006 81.873 60.07 81.6901C59.9394 81.5072 59.874 81.2938 59.874 81.0499H60.6206C60.6368 81.2328 60.7083 81.3832 60.8345 81.5011C60.9651 81.6189 61.1466 81.6779 61.3791 81.6779C61.62 81.6779 61.8076 81.621 61.9422 81.5072C62.0768 81.3893 62.1439 81.2389 62.1439 81.056C62.1439 80.9138 62.1011 80.798 62.0154 80.7085C61.9341 80.6191 61.8298 80.55 61.7033 80.5013C61.5812 80.4525 61.4098 80.3997 61.1895 80.3428C60.9121 80.2696 60.6857 80.1965 60.5103 80.1233C60.3392 80.0461 60.1921 79.9282 60.07 79.7697C59.9475 79.6112 59.8865 79.3998 59.8865 79.1357C59.8865 78.8918 59.9475 78.6784 60.07 78.4955C60.1921 78.3126 60.3635 78.1724 60.5838 78.0749C60.8042 77.9773 61.0589 77.9286 61.3487 77.9286C61.7607 77.9286 62.097 78.0322 62.3582 78.2395C62.6234 78.4427 62.7701 78.7231 62.7985 79.0808H62.0279C62.0154 78.9264 61.9422 78.7943 61.8076 78.6845C61.6729 78.5748 61.4955 78.5199 61.2752 78.5199C61.0754 78.5199 60.9121 78.5707 60.7856 78.6723C60.6594 78.7739 60.596 78.9203 60.596 79.1113C60.596 79.2413 60.6348 79.349 60.7124 79.4344C60.794 79.5157 60.8959 79.5807 61.0181 79.6295C61.1405 79.6782 61.3079 79.7311 61.5198 79.788C61.8015 79.8652 62.0299 79.9424 62.205 80.0196C62.3845 80.0969 62.5356 80.2168 62.6578 80.3793C62.7843 80.5379 62.8477 80.7512 62.8477 81.0195C62.8477 81.2349 62.7883 81.4381 62.6702 81.6291C62.5559 81.8201 62.3865 81.9746 62.1625 82.0924C61.9422 82.2062 61.681 82.2632 61.3791 82.2632Z" fill="#0D0A19" style="fill:#0D0A19;fill:color(display-p3 0.0510 0.0392 0.0980);fill-opacity:1;"/>
<path d="M66.3633 77.9834V78.5504H65.2314V82.2205H64.534V78.5504H63.396V77.9834H66.3633Z" fill="#0D0A19" style="fill:#0D0A19;fill:color(display-p3 0.0510 0.0392 0.0980);fill-opacity:1;"/>
<path d="M68.3178 80.0928C68.3178 79.6782 68.4136 79.3064 68.6053 78.9771C68.801 78.6479 69.0641 78.3919 69.3944 78.209C69.7288 78.022 70.0938 77.9286 70.4896 77.9286C70.9424 77.9286 71.3442 78.0403 71.6951 78.2639C72.0497 78.4833 72.3067 78.7963 72.4657 79.2027H71.6276C71.5176 78.9792 71.3644 78.8126 71.1687 78.7028C70.9731 78.5931 70.7467 78.5382 70.4896 78.5382C70.2082 78.5382 69.9572 78.6012 69.7372 78.7272C69.5169 78.8532 69.3435 79.0341 69.2169 79.2698C69.0948 79.5055 69.0334 79.7798 69.0334 80.0928C69.0334 80.4058 69.0948 80.6801 69.2169 80.9158C69.3435 81.1516 69.5169 81.3345 69.7372 81.4645C69.9572 81.5905 70.2082 81.6535 70.4896 81.6535C70.7467 81.6535 70.9731 81.5986 71.1687 81.4889C71.3644 81.3792 71.5176 81.2125 71.6276 80.989H72.4657C72.3067 81.3954 72.0497 81.7084 71.6951 81.9278C71.3442 82.1473 70.9424 82.2571 70.4896 82.2571C70.0898 82.2571 69.7247 82.1656 69.3944 81.9827C69.0641 81.7958 68.801 81.5377 68.6053 81.2085C68.4136 80.8793 68.3178 80.5074 68.3178 80.0928Z" fill="#0D0A19" style="fill:#0D0A19;fill:color(display-p3 0.0510 0.0392 0.0980);fill-opacity:1;"/>
<path d="M75.7912 81.3548H74.0108L73.7048 82.2205H72.9771L74.5004 77.9773H75.3081L76.8314 82.2205H76.0973L75.7912 81.3548ZM75.5956 80.7878L74.9043 78.8186L74.2065 80.7878H75.5956Z" fill="#0D0A19" style="fill:#0D0A19;fill:color(display-p3 0.0510 0.0392 0.0980);fill-opacity:1;"/>
<path d="M79.648 82.2205L78.6692 80.5257H78.1368V82.2205H77.4394V77.9834H78.9077C79.234 77.9834 79.5093 78.0403 79.7337 78.1541C79.9621 78.2679 80.1314 78.4203 80.2414 78.6114C80.3558 78.8024 80.4128 79.0157 80.4128 79.2515C80.4128 79.5279 80.3312 79.7798 80.1682 80.0074C80.009 80.231 79.7623 80.3834 79.428 80.4647L80.4803 82.2205H79.648ZM78.1368 79.9709H78.9077C79.1689 79.9709 79.3645 79.9058 79.4951 79.7758C79.6297 79.6457 79.6972 79.4709 79.6972 79.2515C79.6972 79.032 79.6318 78.8613 79.5012 78.7394C79.3706 78.6134 79.1729 78.5504 78.9077 78.5504H78.1368V79.9709Z" fill="#0D0A19" style="fill:#0D0A19;fill:color(display-p3 0.0510 0.0392 0.0980);fill-opacity:1;"/>
<path d="M84.1868 82.2632C83.9011 82.2632 83.6443 82.2144 83.4159 82.1168C83.1875 82.0152 83.008 81.873 82.8774 81.6901C82.7468 81.5072 82.6817 81.2938 82.6817 81.0499H83.428C83.4442 81.2328 83.5158 81.3832 83.6423 81.5011C83.7728 81.6189 83.9544 81.6779 84.1868 81.6779C84.4274 81.6779 84.615 81.621 84.7496 81.5072C84.8842 81.3893 84.9513 81.2389 84.9513 81.056C84.9513 80.9138 84.9088 80.798 84.8231 80.7085C84.7415 80.6191 84.6376 80.55 84.5111 80.5013C84.3886 80.4525 84.2172 80.3997 83.9972 80.3428C83.7195 80.2696 83.4931 80.1965 83.318 80.1233C83.1467 80.0461 82.9999 79.9282 82.8774 79.7697C82.7549 79.6112 82.6939 79.3998 82.6939 79.1357C82.6939 78.8918 82.7549 78.6784 82.8774 78.4955C82.9999 78.3126 83.1709 78.1724 83.3913 78.0749C83.6116 77.9773 83.8666 77.9286 84.1561 77.9286C84.5681 77.9286 84.9044 78.0322 85.1656 78.2395C85.4308 78.4427 85.5775 78.7231 85.6062 79.0808H84.8353C84.8231 78.9264 84.7496 78.7943 84.615 78.6845C84.4803 78.5748 84.3029 78.5199 84.0826 78.5199C83.8828 78.5199 83.7195 78.5707 83.5934 78.6723C83.4668 78.7739 83.4037 78.9203 83.4037 79.1113C83.4037 79.2413 83.4422 79.349 83.5198 79.4344C83.6015 79.5157 83.7033 79.5807 83.8258 79.6295C83.948 79.6782 84.1153 79.7311 84.3275 79.788C84.6089 79.8652 84.8373 79.9424 85.0128 80.0196C85.1922 80.0969 85.343 80.2168 85.4655 80.3793C85.5917 80.5379 85.6551 80.7512 85.6551 81.0195C85.6551 81.2349 85.5961 81.4381 85.4777 81.6291C85.3633 81.8201 85.1943 81.9746 84.9699 82.0924C84.7496 82.2062 84.4884 82.2632 84.1868 82.2632Z" fill="#0D0A19" style="fill:#0D0A19;fill:color(display-p3 0.0510 0.0392 0.0980);fill-opacity:1;"/>
<path d="M89.8192 77.9834V82.2205H89.1218V80.3671H87.1211V82.2205H86.4237V77.9834H87.1211V79.8002H89.1218V77.9834H89.8192Z" fill="#0D0A19" style="fill:#0D0A19;fill:color(display-p3 0.0510 0.0392 0.0980);fill-opacity:1;"/>
<path d="M91.3806 77.9834V82.2205H90.6832V77.9834H91.3806Z" fill="#0D0A19" style="fill:#0D0A19;fill:color(display-p3 0.0510 0.0392 0.0980);fill-opacity:1;"/>
<path d="M95.2154 79.2454C95.2154 79.4608 95.1644 79.664 95.0625 79.855C94.9603 80.0461 94.7973 80.2025 94.573 80.3245C94.3486 80.4423 94.0612 80.5013 93.7103 80.5013H92.9393V82.2205H92.242V77.9834H93.7103C94.0365 77.9834 94.3118 78.0403 94.5362 78.1541C94.7646 78.2639 94.934 78.4142 95.044 78.6053C95.1583 78.7963 95.2154 79.0096 95.2154 79.2454ZM93.7103 79.9343C93.9755 79.9343 94.1732 79.8754 94.3037 79.7575C94.4343 79.6356 94.4994 79.4649 94.4994 79.2454C94.4994 78.782 94.2366 78.5504 93.7103 78.5504H92.9393V79.9343H93.7103Z" fill="#0D0A19" style="fill:#0D0A19;fill:color(display-p3 0.0510 0.0392 0.0980);fill-opacity:1;"/>
<path d="M98.7998 79.2454C98.7998 79.4608 98.7489 79.664 98.6466 79.855C98.5447 80.0461 98.3814 80.2025 98.1574 80.3245C97.9331 80.4423 97.6453 80.5013 97.2947 80.5013H96.5238V82.2205H95.8264V77.9834H97.2947C97.621 77.9834 97.8963 78.0403 98.1207 78.1541C98.3491 78.2639 98.5181 78.4142 98.6284 78.6053C98.7425 78.7963 98.7998 79.0096 98.7998 79.2454ZM97.2947 79.9343C97.5596 79.9343 97.7576 79.8754 97.8882 79.7575C98.0188 79.6356 98.0839 79.4649 98.0839 79.2454C98.0839 78.782 97.8207 78.5504 97.2947 78.5504H96.5238V79.9343H97.2947Z" fill="#0D0A19" style="fill:#0D0A19;fill:color(display-p3 0.0510 0.0392 0.0980);fill-opacity:1;"/>
<path d="M100.108 77.9834V82.2205H99.4104V77.9834H100.108Z" fill="#0D0A19" style="fill:#0D0A19;fill:color(display-p3 0.0510 0.0392 0.0980);fill-opacity:1;"/>
<path d="M104.463 82.2205H103.765L101.667 79.0564V82.2205H100.969V77.9773H101.667L103.765 81.1353V77.9773H104.463V82.2205Z" fill="#0D0A19" style="fill:#0D0A19;fill:color(display-p3 0.0510 0.0392 0.0980);fill-opacity:1;"/>
<path d="M108.402 79.2027C108.291 78.9914 108.139 78.8329 107.943 78.7272C107.747 78.6175 107.521 78.5626 107.264 78.5626C106.982 78.5626 106.731 78.6256 106.511 78.7516C106.291 78.8776 106.118 79.0564 105.991 79.2881C105.869 79.5197 105.808 79.788 105.808 80.0928C105.808 80.3976 105.869 80.6679 105.991 80.9036C106.118 81.1353 106.291 81.3141 106.511 81.4401C106.731 81.5661 106.982 81.6291 107.264 81.6291C107.643 81.6291 107.951 81.5234 108.188 81.3121C108.424 81.1008 108.569 80.8142 108.622 80.4525H107.025V79.8977H109.368V80.4403C109.324 80.7695 109.205 81.0723 109.013 81.3487C108.826 81.625 108.579 81.8465 108.273 82.0132C107.971 82.1758 107.635 82.2571 107.264 82.2571C106.864 82.2571 106.499 82.1656 106.169 81.9827C105.838 81.7958 105.575 81.5377 105.379 81.2085C105.188 80.8793 105.092 80.5074 105.092 80.0928C105.092 79.6782 105.188 79.3064 105.379 78.9771C105.575 78.6479 105.838 78.3919 106.169 78.209C106.503 78.022 106.868 77.9286 107.264 77.9286C107.717 77.9286 108.118 78.0403 108.469 78.2639C108.824 78.4833 109.081 78.7963 109.24 79.2027H108.402Z" fill="#0D0A19" style="fill:#0D0A19;fill:color(display-p3 0.0510 0.0392 0.0980);fill-opacity:1;"/>
</g>
<path d="M124.21 13.2796V25.0209C124.21 26.195 124.502 27.0989 125.087 27.7326C125.672 28.3662 126.531 28.6831 127.664 28.6831C128.796 28.6831 129.664 28.3662 130.268 27.7326C130.872 27.0989 131.174 26.195 131.174 25.0209V13.2796H136.015V24.9929C136.015 26.7448 135.638 28.2265 134.883 29.4379C134.128 30.6493 133.109 31.5625 131.825 32.1775C130.561 32.7926 129.145 33.1001 127.579 33.1001C126.012 33.1001 124.606 32.8019 123.36 32.2055C122.134 31.5905 121.162 30.6772 120.444 29.4658C119.727 28.2358 119.369 26.7448 119.369 24.9929V13.2796H124.21Z" fill="black" style="fill:black;fill-opacity:1;"/>
<path d="M156.628 32.9044H151.786L143.69 20.7996V32.9044H138.849V13.2796H143.69L151.786 25.4402V13.2796H156.628V32.9044Z" fill="black" style="fill:black;fill-opacity:1;"/>
<path d="M164.412 13.2796V32.9044H159.571V13.2796H164.412Z" fill="black" style="fill:black;fill-opacity:1;"/>
<path d="M181.651 13.2796V17.1095H176.385V32.9044H171.544V17.1095H166.278V13.2796H181.651Z" fill="black" style="fill:black;fill-opacity:1;"/>
<path d="M188.355 17.1095V21.0792H194.838V24.7693H188.355V29.0745H195.688V32.9044H183.514V13.2796H195.688V17.1095H188.355Z" fill="black" style="fill:black;fill-opacity:1;"/>
<path d="M205.71 13.2796C207.805 13.2796 209.636 13.6896 211.202 14.5096C212.769 15.3296 213.977 16.4851 214.826 17.9761C215.694 19.4484 216.128 21.1537 216.128 23.092C216.128 25.0116 215.694 26.7169 214.826 28.2078C213.977 29.6988 212.759 30.8543 211.174 31.6743C209.607 32.4944 207.786 32.9044 205.71 32.9044H198.264V13.2796H205.71ZM205.399 28.7669C207.229 28.7669 208.654 28.2731 209.673 27.2853C210.693 26.2975 211.202 24.8998 211.202 23.092C211.202 21.2842 210.693 19.8771 209.673 18.8707C208.654 17.8643 207.229 17.3611 205.399 17.3611H203.105V28.7669H205.399Z" fill="black" style="fill:black;fill-opacity:1;"/>
<path d="M230.892 33.1001C229.438 33.1001 228.136 32.8671 226.985 32.4012C225.833 31.9352 224.909 31.2457 224.21 30.3325C223.531 29.4192 223.172 28.3197 223.134 27.0337H228.287C228.363 27.7605 228.617 28.3197 229.051 28.711C229.486 29.0838 230.052 29.2701 230.75 29.2701C231.467 29.2701 232.033 29.1117 232.449 28.7949C232.864 28.4594 233.072 28.0028 233.072 27.4251C233.072 26.9405 232.902 26.5398 232.562 26.223C232.241 25.9062 231.835 25.6452 231.345 25.4402C230.873 25.2352 230.193 25.0023 229.306 24.7413C228.023 24.35 226.975 23.9586 226.164 23.5672C225.352 23.1758 224.654 22.5981 224.069 21.834C223.484 21.0698 223.191 20.0728 223.191 18.8427C223.191 17.0163 223.861 15.5905 225.201 14.5655C226.541 13.5218 228.287 13 230.439 13C232.628 13 234.393 13.5218 235.733 14.5655C237.073 15.5905 237.79 17.0256 237.884 18.8707H232.647C232.609 18.237 232.373 17.7431 231.939 17.389C231.505 17.0163 230.948 16.8299 230.269 16.8299C229.684 16.8299 229.212 16.9883 228.853 17.3052C228.495 17.6034 228.315 18.0413 228.315 18.6191C228.315 19.2527 228.617 19.7466 229.221 20.1007C229.825 20.4548 230.769 20.8369 232.052 21.2469C233.336 21.6755 234.374 22.0856 235.166 22.4769C235.978 22.8683 236.676 23.4368 237.261 24.1822C237.847 24.9277 238.139 25.8875 238.139 27.0617C238.139 28.1799 237.847 29.1956 237.261 30.1088C236.695 31.022 235.865 31.7489 234.77 32.2894C233.675 32.8298 232.383 33.1001 230.892 33.1001Z" fill="#9F374C" style="fill:#9F374C;fill:color(display-p3 0.6235 0.2157 0.2980);fill-opacity:1;"/>
<path d="M254.849 13.2796V17.1095H249.583V32.9044H244.742V17.1095H239.476V13.2796H254.849Z" fill="#9F374C" style="fill:#9F374C;fill:color(display-p3 0.6235 0.2157 0.2980);fill-opacity:1;"/>
<path d="M269.084 29.4379H261.667L260.478 32.9044H255.41L262.601 13.2796H268.206L275.397 32.9044H270.273L269.084 29.4379ZM267.838 25.7477L265.375 18.5632L262.941 25.7477H267.838Z" fill="#9F374C" style="fill:#9F374C;fill:color(display-p3 0.6235 0.2157 0.2980);fill-opacity:1;"/>
<path d="M291.317 13.2796V17.1095H286.051V32.9044H281.21V17.1095H275.944V13.2796H291.317Z" fill="#9F374C" style="fill:#9F374C;fill:color(display-p3 0.6235 0.2157 0.2980);fill-opacity:1;"/>
<path d="M298.021 17.1095V21.0792H304.504V24.7693H298.021V29.0745H305.354V32.9044H293.18V13.2796H305.354V17.1095H298.021Z" fill="#9F374C" style="fill:#9F374C;fill:color(display-p3 0.6235 0.2157 0.2980);fill-opacity:1;"/>
<path d="M315.121 33.1001C313.668 33.1001 312.366 32.8671 311.214 32.4012C310.063 31.9352 309.138 31.2457 308.44 30.3325C307.76 29.4192 307.402 28.3197 307.364 27.0337H312.517C312.592 27.7605 312.847 28.3197 313.281 28.711C313.715 29.0838 314.281 29.2701 314.98 29.2701C315.697 29.2701 316.263 29.1117 316.678 28.7949C317.093 28.4594 317.301 28.0028 317.301 27.4251C317.301 26.9405 317.131 26.5398 316.791 26.223C316.471 25.9062 316.065 25.6452 315.574 25.4402C315.102 25.2352 314.423 25.0023 313.536 24.7413C312.252 24.35 311.205 23.9586 310.393 23.5672C309.582 23.1758 308.883 22.5981 308.298 21.834C307.713 21.0698 307.421 20.0728 307.421 18.8427C307.421 17.0163 308.091 15.5905 309.431 14.5655C310.771 13.5218 312.517 13 314.668 13C316.858 13 318.622 13.5218 319.962 14.5655C321.302 15.5905 322.019 17.0256 322.114 18.8707H316.876C316.839 18.237 316.603 17.7431 316.169 17.389C315.735 17.0163 315.178 16.8299 314.498 16.8299C313.913 16.8299 313.441 16.9883 313.083 17.3052C312.724 17.6034 312.545 18.0413 312.545 18.6191C312.545 19.2527 312.847 19.7466 313.451 20.1007C314.055 20.4548 314.998 20.8369 316.282 21.2469C317.565 21.6755 318.603 22.0856 319.396 22.4769C320.208 22.8683 320.906 23.4368 321.491 24.1822C322.076 24.9277 322.369 25.8875 322.369 27.0617C322.369 28.1799 322.076 29.1956 321.491 30.1088C320.925 31.022 320.094 31.7489 319 32.2894C317.905 32.8298 316.612 33.1001 315.121 33.1001Z" fill="#9F374C" style="fill:#9F374C;fill:color(display-p3 0.6235 0.2157 0.2980);fill-opacity:1;"/>
<path d="M123.754 48.667C124.194 48.7463 124.567 48.9804 124.873 49.3693C125.18 49.7582 125.333 50.1986 125.333 50.6906C125.333 51.1112 125.223 51.4922 125.003 51.8334C124.791 52.1667 124.48 52.4325 124.072 52.631C123.663 52.8214 123.188 52.9167 122.646 52.9167H119.369V44.6435H122.492C123.05 44.6435 123.53 44.7387 123.93 44.9292C124.331 45.1197 124.634 45.3775 124.838 45.7029C125.042 46.0204 125.144 46.3775 125.144 46.7743C125.144 47.2504 125.019 47.6472 124.767 47.9647C124.516 48.2821 124.178 48.5162 123.754 48.667ZM120.712 48.1194H122.374C122.814 48.1194 123.156 48.0202 123.4 47.8218C123.651 47.6155 123.777 47.3218 123.777 46.941C123.777 46.5679 123.651 46.2783 123.4 46.0719C123.156 45.8577 122.814 45.7505 122.374 45.7505H120.712V48.1194ZM122.528 51.8096C122.983 51.8096 123.341 51.6985 123.6 51.4763C123.86 51.2541 123.989 50.9446 123.989 50.5478C123.989 50.1431 123.852 49.8217 123.577 49.5836C123.302 49.3455 122.936 49.2265 122.48 49.2265H120.712V51.8096H122.528Z" fill="#0D0A19" style="fill:#0D0A19;fill:color(display-p3 0.0510 0.0392 0.0980);fill-opacity:1;"/>
<path d="M128.032 45.7387V48.167H130.861V49.274H128.032V51.8095H131.215V52.9167H126.688V44.6316H131.215V45.7387H128.032Z" fill="#0D0A19" style="fill:#0D0A19;fill:color(display-p3 0.0510 0.0392 0.0980);fill-opacity:1;"/>
<path d="M135.464 53C134.914 53 134.419 52.9048 133.979 52.7143C133.539 52.5159 133.194 52.2381 132.942 51.8811C132.69 51.5239 132.564 51.1073 132.564 50.6311H134.003C134.034 50.9882 134.172 51.2819 134.415 51.512C134.666 51.7421 135.016 51.8572 135.464 51.8572C135.928 51.8572 136.289 51.7461 136.549 51.5239C136.808 51.2937 136.938 51.0001 136.938 50.643C136.938 50.3653 136.855 50.1391 136.69 49.9645C136.533 49.7899 136.332 49.655 136.089 49.5598C135.853 49.4646 135.523 49.3614 135.099 49.2503C134.564 49.1075 134.128 48.9646 133.79 48.8217C133.461 48.6709 133.177 48.4408 132.942 48.1313C132.706 47.8218 132.588 47.4091 132.588 46.8933C132.588 46.4172 132.706 46.0005 132.942 45.6434C133.177 45.2863 133.507 45.0125 133.932 44.8221C134.356 44.6316 134.847 44.5364 135.405 44.5364C136.199 44.5364 136.847 44.7387 137.35 45.1435C137.861 45.5402 138.144 46.0878 138.199 46.7862H136.714C136.69 46.4846 136.549 46.2267 136.289 46.0124C136.03 45.7982 135.688 45.691 135.264 45.691C134.879 45.691 134.564 45.7902 134.321 45.9886C134.078 46.1871 133.955 46.4727 133.955 46.8457C133.955 47.0996 134.03 47.31 134.18 47.4766C134.337 47.6353 134.533 47.7623 134.768 47.8575C135.004 47.9528 135.327 48.0559 135.735 48.167C136.278 48.3178 136.718 48.4686 137.055 48.6194C137.401 48.7701 137.692 49.0043 137.927 49.3217C138.171 49.6312 138.293 50.0478 138.293 50.5716C138.293 50.9922 138.179 51.389 137.952 51.762C137.731 52.135 137.405 52.4365 136.973 52.6667C136.549 52.8889 136.046 53 135.464 53Z" fill="#0D0A19" style="fill:#0D0A19;fill:color(display-p3 0.0510 0.0392 0.0980);fill-opacity:1;"/>
<path d="M145.066 44.6435V45.7505H142.886V52.9167H141.542V45.7505H139.35V44.6435H145.066Z" fill="#0D0A19" style="fill:#0D0A19;fill:color(display-p3 0.0510 0.0392 0.0980);fill-opacity:1;"/>
<path d="M148.832 48.7622C148.832 47.9528 149.017 47.2266 149.386 46.5838C149.763 45.941 150.27 45.4411 150.906 45.0839C151.55 44.7189 152.254 44.5364 153.016 44.5364C153.888 44.5364 154.662 44.7546 155.338 45.1911C156.022 45.6196 156.517 46.2307 156.823 47.0242H155.208C154.997 46.5878 154.701 46.2624 154.324 46.0481C153.947 45.8339 153.511 45.7268 153.016 45.7268C152.474 45.7268 151.99 45.8497 151.567 46.0958C151.142 46.3418 150.808 46.6949 150.564 47.1552C150.329 47.6155 150.211 48.1511 150.211 48.7622C150.211 49.3733 150.329 49.909 150.564 50.3692C150.808 50.8295 151.142 51.1866 151.567 51.4405C151.99 51.6866 152.474 51.8096 153.016 51.8096C153.511 51.8096 153.947 51.7025 154.324 51.4882C154.701 51.2739 154.997 50.9485 155.208 50.5121H156.823C156.517 51.3056 156.022 51.9167 155.338 52.3452C154.662 52.7738 153.888 52.9881 153.016 52.9881C152.246 52.9881 151.542 52.8095 150.906 52.4524C150.27 52.0874 149.763 51.5835 149.386 50.9406C149.017 50.2978 148.832 49.5717 148.832 48.7622Z" fill="#0D0A19" style="fill:#0D0A19;fill:color(display-p3 0.0510 0.0392 0.0980);fill-opacity:1;"/>
<path d="M163.23 51.2263H159.8L159.21 52.9167H157.808L160.743 44.6316H162.299L165.234 52.9167H163.82L163.23 51.2263ZM162.853 50.1192L161.521 46.2743L160.177 50.1192H162.853Z" fill="#0D0A19" style="fill:#0D0A19;fill:color(display-p3 0.0510 0.0392 0.0980);fill-opacity:1;"/>
<path d="M170.66 52.9167L168.775 49.6074H167.749V52.9167H166.405V44.6435H169.234C169.863 44.6435 170.393 44.7546 170.825 44.9768C171.265 45.199 171.592 45.4966 171.804 45.8696C172.024 46.2426 172.134 46.6592 172.134 47.1195C172.134 47.6591 171.977 48.1511 171.663 48.5955C171.356 49.0321 170.881 49.3297 170.236 49.4883L172.264 52.9167H170.66ZM167.749 48.5241H169.234C169.737 48.5241 170.114 48.3972 170.366 48.1432C170.625 47.8893 170.755 47.548 170.755 47.1195C170.755 46.691 170.629 46.3576 170.378 46.1195C170.126 45.8736 169.745 45.7505 169.234 45.7505H167.749V48.5241Z" fill="#0D0A19" style="fill:#0D0A19;fill:color(display-p3 0.0510 0.0392 0.0980);fill-opacity:1;"/>
<path d="M179.405 53C178.854 53 178.36 52.9048 177.92 52.7143C177.479 52.5159 177.134 52.2381 176.882 51.8811C176.631 51.5239 176.505 51.1073 176.505 50.6311H177.943C177.974 50.9882 178.112 51.2819 178.356 51.512C178.607 51.7421 178.957 51.8572 179.405 51.8572C179.868 51.8572 180.23 51.7461 180.489 51.5239C180.748 51.2937 180.878 51.0001 180.878 50.643C180.878 50.3653 180.796 50.1391 180.631 49.9645C180.473 49.7899 180.273 49.655 180.029 49.5598C179.793 49.4646 179.463 49.3614 179.039 49.2503C178.505 49.1075 178.068 48.9646 177.731 48.8217C177.401 48.6709 177.118 48.4408 176.882 48.1313C176.646 47.8218 176.529 47.4091 176.529 46.8933C176.529 46.4172 176.646 46.0005 176.882 45.6434C177.118 45.2863 177.448 45.0125 177.872 44.8221C178.297 44.6316 178.788 44.5364 179.346 44.5364C180.139 44.5364 180.787 44.7387 181.29 45.1435C181.801 45.5402 182.084 46.0878 182.139 46.7862H180.654C180.631 46.4846 180.489 46.2267 180.23 46.0124C179.97 45.7982 179.628 45.691 179.204 45.691C178.819 45.691 178.505 45.7902 178.261 45.9886C178.018 46.1871 177.896 46.4727 177.896 46.8457C177.896 47.0996 177.97 47.31 178.12 47.4766C178.277 47.6353 178.473 47.7623 178.709 47.8575C178.945 47.9528 179.267 48.0559 179.676 48.167C180.218 48.3178 180.658 48.4686 180.996 48.6194C181.342 48.7701 181.632 49.0043 181.868 49.3217C182.111 49.6312 182.234 50.0478 182.234 50.5716C182.234 50.9922 182.12 51.389 181.892 51.762C181.671 52.135 181.346 52.4365 180.913 52.6667C180.489 52.8889 179.986 53 179.405 53Z" fill="#0D0A19" style="fill:#0D0A19;fill:color(display-p3 0.0510 0.0392 0.0980);fill-opacity:1;"/>
<path d="M190.256 44.6435V52.9167H188.912V49.2979H185.058V52.9167H183.714V44.6435H185.058V48.1908H188.912V44.6435H190.256Z" fill="#0D0A19" style="fill:#0D0A19;fill:color(display-p3 0.0510 0.0392 0.0980);fill-opacity:1;"/>
<path d="M193.264 44.6435V52.9167H191.921V44.6435H193.264Z" fill="#0D0A19" style="fill:#0D0A19;fill:color(display-p3 0.0510 0.0392 0.0980);fill-opacity:1;"/>
<path d="M200.652 47.1076C200.652 47.5282 200.554 47.925 200.358 48.2979C200.161 48.6709 199.847 48.9765 199.414 49.2146C198.982 49.4447 198.428 49.5598 197.752 49.5598H196.267V52.9167H194.924V44.6435H197.752C198.381 44.6435 198.911 44.7546 199.344 44.9768C199.784 45.1911 200.11 45.4847 200.322 45.8577C200.542 46.2307 200.652 46.6473 200.652 47.1076ZM197.752 48.4527C198.263 48.4527 198.644 48.3377 198.896 48.1075C199.147 47.8694 199.273 47.5361 199.273 47.1076C199.273 46.2029 198.766 45.7505 197.752 45.7505H196.267V48.4527H197.752Z" fill="#0D0A19" style="fill:#0D0A19;fill:color(display-p3 0.0510 0.0392 0.0980);fill-opacity:1;"/>
<path d="M207.558 47.1076C207.558 47.5282 207.46 47.925 207.263 48.2979C207.066 48.6709 206.752 48.9765 206.32 49.2146C205.888 49.4447 205.333 49.5598 204.658 49.5598H203.173V52.9167H201.829V44.6435H204.658C205.287 44.6435 205.817 44.7546 206.249 44.9768C206.689 45.1911 207.015 45.4847 207.228 45.8577C207.447 46.2307 207.558 46.6473 207.558 47.1076ZM204.658 48.4527C205.168 48.4527 205.55 48.3377 205.801 48.1075C206.053 47.8694 206.178 47.5361 206.178 47.1076C206.178 46.2029 205.671 45.7505 204.658 45.7505H203.173V48.4527H204.658Z" fill="#0D0A19" style="fill:#0D0A19;fill:color(display-p3 0.0510 0.0392 0.0980);fill-opacity:1;"/>
<path d="M210.078 44.6435V52.9167H208.734V44.6435H210.078Z" fill="#0D0A19" style="fill:#0D0A19;fill:color(display-p3 0.0510 0.0392 0.0980);fill-opacity:1;"/>
<path d="M218.468 52.9167H217.124L213.081 46.7385V52.9167H211.737V44.6316H213.081L217.124 50.7978V44.6316H218.468V52.9167Z" fill="#0D0A19" style="fill:#0D0A19;fill:color(display-p3 0.0510 0.0392 0.0980);fill-opacity:1;"/>
<path d="M226.057 47.0242C225.844 46.6116 225.55 46.3021 225.173 46.0958C224.795 45.8815 224.36 45.7744 223.864 45.7744C223.322 45.7744 222.839 45.8973 222.414 46.1434C221.99 46.3894 221.656 46.7386 221.412 47.1909C221.177 47.6432 221.059 48.167 221.059 48.7622C221.059 49.3574 221.177 49.8851 221.412 50.3454C221.656 50.7978 221.99 51.1469 222.414 51.393C222.839 51.639 223.322 51.762 223.864 51.762C224.595 51.762 225.188 51.5557 225.644 51.143C226.1 50.7303 226.378 50.1708 226.481 49.4646H223.405V48.3813H227.919V49.4407C227.833 50.0836 227.604 50.6748 227.235 51.2144C226.874 51.754 226.399 52.1865 225.809 52.5119C225.227 52.8294 224.579 52.9881 223.864 52.9881C223.094 52.9881 222.391 52.8095 221.754 52.4524C221.118 52.0874 220.611 51.5835 220.234 50.9406C219.864 50.2978 219.68 49.5717 219.68 48.7622C219.68 47.9528 219.864 47.2266 220.234 46.5838C220.611 45.941 221.118 45.4411 221.754 45.0839C222.399 44.7189 223.102 44.5364 223.864 44.5364C224.737 44.5364 225.511 44.7546 226.186 45.1911C226.87 45.6196 227.365 46.2307 227.671 47.0242H226.057Z" fill="#0D0A19" style="fill:#0D0A19;fill:color(display-p3 0.0510 0.0392 0.0980);fill-opacity:1;"/>
<defs>
<linearGradient id="paint0_linear_509_2189" x1="44.2996" y1="24.5714" x2="102.125" y2="52.4767" gradientUnits="userSpaceOnUse">
<stop stop-color="#A2384D" style="stop-color:#A2384D;stop-color:color(display-p3 0.6353 0.2196 0.3020);stop-opacity:1;"/>
<stop offset="1" stop-color="#3C151D" style="stop-color:#3C151D;stop-color:color(display-p3 0.2353 0.0813 0.1118);stop-opacity:1;"/>
</linearGradient>
<linearGradient id="paint1_linear_509_2189" x1="44.2996" y1="24.5714" x2="102.125" y2="52.4767" gradientUnits="userSpaceOnUse">
<stop stop-color="#A2384D" style="stop-color:#A2384D;stop-color:color(display-p3 0.6353 0.2196 0.3020);stop-opacity:1;"/>
<stop offset="1" stop-color="#3C151D" style="stop-color:#3C151D;stop-color:color(display-p3 0.2353 0.0813 0.1118);stop-opacity:1;"/>
</linearGradient>
<linearGradient id="paint2_linear_509_2189" x1="44.2996" y1="24.5714" x2="102.125" y2="52.4767" gradientUnits="userSpaceOnUse">
<stop stop-color="#A2384D" style="stop-color:#A2384D;stop-color:color(display-p3 0.6353 0.2196 0.3020);stop-opacity:1;"/>
<stop offset="1" stop-color="#3C151D" style="stop-color:#3C151D;stop-color:color(display-p3 0.2353 0.0813 0.1118);stop-opacity:1;"/>
</linearGradient>
<linearGradient id="paint3_linear_509_2189" x1="44.2996" y1="24.5714" x2="102.125" y2="52.4767" gradientUnits="userSpaceOnUse">
<stop stop-color="#A2384D" style="stop-color:#A2384D;stop-color:color(display-p3 0.6353 0.2196 0.3020);stop-opacity:1;"/>
<stop offset="1" stop-color="#3C151D" style="stop-color:#3C151D;stop-color:color(display-p3 0.2353 0.0813 0.1118);stop-opacity:1;"/>
</linearGradient>
<linearGradient id="paint4_linear_509_2189" x1="44.2996" y1="24.5714" x2="102.125" y2="52.4767" gradientUnits="userSpaceOnUse">
<stop stop-color="#A2384D" style="stop-color:#A2384D;stop-color:color(display-p3 0.6353 0.2196 0.3020);stop-opacity:1;"/>
<stop offset="1" stop-color="#3C151D" style="stop-color:#3C151D;stop-color:color(display-p3 0.2353 0.0813 0.1118);stop-opacity:1;"/>
</linearGradient>
<linearGradient id="paint5_linear_509_2189" x1="44.2996" y1="24.5714" x2="102.125" y2="52.4767" gradientUnits="userSpaceOnUse">
<stop stop-color="#A2384D" style="stop-color:#A2384D;stop-color:color(display-p3 0.6353 0.2196 0.3020);stop-opacity:1;"/>
<stop offset="1" stop-color="#3C151D" style="stop-color:#3C151D;stop-color:color(display-p3 0.2353 0.0813 0.1118);stop-opacity:1;"/>
</linearGradient>
<linearGradient id="paint6_linear_509_2189" x1="44.2996" y1="24.5714" x2="102.125" y2="52.4767" gradientUnits="userSpaceOnUse">
<stop stop-color="#A2384D" style="stop-color:#A2384D;stop-color:color(display-p3 0.6353 0.2196 0.3020);stop-opacity:1;"/>
<stop offset="1" stop-color="#3C151D" style="stop-color:#3C151D;stop-color:color(display-p3 0.2353 0.0813 0.1118);stop-opacity:1;"/>
</linearGradient>
<linearGradient id="paint7_linear_509_2189" x1="44.2996" y1="24.5714" x2="102.125" y2="52.4767" gradientUnits="userSpaceOnUse">
<stop stop-color="#A2384D" style="stop-color:#A2384D;stop-color:color(display-p3 0.6353 0.2196 0.3020);stop-opacity:1;"/>
<stop offset="1" stop-color="#3C151D" style="stop-color:#3C151D;stop-color:color(display-p3 0.2353 0.0813 0.1118);stop-opacity:1;"/>
</linearGradient>
<linearGradient id="paint8_linear_509_2189" x1="44.2996" y1="24.5714" x2="102.125" y2="52.4767" gradientUnits="userSpaceOnUse">
<stop stop-color="#A2384D" style="stop-color:#A2384D;stop-color:color(display-p3 0.6353 0.2196 0.3020);stop-opacity:1;"/>
<stop offset="1" stop-color="#3C151D" style="stop-color:#3C151D;stop-color:color(display-p3 0.2353 0.0813 0.1118);stop-opacity:1;"/>
</linearGradient>
<linearGradient id="paint9_linear_509_2189" x1="44.2996" y1="24.5714" x2="102.125" y2="52.4767" gradientUnits="userSpaceOnUse">
<stop stop-color="#A2384D" style="stop-color:#A2384D;stop-color:color(display-p3 0.6353 0.2196 0.3020);stop-opacity:1;"/>
<stop offset="1" stop-color="#3C151D" style="stop-color:#3C151D;stop-color:color(display-p3 0.2353 0.0813 0.1118);stop-opacity:1;"/>
</linearGradient>
<linearGradient id="paint10_linear_509_2189" x1="44.2996" y1="24.5714" x2="102.125" y2="52.4767" gradientUnits="userSpaceOnUse">
<stop stop-color="#A2384D" style="stop-color:#A2384D;stop-color:color(display-p3 0.6353 0.2196 0.3020);stop-opacity:1;"/>
<stop offset="1" stop-color="#3C151D" style="stop-color:#3C151D;stop-color:color(display-p3 0.2353 0.0813 0.1118);stop-opacity:1;"/>
</linearGradient>
<linearGradient id="paint11_linear_509_2189" x1="44.2996" y1="24.5714" x2="102.125" y2="52.4767" gradientUnits="userSpaceOnUse">
<stop stop-color="#A2384D" style="stop-color:#A2384D;stop-color:color(display-p3 0.6353 0.2196 0.3020);stop-opacity:1;"/>
<stop offset="1" stop-color="#3C151D" style="stop-color:#3C151D;stop-color:color(display-p3 0.2353 0.0813 0.1118);stop-opacity:1;"/>
</linearGradient>
<linearGradient id="paint12_linear_509_2189" x1="44.2996" y1="24.5714" x2="102.125" y2="52.4767" gradientUnits="userSpaceOnUse">
<stop stop-color="#A2384D" style="stop-color:#A2384D;stop-color:color(display-p3 0.6353 0.2196 0.3020);stop-opacity:1;"/>
<stop offset="1" stop-color="#3C151D" style="stop-color:#3C151D;stop-color:color(display-p3 0.2353 0.0813 0.1118);stop-opacity:1;"/>
</linearGradient>
<linearGradient id="paint13_linear_509_2189" x1="44.2996" y1="24.5714" x2="102.125" y2="52.4767" gradientUnits="userSpaceOnUse">
<stop stop-color="#A2384D" style="stop-color:#A2384D;stop-color:color(display-p3 0.6353 0.2196 0.3020);stop-opacity:1;"/>
<stop offset="1" stop-color="#3C151D" style="stop-color:#3C151D;stop-color:color(display-p3 0.2353 0.0813 0.1118);stop-opacity:1;"/>
</linearGradient>
<linearGradient id="paint14_linear_509_2189" x1="44.2996" y1="24.5714" x2="102.125" y2="52.4767" gradientUnits="userSpaceOnUse">
<stop stop-color="#A2384D" style="stop-color:#A2384D;stop-color:color(display-p3 0.6353 0.2196 0.3020);stop-opacity:1;"/>
<stop offset="1" stop-color="#3C151D" style="stop-color:#3C151D;stop-color:color(display-p3 0.2353 0.0813 0.1118);stop-opacity:1;"/>
</linearGradient>
<linearGradient id="paint15_linear_509_2189" x1="44.2996" y1="24.5714" x2="102.125" y2="52.4767" gradientUnits="userSpaceOnUse">
<stop stop-color="#A2384D" style="stop-color:#A2384D;stop-color:color(display-p3 0.6353 0.2196 0.3020);stop-opacity:1;"/>
<stop offset="1" stop-color="#3C151D" style="stop-color:#3C151D;stop-color:color(display-p3 0.2353 0.0813 0.1118);stop-opacity:1;"/>
</linearGradient>
<linearGradient id="paint16_linear_509_2189" x1="44.2996" y1="24.5714" x2="102.125" y2="52.4767" gradientUnits="userSpaceOnUse">
<stop stop-color="#A2384D" style="stop-color:#A2384D;stop-color:color(display-p3 0.6353 0.2196 0.3020);stop-opacity:1;"/>
<stop offset="1" stop-color="#3C151D" style="stop-color:#3C151D;stop-color:color(display-p3 0.2353 0.0813 0.1118);stop-opacity:1;"/>
</linearGradient>
<clipPath id="clip0_509_2189">
<rect width="105.368" height="52" fill="white" style="fill:white;fill-opacity:1;" transform="translate(4 7)"/>
</clipPath>
</defs>
</svg>
