<?xml version="1.0" encoding="UTF-8"?>
<svg id="Layer_1" data-name="Layer 1" xmlns="http://www.w3.org/2000/svg" version="1.1" xmlns:xlink="http://www.w3.org/1999/xlink" viewBox="0 0 327 66">
  <defs>
    <style>
      .cls-1 {
        fill: url(#linear-gradient-12);
      }

      .cls-1, .cls-2, .cls-3, .cls-4, .cls-5, .cls-6, .cls-7, .cls-8, .cls-9, .cls-10, .cls-11, .cls-12, .cls-13, .cls-14, .cls-15, .cls-16, .cls-17, .cls-18, .cls-19 {
        stroke-width: 0px;
      }

      .cls-2 {
        fill: #9f374c;
      }

      .cls-3 {
        fill: url(#linear-gradient-17);
      }

      .cls-4 {
        fill: url(#linear-gradient);
      }

      .cls-5 {
        fill: #000;
      }

      .cls-6 {
        fill: url(#linear-gradient-6);
      }

      .cls-7 {
        fill: url(#linear-gradient-15);
      }

      .cls-8 {
        fill: url(#linear-gradient-11);
      }

      .cls-9 {
        fill: url(#linear-gradient-5);
      }

      .cls-10 {
        fill: url(#linear-gradient-13);
      }

      .cls-11 {
        fill: url(#linear-gradient-16);
      }

      .cls-12 {
        fill: url(#linear-gradient-14);
      }

      .cls-13 {
        fill: url(#linear-gradient-2);
      }

      .cls-14 {
        fill: url(#linear-gradient-7);
      }

      .cls-15 {
        fill: url(#linear-gradient-3);
      }

      .cls-16 {
        fill: url(#linear-gradient-9);
      }

      .cls-17 {
        fill: url(#linear-gradient-8);
      }

      .cls-18 {
        fill: url(#linear-gradient-10);
      }

      .cls-19 {
        fill: url(#linear-gradient-4);
      }
    </style>
    <linearGradient id="linear-gradient" x1="99.4" y1="81.8" x2="99.4" y2="10.5" gradientUnits="userSpaceOnUse">
      <stop offset="0" stop-color="#000"/>
      <stop offset="1" stop-color="#9f374c"/>
    </linearGradient>
    <linearGradient id="linear-gradient-2" x1="67.7" y1="81.8" x2="67.7" y2="10.5" xlink:href="#linear-gradient"/>
    <linearGradient id="linear-gradient-3" x1="83.6" y1="81.8" x2="83.6" y2="10.5" xlink:href="#linear-gradient"/>
    <linearGradient id="linear-gradient-4" x1="13.9" y1="81.8" x2="13.9" y2="10.5" xlink:href="#linear-gradient"/>
    <linearGradient id="linear-gradient-5" x1="11.4" y1="81.8" x2="11.4" y2="10.5" xlink:href="#linear-gradient"/>
    <linearGradient id="linear-gradient-6" x1="35.7" y1="81.8" x2="35.7" y2="10.5" xlink:href="#linear-gradient"/>
    <linearGradient id="linear-gradient-7" x1="85.1" y1="81.8" x2="85.1" y2="10.5" xlink:href="#linear-gradient"/>
    <linearGradient id="linear-gradient-8" x1="15.8" y1="81.8" x2="15.8" y2="10.5" xlink:href="#linear-gradient"/>
    <linearGradient id="linear-gradient-9" x1="14.3" y1="81.8" x2="14.3" y2="10.5" xlink:href="#linear-gradient"/>
    <linearGradient id="linear-gradient-10" x1="14.1" y1="81.8" x2="14.1" y2="10.5" xlink:href="#linear-gradient"/>
    <linearGradient id="linear-gradient-11" x1="34.7" y1="81.8" x2="34.7" y2="10.5" xlink:href="#linear-gradient"/>
    <linearGradient id="linear-gradient-12" x1="62.7" y1="81.8" x2="62.7" y2="10.5" xlink:href="#linear-gradient"/>
    <linearGradient id="linear-gradient-13" x1="14.5" y1="81.8" x2="14.5" y2="10.5" xlink:href="#linear-gradient"/>
    <linearGradient id="linear-gradient-14" x1="13.7" y1="81.8" x2="13.7" y2="10.5" xlink:href="#linear-gradient"/>
    <linearGradient id="linear-gradient-15" x1="46.1" y1="81.8" x2="46.1" y2="10.5" xlink:href="#linear-gradient"/>
    <linearGradient id="linear-gradient-16" x1="44.5" y1="81.8" x2="44.5" y2="10.5" xlink:href="#linear-gradient"/>
    <linearGradient id="linear-gradient-17" x1="87.2" y1="81.8" x2="87.2" y2="10.5" xlink:href="#linear-gradient"/>
  </defs>
  <path class="cls-4" d="M103.5,41.6c.1.4.2.9.2,1.4,0,1.5-.6,2.8-1.4,2.8s-.8-.4-1.1-1c0-.4.1-.9.1-1.3s-.1-1.3-.3-1.8c0,0,0,0,0,0h-.5c.2.5.4,1.1.4,1.9,0,1.5-.6,2.8-1.4,2.8s-1.4-1.2-1.4-2.8.1-1.4.4-1.9h-3.4c-.2.5-.3,1.2-.3,1.9,0,1.9.8,3.4,1.9,3.4h2.9c.3,0,.6-.2.9-.4h1.9c1,0,1.9-1.5,1.9-3.4s0-1-.2-1.4h-.5Z"/>
  <path class="cls-13" d="M75.5,43.6h-.8c0,.4,0,.8,0,1.2,0,2.6-1.1,4.6-2.4,4.6s-1.4-.6-1.8-1.7c.2-.7.3-1.4.3-2.2s0-1.3-.2-1.9h-.8c.1.6.2,1.2.2,1.9,0,2.6-1.1,4.6-2.4,4.6s-2.4-2.1-2.4-4.6,0-1.3.2-1.9h-5c-.1.6-.8,1.2-.8,1.9,0,3.2,1.4,5.7,3.2,5.7h4.8c.6,0,1.1-.3,1.5-.7h3.2c1.7,0,3.2-2.6,3.2-5.7,0-.4,0-.8,0-1.2Z"/>
  <path class="cls-15" d="M61.5,38.2v3.7l3.6-2.2.5-.6,32.1.7-.7.8-35.5,1.3v2.8l43.4-2.3.9-3.3-44.3-.9Z"/>
  <path class="cls-19" d="M10.1,47.7c.3,3.5,1.9,6.1,3.9,6.1s3.6-2.6,3.9-6c-2.5.6-5.2.4-7.8,0Z"/>
  <path class="cls-9" d="M7.5,47.1c.1,3.8,1.8,6.7,3.9,6.7h2.5v-1.7c.7-1,1.1-2.4,1.3-4-2.6.1-5.2-.3-7.8-1.1Z"/>
  <path class="cls-6" d="M36.9,41.6h-2.5c-2.2,0-3.9,3.2-3.9,7.1s1.8,7.1,3.9,7.1h2.5c2.2,0,3.9-3.2,3.9-7.1s-1.8-7.1-3.9-7.1ZM37.2,54.3c-1.5,0-2.8-2.5-2.8-5.5s1.2-5.5,2.8-5.5,2.8,2.5,2.8,5.5-1.2,5.5-2.8,5.5Z"/>
  <path class="cls-14" d="M90.3,44.9l-10.3.7c-1.1,0-2-.7-2.1-1.8,0-1.1.8-2,1.9-2.1l10.3-.7c1.1,0,2,.7,2.1,1.8,0,1.1-.8,2-1.9,2.1Z"/>
  <path class="cls-17" d="M21,34.5h-9.7l-.8.7h10.4v-.7Z"/>
  <path class="cls-16" d="M8.7,34.5v.7h12.4v-.7h-12.4ZM8.3,37.6h12.4v-.7h-12.4v.7ZM7.9,40h12.4v-.7H7.9v.7ZM7.6,42.5h12.4v-.7H7.6v.7Z"/>
  <path class="cls-18" d="M20.3,39.3H7.9v.7s12.4,0,12.4,0v-.7Z"/>
  <path class="cls-8" d="M63.2,39.1h-3.5V9l1.8-.2-5.2-1.3h-3c-1.8-.5-2.6-.4-2.6-.4-.4,0-.9,0-1.5,0-3.2.9-6.2,2.5-7.6,5.1-5.4,0-11.2.5-14.7,1.5,1.2-1.2,2.7-2.6,4.4-3.8,0,0,0,0,0,0-6,2-9,6.5-10,8.3-1.5.3-2.3.5-2.3.5l-1.8,4.6h1.2c0,0-1.3,4.2-1.3,4.2v-2.6h-1l-.7.6v4.3c-2.6.7-5.5,1.9-7.6,3,7.8-1.7,15.6-.4,15.6-.4,0,0-1.9,10.3-2,11.8-11.5.8-14.9-.1-14.9-.1-.1-2.2,0-4.1.2-5.8-.1.1-.3.3-.4.4,0,0,0,0,0,0,0,0-.2.2-.2.3,0,0,0,0,0,0,0,0-.1.2-.2.3,0,0,0,0,0,0,0,.1-.1.2-.2.3,0,0,0,0,0,.1,0,.1-.1.2-.2.3,0,0,0,.1,0,.2,0,.1-.1.2-.2.4,0,0,0,.1,0,.2,0,.1-.1.3-.2.4,0,0,0,.1,0,.2,0,.2-.1.5-.2.7l.7.7-.9.7v6s18.7,1.8,27.3.4v.5h3c-.1-.6-.2-1.3-.2-2,0-3,1.2-5.5,2.8-5.5s2.8,2.5,2.8,5.5,0,1.3-.2,2h1.9l23.5-2v-9.1h-1.9v-.6h0ZM53.7,9.8c2.8.5,3.1,4.1,3.1,4.1-3.6-7.2-9.9,0-9.9,0,1.2-2.2,4.1-4.7,6.9-4.1ZM42.1,29.9c0,0,0-.1.1-.1,0,0,0,0,0,0,.7,0,1.1.4,1.3.8l1.6-1.9-3.1.2,1.4-6.9,5.5.5v6.1l-3,.2-2.5,3h0c-.1.3-.4.6-.9.7-.2,0-.3,0-.4,0,0,0-.1,0-.1-.1v-2.4ZM40.9,20.3l-1.7,7.4s-.5,1.3-3.6,1.2c0,0-4.5,0-9.5,0l2.3-7.6,12.6-1ZM17.3,29.4l2.3-7.4,7.4-.6-2.3,7.5c-2.6,0-5.3.2-7.4.4ZM28.9,42.7c-.5.1-3.2.5-6,.9,0,0,0-1.7,1-2.8,1.7-1,4.7-2.2,5.4-1.6.8.6.1,3.3-.4,3.4ZM23.3,40.7s2.5-5.3,16.2-6.9c0,0,4.6-.3,8.4.5,0,0-19.6,2.1-24.6,6.4ZM41.6,45.1l-.5-.8,17-1.3,2.1,1-18.6,1Z"/>
  <path class="cls-1" d="M64.4,9.7v28.2h-3.3V10.1l3.3-.4ZM65.7,8.2l-6,.8v30.1h6V8.2Z"/>
  <path class="cls-10" d="M20.7,37.6v-.7h-12l-.4.3v.4h12.4Z"/>
  <path class="cls-12" d="M19.9,41.8H7.6v.7h12.4v-.7Z"/>
  <path class="cls-7" d="M47.3,22.4h-2.4v6.1h2.4v-6.1Z"/>
  <path class="cls-11" d="M44.1,28.1l.8.4v-6.1l-.8.4v5.3Z"/>
  <path class="cls-3" d="M107.3,31.1l-11.1-3.2,11.5,1.5.2-1.2-39.4-14.2,40.5,8.4.3-1.5-43.5-12.7-.4,29,39.6.5-1,4.7h1.3c0,0,2.1-11.4,2.1-11.4Z"/>
  <path class="cls-5" d="M124.2,13.3v11.7c0,1.2.3,2.1.9,2.7.6.6,1.4,1,2.6,1s2-.3,2.6-1c.6-.6.9-1.5.9-2.7v-11.7h4.8v11.7c0,1.8-.4,3.2-1.1,4.4-.8,1.2-1.8,2.1-3.1,2.7-1.3.6-2.7.9-4.2.9s-3-.3-4.2-.9c-1.2-.6-2.2-1.5-2.9-2.7-.7-1.2-1.1-2.7-1.1-4.5v-11.7h4.8Z"/>
  <path class="cls-5" d="M156.6,32.9h-4.8l-8.1-12.1v12.1h-4.8V13.3h4.8l8.1,12.2v-12.2h4.8v19.6Z"/>
  <path class="cls-5" d="M164.4,13.3v19.6h-4.8V13.3h4.8Z"/>
  <path class="cls-5" d="M181.7,13.3v3.8h-5.3v15.8h-4.8v-15.8h-5.3v-3.8h15.4Z"/>
  <path class="cls-5" d="M188.4,17.1v4h6.5v3.7h-6.5v4.3h7.3v3.8h-12.2V13.3h12.2v3.8h-7.3Z"/>
  <path class="cls-5" d="M205.7,13.3c2.1,0,3.9.4,5.5,1.2,1.6.8,2.8,2,3.6,3.5.9,1.5,1.3,3.2,1.3,5.1s-.4,3.6-1.3,5.1c-.8,1.5-2.1,2.6-3.7,3.5-1.6.8-3.4,1.2-5.5,1.2h-7.4V13.3h7.4ZM205.4,28.8c1.8,0,3.3-.5,4.3-1.5,1-1,1.5-2.4,1.5-4.2s-.5-3.2-1.5-4.2c-1-1-2.4-1.5-4.3-1.5h-2.3v11.4h2.3Z"/>
  <path class="cls-2" d="M230.9,33.1c-1.5,0-2.8-.2-3.9-.7-1.2-.5-2.1-1.2-2.8-2.1-.7-.9-1-2-1.1-3.3h5.2c0,.7.3,1.3.8,1.7.4.4,1,.6,1.7.6s1.3-.2,1.7-.5c.4-.3.6-.8.6-1.4s-.2-.9-.5-1.2c-.3-.3-.7-.6-1.2-.8-.5-.2-1.2-.4-2-.7-1.3-.4-2.3-.8-3.1-1.2-.8-.4-1.5-1-2.1-1.7-.6-.8-.9-1.8-.9-3,0-1.8.7-3.3,2-4.3,1.3-1,3.1-1.6,5.2-1.6s4,.5,5.3,1.6c1.3,1,2.1,2.5,2.2,4.3h-5.2c0-.6-.3-1.1-.7-1.5-.4-.4-1-.6-1.7-.6s-1.1.2-1.4.5c-.4.3-.5.7-.5,1.3s.3,1.1.9,1.5c.6.4,1.5.7,2.8,1.1,1.3.4,2.3.8,3.1,1.2.8.4,1.5,1,2.1,1.7.6.7.9,1.7.9,2.9s-.3,2.1-.9,3c-.6.9-1.4,1.6-2.5,2.2-1.1.5-2.4.8-3.9.8Z"/>
  <path class="cls-2" d="M254.8,13.3v3.8h-5.3v15.8h-4.8v-15.8h-5.3v-3.8h15.4Z"/>
  <path class="cls-2" d="M269.1,29.4h-7.4l-1.2,3.5h-5.1l7.2-19.6h5.6l7.2,19.6h-5.1l-1.2-3.5ZM267.8,25.7l-2.5-7.2-2.4,7.2h4.9Z"/>
  <path class="cls-2" d="M291.3,13.3v3.8h-5.3v15.8h-4.8v-15.8h-5.3v-3.8h15.4Z"/>
  <path class="cls-2" d="M298,17.1v4h6.5v3.7h-6.5v4.3h7.3v3.8h-12.2V13.3h12.2v3.8h-7.3Z"/>
  <path class="cls-2" d="M315.1,33.1c-1.5,0-2.8-.2-3.9-.7-1.2-.5-2.1-1.2-2.8-2.1-.7-.9-1-2-1.1-3.3h5.2c0,.7.3,1.3.8,1.7.4.4,1,.6,1.7.6s1.3-.2,1.7-.5c.4-.3.6-.8.6-1.4s-.2-.9-.5-1.2c-.3-.3-.7-.6-1.2-.8-.5-.2-1.2-.4-2-.7-1.3-.4-2.3-.8-3.1-1.2-.8-.4-1.5-1-2.1-1.7-.6-.8-.9-1.8-.9-3,0-1.8.7-3.3,2-4.3,1.3-1,3.1-1.6,5.2-1.6s4,.5,5.3,1.6c1.3,1,2.1,2.5,2.2,4.3h-5.2c0-.6-.3-1.1-.7-1.5-.4-.4-1-.6-1.7-.6s-1.1.2-1.4.5c-.4.3-.5.7-.5,1.3s.3,1.1.9,1.5c.6.4,1.5.7,2.8,1.1,1.3.4,2.3.8,3.1,1.2.8.4,1.5,1,2.1,1.7.6.7.9,1.7.9,2.9s-.3,2.1-.9,3c-.6.9-1.4,1.6-2.5,2.2-1.1.5-2.4.8-3.9.8Z"/>
  <g>
    <path class="cls-5" d="M125.5,49.3c.3.4.5.9.5,1.4s-.1.9-.4,1.2c-.2.4-.6.7-1,.9-.4.2-1,.3-1.6.3h-3.6v-8.9h3.4c.6,0,1.1.1,1.6.3.4.2.8.5,1,.8.2.3.3.7.3,1.2s-.1.9-.4,1.3c-.3.3-.6.6-1.1.8.5,0,.9.3,1.2.8ZM121,48h1.8c.5,0,.9-.1,1.1-.3.3-.2.4-.5.4-.9s-.1-.7-.4-.9c-.3-.2-.6-.3-1.1-.3h-1.8v2.6ZM124.2,51.6c.3-.2.4-.6.4-1s-.2-.8-.4-1c-.3-.3-.7-.4-1.2-.4h-1.9v2.8h2c.5,0,.9-.1,1.2-.4Z"/>
    <path class="cls-5" d="M134.2,45.4v2.6h3.1v1.2h-3.1v2.7h3.5v1.2h-4.9v-8.9h4.9v1.2h-3.5Z"/>
    <path class="cls-5" d="M146,52.9c-.5-.2-.9-.5-1.1-.9-.3-.4-.4-.8-.4-1.3h1.6c0,.4.2.7.5,1,.3.2.6.4,1.1.4s.9-.1,1.2-.4c.3-.2.4-.6.4-.9s0-.5-.3-.7c-.2-.2-.4-.3-.7-.4-.3-.1-.6-.2-1.1-.3-.6-.2-1.1-.3-1.4-.5-.4-.2-.7-.4-.9-.7s-.4-.8-.4-1.3.1-1,.4-1.3c.3-.4.6-.7,1.1-.9.5-.2,1-.3,1.6-.3.9,0,1.6.2,2.1.6s.9,1,.9,1.8h-1.6c0-.3-.2-.6-.5-.8s-.7-.3-1.1-.3-.8.1-1,.3c-.3.2-.4.5-.4.9s0,.5.3.7c.2.2.4.3.6.4.3.1.6.2,1.1.3.6.2,1.1.3,1.4.5.4.2.7.4,1,.8.3.3.4.8.4,1.4s-.1.9-.4,1.3c-.2.4-.6.7-1.1,1s-1,.4-1.7.4-1.1-.1-1.6-.3Z"/>
    <path class="cls-5" d="M163.3,44.2v1.2h-2.4v7.7h-1.5v-7.7h-2.4v-1.2h6.2Z"/>
    <path class="cls-5" d="M178.5,46.3c.4-.7,1-1.2,1.7-1.6s1.5-.6,2.3-.6,1.8.2,2.5.7c.7.5,1.3,1.1,1.6,2h-1.8c-.2-.5-.6-.8-1-1.1-.4-.2-.9-.3-1.4-.3s-1.1.1-1.6.4c-.5.3-.8.6-1.1,1.1-.3.5-.4,1.1-.4,1.7s.1,1.2.4,1.7c.3.5.6.9,1.1,1.1.5.3,1,.4,1.6.4s1-.1,1.4-.3c.4-.2.7-.6,1-1.1h1.8c-.3.9-.9,1.5-1.6,2-.7.5-1.6.7-2.5.7s-1.6-.2-2.3-.6c-.7-.4-1.2-.9-1.7-1.6-.4-.7-.6-1.5-.6-2.4s.2-1.7.6-2.4Z"/>
    <path class="cls-5" d="M198.8,51.3h-3.7l-.6,1.8h-1.5l3.2-8.9h1.7l3.2,8.9h-1.5l-.6-1.8ZM198.4,50.1l-1.5-4.1-1.5,4.1h2.9Z"/>
    <path class="cls-5" d="M212.2,53.1l-2.1-3.6h-1.1v3.6h-1.5v-8.9h3.1c.7,0,1.3.1,1.7.4.5.2.8.6,1.1,1,.2.4.4.9.4,1.3s-.2,1.1-.5,1.6c-.3.5-.9.8-1.6,1l2.2,3.7h-1.7ZM209,48.4h1.6c.5,0,1-.1,1.2-.4.3-.3.4-.6.4-1.1s-.1-.8-.4-1.1c-.3-.3-.7-.4-1.2-.4h-1.6v3Z"/>
    <path class="cls-5" d="M230.6,52.9c-.5-.2-.9-.5-1.1-.9-.3-.4-.4-.8-.4-1.3h1.6c0,.4.2.7.5,1,.3.2.6.4,1.1.4s.9-.1,1.2-.4c.3-.2.4-.6.4-.9s0-.5-.3-.7-.4-.3-.7-.4c-.3-.1-.6-.2-1.1-.3-.6-.2-1.1-.3-1.4-.5-.4-.2-.7-.4-.9-.7s-.4-.8-.4-1.3.1-1,.4-1.3c.3-.4.6-.7,1.1-.9.5-.2,1-.3,1.6-.3.9,0,1.6.2,2.1.6.6.4.9,1,.9,1.8h-1.6c0-.3-.2-.6-.5-.8-.3-.2-.7-.3-1.1-.3s-.8.1-1,.3c-.3.2-.4.5-.4.9s0,.5.3.7c.2.2.4.3.6.4.3.1.6.2,1.1.3.6.2,1.1.3,1.4.5.4.2.7.4,1,.8.3.3.4.8.4,1.4s-.1.9-.4,1.3-.6.7-1.1,1-1,.4-1.7.4-1.1-.1-1.6-.3Z"/>
    <path class="cls-5" d="M249.3,44.2v8.9h-1.5v-3.9h-4.2v3.9h-1.5v-8.9h1.5v3.8h4.2v-3.8h1.5Z"/>
    <path class="cls-5" d="M257.8,44.2v8.9h-1.5v-8.9h1.5Z"/>
    <path class="cls-5" d="M270.8,48.1c-.2.4-.6.7-1,1-.5.3-1.1.4-1.8.4h-1.6v3.6h-1.5v-8.9h3.1c.7,0,1.3.1,1.7.4.5.2.8.6,1.1,1,.2.4.4.9.4,1.3s-.1.9-.3,1.3ZM269.2,47.9c.3-.3.4-.6.4-1.1,0-1-.6-1.5-1.7-1.5h-1.6v2.9h1.6c.6,0,1-.1,1.2-.4Z"/>
    <path class="cls-5" d="M283.6,48.1c-.2.4-.6.7-1,1-.5.3-1.1.4-1.8.4h-1.6v3.6h-1.5v-8.9h3.1c.7,0,1.3.1,1.7.4.5.2.8.6,1.1,1,.2.4.4.9.4,1.3s-.1.9-.3,1.3ZM282,47.9c.3-.3.4-.6.4-1.1,0-1-.6-1.5-1.7-1.5h-1.6v2.9h1.6c.6,0,1-.1,1.2-.4Z"/>
    <path class="cls-5" d="M291.9,44.2v8.9h-1.5v-8.9h1.5Z"/>
    <path class="cls-5" d="M306.3,53.1h-1.5l-4.4-6.7v6.7h-1.5v-8.9h1.5l4.4,6.7v-6.7h1.5v8.9Z"/>
    <path class="cls-5" d="M319.9,46.8c-.2-.4-.6-.8-1-1-.4-.2-.9-.3-1.4-.3s-1.1.1-1.6.4c-.5.3-.8.6-1.1,1.1-.3.5-.4,1.1-.4,1.7s.1,1.2.4,1.7c.3.5.6.9,1.1,1.1.5.3,1,.4,1.6.4s1.4-.2,1.9-.7c.5-.4.8-1,.9-1.8h-3.4v-1.2h4.9v1.1c0,.7-.3,1.3-.7,1.9s-.9,1-1.6,1.4-1.3.5-2.1.5-1.6-.2-2.3-.6c-.7-.4-1.2-.9-1.7-1.6-.4-.7-.6-1.5-.6-2.4s.2-1.7.6-2.4c.4-.7,1-1.2,1.7-1.6s1.5-.6,2.3-.6,1.8.2,2.5.7c.7.5,1.3,1.1,1.6,2h-1.8Z"/>
  </g>
</svg>